<svg xmlns="http://www.w3.org/2000/svg" xmlns:xlink="http://www.w3.org/1999/xlink" viewBox="0 0 306.91 180.6"><defs><style>.cls-1,.cls-2,.cls-7,.cls-8{fill:none;}.cls-2{stroke:#231815;stroke-width:0.3px;}.cls-3{opacity:0.6;}.cls-4,.cls-5,.cls-6,.cls-7,.cls-8{font-size:147.96px;font-family:FZCHSJW--GB1-0, FZCuHeiSongS-B-GB;}.cls-5{fill:#ffce1e;}.cls-6{fill:url(#网格_1_派卡线);}.cls-7{stroke:#000;stroke-width:2px;}.cls-8{stroke:#fff;}</style><pattern id="网格_1_派卡线" data-name="网格 1 派卡线" width="72" height="72" patternUnits="userSpaceOnUse" viewBox="0 0 72 72"><rect class="cls-1" width="72" height="72"/><line class="cls-2" x1="6" y1="71.75" x2="6" y2="144.25"/><line class="cls-2" x1="30" y1="71.75" x2="30" y2="144.25"/><line class="cls-2" x1="54" y1="71.75" x2="54" y2="144.25"/><line class="cls-2" x1="18" y1="71.75" x2="18" y2="144.25"/><line class="cls-2" x1="42" y1="71.75" x2="42" y2="144.25"/><line class="cls-2" x1="66" y1="71.75" x2="66" y2="144.25"/><line class="cls-2" x1="71.75" y1="66" x2="144.25" y2="66"/><line class="cls-2" x1="71.75" y1="42" x2="144.25" y2="42"/><line class="cls-2" x1="71.75" y1="18" x2="144.25" y2="18"/><line class="cls-2" x1="71.75" y1="54" x2="144.25" y2="54"/><line class="cls-2" x1="71.75" y1="30" x2="144.25" y2="30"/><line class="cls-2" x1="71.75" y1="6" x2="144.25" y2="6"/><line class="cls-2" x1="6" y1="-0.25" x2="6" y2="72.25"/><line class="cls-2" x1="30" y1="-0.25" x2="30" y2="72.25"/><line class="cls-2" x1="54" y1="-0.25" x2="54" y2="72.25"/><line class="cls-2" x1="-0.25" y1="66" x2="72.25" y2="66"/><line class="cls-2" x1="-0.25" y1="42" x2="72.25" y2="42"/><line class="cls-2" x1="-0.25" y1="18" x2="72.25" y2="18"/><line class="cls-2" x1="-0.25" y1="54" x2="72.25" y2="54"/><line class="cls-2" x1="-0.25" y1="30" x2="72.25" y2="30"/><line class="cls-2" x1="-0.25" y1="6" x2="72.25" y2="6"/><line class="cls-2" x1="18" y1="-0.25" x2="18" y2="72.25"/><line class="cls-2" x1="42" y1="-0.25" x2="42" y2="72.25"/><line class="cls-2" x1="66" y1="-0.25" x2="66" y2="72.25"/><line class="cls-2" x1="-72.25" y1="66" x2="0.25" y2="66"/><line class="cls-2" x1="-72.25" y1="42" x2="0.25" y2="42"/><line class="cls-2" x1="-72.25" y1="18" x2="0.25" y2="18"/><line class="cls-2" x1="-72.25" y1="54" x2="0.25" y2="54"/><line class="cls-2" x1="-72.25" y1="30" x2="0.25" y2="30"/><line class="cls-2" x1="-72.25" y1="6" x2="0.25" y2="6"/><line class="cls-2" x1="6" y1="-72.25" x2="6" y2="0.25"/><line class="cls-2" x1="30" y1="-72.25" x2="30" y2="0.25"/><line class="cls-2" x1="54" y1="-72.25" x2="54" y2="0.25"/><line class="cls-2" x1="18" y1="-72.25" x2="18" y2="0.25"/><line class="cls-2" x1="42" y1="-72.25" x2="42" y2="0.25"/><line class="cls-2" x1="66" y1="-72.25" x2="66" y2="0.25"/></pattern></defs><g id="图层_2" data-name="图层 2"><g id="图层_1-2" data-name="图层 1"><g class="cls-3"><text class="cls-4" transform="translate(11 137.25)">单击</text><text class="cls-4" transform="translate(10.9 137.15)">单击</text><text class="cls-4" transform="translate(10.8 137.05)">单击</text><text class="cls-4" transform="translate(10.7 136.95)">单击</text><text class="cls-4" transform="translate(10.6 136.85)">单击</text><text class="cls-4" transform="translate(10.5 136.75)">单击</text><text class="cls-4" transform="translate(10.4 136.65)">单击</text><text class="cls-4" transform="translate(10.3 136.55)">单击</text><text class="cls-4" transform="translate(10.2 136.45)">单击</text><text class="cls-4" transform="translate(10.1 136.35)">单击</text><text class="cls-4" transform="translate(10 136.25)">单击</text><text class="cls-4" transform="translate(9.9 136.15)">单击</text><text class="cls-4" transform="translate(9.8 136.05)">单击</text><text class="cls-4" transform="translate(9.7 135.95)">单击</text><text class="cls-4" transform="translate(9.6 135.85)">单击</text><text class="cls-4" transform="translate(9.5 135.75)">单击</text><text class="cls-4" transform="translate(9.4 135.65)">单击</text><text class="cls-4" transform="translate(9.3 135.55)">单击</text><text class="cls-4" transform="translate(9.2 135.45)">单击</text><text class="cls-4" transform="translate(9.1 135.35)">单击</text><text class="cls-4" transform="translate(9 135.25)">单击</text><text class="cls-4" transform="translate(8.9 135.15)">单击</text><text class="cls-4" transform="translate(8.8 135.05)">单击</text><text class="cls-4" transform="translate(8.7 134.95)">单击</text><text class="cls-4" transform="translate(8.6 134.85)">单击</text><text class="cls-4" transform="translate(8.5 134.75)">单击</text><text class="cls-4" transform="translate(8.4 134.65)">单击</text><text class="cls-4" transform="translate(8.3 134.55)">单击</text><text class="cls-4" transform="translate(8.2 134.45)">单击</text><text class="cls-4" transform="translate(8.1 134.35)">单击</text><text class="cls-4" transform="translate(8 134.25)">单击</text><text class="cls-4" transform="translate(7.9 134.15)">单击</text><text class="cls-4" transform="translate(7.8 134.05)">单击</text><text class="cls-4" transform="translate(7.7 133.95)">单击</text><text class="cls-4" transform="translate(7.6 133.85)">单击</text><text class="cls-4" transform="translate(7.5 133.75)">单击</text><text class="cls-4" transform="translate(7.4 133.65)">单击</text><text class="cls-4" transform="translate(7.3 133.55)">单击</text><text class="cls-4" transform="translate(7.2 133.45)">单击</text><text class="cls-4" transform="translate(7.1 133.35)">单击</text><text class="cls-4" transform="translate(7 133.25)">单击</text><text class="cls-4" transform="translate(6.9 133.15)">单击</text><text class="cls-4" transform="translate(6.8 133.05)">单击</text><text class="cls-4" transform="translate(6.7 132.95)">单击</text><text class="cls-4" transform="translate(6.6 132.85)">单击</text><text class="cls-4" transform="translate(6.5 132.75)">单击</text><text class="cls-4" transform="translate(6.4 132.65)">单击</text><text class="cls-4" transform="translate(6.3 132.55)">单击</text><text class="cls-4" transform="translate(6.2 132.45)">单击</text><text class="cls-4" transform="translate(6.1 132.35)">单击</text><text class="cls-4" transform="translate(6 132.25)">单击</text><text class="cls-4" transform="translate(5.9 132.15)">单击</text><text class="cls-4" transform="translate(5.8 132.05)">单击</text><text class="cls-4" transform="translate(5.7 131.95)">单击</text><text class="cls-4" transform="translate(5.6 131.85)">单击</text><text class="cls-4" transform="translate(5.5 131.75)">单击</text><text class="cls-4" transform="translate(5.4 131.65)">单击</text><text class="cls-4" transform="translate(5.3 131.55)">单击</text><text class="cls-4" transform="translate(5.2 131.45)">单击</text><text class="cls-4" transform="translate(5.1 131.35)">单击</text><text class="cls-4" transform="translate(5 131.25)">单击</text><text class="cls-4" transform="translate(4.9 131.15)">单击</text><text class="cls-4" transform="translate(4.8 131.05)">单击</text><text class="cls-4" transform="translate(4.7 130.95)">单击</text><text class="cls-4" transform="translate(4.6 130.85)">单击</text><text class="cls-4" transform="translate(4.5 130.75)">单击</text><text class="cls-4" transform="translate(4.4 130.65)">单击</text><text class="cls-4" transform="translate(4.3 130.55)">单击</text><text class="cls-4" transform="translate(4.2 130.45)">单击</text><text class="cls-4" transform="translate(4.1 130.35)">单击</text><text class="cls-4" transform="translate(4 130.25)">单击</text><text class="cls-4" transform="translate(3.9 130.15)">单击</text><text class="cls-4" transform="translate(3.8 130.05)">单击</text><text class="cls-4" transform="translate(3.7 129.95)">单击</text><text class="cls-4" transform="translate(3.6 129.85)">单击</text><text class="cls-4" transform="translate(3.5 129.75)">单击</text><text class="cls-4" transform="translate(3.4 129.65)">单击</text><text class="cls-4" transform="translate(3.3 129.55)">单击</text><text class="cls-4" transform="translate(3.2 129.45)">单击</text><text class="cls-4" transform="translate(3.1 129.35)">单击</text><text class="cls-4" transform="translate(3 129.25)">单击</text><text class="cls-4" transform="translate(2.9 129.15)">单击</text><text class="cls-4" transform="translate(2.8 129.05)">单击</text><text class="cls-4" transform="translate(2.7 128.95)">单击</text><text class="cls-4" transform="translate(2.6 128.85)">单击</text><text class="cls-4" transform="translate(2.5 128.75)">单击</text><text class="cls-4" transform="translate(2.4 128.65)">单击</text><text class="cls-4" transform="translate(2.3 128.55)">单击</text><text class="cls-4" transform="translate(2.2 128.45)">单击</text><text class="cls-4" transform="translate(2.1 128.35)">单击</text><text class="cls-4" transform="translate(2 128.25)">单击</text><text class="cls-4" transform="translate(1.9 128.15)">单击</text><text class="cls-4" transform="translate(1.8 128.05)">单击</text><text class="cls-4" transform="translate(1.7 127.95)">单击</text><text class="cls-4" transform="translate(1.6 127.85)">单击</text><text class="cls-4" transform="translate(1.5 127.75)">单击</text><text class="cls-4" transform="translate(1.4 127.65)">单击</text><text class="cls-4" transform="translate(1.3 127.55)">单击</text><text class="cls-4" transform="translate(1.2 127.45)">单击</text><text class="cls-4" transform="translate(1.1 127.35)">单击</text><text class="cls-4" transform="translate(1 127.25)">单击</text></g><text class="cls-5" transform="translate(1 127.25)">单击</text><text class="cls-6" transform="translate(1 127.25)">单击</text><text class="cls-7" transform="translate(5 131.25)">单击</text><text class="cls-7" transform="translate(4.9 131.15)">单击</text><text class="cls-7" transform="translate(4.8 131.05)">单击</text><text class="cls-7" transform="translate(4.7 130.95)">单击</text><text class="cls-7" transform="translate(4.6 130.85)">单击</text><text class="cls-7" transform="translate(4.5 130.75)">单击</text><text class="cls-7" transform="translate(4.4 130.65)">单击</text><text class="cls-7" transform="translate(4.3 130.55)">单击</text><text class="cls-7" transform="translate(4.2 130.45)">单击</text><text class="cls-7" transform="translate(4.1 130.35)">单击</text><text class="cls-7" transform="translate(4 130.25)">单击</text><text class="cls-7" transform="translate(3.9 130.15)">单击</text><text class="cls-7" transform="translate(3.8 130.05)">单击</text><text class="cls-7" transform="translate(3.7 129.95)">单击</text><text class="cls-7" transform="translate(3.6 129.85)">单击</text><text class="cls-7" transform="translate(3.5 129.75)">单击</text><text class="cls-7" transform="translate(3.4 129.65)">单击</text><text class="cls-7" transform="translate(3.3 129.55)">单击</text><text class="cls-7" transform="translate(3.2 129.45)">单击</text><text class="cls-7" transform="translate(3.1 129.35)">单击</text><text class="cls-7" transform="translate(3 129.25)">单击</text><text class="cls-7" transform="translate(2.9 129.15)">单击</text><text class="cls-7" transform="translate(2.8 129.05)">单击</text><text class="cls-7" transform="translate(2.7 128.95)">单击</text><text class="cls-7" transform="translate(2.6 128.85)">单击</text><text class="cls-7" transform="translate(2.5 128.75)">单击</text><text class="cls-7" transform="translate(2.4 128.65)">单击</text><text class="cls-7" transform="translate(2.3 128.55)">单击</text><text class="cls-7" transform="translate(2.2 128.45)">单击</text><text class="cls-7" transform="translate(2.1 128.35)">单击</text><text class="cls-7" transform="translate(2 128.25)">单击</text><text class="cls-7" transform="translate(1.9 128.15)">单击</text><text class="cls-7" transform="translate(1.8 128.05)">单击</text><text class="cls-7" transform="translate(1.7 127.95)">单击</text><text class="cls-7" transform="translate(1.6 127.85)">单击</text><text class="cls-7" transform="translate(1.5 127.75)">单击</text><text class="cls-7" transform="translate(1.4 127.65)">单击</text><text class="cls-7" transform="translate(1.3 127.55)">单击</text><text class="cls-7" transform="translate(1.2 127.45)">单击</text><text class="cls-7" transform="translate(1.1 127.35)">单击</text><text class="cls-7" transform="translate(1 127.25)">单击</text><text class="cls-8" transform="translate(1 127.25)">单击</text></g></g></svg>