<?xml version="1.0" encoding="utf-8"?>
<svg version="1.1" xmlns:xlink="http://www.w3.org/1999/xlink" width="141px" height="142px" xmlns="http://www.w3.org/2000/svg">
  <g transform="matrix(1 0 0 1 -928 -526 )">
    <path d="M 1.674354137011767 1.922014595906246  L 2.121373255468329 1.9186169926530234  C 2.5615697712277905 2.368179646968899  2.9966883939053797 2.820601520677796  3.426729032149141 3.2758163692575613  C 5.782143274582791 5.769114542403848  4.064628657803427 3.3985118929256273  10.17204976927582 10.420131678134702  C 42.49980325592773 47.58691440854777  44.18441866472899 104.82665775053951  1.5160069262512317 140.68957636820065  C 47.65959085059054 101.90576587277762  97.0212575731134 97.13957547312167  140.40026154399214 140.20740096386652  L 140.4032087068529 142.06069038455013  L 1.348237347022574 141.1101325803609  L 1.3488346390630537 140.85713384187565  C 1.0887466507391088 141.1184093868859  0.8304055167291355 141.38068181181532  0.5493856553961277 141.6438136478258  C 0.816889043567978 141.38313922466176  1.0833772939438204 141.12066129352266  1.348837442969981 140.85637881754494  L 1.674354137011767 1.922014595906246  Z M 140.1809129436537 2.011116073129294  C 138.6735358636419 3.490226830111781  137.13362147001538 4.911787678316392  135.56369105879452 6.275801788401374  C 135.25710376635104 6.5421762658156375  145.4789653077542 -1.0185539321347694  136.83678077446703 6.513250961783367  C 96.47192060741394 41.69188550466359  39.24246639928553 38.25621471124365  2.13241149724856 1.9185290046042291  L 140.17909895815725 0.8680615853302821  L 140.1809129436537 2.011116073129294  Z M 140.1809346091305 2.0245790541243243  L 140.40024244387416 140.19560773168305  C 105.02728415221938 104.18443458361017  101.49925477436413 54.603722472435436  132.2951107339627 11.0551462500207  C 137.7878965237338 3.287769985075849  137.3399604583726 4.920657798866317  140.1809346091305 2.0245790541243243  Z " fill-rule="nonzero" fill="#c280ff" stroke="none" transform="matrix(1 0 0 1 928 526 )" />
  </g>
</svg>