<?xml version="1.0" encoding="utf-8"?>
<svg version="1.1" xmlns:xlink="http://www.w3.org/1999/xlink" width="30px" height="26px" xmlns="http://www.w3.org/2000/svg">
  <g transform="matrix(1 0 0 1 -177 106 )">
    <path d="M 192 -105.12232289950576  C 199.90850082372322 -105.12232289950576  206.12232289950575 -99.78850082372323  206.12232289950575 -93  C 206.12232289950575 -86.21149917627676  199.90850082372322 -80.87767710049422  192 -80.87767710049422  C 184.09149917627676 -80.87767710049422  177.87767710049422 -86.21149917627676  177.87767710049422 -93  C 177.87767710049422 -99.78850082372323  184.09149917627676 -105.12232289950576  192 -105.12232289950576  Z " fill-rule="nonzero" fill="#fdff54" stroke="none" />
    <path d="M 192 -105.06116144975289  C 199.87425041186162 -105.06116144975289  206.0611614497529 -99.75425041186162  206.0611614497529 -93  C 206.0611614497529 -86.2457495881384  199.87425041186162 -80.93883855024713  192 -80.93883855024713  C 184.12574958813838 -80.93883855024713  177.9388385502471 -86.2457495881384  177.9388385502471 -93  C 177.9388385502471 -99.75425041186162  184.12574958813838 -105.06116144975289  192 -105.06116144975289  Z " stroke-width="1.8776771004942339" stroke="#fdff00" fill="none" />
  </g>
</svg>