<?xml version="1.0" encoding="utf-8"?>
<svg version="1.1" xmlns:xlink="http://www.w3.org/1999/xlink" width="30px" height="26px" xmlns="http://www.w3.org/2000/svg">
  <g transform="matrix(1 0 0 1 -207 106 )">
    <path d="M 222 -105.1123352553542  C 229.90290774299837 -105.1123352553542  236.1123352553542 -99.78290774299835  236.1123352553542 -93  C 236.1123352553542 -86.21709225700164  229.90290774299837 -80.88766474464579  222 -80.88766474464579  C 214.09709225700166 -80.88766474464579  207.8876647446458 -86.21709225700164  207.8876647446458 -93  C 207.8876647446458 -99.78290774299835  214.09709225700166 -105.1123352553542  222 -105.1123352553542  Z " fill-rule="nonzero" fill="#fdff54" stroke="none" />
    <path d="M 222 -105.0561676276771  C 229.87145387149917 -105.0561676276771  236.0561676276771 -99.75145387149918  236.0561676276771 -93  C 236.0561676276771 -86.24854612850082  229.87145387149917 -80.9438323723229  222 -80.9438323723229  C 214.12854612850083 -80.9438323723229  207.9438323723229 -86.24854612850082  207.9438323723229 -93  C 207.9438323723229 -99.75145387149918  214.12854612850083 -105.0561676276771  222 -105.0561676276771  Z " stroke-width="1.8876647446457988" stroke="#fdff00" fill="none" />
  </g>
</svg>