<?xml version="1.0" encoding="utf-8"?>
<svg version="1.1" xmlns:xlink="http://www.w3.org/1999/xlink" width="284px" height="158px" xmlns="http://www.w3.org/2000/svg">
  <g transform="matrix(1 0 0 1 -66 300 )">
    <path d="M 282.5944360858017 99.35626407508728  C 282.6111576312074 91.42468835976216  280.9644943479521 83.5778115417137  277.76082397538914 76.32255754726962  C 274.7179453685697 66.90321668331424  270.1358253399398 58.05341053709901  264.20066065965096 50.132755467557395  C 263.0863249335978 48.68500521439476  261.9430454224523 47.237254961232104  260.77082212621457 45.78950470806947  C 244.33075219379353 21.90162553088585  193.92515045556937 0.18537173344619107  141.18957401741588 0.18537173344619107  C 87.86064998487038 0.18537173344619107  37.94709259321521 22.393860616961145  22.404279998655145 46.614722352372176  C 21.43948716224546 47.75361921819346  20.51328603929216 48.92629692325521  19.625676629795247 50.132755467557395  C 13.306716014245374 58.55079810303988  8.52496026708219 68.01999208135788  5.501109504757421 78.10329035865966  C 2.801207841253257 84.86231124587931  1.4255277932430377 92.07760111340022  1.4489795918367345 99.35626407508728  C 1.4489795918367345 131.74243723833564  27.3391953568907 157.99014932817434  68.1933480146589 157.99014932817434  C 99.7131299801634 157.99014932817434  128.33853343643884 142.35444659401782  139.78580044043977 120.34864274594563  L 141.2329896950543 120.34864274594563  L 144.25761523719865 120.34864274594563  C 155.69041034865347 142.38340159908103  184.3158138049289 157.99014932817434  215.85006766297957 157.99014932817434  C 256.70422032074777 157.99014932817434  282.5944360858017 131.74243723833564  282.5944360858017 99.35626407508728  Z " fill-rule="nonzero" fill="#ff6ebb" stroke="none" transform="matrix(1 0 0 1 66 -300 )" />
  </g>
</svg>