<?xml version="1.0" encoding="utf-8"?>
<svg version="1.1" xmlns:xlink="http://www.w3.org/1999/xlink" width="63px" height="70px" xmlns="http://www.w3.org/2000/svg">
  <g transform="matrix(1 0 0 1 -168 -5 )">
    <path d="M 0 63.45528452505716  L 0 6.544715474942834  C 0.035958932202482675 3.108739865186736  2.8551370424871587 0.32012195121951065  6.328767095194776 1  L 56.67123290480522 1  C 60.14486304179152 0.32012195121951065  62.964041152076184 3.108739865186736  63 6.544715474942834  L 63 63.45528452505716  C 62.96404106779752 66.89303256954899  60.14665490046955 69.67987800273923  56.67123290480522 69  L 6.328767095194779 69  C 2.853345099530457 69.67987800273923  0.035958932202482675 66.893032569549  0 63.45528452505716  Z M 56.67123290480522 6  L 6.328767095194782 6  C 5.83227825358353 5.655487850919314  5.4297945486408405 6.053608626194576  6 6.544715474942834  L 6 63.45528452505716  C 5.4297945486408405 63.94613818359375  5.832534302761133 64.34451219512194  6.328767095194779 64  L 56.67123290480522 64  C 57.16772174641648 64.34451214908069  57.57020545135917 63.94639137380542  57 63.45528452505716  L 57 6.544715474942834  C 57.57020545135917 6.053608626194573  57.16772174641646 5.655487850919313  56.67123290480522 6  Z " fill-rule="nonzero" fill="#585c64" stroke="none" transform="matrix(1 0 0 1 168 5 )" />
  </g>
</svg>