<?xml version="1.0" encoding="utf-8"?>
<svg version="1.1" xmlns:xlink="http://www.w3.org/1999/xlink" width="29px" height="29px" xmlns="http://www.w3.org/2000/svg">
  <g transform="matrix(1 0 0 1 -184 -25 )">
    <path d="M 10.135784285960474 14.5  L 5.615196050666359 14.5  C 5.615517936552565 19.406714099190058  9.593285871134016 23.384221096343023  14.499999980882105 23.384221096343023  C 16.65818999851335 23.384221096343023  18.742596672398882 22.598670117711603  20.363970588235293 21.174264705882354  L 24.13823529411764 24.9485294117647  C 21.512852547757568 27.36961607332583  18.072371711012625 28.713832264578485  14.501056100810358 28.713832264578485  C 6.649949347685481 28.713832264578485  0.28536979853554667 22.349252715428545  0.28536979853554667 14.498145962303667  C 0.28536979853554667 11.796016049931179  1.0554989006110653 9.14985327358603  2.505514705882353 6.869730419921878  L 10.135784285960474 14.5  Z M 18.69007352941176 14.5  L 23.384803949333634 14.5  C 23.38361498756038 9.593899263545147  19.406101141427417 5.617349225359642  14.500000260903974 5.617349225359642  C 12.305761196849549 5.617349225359642  10.18913334328184 6.429306544980299  8.557843109489886 7.896813697725181  L 4.783578403607534 4.1225489918428355  C 7.418546625995746 1.65161742744824  10.895350785013358 0.27646054791529195  14.507629889528577 0.27646054791529195  C 22.358736642653454 0.27646054791529195  28.723316191803395 6.641040097065226  28.723316191803395 14.492146850190109  C 28.723316191803395 17.235557541740917  27.92949592005319 19.920364930356765  26.43762252125459 22.22267159639246  L 18.69007352941176 14.5  Z " fill-rule="nonzero" fill="#f2f2f2" stroke="none" transform="matrix(1 0 0 1 184 25 )" />
  </g>
</svg>