<svg xmlns="http://www.w3.org/2000/svg" viewBox="0 0 195.24 207.5"><defs><style>.cls-1,.cls-3{fill:#fff;}.cls-2,.cls-3,.cls-4{stroke:#000;stroke-miterlimit:10;}.cls-4{fill:none;stroke-width:2px;}</style></defs><g id="图层_2" data-name="图层 2"><g id="图层_1-2" data-name="图层 1"><path class="cls-1" d="M97.06,207c-19.67,0-38.49-9.81-53-27.63a99.59,99.59,0,0,1-22-61.87C22.06,72,55.7,35,97.06,35s75,37,75,82.5a99.59,99.59,0,0,1-22,61.87C135.54,197.19,116.72,207,97.06,207Z"/><path d="M97.06,35.5c41.08,0,74.5,36.79,74.5,82a99.1,99.1,0,0,1-21.89,61.56c-14.42,17.69-33.1,27.44-52.61,27.44s-38.2-9.75-52.61-27.44A99,99,0,0,1,22.56,117.5c0-45.21,33.42-82,74.5-82m0-1c-41.7,0-75.5,37.16-75.5,83s33.8,90,75.5,90,75.5-44.16,75.5-90-33.81-83-75.5-83Z"/><path class="cls-1" d="M75.52,152a1.5,1.5,0,0,1-1.39-2.06L97.46,92.33l23.32,57.61a1.5,1.5,0,0,1-1.39,2.06Z"/><path d="M97.46,93.66l22.86,56.46a1,1,0,0,1-.1.94,1,1,0,0,1-.83.44H75.52a1,1,0,0,1-.83-.44,1,1,0,0,1-.09-.94L97.46,93.66m0-2.66L73.67,149.75a2,2,0,0,0,1.85,2.75h43.87a2,2,0,0,0,1.85-2.75L97.46,91Z"/><path class="cls-1" d="M96.56,188.18c-23.27,0-42-7.06-42-12.92,0-5.21,16.09-8.44,42-8.44s42,3.23,42,8.44C138.56,181.12,119.82,188.18,96.56,188.18Z"/><path d="M96.56,167.32c28.66,0,41.5,4,41.5,7.94,0,5-17.43,12.42-41.5,12.42s-41.5-7.42-41.5-12.42c0-3.95,12.83-7.94,41.5-7.94m0-1c-23.48,0-42.5,2.77-42.5,8.94s19,13.42,42.5,13.42,42.5-7.24,42.5-13.42-19-8.94-42.5-8.94Z"/><path class="cls-1" d="M97.67,180.47c-18.22,0-30.35-2.82-30.81-4.06.68-1.15,11.06-1.77,30.81-1.77s30.13.62,30.83,1.84C128,177.65,115.9,180.47,97.67,180.47Z"/><path d="M97.67,175.14c17.16,0,27.19.47,29.86,1.38-2.77,1.38-14.45,3.45-29.86,3.45s-27.08-2.07-29.85-3.45c2.67-.91,12.7-1.38,29.85-1.38m0-1c-17.29,0-31.31.41-31.31,2.3s14,4.53,31.31,4.53S129,178.32,129,176.44s-14-2.3-31.32-2.3Z"/><ellipse class="cls-1" cx="87.56" cy="143.5" rx="9.5" ry="8.5"/><path d="M87.56,135.5c5,0,9,3.59,9,8s-4,8-9,8-9-3.59-9-8,4-8,9-8m0-1c-5.53,0-10,4-10,9s4.47,9,10,9,10-4,10-9-4.48-9-10-9Z"/><ellipse class="cls-1" cx="107.56" cy="143.5" rx="9.5" ry="8.5"/><path d="M107.56,135.5c5,0,9,3.59,9,8s-4,8-9,8-9-3.59-9-8,4-8,9-8m0-1c-5.53,0-10,4-10,9s4.47,9,10,9,10-4,10-9-4.48-9-10-9Z"/><path class="cls-2" d="M191.43,53.09A61.89,61.89,0,0,0,182.06,35c-.77-1-1.56-2-2.37-3C168.33,15.52,133.51.5,97.06.5,60.21.5,25.72,15.84,15,32.57Q14,33.75,13.06,35A61.7,61.7,0,0,0,3.3,54.32,39.22,39.22,0,0,0,.5,69c0,22.37,17.89,40.5,46.12,40.5,21.78,0,41.56-10.8,49.47-26h1l2.09,0c7.9,15.22,27.68,26,49.47,26,28.23,0,46.12-18.13,46.12-40.5A39.17,39.17,0,0,0,191.43,53.09Z"/><rect class="cls-3" x="23.06" y="78" width="64" height="48" rx="13.75"/><rect class="cls-3" x="108.06" y="78" width="63" height="48" rx="13.64"/><line class="cls-4" x1="87.06" y1="104" x2="108.06" y2="104"/></g></g></svg>