<svg xmlns="http://www.w3.org/2000/svg" xmlns:xlink="http://www.w3.org/1999/xlink" viewBox="0 0 743.92 572.86"><defs><style>.cls-1,.cls-10,.cls-11,.cls-12,.cls-13,.cls-16,.cls-17{fill:none;}.cls-2{fill:#f7f8f8;}.cls-3,.cls-5,.cls-6,.cls-8{fill:#231815;}.cls-4{fill:#fff;}.cls-10,.cls-11,.cls-12,.cls-13,.cls-16,.cls-17,.cls-5,.cls-8{stroke:#231815;stroke-miterlimit:10;}.cls-5{stroke-width:0.1px;}.cls-6{font-size:31.3px;font-family:Gabriola;}.cls-7{letter-spacing:-0.02em;}.cls-11,.cls-8{stroke-width:1px;}.cls-9{fill:#100b11;}.cls-10{stroke-width:2.31px;}.cls-12{stroke-width:0.86px;}.cls-13{stroke-width:1.16px;}.cls-14{fill:#32292a;}.cls-15{clip-path:url(#clip-path);}.cls-16{stroke-width:3.68px;}.cls-17{stroke-width:3.34px;}</style><clipPath id="clip-path" transform="translate(142.46)"><rect class="cls-1" x="0.02" width="203.99" height="436.15"/></clipPath></defs><g id="图层_2" data-name="图层 2"><g id="图层_1-2" data-name="图层 1"><polygon class="cls-2" points="743.92 0 142.46 550.58 743.88 550.62 743.92 0"/><path class="cls-3" d="M278.17,56.78" transform="translate(142.46)"/><path class="cls-4" d="M278.17,57.51a.73.73,0,0,0,0-1.45.73.73,0,0,0,0,1.45Z" transform="translate(142.46)"/><path class="cls-3" d="M265.6,112.69l-2.9,2.44a7,7,0,0,1-2.05,1.35,7.4,7.4,0,0,1-3,.25" transform="translate(142.46)"/><path class="cls-3" d="M265.06,112.15c-1.16,1-2.29,2-3.49,2.93a4.27,4.27,0,0,1-1.8.85,8.6,8.6,0,0,1-2.09,0c-1,0-1,1.48,0,1.53a11.51,11.51,0,0,0,2.42-.07,5.24,5.24,0,0,0,2.13-.94c1.36-1,2.62-2.17,3.91-3.25a.76.76,0,0,0,0-1.08.78.78,0,0,0-1.08,0Z" transform="translate(142.46)"/><path class="cls-3" d="M257.7,78.34l5-3.34-2.51-3.35s-2.29-2.72-6.43,0L247,76a2.06,2.06,0,0,0,0,3.56,21.44,21.44,0,0,0,5.45,2.93s2.4,0,3.93-8.58" transform="translate(142.46)"/><path class="cls-3" d="M293.46,82.53l-3.93-5A14.45,14.45,0,0,1,305,75.21c8.94,4,4.36,15.89,0,16.93s-8.73-12.75-8.73-12.75" transform="translate(142.46)"/><path class="cls-3" d="M257.09,89.93a3.77,3.77,0,0,0-2.54,1,.8.8,0,0,0-.22.33.76.76,0,0,0,.12.5l.49,1a1.64,1.64,0,0,0,.35.52,2.27,2.27,0,0,0,1.09.4.63.63,0,0,0,.56-.07c.12-.12.06-.31-.05-.44s-.27-.24-.33-.4,0-.43,0-.65a1.94,1.94,0,0,0-.21-.47,2,2,0,0,1,0-1.85.47.47,0,0,1,.2-.22.63.63,0,0,1,.31-.05H258a4.42,4.42,0,0,1,1.26.1,2.17,2.17,0,0,1,1.34,1.08,2.33,2.33,0,0,1,.13,1.58,1.44,1.44,0,0,1-.2.48,2.78,2.78,0,0,1-1.73.92,4.15,4.15,0,0,1-2.29,0c-.72-.25-1.25-1-.91-1.57" transform="translate(142.46)"/><path class="cls-3" d="M257.09,86.89A6.7,6.7,0,0,0,253.31,88a4.07,4.07,0,0,0-2,3.31,6.34,6.34,0,0,0,.9,2.64,4.64,4.64,0,0,0,1.73,2,5.73,5.73,0,0,0,2.16.67,3.48,3.48,0,0,0,1.63-.09,3.34,3.34,0,0,0,2.23-2.24,3.5,3.5,0,0,0-.31-2.58,5.68,5.68,0,0,0-.81-1l.48.62a.55.55,0,0,1-.09-.14l.31.72,0-.1.1.81a5.35,5.35,0,0,0-.12-1.41A8.07,8.07,0,0,0,258.9,90l.31.72a2.64,2.64,0,0,1-.17-.61l.11.81a2.35,2.35,0,0,1,0-.53l-.11.81a2.29,2.29,0,0,1,.15-.51l-.31.73.13-.23-.48.62.06-.05-.62.47.06,0-.72.31.09,0-.81.11a9,9,0,0,1,1.16,0,7.46,7.46,0,0,1,1.16,0l-.81-.11a3.15,3.15,0,0,1,.62.17l-.73-.31a2.18,2.18,0,0,1,.49.29l-.62-.48a2.46,2.46,0,0,1,.39.4l-.48-.62a2.3,2.3,0,0,1,.23.4l-.3-.73a3.07,3.07,0,0,1,.14.52l-.11-.81a2.36,2.36,0,0,1,0,.65l.11-.81a2.41,2.41,0,0,1-.16.6L258,91a1.61,1.61,0,0,1-.15.26l.48-.62a2.06,2.06,0,0,1-.25.26l.62-.48a2.72,2.72,0,0,1-.57.33l.72-.31a7,7,0,0,1-1.63.42l.81-.11a4.1,4.1,0,0,1-1,0l.81.11a2.67,2.67,0,0,1-.62-.15L258,91a2.46,2.46,0,0,1-.39-.22l.62.47a1.77,1.77,0,0,1-.31-.3l.48.62a1.12,1.12,0,0,1-.16-.28l.3.72-.06-.22.11.81a.81.81,0,0,1,0-.22l-.11.81a.79.79,0,0,1,.06-.22l-.3.73,0-.08a3.18,3.18,0,0,0,.31-2.34,3.09,3.09,0,0,0-1.4-1.82A3,3,0,0,0,253,90.57a3.79,3.79,0,0,0-.51,2.05,4,4,0,0,0,.64,2,4.67,4.67,0,0,0,3,2.06,8.13,8.13,0,0,0,3.33-.11,6.09,6.09,0,0,0,2.29-.91,4.64,4.64,0,0,0,1.48-1.54,5.59,5.59,0,0,0,.62-2.23,5.21,5.21,0,0,0-.15-1.67,4.41,4.41,0,0,0-.65-1.43,5.37,5.37,0,0,0-3-2.19,9.93,9.93,0,0,0-2.72-.2,4.48,4.48,0,0,0-2.41.49,3.93,3.93,0,0,0-1.71,2.37,5.38,5.38,0,0,0-.06,2.46,6.46,6.46,0,0,0,.66,1.67l-.3-.73a.7.7,0,0,1,.06.19l-.11-.81c0,.15,0,.29,0,.44a3.4,3.4,0,0,0,.3,1.39,5.21,5.21,0,0,0,1,1.37l-.47-.61.09.14-.31-.73,0,.08-.11-.81v.08l.11-.81,0,.08.3-.73,0,.07,1.09-1.1-.06,0,.73-.31a.43.43,0,0,1-.16,0l.81-.11h-.26l.81.11a4.08,4.08,0,0,1-.85-.22l.73.3-.25-.13.62.47a1.45,1.45,0,0,1-.22-.21l.48.61a10.62,10.62,0,0,1-.74-1.42l.3.73a1.72,1.72,0,0,1-.07-.21l.11.81a.34.34,0,0,1,0-.2l-.11.81,0-.09-.3.73.05-.09-.48.62a2.85,2.85,0,0,1,.44-.41l-.62.48a4.43,4.43,0,0,1,.7-.41l-.73.31a4.48,4.48,0,0,1,1-.29l-.81.11a4.91,4.91,0,0,1,.53,0,3.21,3.21,0,0,0,2.16-.89,3.08,3.08,0,0,0,.89-2.16,3,3,0,0,0-.89-2.15,3.12,3.12,0,0,0-2.16-.89Z" transform="translate(142.46)"/><path class="cls-3" d="M284.68,91.92l-1.58.63a2,2,0,0,0-.63.35,1.22,1.22,0,0,0-.26,1.12,3.65,3.65,0,0,0,.52,1.09c-.17.09-.37-.06-.51-.19a2.51,2.51,0,0,1-.6-.74.86.86,0,0,1,.11-.9,4.3,4.3,0,0,1,.45-.29,6.25,6.25,0,0,0,.67-.69,2.61,2.61,0,0,1,2.52-.31,4.09,4.09,0,0,1,1.91,1.08,2.26,2.26,0,0,1,.6,2,3.13,3.13,0,0,1-1.17,1.57,2.87,2.87,0,0,1-1.43.72,2.93,2.93,0,0,1-2-.8c-.34-.27-.66-.54-1-.83s-.75-.81-.62-1.29a1,1,0,0,1,1-.66,2.8,2.8,0,0,1,1.2.3,3.5,3.5,0,0,1,1.71,1.16" transform="translate(142.46)"/><path class="cls-3" d="M284.08,89.75l-1.46.59a4,4,0,0,0-2.2,1.57,3.58,3.58,0,0,0-.39,2.62,5.15,5.15,0,0,0,.76,1.71l1.34-3.3L282,93l.6-.08h-.09l.6.08-.09,0,.53.23a.91.91,0,0,1-.16-.11l.45.35a3.63,3.63,0,0,1-.47-.49l.35.46a2.23,2.23,0,0,1-.2-.33l.23.54a1.82,1.82,0,0,1-.07-.25l.08.59a1.13,1.13,0,0,1,0-.26l-.08.6a1,1,0,0,1,0-.17l-.23.54a.6.6,0,0,1,.09-.15l-.36.46a.8.8,0,0,1,.13-.13l-.46.36a7.22,7.22,0,0,0,1.06-.78c.2-.2.36-.44.58-.62l-.45.36a1.87,1.87,0,0,1,.39-.22l-.54.23a2.35,2.35,0,0,1,.52-.14l-.6.08a3.36,3.36,0,0,1,.84,0l-.59-.08a5.71,5.71,0,0,1,1.21.33l-.54-.22a4.38,4.38,0,0,1,1,.54l-.46-.35a3.24,3.24,0,0,1,.49.49l-.35-.46a2.63,2.63,0,0,1,.35.58l-.23-.53a2,2,0,0,1,.16.55l-.08-.6a2.17,2.17,0,0,1,0,.57l.08-.6a2.75,2.75,0,0,1-.13.47l.23-.54a2.62,2.62,0,0,1-.3.51l.35-.46a5.07,5.07,0,0,1-.94.91l.46-.35a3.92,3.92,0,0,1-.79.47l.54-.23a2.62,2.62,0,0,1-.48.13l.59-.08a1.8,1.8,0,0,1-.4,0l.6.08a2.91,2.91,0,0,1-.58-.15l.53.22a5,5,0,0,1-1.06-.64l.46.35a8.5,8.5,0,0,1-1.33-1.21l.36.45a1.73,1.73,0,0,1-.21-.34l.22.53a1.19,1.19,0,0,1-.07-.27l.08.59a.6.6,0,0,1,0-.19l-.08.6a.48.48,0,0,1,.05-.17l-.23.53a1.06,1.06,0,0,1,.12-.2l-.35.45a.63.63,0,0,1,.12-.11l-.46.35a1.38,1.38,0,0,1,.29-.17l-.54.23a1.78,1.78,0,0,1,.33-.09l-.6.08a2,2,0,0,1,.42,0l-.6-.08a5.53,5.53,0,0,1,1,.35l-.54-.23a4.84,4.84,0,0,1,1.09.61l-.45-.35a2.5,2.5,0,0,1,.33.32l-.35-.45.11.15a2.41,2.41,0,0,0,1.34,1,2.25,2.25,0,0,0,2.54-3.3A5.24,5.24,0,0,0,286,92.68a9.09,9.09,0,0,0-1.48-.7,3.87,3.87,0,0,0-3.72.15,3.09,3.09,0,0,0-1.4,2.53,3.69,3.69,0,0,0,1,2.39,7.8,7.8,0,0,0,1,.91,10.82,10.82,0,0,0,1.41,1,5,5,0,0,0,2.09.65,4.27,4.27,0,0,0,2.11-.47,7.41,7.41,0,0,0,2.5-2.22,4.2,4.2,0,0,0,.46-3.66,5.2,5.2,0,0,0-2.41-2.83,6.79,6.79,0,0,0-3.46-.89,4.57,4.57,0,0,0-2.08.58,3.72,3.72,0,0,0-.88.7,5.35,5.35,0,0,1-.45.5l.46-.36a4.59,4.59,0,0,0-1.44,1.3,3.1,3.1,0,0,0-.25,2.44c.52,1.54,2.17,3.06,3.88,2.54a2.27,2.27,0,0,0,1.35-3.3,4.81,4.81,0,0,1-.42-.77l.23.54a2.64,2.64,0,0,1-.12-.4l.08.59a1.77,1.77,0,0,1,0-.46l-.08.59a1.29,1.29,0,0,1,.08-.26l-.23.54a1.16,1.16,0,0,1,.14-.24l-.35.46a.93.93,0,0,1,.14-.14l-.46.35a2.25,2.25,0,0,1,.46-.24l-.54.22,1.68-.67a2.46,2.46,0,0,0,1.34-1,2.27,2.27,0,0,0,.22-1.73,2.21,2.21,0,0,0-1-1.34,2.15,2.15,0,0,0-1.73-.23Z" transform="translate(142.46)"/><path class="cls-3" d="M264.48,105a5.42,5.42,0,0,1,4.16-.45,6.34,6.34,0,0,0,1.78.31c.08,0,.19,0,.21.06a.1.1,0,0,1,0,.1L269,106.91a4.13,4.13,0,0,1-1.45,1.25,1.53,1.53,0,0,1-1.09.1,1.38,1.38,0,0,1-.51-.4,7.21,7.21,0,0,1-1.05-1.4,1.91,1.91,0,0,1-.18-1.56" transform="translate(142.46)"/><path class="cls-3" d="M265.5,106.72a2.86,2.86,0,0,1,.54-.3l-.48.2a4.77,4.77,0,0,1,1.18-.31l-.54.08a6.66,6.66,0,0,1,1.67,0l-.53-.07a12.83,12.83,0,0,1,1.37.29,7.35,7.35,0,0,0,1.14.2c.23,0,.47,0,.7,0l-.54-.07.06,0-.89-.52,0,0-.59-1.42v0l.28-1,0,0,.32-.41-1.32,1.55a9.14,9.14,0,0,1-1.17,1.24l.41-.32a3,3,0,0,1-.69.41l.48-.21a1.82,1.82,0,0,1-.4.11l.54-.07a1.88,1.88,0,0,1-.41,0l.54.07-.2-.05.48.2a1.57,1.57,0,0,1-.25-.14l.41.31a6.71,6.71,0,0,1-.9-1l.31.41a4.36,4.36,0,0,1-.5-.83l.2.48a2.31,2.31,0,0,1-.15-.53l.07.54a2.35,2.35,0,0,1,0-.53l-.07.53c0-.1,0-.2.08-.31a2,2,0,0,0-1.4-2.47,2.05,2.05,0,0,0-2.48,1.4c-.57,1.68.33,3.26,1.38,4.5a3.29,3.29,0,0,0,4.59.94,9.7,9.7,0,0,0,2.53-2.46c.61-.72,1.41-1.42,1.4-2.44a2.08,2.08,0,0,0-1.56-2,8.39,8.39,0,0,0-1.23-.11l.54.07c-.54-.09-1.06-.26-1.59-.36a9.72,9.72,0,0,0-1.87-.19,6.29,6.29,0,0,0-3.46.92,2.15,2.15,0,0,0-.93,1.2,2,2,0,0,0,3,2.28Z" transform="translate(142.46)"/><path class="cls-3" d="M266.52,109.55a17.3,17.3,0,0,1-.32,3.21" transform="translate(142.46)"/><path class="cls-3" d="M265,109.55a16.6,16.6,0,0,1-.15,2.23l.05-.41c0,.33-.09.66-.15,1a1.52,1.52,0,0,0,1.06,1.88,1.5,1.5,0,0,0,1.17-.16,1.46,1.46,0,0,0,.7-.91,19.91,19.91,0,0,0,.37-3.61,1.61,1.61,0,0,0-.44-1.08,1.53,1.53,0,0,0-2.61,1.08Z" transform="translate(142.46)"/><path class="cls-3" d="M257.68,117c.76.34,1.33,1.14,2.17,1.14a2.19,2.19,0,0,0,1.32-.61c.48-.4.92-.83,1.36-1.26,1.06-1,2.12-2.1,3.26-3.07" transform="translate(142.46)"/><path class="cls-3" d="M257.29,117.64c.71.33,1.24,1,2,1.17a2.88,2.88,0,0,0,2.58-.91c1.54-1.32,2.89-2.86,4.44-4.18a.76.76,0,0,0-1.08-1.07c-1.35,1.15-2.58,2.44-3.87,3.65-.4.38-1.09,1.21-1.71,1s-1.05-.74-1.61-1a.77.77,0,0,0-1,.27.76.76,0,0,0,.27,1Z" transform="translate(142.46)"/><path class="cls-3" d="M267.39,112.77c0,.86.78,1.51,1.55,2a16.19,16.19,0,0,0,10.25,1.83,6,6,0,0,1-3.06,1.38,5.81,5.81,0,0,1-1.49-.2c-3.35-.75-6.85-2-8.77-4.75" transform="translate(142.46)"/><path class="cls-3" d="M266.63,112.77a3,3,0,0,0,1.68,2.46,15.26,15.26,0,0,0,3.49,1.52,17.25,17.25,0,0,0,7.59.54l-.58-1.4a4.57,4.57,0,0,1-3.48,1.21,22.45,22.45,0,0,1-3.4-.91,10.87,10.87,0,0,1-5.41-3.59c-.56-.79-1.89,0-1.31.77a12.51,12.51,0,0,0,6.32,4.29,18.78,18.78,0,0,0,4,1,6,6,0,0,0,4.08-1.45.77.77,0,0,0-.59-1.39,15.4,15.4,0,0,1-6.12-.35,14.11,14.11,0,0,1-2.83-1c-.64-.31-1.87-.81-1.88-1.66a.77.77,0,0,0-1.53,0Z" transform="translate(142.46)"/><path class="cls-3" d="M259.39,90.34" transform="translate(142.46)"/><path class="cls-4" d="M259.39,91.1a.76.76,0,0,0,0-1.52.76.76,0,0,0,0,1.52Z" transform="translate(142.46)"/><path class="cls-3" d="M259.8,90.62a.45.45,0,0,1,.25.71.79.79,0,0,1-.85.2.7.7,0,0,1-.35-.21,1,1,0,0,1-.13-.73.27.27,0,0,1,.16-.26,1.06,1.06,0,0,1,1.32.25.77.77,0,0,1-.41,1.15" transform="translate(142.46)"/><path class="cls-4" d="M259.6,91.36l.09,0-.18-.07.07,0-.15-.12a.27.27,0,0,1,.07.08l-.11-.16a.31.31,0,0,1,.05.1l-.08-.18a.5.5,0,0,1,0,.13l0-.21a.33.33,0,0,1,0,.14l0-.2,0,.11.07-.18a.35.35,0,0,1-.05.08l.12-.15-.1.1.16-.12-.14.08.18-.08a.66.66,0,0,1-.2.06l.21,0a1.31,1.31,0,0,1-.28,0l.2,0a1,1,0,0,1-.25-.08l.18.08-.15-.08.16.12a.94.94,0,0,1-.1-.1l.12.15a.41.41,0,0,1-.07-.11l.07.18a1.33,1.33,0,0,1-.05-.19l0,.2a1.7,1.7,0,0,1,0-.45l0,.2s0-.06,0-.09l-.07.19a.05.05,0,0,1,0,0l-.12.15s0,0,.05,0l-.16.12.15-.08-.18.08a1.38,1.38,0,0,1,.27-.08l-.21,0a1.71,1.71,0,0,1,.32,0l-.2,0a1.47,1.47,0,0,1,.28.08l-.18-.08a.76.76,0,0,1,.19.12l-.15-.12.15.14-.12-.15.09.15-.08-.18a1.21,1.21,0,0,1,.05.18l0-.2a.74.74,0,0,1,0,.21l0-.2a.83.83,0,0,1-.06.21l.08-.18a1,1,0,0,1-.1.17l.12-.16a.86.86,0,0,1-.13.14l.15-.12-.13.08.18-.08-.1,0a.81.81,0,0,0-.46.35.87.87,0,0,0-.08.59.82.82,0,0,0,.36.46.78.78,0,0,0,.58.07,1.4,1.4,0,0,0,.88-.68,1.49,1.49,0,0,0,.17-.44,1.68,1.68,0,0,0,0-.67.74.74,0,0,0,0-.14,2.12,2.12,0,0,0-.14-.31,1.79,1.79,0,0,0-.47-.48,1.59,1.59,0,0,0-.46-.21,1.47,1.47,0,0,0-.51-.08,1.51,1.51,0,0,0-.52.06,1.64,1.64,0,0,0-.63.32,1,1,0,0,0-.27.45,1.58,1.58,0,0,0-.05.38,1.84,1.84,0,0,0,0,.57,1.31,1.31,0,0,0,.33.64,1.49,1.49,0,0,0,.65.39,1.64,1.64,0,0,0,.54.07,1.67,1.67,0,0,0,.69-.17,1.54,1.54,0,0,0,.31-.21,1.13,1.13,0,0,0,.22-.27,1.22,1.22,0,0,0,.17-.67,1.35,1.35,0,0,0-.06-.34,1.22,1.22,0,0,0-.26-.44,1,1,0,0,0-.58-.34.61.61,0,0,0-.3,0,.75.75,0,0,0-.29.09.84.84,0,0,0-.35.46.81.81,0,0,0,.08.59.77.77,0,0,0,.46.35Z" transform="translate(142.46)"/><path class="cls-3" d="M284.57,93.66a1,1,0,0,0-.61,1.28,1,1,0,0,0,1.35.41.79.79,0,0,0-.06-1.31" transform="translate(142.46)"/><path class="cls-4" d="M284.36,92.93a1.78,1.78,0,0,0-.75.49,2,2,0,0,0-.42.76,1.6,1.6,0,0,0,.45,1.59,1.8,1.8,0,0,0,1.6.43,1.5,1.5,0,0,0,1.11-1.13,1.65,1.65,0,0,0-.05-.88,1.49,1.49,0,0,0-.66-.8.76.76,0,0,0-1.12.86.75.75,0,0,0,.35.45l.1.07-.16-.12a.34.34,0,0,1,.12.12l-.11-.16a1.09,1.09,0,0,1,.08.15l-.08-.18a.79.79,0,0,1,.06.22l0-.2a.89.89,0,0,1,0,.23l0-.2a1.17,1.17,0,0,1-.05.2l.07-.18a.7.7,0,0,1-.09.17l.12-.16a.8.8,0,0,1-.13.13l.16-.12-.16.09.18-.08a.9.9,0,0,1-.22.06l.2,0h-.25l.2,0a1.11,1.11,0,0,1-.26-.07l.18.07a.94.94,0,0,1-.22-.12l.15.12a1.21,1.21,0,0,1-.16-.16l.12.15a.52.52,0,0,1-.1-.18l.07.19a1.6,1.6,0,0,1-.05-.21l0,.2a1.93,1.93,0,0,1,0-.24l0,.2a1.17,1.17,0,0,1,.07-.25l-.08.18a1.2,1.2,0,0,1,.15-.24l-.12.15a1.7,1.7,0,0,1,.19-.19l-.15.12a.72.72,0,0,1,.21-.12l-.18.07h0a.83.83,0,0,0,.45-.35.77.77,0,0,0-.27-1,.72.72,0,0,0-.59-.07Z" transform="translate(142.46)"/><path class="cls-5" d="M330,102c.77-.92,1.36-.81,1.74.35a37.14,37.14,0,0,1-4.35,14.22c-1.17.69-1.65.23-1.46-1.39A33.82,33.82,0,0,0,330,102Zm13.36-23.94v4.17h11c2.13,0,3.1,1.15,2.9,3.47v6.24c.2,2.54-.87,3.7-3.19,3.47H343.38v3.81q-.87,1.74-1.74,0V95.4H331.47c-1.94.23-2.9-.93-2.9-3.47V85.69c.19-2.32,1.16-3.47,2.9-3.47h10.17V78.05Q342.51,76.67,343.38,78.05Zm-1.74,6.25h-9.59c-1.16,0-1.74.69-1.74,2.08v4.86c0,1.62.58,2.31,1.74,2.08h9.59ZM336.41,101v11.79c0,2.09.78,3,2.33,2.78h8.42c2.32.46,3.39-1.62,3.19-6.25.58-1.15,1.17-1.15,1.75,0q.57,9-4.65,8.33h-9q-3.48.34-3.77-4.16V101Q335.54,99.56,336.41,101Zm4.94,0A85.1,85.1,0,0,1,346.58,111c-.2,1.62-.78,2-1.75,1a87.58,87.58,0,0,0-4.93-9.71C339.9,101,340.38,100.49,341.35,101ZM353.84,84.3H343.38v9h10.17c1.55.23,2.23-.46,2-2.08V86.38C355.78,85,355.19,84.3,353.84,84.3Zm.29,16a93.09,93.09,0,0,1,6.1,14.57q-.3,2.07-1.74.69a140.72,140.72,0,0,0-6.1-13.88Q352.39,99.21,354.13,100.26Z" transform="translate(142.46)"/><path class="cls-5" d="M375.92,79.79a46.25,46.25,0,0,1-12.2,19.42q-1.46,0-1.17-1.38,8.71-9,11.62-18.74C375.14,78.17,375.72,78.4,375.92,79.79ZM380,93q-4.65,10.75-9.29,19.08c-.78,1.15-.49,1.62.87,1.39q8.42-.7,19.75-2.08-2-4.52-5.52-11.45c-.19-1.39.29-1.74,1.45-1a135.89,135.89,0,0,1,8.14,17.69c0,1.15-.49,1.5-1.46,1l-1.74-4.16q-12.49,1.38-21.2,2.08c-2.71.23-3.59-.81-2.62-3.12a169,169,0,0,0,10.17-20.47C379.5,91.24,380,91.58,380,93Zm5.23-14.92a57.52,57.52,0,0,0,12.2,19.78c.39,1.38,0,1.85-1.16,1.38a50.39,50.39,0,0,1-12.78-20.46C383.66,77.36,384.24,77.13,385.21,78.05Z" transform="translate(142.46)"/><path class="cls-5" d="M411.06,80.48c.78-1.15,1.36-1,1.75.35a83.14,83.14,0,0,1-11,36.77q-2,1-1.45-1.39A83.93,83.93,0,0,0,411.06,80.48Zm8.72-1.39c.38-1.15,1-1.27,1.74-.34q3.78,22.55,13.07,37.46c.39,1.62-.1,2.08-1.45,1.39Q423.84,103,419.78,79.09Z" transform="translate(142.46)"/><path class="cls-5" d="M455.21,78.05V88.46h16a1.23,1.23,0,0,1,0,2.08H455.8q5.22,17.35,15.39,25.67c.39,1.39,0,2-1.16,1.74q-9.88-8-15.11-24.63A41.42,41.42,0,0,1,439,118q-1.45,0-.87-1.74,13.35-10.75,15.39-25.67H439a1.22,1.22,0,0,1,0-2.08h14.52V78.05Q454.34,76.67,455.21,78.05ZM466.83,85c.39,1.16,0,1.74-1.16,1.74a86.25,86.25,0,0,0-7.84-6.6c-.39-1.38,0-2,1.16-1.73A67.68,67.68,0,0,1,466.83,85Z" transform="translate(142.46)"/><path class="cls-5" d="M482.52,77.71c.77-.93,1.35-.81,1.74.34a38.83,38.83,0,0,1-.87,5.55h4.07q3.19,0,2.9,3.47v25q.3,3.81-2.9,3.47h-8.14q-2.9.35-2.9-3.47v-25q0-3.46,2.9-3.47h2.33A41.9,41.9,0,0,0,482.52,77.71Zm4.36,8h-7c-1.16,0-1.74.69-1.74,2.08v10.4h10.46V87.77C488.81,86.38,488.23,85.69,486.88,85.69Zm1.74,14.57H478.16v11.1c0,1.61.58,2.31,1.74,2.08h7c1.35.23,1.93-.47,1.74-2.08Zm7.26-22.55c0,1.15-.1,2.66-.29,4.51h9.3c2.12,0,3.09,1.15,2.9,3.47l-.29,23.58q.28,10.76-13.07,5.56c-.58-1.39-.39-2.09.58-2.09q11,4.86,10.75-4.16l.29-22.2c.19-1.39-.39-2.08-1.74-2.08h-9A36.17,36.17,0,0,1,492.69,93c-1,.69-1.46.35-1.46-1a36.44,36.44,0,0,0,2.91-14.22Q495,76.32,495.88,77.71Zm.29,14.57a57.9,57.9,0,0,1,5.52,12.49c-.19,1.85-.78,2.08-1.74.69a91.65,91.65,0,0,0-5.23-12.14C494.52,91.93,495,91.58,496.17,92.28Z" transform="translate(142.46)"/><path class="cls-5" d="M521.44,77.71v6.93H529c1,.7,1,1.39,0,2.09h-7.55v8.32h2.91q3.2,0,2.9,3.47v14.57q.3,3.81-2.9,3.47H516.8q-2.91.34-2.91-3.47V98.87c0-2.54,1.06-3.82,3.2-3.82h2.61V86.73h-7.26a1.23,1.23,0,0,1,0-2.09h7.26V77.71C520.47,76.55,521.06,76.55,521.44,77.71Zm2.33,19.42h-6.39c-1.17,0-1.75.7-1.75,2.08V112.4c0,1.61.58,2.31,1.75,2.08h6.39c1.35.23,1.93-.47,1.74-2.08V99.21C525.7,97.83,525.12,97.13,523.77,97.13Zm10.45-19.77L533.64,84h12.2a1.22,1.22,0,0,1,0,2.08h-3.48a49.85,49.85,0,0,1-4.07,21.86,33.05,33.05,0,0,0,7.55,8.67c.58,1.15.29,1.73-.87,1.73a37.89,37.89,0,0,1-7.84-8.67,32.69,32.69,0,0,1-8.43,8.67c-1.16,0-1.45-.58-.87-1.73a36,36,0,0,0,8.14-8.67,54,54,0,0,1-4.36-14.57,40.84,40.84,0,0,1-2,5.89c-1,.7-1.46.35-1.46-1q3.2-7.62,4.36-20.81Q533.35,75.63,534.22,77.36ZM540.61,86h-7.55l-.58,3.47q2,11.1,4.65,16.31Q540.61,97.83,540.61,86Z" transform="translate(142.46)"/><path class="cls-5" d="M565.3,77.71c.59-1.16,1.17-1.16,1.75,0v2.08h14.52a1.23,1.23,0,0,1,0,2.08H567.05v2.77h9.29q3.2,0,2.91,3.47V90.2c.19,2.54-.78,3.7-2.91,3.46h-9.29v2.78h9c2.33,0,3.39,1.16,3.2,3.47v2.77h3.48a1.23,1.23,0,0,1,0,2.09h-3.48v2.77q.29,3.81-3.78,3.47h-8.42v2.43c.19,3.23-1,4.74-3.49,4.51a18.66,18.66,0,0,1-5.81-1.74c-.58-1.15-.39-1.85.58-2.08a27.15,27.15,0,0,0,4.94,1.74c1.55.23,2.23-.58,2-2.43V111H552.52a1.23,1.23,0,0,1,0-2.08H565.3v-4.16H549a1.23,1.23,0,0,1,0-2.09H565.3V98.52H552.52a1.46,1.46,0,0,1,0-2.08H565.3V93.66H556c-1.94.24-2.91-.92-2.91-3.46V88.11q0-3.47,2.91-3.47h9.29V81.87H550.2a1.22,1.22,0,0,1,0-2.08h15.1Zm0,9h-8.71c-1.16,0-1.74.69-1.74,2.08v.69c0,1.62.58,2.32,1.74,2.08h8.71Zm10.46,0h-8.71v4.85h8.71c1.36.24,1.94-.46,1.74-2.08v-1C577.7,87.31,577.12,86.73,575.76,86.73Zm0,11.79h-8.71v4.16H577.5V100.6C577.7,99.21,577.12,98.52,575.76,98.52Zm1.74,6.25H567.05v4.16h8.42c1.55.23,2.23-.46,2-2.08Z" transform="translate(142.46)"/><text class="cls-6" transform="translate(652.34 145.63) scale(1.04 1)">H<tspan class="cls-7" x="17.32" y="0">A</tspan><tspan x="32.21" y="0">CHI</tspan></text><path class="cls-8" d="M182.31,480s-6.65,51.16,85.2,87.35" transform="translate(142.46)"/><path class="cls-9" d="M192.49,556.65C212.8,567.1,235.32,568,257.87,568c42.07-1.23,83.31-7.39,122-25.42,4.22-2.77,8.43-5.54,10.63-9.37,5.67-13.48-4-26.61-7.62-39.49-5.26-21.77-13.68-41.7-21-62.58-2.79-7-6.57-15-14.71-16.27-4.06-1.14-10-5.3-13.31-.54a3.52,3.52,0,0,1-1.14,2.9c-2.12,1.87-2.2,3.82-3.27,4.76-16.65,6.18-35.93,1.48-52.1-4.07-5.74-10-15.78-15.34-24.74-21.19.07.11.2.28.29.41-5.53,1.93-11.63.7-16.87,3.43s-8.5,7.49-10.75,12.3L222,415.63c-14.18,21-26.31,42-38.44,63.1-5-4.12-12.12-4.42-18.33-2.71-11.46,4.44-21,12.86-25.59,24.44a34.56,34.56,0,0,0,11.75,38.68c22.86,17.58,49.19,25.51,76.65,30.54,21.41,2.83,41.84,4.64,63.48,1.6,21.2-2.5,41.36-7.39,61-13.53,26.18-8.19,51.46-18.6,77.07-28.6l14.54-11.45-.24,5.91s-40.43,25.66-91.37,34.14" transform="translate(142.46)"/><path class="cls-10" d="M441.13,515.38c-4.12,9.37-15.89,10.09-25,11.41-4.73.69-10.09,3-14.42,0C399,525,395,516.21,391.33,517.44" transform="translate(142.46)"/><path class="cls-3" d="M291.19,421.13c.14-3.05.81-6.35-.75-9.17s-5.32-3.55-8.29-4.39c-6.08-1.71-13.1-3.19-17.25-8.4-4.48-5.64-3.55-14.79-.33-20.8a21.91,21.91,0,0,1,7.22-8,32.3,32.3,0,0,1,6.4-3c2.31-.91,4.66-1.73,7-2.47A122.4,122.4,0,0,1,299,361.49c1.16-.22,2.33-.43,3.49-.62a4.54,4.54,0,0,0,1.51-.33,5.43,5.43,0,0,0,1.2-1.36c1.43-1.81,2.81-3.66,4.17-5.53,2.69-3.7,5.31-7.47,8.31-10.93,1.49-1.73,3.26-3.22,4.75-4.94a7.23,7.23,0,0,0,1.17-2.19,8.26,8.26,0,0,1,1.43-2.31c5-6.16,11.74-10.39,18.86-13.78,3.54-1.69,7.18-3.19,10.79-4.73a90.13,90.13,0,0,0,10.78-5,14,14,0,0,0,6.39-7.88,20.41,20.41,0,0,0-.07-10.21,89,89,0,0,0-4-12.31c-1.72-4.49-3.61-8.91-5.45-13.35s-3.59-8.83-5.07-13.36a64.67,64.67,0,0,1-1.89-6.56,17.63,17.63,0,0,1,.17-7.05c.42-2,1-4.49,2.35-6.1a24.11,24.11,0,0,1,4-3.72,31.44,31.44,0,0,1,9.11-4.8,40.19,40.19,0,0,1,20.79-.91,47.5,47.5,0,0,1,9.94,3.22,46,46,0,0,1,4.67,2.43c.7.41,1.37.86,2.06,1.29,1.07.67,2.11.44,3.33.31a121.18,121.18,0,0,0,13.75-2.49c4.61-1,9.5-2.28,14.25-2.11s9.53.14,14.27.59a52.77,52.77,0,0,1,7,1.1c1.19.28,2.37.6,3.53,1s2.37,1,3.58,1.38c1,.32,1.8-.39,2.65-.89,1-.63,2.09-1.25,3.14-1.86,2-1.15,4-2.25,6.1-3.28a58.66,58.66,0,0,1,12.77-4.72c8-1.81,17.16-1.8,24.14,2.94,6.65,4.51,6.82,13.86,6.24,21-.61,7.39-2.2,14.79-1.43,22.24-.06-.54,0,.44,0,.6a10.71,10.71,0,0,1-.08,1.49,18,18,0,0,1-1.89,5.66c-.83,1.66,1.67,3.13,2.5,1.46a18.52,18.52,0,0,0,2.36-8.95,66.54,66.54,0,0,1-.12-7.61c.45-7.38,2.13-14.71,1.7-22.13a26.32,26.32,0,0,0-2.39-9.94,15.91,15.91,0,0,0-3-4.47,20.24,20.24,0,0,0-4.56-3.17c-6.8-3.58-14.83-3.68-22.24-2.36-9.43,1.67-18,6.45-26.08,11.37h1.46c-7.14-3.14-14.76-3.95-22.49-4.19a76.39,76.39,0,0,0-11.22.06c-3.69.43-7.32,1.18-10.94,2s-7.5,1.69-11.31,2.2c-.95.12-1.92.19-2.87.3-.64.08-.84-.14-1.4-.5-1.27-.81-2.59-1.57-3.94-2.26a50.55,50.55,0,0,0-15.85-5.05c-11.14-1.58-22.84.83-31.36,8.51a17.06,17.06,0,0,0-2.83,2.93,18,18,0,0,0-2,4.71,21.51,21.51,0,0,0-.61,10.77c1.63,7.23,4.62,14.2,7.45,21,2.91,7,5.89,14,8.11,21.27,1.49,4.89,2.61,11-1,15.25-2,2.4-5,3.64-7.8,4.93S353.81,312,351,313.2a114,114,0,0,0-16.82,8.27,50.47,50.47,0,0,0-7.32,5.6c-2.13,2-4.73,4.34-5.83,7.07a6.15,6.15,0,0,1-.91,1.83c-.59.71-1.38,1.31-2,2-1.29,1.32-2.51,2.7-3.68,4.12-2.29,2.78-4.4,5.71-6.5,8.63-1,1.38-2,2.75-3,4.11-.59.78-1.18,1.56-1.79,2.33s-1,.87-2.13,1.06c-3.75.64-7.49,1.42-11.18,2.39a110.87,110.87,0,0,0-11.23,3.56,37.41,37.41,0,0,0-9.35,4.52A25.19,25.19,0,0,0,259.76,383c-1.28,5.4-1.13,12.13,2.07,16.86,3,4.41,7.71,6.85,12.64,8.5,2.54.85,5.13,1.51,7.7,2.25,2.25.64,5.29,1,6.09,3.59.69,2.22.14,4.68,0,6.95-.08,1.87,2.81,1.86,2.89,0Z" transform="translate(142.46)"/><path class="cls-10" d="M384.65,264.36c-6.57-7-16.44-16.21-13-25.86,2.29-5.79,10.28-.57,14.25,2.53a22.18,22.18,0,0,1,8.19,12.44" transform="translate(142.46)"/><path class="cls-10" d="M497.57,242.78c1.63-1.65.83-6.68,3.87-7.56,4-.84,7.95,1.32,11.91,2.49.76,6-1.44,10.95-7.09,13.83" transform="translate(142.46)"/><path class="cls-11" d="M415.63,278.84s5.81-8.35,11.43-9.58,12.7,5.54,12.7,5.54a21.5,21.5,0,0,1-16.09,9.34S417.49,283.89,415.63,278.84Z" transform="translate(142.46)"/><path class="cls-11" d="M470.89,270.87s4.26-4.42,7-4.7a7.29,7.29,0,0,1,4.32.74s6.38,6.43,6.6,8.93-3.59,5.48-5.06,5.12c0,0-9-7.15-10.52-7.21a3.65,3.65,0,0,1-2.39-.91S470.58,272.83,470.89,270.87Z" transform="translate(142.46)"/><path class="cls-11" d="M454.07,296.1s-4-3.25-2.6-6.8,8-7.91,8-7.91l12.73.52s5.94,5.22,6.68,13c0,0-5.51,2.35-7.76,4.66a7.34,7.34,0,0,1-5.11,2.2s-6-3.34-7.19-4.41S454.07,296.1,454.07,296.1Z" transform="translate(142.46)"/><path class="cls-10" d="M462.67,420.36s2.23,42.31,12.24,61.25" transform="translate(142.46)"/><path class="cls-11" d="M442.75,322.76a58.66,58.66,0,0,1,9.17-6.56c7.86-4.56,19.23-8.53,27.75-.61a22.2,22.2,0,0,1,3.59,4.35" transform="translate(142.46)"/><path class="cls-11" d="M453.31,316.82s14.66,6,22.07-1.66" transform="translate(142.46)"/><path class="cls-10" d="M531.66,383.15s19.14,2.36,24.38,19.21c0,0-6.83,18.93-24.07,9.66" transform="translate(142.46)"/><path class="cls-10" d="M303.83,361.4s-18.44,31.72-16,48.44" transform="translate(142.46)"/><path class="cls-3" d="M425.19,270.09a10.15,10.15,0,0,0-4.56,2.58,24,24,0,0,0-3.25,3.36,5,5,0,0,0-1.51,2.9,4,4,0,0,0,1.43,2.69,9.77,9.77,0,0,0,4,2.2,14.07,14.07,0,0,0,2.4.44,5.63,5.63,0,0,0,2.86-.53,5.32,5.32,0,0,1,1.3-.18,6.38,6.38,0,0,0,2.94-.92,16.24,16.24,0,0,1,1.73-1.09,18,18,0,0,0,2-1,9.17,9.17,0,0,0,1.85-1.55c.3-.34.58-.7.85-1.07.1-.14.19-.28.29-.41-.07.1-.34.24-.1.14a3.36,3.36,0,0,0,1.79-2.83c.06-1.41-1-2.3-2-3-.79-.57-1.59-1.12-2.39-1.67a15.42,15.42,0,0,0-2.58-1.68,2.55,2.55,0,0,0-3.23.65,2.48,2.48,0,0,0,.19,3.29l1.42,1.11a2.57,2.57,0,0,0,3.54,0,2.53,2.53,0,0,0,0-3.54l-1.42-1.11-3,3.93a15.75,15.75,0,0,1,2.73,1.77l1.34.94.6.42.45.31q.29.18,0,.06l-.65-1.1V275l.34-1.27c.06-.1.2-.17.25-.27-.13.26-.59.42-.79.62a7,7,0,0,0-.88,1.07,5.13,5.13,0,0,1-1.24,1.22c-.73.47-1.36.61-2.21,1.07a11.65,11.65,0,0,0-1.1.73,2.38,2.38,0,0,1-.69.4,22.25,22.25,0,0,0-2.75.4c-.28.1-.56.23-.83.35s-.26,0-.09,0l-.32-.07c.34.08-.22,0-.28,0a10.3,10.3,0,0,1-1.06-.27,5.39,5.39,0,0,1-.64-.22c.24.1-.07,0-.13-.07l-.47-.26c-.07,0-.34-.22-.13-.06a1.66,1.66,0,0,1-.6-.67v2.53a11.68,11.68,0,0,1,2.79-3.24,6.69,6.69,0,0,1,3.2-2,2.53,2.53,0,0,0,1.75-3.07,2.56,2.56,0,0,0-3.08-1.75Z" transform="translate(142.46)"/><path class="cls-3" d="M431.71,268.29a8.74,8.74,0,0,0-4.89,0,7,7,0,0,0-2.48,1.41c-.54.47-.92,1.08-1.48,1.53l.51-.39-.15.08.6-.25h1.25l-.07,0,1.1.64-.05-.05.64,1.1,0-.06.09.66a.49.49,0,0,1,0-.17l-.09.66,0-.09-.25.59a1,1,0,0,1,.16-.26l-.4.51a3,3,0,0,1,.32-.3l-.51.39a7,7,0,0,1,1.27-.73l-.6.25a6.67,6.67,0,0,1,1.53-.42l-.67.09.57-.05a2.66,2.66,0,0,0,1.77-.73,2.57,2.57,0,0,0,.73-1.77,2.54,2.54,0,0,0-2.5-2.51,9.53,9.53,0,0,0-3.36.82,5.42,5.42,0,0,0-2.59,2.1,2.92,2.92,0,0,0,.35,3.46,2.73,2.73,0,0,0,3.64.17,7,7,0,0,0,1-1,6.14,6.14,0,0,1,.84-.85l-.5.39a4,4,0,0,1,.85-.5l-.6.25a5.62,5.62,0,0,1,1.26-.35l-.66.09a6.83,6.83,0,0,1,1.75,0l-.66-.09c.3.05.6.11.9.19a2.51,2.51,0,0,0,1.34-4.83Z" transform="translate(142.46)"/><path class="cls-3" d="M431.68,278.43c3.22,0,3.22-5,0-5s-3.23,5,0,5Z" transform="translate(142.46)"/><path class="cls-3" d="M431.77,277.28c3.22,0,3.23-5,0-5s-3.23,5,0,5Z" transform="translate(142.46)"/><path class="cls-3" d="M431.93,276.72c3.22,0,3.22-5,0-5s-3.23,5,0,5Z" transform="translate(142.46)"/><path class="cls-3" d="M431.77,276.16c3.22,0,3.23-5,0-5s-3.23,5,0,5Z" transform="translate(142.46)"/><path class="cls-3" d="M429.74,277.44a1.25,1.25,0,0,0,0-2.5,1.25,1.25,0,0,0,0,2.5Z" transform="translate(142.46)"/><path class="cls-3" d="M429.89,278.14a1.26,1.26,0,0,0,0-2.51,1.26,1.26,0,0,0,0,2.51Z" transform="translate(142.46)"/><path class="cls-3" d="M429.82,278.78a1.26,1.26,0,0,0,0-2.51,1.26,1.26,0,0,0,0,2.51Z" transform="translate(142.46)"/><path class="cls-3" d="M429.68,278.77a1.25,1.25,0,0,0,0-2.5,1.25,1.25,0,0,0,0,2.5Z" transform="translate(142.46)"/><path class="cls-3" d="M429.71,278a1.25,1.25,0,0,0,0-2.5,1.25,1.25,0,0,0,0,2.5Z" transform="translate(142.46)"/><path class="cls-3" d="M423.56,278.14a1.26,1.26,0,0,0,0-2.51,1.26,1.26,0,0,0,0,2.51Z" transform="translate(142.46)"/><path class="cls-3" d="M423.45,278.73a1.25,1.25,0,0,0,0-2.5,1.25,1.25,0,0,0,0,2.5Z" transform="translate(142.46)"/><path class="cls-3" d="M421.69,277.8v.05a.89.89,0,0,0,.1.48,1,1,0,0,0,.26.4,1,1,0,0,0,.4.26.91.91,0,0,0,.49.11l.33-.05a1.18,1.18,0,0,0,.55-.32l.2-.25a1.29,1.29,0,0,0,.17-.63v-.05a.89.89,0,0,0-.11-.48.87.87,0,0,0-.26-.4.9.9,0,0,0-.4-.26,1,1,0,0,0-.48-.11l-.33.05a1.21,1.21,0,0,0-.56.32l-.19.25a1.19,1.19,0,0,0-.17.63Z" transform="translate(142.46)"/><path class="cls-3" d="M421.89,278.82l0,.09a.9.9,0,0,0,.32.35,1.1,1.1,0,0,0,.93.25,1,1,0,0,0,.46-.15l.25-.2a1.2,1.2,0,0,0,.33-.55l0-.33a1.24,1.24,0,0,0-.17-.63l0-.09a1,1,0,0,0-.32-.35.89.89,0,0,0-.43-.22,1,1,0,0,0-.5,0,1,1,0,0,0-.46.15l-.26.2a1.27,1.27,0,0,0-.32.55l0,.33a1.15,1.15,0,0,0,.17.63Z" transform="translate(142.46)"/><path class="cls-3" d="M421.8,278.37v0a.89.89,0,0,0,.11.48.88.88,0,0,0,.25.4,1.45,1.45,0,0,0,.89.37l.33,0a1.2,1.2,0,0,0,.55-.33l.2-.25a1.24,1.24,0,0,0,.17-.63v0a.91.91,0,0,0-.11-.49,1.08,1.08,0,0,0-.66-.66.89.89,0,0,0-.48-.1l-.33,0a1.27,1.27,0,0,0-.55.32l-.2.26a1.24,1.24,0,0,0-.17.63Z" transform="translate(142.46)"/><path class="cls-3" d="M422.21,279.34l.13.13a.82.82,0,0,0,.4.26,1.3,1.3,0,0,0,1.37-.26l.19-.25a1.19,1.19,0,0,0,.17-.63l0-.33a1.31,1.31,0,0,0-.32-.56l-.13-.13a1.2,1.2,0,0,0-1.37-.26.9.9,0,0,0-.4.26l-.2.25a1.29,1.29,0,0,0-.17.63l.05.34a1.14,1.14,0,0,0,.32.55Z" transform="translate(142.46)"/><path class="cls-3" d="M423.53,279.9a1.26,1.26,0,0,0,0-2.51,1.26,1.26,0,0,0,0,2.51Z" transform="translate(142.46)"/><path class="cls-3" d="M423.8,279.91a1.26,1.26,0,0,0,0-2.51,1.26,1.26,0,0,0,0,2.51Z" transform="translate(142.46)"/><path class="cls-3" d="M424,279.92h0a1.45,1.45,0,0,0,.89-.37.94.94,0,0,0,.25-.4.89.89,0,0,0,.11-.48l0-.34a1.33,1.33,0,0,0-.32-.55l-.26-.2a1.24,1.24,0,0,0-.63-.17h0a1,1,0,0,0-.49.11,1.15,1.15,0,0,0-.66.66,1,1,0,0,0-.11.48l.05.34a1.33,1.33,0,0,0,.32.55l.25.19a1.31,1.31,0,0,0,.64.18Z" transform="translate(142.46)"/><path class="cls-3" d="M424.39,279.89a1.26,1.26,0,0,0,0-2.51,1.26,1.26,0,0,0,0,2.51Z" transform="translate(142.46)"/><path class="cls-3" d="M424.39,279.89a1.26,1.26,0,0,0,0-2.51,1.26,1.26,0,0,0,0,2.51Z" transform="translate(142.46)"/><path class="cls-3" d="M423.94,279.75l0,.05a1.25,1.25,0,0,0,1.37.26.9.9,0,0,0,.4-.26l.2-.26a1.24,1.24,0,0,0,.17-.63l0-.33a1.2,1.2,0,0,0-.33-.55l0,0a1,1,0,0,0-.4-.26,1,1,0,0,0-.48-.1,1,1,0,0,0-.49.1,1,1,0,0,0-.4.26l-.19.26a1.16,1.16,0,0,0-.18.63l.05.33a1.27,1.27,0,0,0,.32.55Z" transform="translate(142.46)"/><path class="cls-3" d="M424.13,279.86l.13.18a1.07,1.07,0,0,0,.32.35,1,1,0,0,0,.43.22.94.94,0,0,0,.5,0,.77.77,0,0,0,.46-.15l.26-.19a1.33,1.33,0,0,0,.32-.55l0-.34a1.19,1.19,0,0,0-.17-.63l-.12-.17a1.2,1.2,0,0,0-1.25-.6.9.9,0,0,0-.47.15l-.25.19a1.33,1.33,0,0,0-.32.55l-.05.34a1.29,1.29,0,0,0,.17.63Z" transform="translate(142.46)"/><path class="cls-3" d="M424.86,280.39l0,.05a.94.94,0,0,0,.4.25.91.91,0,0,0,.49.11.89.89,0,0,0,.48-.11.94.94,0,0,0,.4-.25l.2-.26a1.24,1.24,0,0,0,.17-.63l-.05-.33a1.18,1.18,0,0,0-.32-.55l0-.05a1,1,0,0,0-.41-.26,1,1,0,0,0-.48-.11,1,1,0,0,0-.48.11,1,1,0,0,0-.4.26l-.2.25a1.3,1.3,0,0,0-.17.64l.05.33a1.23,1.23,0,0,0,.32.55Z" transform="translate(142.46)"/><path class="cls-3" d="M426.1,280.86a1.26,1.26,0,0,0,0-2.51,1.26,1.26,0,0,0,0,2.51Z" transform="translate(142.46)"/><path class="cls-3" d="M423.84,279a1.26,1.26,0,0,0,0-2.51,1.26,1.26,0,0,0,0,2.51Z" transform="translate(142.46)"/><path class="cls-3" d="M423.81,278.49a1.25,1.25,0,0,0,0-2.5,1.25,1.25,0,0,0,0,2.5Z" transform="translate(142.46)"/><path class="cls-3" d="M423.83,278a1.25,1.25,0,0,0,0-2.5,1.25,1.25,0,0,0,0,2.5Z" transform="translate(142.46)"/><path class="cls-3" d="M423.94,277.55a1.25,1.25,0,0,0,0-2.5,1.25,1.25,0,0,0,0,2.5Z" transform="translate(142.46)"/><path class="cls-3" d="M424.27,277.14a1.26,1.26,0,0,0,0-2.51,1.26,1.26,0,0,0,0,2.51Z" transform="translate(142.46)"/><path class="cls-3" d="M424.33,276.84a1.25,1.25,0,0,0,0-2.5,1.25,1.25,0,0,0,0,2.5Z" transform="translate(142.46)"/><path class="cls-3" d="M425.22,276.34l.06,0h0a2.56,2.56,0,0,1,.2-.26h0l0,0a.05.05,0,0,0,0,0,1.11,1.11,0,0,0,.07-.16s0-.11.07-.17a.14.14,0,0,0,0-.07.94.94,0,0,0,0-.5,1.18,1.18,0,0,0-.47-.82,1,1,0,0,0-.42-.22l-.34,0a1.19,1.19,0,0,0-.63.17l-.25.19a1.23,1.23,0,0,0-.32.55.46.46,0,0,1,0,.09l.13-.3a.33.33,0,0,1-.06.1l.2-.26a.23.23,0,0,1-.07.07,1,1,0,0,0-.26.41,1,1,0,0,0-.11.48,1,1,0,0,0,.11.48,1,1,0,0,0,.26.4l.25.2a1.29,1.29,0,0,0,.63.17l.34,0a1.23,1.23,0,0,0,.55-.32Z" transform="translate(142.46)"/><path class="cls-3" d="M424.67,276.21a1.25,1.25,0,0,0,0-2.5,1.25,1.25,0,0,0,0,2.5Z" transform="translate(142.46)"/><path class="cls-3" d="M424.81,276a1.25,1.25,0,0,0,0-2.5,1.25,1.25,0,0,0,0,2.5Z" transform="translate(142.46)"/><path class="cls-3" d="M424.87,275.79a1.26,1.26,0,0,0,0-2.51,1.26,1.26,0,0,0,0,2.51Z" transform="translate(142.46)"/><path class="cls-3" d="M425.19,275.59a1.26,1.26,0,0,0,0-2.51,1.26,1.26,0,0,0,0,2.51Z" transform="translate(142.46)"/><path class="cls-3" d="M425.68,275.56a1.25,1.25,0,0,0,0-2.5,1.25,1.25,0,0,0,0,2.5Z" transform="translate(142.46)"/><path class="cls-3" d="M425.69,275.48a1.26,1.26,0,0,0,0-2.51,1.26,1.26,0,0,0,0,2.51Z" transform="translate(142.46)"/><path class="cls-3" d="M425.69,275.48a1.26,1.26,0,0,0,0-2.51,1.26,1.26,0,0,0,0,2.51Z" transform="translate(142.46)"/><path class="cls-3" d="M428.9,276.48a.63.63,0,0,0,0-1.25.63.63,0,0,0,0,1.25Z" transform="translate(142.46)"/><path class="cls-3" d="M429.4,276.25a.63.63,0,0,0,0-1.25.63.63,0,0,0,0,1.25Z" transform="translate(142.46)"/><path class="cls-3" d="M429.87,273.52a.63.63,0,0,0,0-1.25.63.63,0,0,0,0,1.25Z" transform="translate(142.46)"/><path class="cls-3" d="M429.87,273.52a.63.63,0,0,0,0-1.25.63.63,0,0,0,0,1.25Z" transform="translate(142.46)"/><path class="cls-3" d="M429.64,276a.63.63,0,0,0,0-1.25.63.63,0,0,0,0,1.25Z" transform="translate(142.46)"/><path class="cls-3" d="M429.46,275.91a.63.63,0,0,0,0-1.26.63.63,0,0,0,0,1.26Z" transform="translate(142.46)"/><path class="cls-3" d="M429.23,275.94a.63.63,0,0,0,0-1.25.63.63,0,0,0,0,1.25Z" transform="translate(142.46)"/><path class="cls-3" d="M428.79,275.92a.63.63,0,0,0,0-1.25.63.63,0,0,0,0,1.25Z" transform="translate(142.46)"/><path class="cls-3" d="M428.47,275.87a.63.63,0,0,0,0-1.26.63.63,0,0,0,0,1.26Z" transform="translate(142.46)"/><path class="cls-3" d="M428,275.8a.63.63,0,0,0,0-1.25.63.63,0,0,0,0,1.25Z" transform="translate(142.46)"/><path class="cls-3" d="M427.81,275.67a.63.63,0,0,0,0-1.25.63.63,0,0,0,0,1.25Z" transform="translate(142.46)"/><path class="cls-3" d="M427.5,275.57a.63.63,0,0,0,0-1.25.63.63,0,0,0,0,1.25Z" transform="translate(142.46)"/><path class="cls-3" d="M427.19,275.51a.63.63,0,0,0,0-1.25.63.63,0,0,0,0,1.25Z" transform="translate(142.46)"/><path class="cls-3" d="M426.65,275.36a.63.63,0,0,0,0-1.25.63.63,0,0,0,0,1.25Z" transform="translate(142.46)"/><path class="cls-3" d="M427.21,275a.63.63,0,0,0,0-1.26.63.63,0,0,0,0,1.26Z" transform="translate(142.46)"/><path class="cls-3" d="M427.34,275.13a.63.63,0,0,0,0-1.25.63.63,0,0,0,0,1.25Z" transform="translate(142.46)"/><path class="cls-3" d="M429.56,273.55a.63.63,0,0,0,0-1.25.63.63,0,0,0,0,1.25Z" transform="translate(142.46)"/><path class="cls-3" d="M429.51,275.74a.63.63,0,0,0,0-1.26.63.63,0,0,0,0,1.26Z" transform="translate(142.46)"/><path class="cls-3" d="M425.56,275.7a.63.63,0,0,0,0-1.25.63.63,0,0,0,0,1.25Z" transform="translate(142.46)"/><path class="cls-3" d="M428.86,276.23a.63.63,0,0,0,0-1.26.63.63,0,0,0,0,1.26Z" transform="translate(142.46)"/><path class="cls-3" d="M476.28,266.86l-4.56,2.31,3,3.93c.74-.6,1.29-1.39,2-2-.32.28,0,0,.18-.1s.37-.2.56-.3c-.41.21.1,0,.29-.07l.3-.07c-.2.06-.33,0,0,0s.42,0,.62,0c-.45-.05,0,0,.16.09.43.13-.22-.16.16.08l.36.22c.2.12.17.12,0,0a15.36,15.36,0,0,1,2,2l2.1,2.43.59.68c.09.1.16.2.25.29.24.24-.05-.07-.08-.12l0-.77c.1-.78.08-1-.09-.68-.06.07-.11.2-.17.29s-.13.18-.18.27c-.18.31.23-.23,0,0s-.35.39-.54.57a1.79,1.79,0,0,0-.25.23l-.09.07,2.13-.25a7.3,7.3,0,0,0-1.11-.77l.09.07-.25-.19-.57-.46-1.06-.87a18.1,18.1,0,0,0-6-3.53l-.66,4.91a18.79,18.79,0,0,1,3.27-.06c.66.05-.23-.09.26,0l.78.2q.41.15,0,0a2.31,2.31,0,0,1,.35.18,5.16,5.16,0,0,1,.67.44,2.51,2.51,0,0,0,3.43-.89,2.59,2.59,0,0,0-.9-3.43c-2.2-1.69-5.2-1.66-7.83-1.44a2.51,2.51,0,0,0-.67,4.92c.27.08.53.17.79.27-.51-.2.2.11.33.18a14.17,14.17,0,0,1,1.4.86l.68.49c.37.28.06,0,0,0l.33.26,1.3,1.06a20.86,20.86,0,0,0,3,2.22c1.89,1,3.64-.2,4.82-1.66s2.23-3.29,1.07-5.11a29.09,29.09,0,0,0-2.84-3.35c-1.74-2-3.56-4.24-6.37-4.62a7.34,7.34,0,0,0-4.71,1,8.75,8.75,0,0,0-1.82,1.44,16.11,16.11,0,0,1-1.47,1.51,2.49,2.49,0,0,0-.2,3.29,2.53,2.53,0,0,0,3.23.64l4.56-2.3a2.53,2.53,0,0,0,.9-3.43,2.57,2.57,0,0,0-3.42-.9Z" transform="translate(142.46)"/><path class="cls-12" d="M378.45,479.53s8.84,10.87,4.41,17.39" transform="translate(142.46)"/><path class="cls-10" d="M370.75,369.59c-.74,10.89-1.18,21.65,1.46,32.54-3.51,10.63-12.17,22-8.59,34" transform="translate(142.46)"/><path class="cls-3" d="M518.57,273.59a37.73,37.73,0,0,1,4.09,12.82c.36,2.25.61,4.53.88,6.8s.72,4.37.92,6.57a38.52,38.52,0,0,1-1.77,14.1,143.72,143.72,0,0,1-5,13.61c-1.74,4.33-3.76,8.56-5.36,13a22.46,22.46,0,0,0-.73,12.48c.93,4.17,3.25,7.49,5.85,10.79,2.43,3.1,5,6.1,7.37,9.25a45.73,45.73,0,0,1,5.82,9.7,32.37,32.37,0,0,1,2.16,11.72c.21,9.08-2.67,17.8-5.26,26.37A128.55,128.55,0,0,0,524.13,434a4.83,4.83,0,0,0,.32,3.11c.39,1,.8,2.09,1.23,3.13.83,2,1.71,4.07,2.59,6.1a113,113,0,0,1,4.8,12.45,45.82,45.82,0,0,1,1.51,6.43,29.11,29.11,0,0,1-.13,7c-.91,8.89-4.25,17.31-6.35,25.95a34,34,0,0,0-.76,13.28,84.77,84.77,0,0,0,3.51,13.27c1.21,3.81,3.31,8.13,1.43,12-1.57,3.27-4.91,5.28-8,6.91-7.95,4.21-16.71,6.81-25.77,6.39-7.44-.34-14.64-2.6-20.3-7.58a31.64,31.64,0,0,1-10.56-19.88c-1.12-9.44,1.27-18.8,4.43-27.63.81-2.25,1.67-4.48,2.55-6.7a10,10,0,0,0,1.1-3,6.23,6.23,0,0,0-.82-2.3,16.4,16.4,0,0,0-5.54-6.51c-4.9-3.42-11.35-4.19-17.18-3.72a41.76,41.76,0,0,0-8.93,1.68c-1.22.37-3,.72-3.91,1.69-1.23,1.35-1.36,3.55-1.39,5.28,0,1.88.94,3.95,1.44,5.76.58,2.05,1.12,4.1,1.59,6.18a50.48,50.48,0,0,1,1.48,12.42,25.94,25.94,0,0,1-3,12c-1,1.81-2.4,3.36-3.42,5.18a5.19,5.19,0,0,1-2.3,1.93c-1,.6-2,1.19-3.09,1.74-4,2.07-8.22,3.21-12.56,1.45-1.73-.7-2.48,2.1-.77,2.79,4.19,1.7,8.51,1.06,12.57-.69a52.62,52.62,0,0,0,6.19-3.32,5.21,5.21,0,0,0,2.33-2.22,25.55,25.55,0,0,1,1.74-2.83,23.61,23.61,0,0,0,3.06-5.2,26.15,26.15,0,0,0,1.72-6,40.47,40.47,0,0,0-.07-12.38A94.63,94.63,0,0,0,442,485.79c-.58-2.07-1.36-4-1-6.16a4.42,4.42,0,0,1,.36-1.29c.2-.41-.29.08,0-.16a1.52,1.52,0,0,1,.42-.16c.73-.28,1.47-.53,2.21-.75,5.75-1.76,12.18-2.4,18.06-.87a16.61,16.61,0,0,1,7.4,3.93,13.25,13.25,0,0,1,2.56,3.43,4.46,4.46,0,0,1,.65,1.65,6.43,6.43,0,0,1-.67,1.65l-.75,1.9c-3.45,8.81-6.53,18-6.78,27.55-.13,4.56.26,9.62,2,13.91a38.79,38.79,0,0,0,5.34,9.47A33.28,33.28,0,0,0,489,551.56a45.85,45.85,0,0,0,25.41-.61A63.15,63.15,0,0,0,527,545.52c3-1.7,6.06-3.95,7.69-7.1a11.44,11.44,0,0,0,1.28-5,21.28,21.28,0,0,0-1.42-6.51c-1.37-4.5-3-8.94-3.95-13.56a30.92,30.92,0,0,1,.16-13.9c1.06-4.46,2.43-8.83,3.67-13.23a86.5,86.5,0,0,0,2.8-13,44.06,44.06,0,0,0,.34-6.89,30.64,30.64,0,0,0-1.26-6.68,93.21,93.21,0,0,0-4.6-12.57c-.9-2.09-1.82-4.17-2.7-6.27-.44-1-.86-2.08-1.27-3.12a6.42,6.42,0,0,1-.83-2.92c.6-4.55,2.19-9.09,3.52-13.46s2.71-8.78,3.72-13.26c1.86-8.18,2.62-17.37-.4-25.38-2.79-7.4-8.13-13.37-13-19.45-2.72-3.39-5.36-6.72-6.32-11a20.53,20.53,0,0,1-.34-6.4,24.37,24.37,0,0,1,1.88-6.68c1.72-4.35,3.74-8.57,5.38-12.95a119.28,119.28,0,0,0,4.8-14c1.08-4.48,1.76-9.38,1-14s-1.07-9-1.83-13.46a38.94,38.94,0,0,0-4.23-12.56c-.91-1.63-3.41-.17-2.5,1.46Z" transform="translate(142.46)"/><path class="cls-13" d="M380,332.12c8.65,17.28,26.63,28.32,45.56,33.07a90,90,0,0,0,60.07-5.64,73.51,73.51,0,0,0,27.22-21.68" transform="translate(142.46)"/><path class="cls-3" d="M414.78,527.22c-4.41.36-9.35.92-13.4-1.26a8.56,8.56,0,0,1-3.64-3.68,11.87,11.87,0,0,0-3.84-4.77c-1.95-1.25-4.11.8-3.68,2.82s.8,3.79,1.21,5.69a10.59,10.59,0,0,0,2,4.92c2.1,2.46,6,3.59,9.06,4.15,6.94,1.26,14-.06,20.69-2.06,3.13-.93,1.8-5.38-1.33-4.82-5.62,1-10.9,3.17-16.3,4.93a58.57,58.57,0,0,1-8.24,2.11,34.56,34.56,0,0,0-8.4,2.08c-2.47,1.1-4.69,2.68-7.26,3.56a60.9,60.9,0,0,1-8.33,1.91A96.53,96.53,0,0,0,357,547.73c-6,2.3-12,4.75-18.32,6.29-2.85.7-2.07,4.76.66,4.92a57,57,0,0,0,8.25.34c2.69-.25,5.16-1.35,7.68-2.22,5.22-1.78,10.51-3.12,15.87-4.43s10.53-3.18,15.73-4.86c2.62-.84,5.24-1.7,7.84-2.6a70.37,70.37,0,0,0,7.89-2.93c3-1.48,3.24-4.88.94-7.17-1.09-1.08-2.4-2-3.6-3l-3.8-3.07a2.55,2.55,0,0,0-4.19,1.1l-1.31,3.39a6.52,6.52,0,0,1-.53,1.25s-.3.17-.18.12c-1.77.78-3.55,1-4.6,2.83-1,1.72.69,4.55,2.83,3.67l9.56-3.91a2.6,2.6,0,0,0,1.84-2.41,2.54,2.54,0,0,0-1.84-2.41l-6.14-1.37,1.75,3.08.19-.78c.8-3.12-4-4.45-4.82-1.33l-.2.77a2.54,2.54,0,0,0,1.75,3.08l6.14,1.37v-4.82l-9.57,3.91,2.83,3.67a.42.42,0,0,1-.21.13s.36-.19.14-.11c.41-.15.84-.26,1.26-.4a6.94,6.94,0,0,0,2.75-1.48,8.18,8.18,0,0,0,1.71-3.11l1.48-3.81-4.18,1.11,6.09,4.92c.39.32.8.63,1.18,1,.08.07.4.43.41.43s.37-1.11.23-1.21a18.33,18.33,0,0,0-2.79,1.08c-4.79,1.76-9.63,3.35-14.49,4.9-4.59,1.45-9.18,3.11-13.86,4.22s-9.6,2.38-14.31,4c-2.41.8-4.94,2.1-7.48,2.42s-5.57-.19-8.24-.35l.67,4.92c11.11-2.72,21.29-8.35,32.48-10.78,2.8-.61,5.64-1,8.41-1.72a33.77,33.77,0,0,0,7.89-3.32,23.18,23.18,0,0,1,7.69-2.6,65.57,65.57,0,0,0,8.32-1.8c6.16-1.83,12.08-4.46,18.44-5.6l-1.33-4.82c-5.55,1.66-11.5,3-17.32,2.17a21.78,21.78,0,0,1-4-1,7.83,7.83,0,0,1-3.33-1.73c-.76-.88-.85-2.38-1.09-3.48l-1.1-5.21-3.68,2.83c1.43.92,1.93,3,2.88,4.37a13.28,13.28,0,0,0,5.29,4.42c4.82,2.25,10.06,2,15.24,1.6a2.57,2.57,0,0,0,2.5-2.5,2.51,2.51,0,0,0-2.5-2.5Z" transform="translate(142.46)"/><path class="cls-14" d="M183.59,478.73s-.47-.51-1.38,2.95c0,0-20.59,30.35,63.15,86.15,0,0-48.27-2.79-90.2-25.92S153.35,457.94,183.59,478.73Z" transform="translate(142.46)"/><path class="cls-14" d="M443.94,523.61s-44.56,47.28-161.82,48.7c0,0,103.28-11.26,150.65-49.16l8.07-7.22" transform="translate(142.46)"/><path class="cls-10" d="M421.24,429.78a91.44,91.44,0,0,1,12.17,26.86c3.63,9.16,5.22,19.23,7,28.76" transform="translate(142.46)"/><g class="cls-15"><path class="cls-16" d="M-6.74,242.85S11.32,264.24,21,272.72s6,20.1,6,20.1,4.71,37.06,5,41.85,6,12.36,11,33A79.38,79.38,0,0,0,61.3,401.79l.78,5.9,12.56,17.7L102,426.5c28.7,2.21,35.14-5.72,35.14-5.72-4.45-18.25-23.29-13.28-23.29-13.28l-6.28-16.41C100,385.56,102,371.92,102,371.92c-1.39-4.43-2-51.44,0-61.77s1.39-23.42-1.75-32.64,1.57-29.87,4.71-33.92,4.45-31.72,1.3-35.22-2.87-21.76-2.87-21.76c-3.14-17.14,4.18-16.41,3.66-19.36s8.37-20.65,13.87-26.73,1.83-16.41,1.83-16.41a49.47,49.47,0,0,0,14.92,0c8.11-3.14,9.16-1.29,14.91-.92s19.37-2,25.65-6.46,7.59-20.65,7.59-20.65l-33-20.46c4.45-13.28-15.7-32.92-15.7-32.92s17.93-22,19.24-25.72-5.11-5-5.11-5L123.84,32.84s-4.8,5.16-6.2,3.69,4.19-5.41,4.19-5.41c11.17-8.85,7-16.72,7-16.72L95.31,30.63C61.12,21.28,18.22,86.19,18.22,86.19s-28.62,35.15-32.81,44.19,1.57,11.06-12,25.07c0,0-40,21.76-39,37.25,0,0-30.61,41.48-35.85,62.5,0,0-20.67,29.87-19.1,41.49,0,0-28.52,25.63-17.53,42.78" transform="translate(142.46)"/><path class="cls-17" d="M80.92,233.63s-17.27,31.72-15.18,49.42a273.83,273.83,0,0,1,1.57,35.4l7.07,28.76,1.31,27.11,20.15,33.92s21.08-5.11,33.57,16.53" transform="translate(142.46)"/><path class="cls-3" d="M136.85,72.87l-.11,0,1.11-.15h-.22l1.11.15a.83.83,0,0,1-.21-.06l1,.42-.13-.07.84.65-.06-.06-1.85,7a6.12,6.12,0,0,1,1-.23l-1.12.15a3.31,3.31,0,0,1,.77,0l-1.11-.15a1.63,1.63,0,0,1,.48.13l-1-.43a2.26,2.26,0,0,1,.26.16l-.85-.65a.91.91,0,0,1,.17.17l-.65-.84a1.74,1.74,0,0,1,.11.18l-.42-1a.83.83,0,0,1,0,.15l-.15-1.11a.48.48,0,0,1,0,.12l.15-1.11a.37.37,0,0,1,0,.14l.42-1a.37.37,0,0,1-.06.1l.65-.85a.38.38,0,0,1-.09.09l.84-.65-.18.11,1-.42a1.9,1.9,0,0,1-.36.09l1.11-.15a8.68,8.68,0,0,1-2.1,0l1.11.15a3.7,3.7,0,0,1-.87-.22l1,.42a1.87,1.87,0,0,1-.39-.22l.85.65a1.23,1.23,0,0,1-.25-.26l.65.85c-.05-.08-.1-.16-.14-.24l.42,1a1.6,1.6,0,0,1-.05-.21l.15,1.11v-.17l-.15,1.11a1,1,0,0,1,.05-.16l-.42,1a.6.6,0,0,1,.09-.15l-.66.85.15-.14-.85.66,0,0a3.14,3.14,0,0,0,1.18-1.08,3.23,3.23,0,0,0,.74-1.42,3.17,3.17,0,0,0,.08-1.67,3.12,3.12,0,0,0-.5-1.55l-.65-.85A4.26,4.26,0,0,0,137,72.11L135.85,72a4.15,4.15,0,0,0-2.11.57A5.23,5.23,0,0,0,132,74.27a4.71,4.71,0,0,0-.66,2.4v.11a11,11,0,0,0,.16,1.15,1,1,0,0,0,0,.17,5.72,5.72,0,0,0,1.28,2.16,5.25,5.25,0,0,0,1.14.91.94.94,0,0,0,.22.12,11,11,0,0,0,1.23.51,3,3,0,0,0,.57.14,16.06,16.06,0,0,0,1.68.21c.42,0,.85,0,1.27,0a9.59,9.59,0,0,0,1.6-.2,1.34,1.34,0,0,0,.27-.07,10.69,10.69,0,0,0,1.05-.45.57.57,0,0,0,.13-.08,5.61,5.61,0,0,0,.94-.75,4.5,4.5,0,0,0,1.14-1.94.83.83,0,0,0,0-.15l.15-1.11v0a.22.22,0,0,0,0-.08l-.15-1.11a3.77,3.77,0,0,0-.55-1.31,9.4,9.4,0,0,0-.68-.88l-.08-.09a5.77,5.77,0,0,0-1-.78,4.78,4.78,0,0,0-1.49-.63,10.89,10.89,0,0,0-1.38-.19h-.35a9.6,9.6,0,0,0-2.48.41,4.18,4.18,0,0,0-1.84,7,3.49,3.49,0,0,0,.49.39,4.53,4.53,0,0,0,.48.37l.07,0,1,.42.13.05c.2,0,.47.06.63.09a6.16,6.16,0,0,0,.67.08,5.91,5.91,0,0,0,1.33-.17,3.1,3.1,0,0,0,1.42-.75A3.19,3.19,0,0,0,141.57,79a4.63,4.63,0,0,0,.42-3.22l-.42-1a4.15,4.15,0,0,0-1.5-1.5l-1-.42a4.18,4.18,0,0,0-2.22,0Z" transform="translate(142.46)"/><path class="cls-3" d="M138.49,119.91a7.32,7.32,0,0,1,.81,0c.09,0,.2,0,0,0l.19,0,.41.08a6.53,6.53,0,0,1,.76.2l.38.13.17.07c.15.05-.22-.11,0,0a7.29,7.29,0,0,1,1.24.72c-.18-.13.08.06.13.11a3.07,3.07,0,0,1,.26.25l.21.22s.15.2,0,.07l.05.07a1,1,0,1,0,1.81-1,8,8,0,0,0-6.54-3,1,1,0,0,0-1,1,1.07,1.07,0,0,0,1,1Z" transform="translate(142.46)"/><path class="cls-3" d="M139,120.3c3.86,1.15,7.79,2.68,11.84,3a53.75,53.75,0,0,0,12.29-.42c1.32-.22.76-2.24-.56-2a50.56,50.56,0,0,1-11.73.35c-3.84-.27-7.63-1.79-11.29-2.88a1,1,0,0,0-.55,2Z" transform="translate(142.46)"/><path class="cls-3" d="M177.13,91.84c-1.81,2.49-3.39,6.32-1.86,9.28a12.56,12.56,0,0,0,3,3.27c1.19,1,2.43,2,3.69,3a3,3,0,0,0,2.36.31,3.09,3.09,0,0,0,1.84-1.4,3.17,3.17,0,0,0,.31-2.37,3.69,3.69,0,0,0-1.41-1.83l-.35-.26c-.31-.23,0,0,.11.09-.19-.2-.46-.36-.67-.54-.44-.35-.88-.72-1.31-1.09s-.84-.74-1.25-1.12l-.6-.57-.29-.3-.15-.15c.36.38-.11-.31.1.18s0-.4.06.22.09-.81,0-.14c-.05.48,0,0,0-.07l.09-.36c.07-.24.14-.49.22-.72l.14-.36c.12-.38-.27.55-.09.2s.22-.47.35-.7a11.23,11.23,0,0,1,.92-1.43,3.09,3.09,0,0,0-1.1-4.2,3.17,3.17,0,0,0-2.37-.31,3.55,3.55,0,0,0-1.83,1.41Z" transform="translate(142.46)"/></g></g></g></svg>