<svg xmlns="http://www.w3.org/2000/svg" xmlns:xlink="http://www.w3.org/1999/xlink" viewBox="0 0 359.08 244.24"><defs><style>.cls-1{fill:none;}.cls-2{isolation:isolate;}.cls-3{clip-path:url(#clip-path);}.cls-4{clip-path:url(#clip-path-2);}</style><clipPath id="clip-path" transform="translate(-3.48 -5.35)"><path class="cls-1" d="M361,49.14c11,20-9.38,56.47-58.79,97.3C229.16,206.81,119.86,254.17,58.54,252,38.69,251.34,26.27,245.54,21,236L2.9,203c5.25,9.57,17.67,15.36,37.52,16.06,61.32,2.14,170.62-45.23,243.67-105.59,49.4-40.83,69.76-77.31,58.78-97.3C348.31,26,355.55,39.23,361,49.14Z"/></clipPath><clipPath id="clip-path-2" transform="translate(-3.48 -5.35)"><path class="cls-1" d="M360.11,49.62c-5.22-9.52-17.58-15.28-37.32-16-61-2.13-169.76,45-242.43,105C31.22,179.31,11,215.6,21.89,235.49l-18.12-33c-10.92-19.89,9.33-56.18,58.48-96.8C134.92,45.63,243.66-1.5,304.67.63c19.74.69,32.1,6.46,37.32,16C347.43,26.51,354.68,39.72,360.11,49.62Z"/></clipPath></defs><g id="图层_2" data-name="图层 2"><g id="图层_1-2" data-name="图层 1"><g class="cls-2"><g class="cls-2"><g class="cls-3"><path d="M10.73,214.27a1.72,1.72,0,0,1,.39.63l-.18-.12,0,.08a26.82,26.82,0,0,0,2,3.92c4,7.32,4,7.32,4.53,7.82a1.51,1.51,0,0,1,.41.62C16,225.5,16,225.5,15.8,225.06h.09c0-.13,0-.19-.91-1.84l-4.43-8.08c.69,1.44,2.26,4.63,3.34,6.76.43.86.9,1.71,1.31,2.59-.19-.21-4.28-7.29-7-12.11,2,3.66,4.23,7.21,6.11,10.95-.37-.42-.37-.42-2.17-3.71-1.95-3.56-4-7.08-5.89-10.64.26.4.26.4,6.91,11.65-1.22-2.53-2.48-5-3.73-7.55.42.43.89.8,1.33,1.2" transform="translate(-3.48 -5.35)"/><path d="M20.49,228.93c.11.07.46.28.26-.53-.74-2.93-6.39-12-7-11.35-.42.47,5,10.73,6.77,11.88m-6.81-12.47c3.83,2.61,9.28,13,7.75,13.34S12,217.71,12.91,216.32c.16-.26.58,0,.77.14" transform="translate(-3.48 -5.35)"/><path d="M26.69,232.15c1.51.56.53-1.85,0-2.9-1.85-4-5.41-8.9-7-9-.06.11-.06.11,1.13,2.32,4.92,9.18,4.92,9.18,5.88,9.56m-9.59-13.7c.47.27.91.59,1.4.83,2.41.94,4.14,1.62,7.1,5.67,2.68,3.65,4.12,7.56,3,8.18-.46.27-1.54-.24-2.9-.9l-.95-.43c-1-.5-1-.5-1.08-.9.15-.05.27.08.42,0s.19-.38-4.62-9c-1-1.84-1.41-2.53-2-2.91a1,1,0,0,1-.43-.57l.06,0" transform="translate(-3.48 -5.35)"/><path d="M24.87,221.54l1.31.42c1.37.3,3.38.25,4.55,1a36.73,36.73,0,0,1,2.1,3.31l-.07,0c-.14,0-.19-.11-.55-.51-1.29-1.42-2.63-2.9-4.51-2.76,1,2.07,1.91,3.64,2.61,4.9.57.15,1,.25,1.08,0,.3-.6-.46-1-.26-1.62.47.05,2.93,5.07,2.94,5.12l-.06,0c-.1,0-.18,0-.52-.55a4.6,4.6,0,0,0-2.78-2.26c2.63,4.92,2.75,5,3.14,5.39.73.68,2.4,1,2.74.08.21-.52-.09-1-.06-1.54l.06,0c.2.06.27.16.49.65.34.82.79,1.9,1.14,2.72-6.72-1.31-6.76-1.58-6.82-2,.18-.1.58,0,.53-.29a10,10,0,0,0-1-2.09c-4.89-9-4.89-9-5.75-9.41a.69.69,0,0,1-.44-.57.17.17,0,0,1,.1,0" transform="translate(-3.48 -5.35)"/><path d="M32.3,223.08c1.29.24,2.61.21,3.9.52.25.06.48.4.38.51s-.86.13-.76.57.12.51,1.64,3.28l3.23,5.9c1,1.72,1.11,1.77,1.51,1.9.08,0,1.8.58,2.18-.69.25-.85-.31-1.65-.12-2.5.27-.15.3-.17,2.17,4.29-2.37-.32-4.77-.4-7.13-.8-.34-.06-.45-.48-.45-.49.17-.16.49,0,.61-.3a1.38,1.38,0,0,0-.13-.81c-.3-.7-1.31-2.55-4-7.47-.86-1.57-1.67-3.05-2.68-3.3a.6.6,0,0,1-.52-.59.52.52,0,0,1,.18,0" transform="translate(-3.48 -5.35)"/><path d="M40.71,224c.66.05,1.32.16,2,.19a13.59,13.59,0,0,1,2.21,0c.32.07.48.41.34.51s-.71,0-.7.39a6.45,6.45,0,0,0,.74,1.88c4.78,9.29,5.64,9.48,6.06,9.57.77.17,1,.37.75.58s-4.27-.12-4.31-.13a.53.53,0,0,1-.42-.45c0-.07,0-.08.24-.12.6-.1.42-.55.24-1-.45-1.13-3.57-6.72-3.7-7-2.08-3.73-2.27-3.77-3-3.9-.55-.1-.53-.52-.53-.52s.07-.06.15-.05" transform="translate(-3.48 -5.35)"/><path d="M46,224.14c.19,0,.39,0,.59,0H47c1.2,0,1.56,0,1.56,0a8,8,0,0,1,.79.65c2.34,1.9,6,4.76,9.89,7.62l-.46-.85c-3.75-6.86-3.75-6.86-5.39-7-.41,0-.53-.26-.56-.39-.1-.42,4-.39,4-.37.21.08.42.39.18.53-.9.48-1.2.64-.23,2.43s2,3.66,3,5.48c2.4,4.49,2.4,4.49,2.32,4.66-.59.16-11.12-8.44-11.81-9,4.45,8.56,4.84,8.57,6.28,8.63a.44.44,0,0,1,.43.31c0,.12,0,.21-.15.23l-3.68,0c-.17,0-.53-.39-.29-.53s.66-.06.85-.4-.07-.71-.13-.88c-.46-1.21-3.92-7.26-4-7.31a7,7,0,0,0-3.48-3.26c-.45-.11-.52-.42-.49-.56a.32.32,0,0,1,.17-.06" transform="translate(-3.48 -5.35)"/><path d="M63.83,223.05a6.91,6.91,0,0,1,1.35,0l.25,0c1,.14,1.91.59,2.92.7.17,0,.32,0,.25-.31-.1-.51.21-.62.72.17,1.92,3,1.92,3,2,3.12.15.29-.07.32-.22.28a1.85,1.85,0,0,1-.58-.46c-1.85-1.78-4.52-3.42-6.45-2.69-2.49.92-.3,5.29,0,5.78,2.94,5.64,7.67,7.25,8.54,4.9,0,0-.39-4.07-3.36-4.12-.72,0-.66-.51-.43-.57l1.24-.14a37.87,37.87,0,0,1,3.79-.62.38.38,0,0,1,.43.4c-.22.41-.85.21-1,.7,0,.08,0,.29.44,1.11A19.87,19.87,0,0,1,75,233.84c0,.09,0,.11-.32.52a5.49,5.49,0,0,1-4.9,2c-3.75-.29-7.68-3.76-9-7.88-.46-1.47-1.07-4.92,3-5.41" transform="translate(-3.48 -5.35)"/><path d="M88.46,232.78c4.74-1.06.92-8.24-2.86-10.68-2.48-1.61-5-1-4.88-.39,0,.08.38.81,1.08,2.17,4.77,9.29,4.77,9.29,6.66,8.9M76.15,221.35c.9-.12,1.81-.1,2.71-.25,4.61-1,7.16-1.56,10.68,1.08,2.62,2,5.2,6.32,3.22,9.36-1,1.48-2.36,1.71-6.51,2.38l-1.91.36a7.21,7.21,0,0,1-1.61.21c-.18,0-.37-.33-.29-.46s.17-.1.33-.13c1-.19.89-.77.81-1.08-.23-.9-3-6.13-3.06-6.19-2.6-4.86-2.86-4.84-3.92-4.75-.81.07-.51-.52-.45-.53" transform="translate(-3.48 -5.35)"/><path d="M90.72,218.52c.86-.19,1.72-.3,2.57-.5a22.63,22.63,0,0,1,2.87-.79c.37,0,.5.26.44.4-.21.43-.86.22-1,.71a2.71,2.71,0,0,0,.32,1.38c0,.09,4.65,9.28,6,9.87.46.2.94-.16,1.4,0,.16.08.37.42,0,.57-.11,0-5.42,1.31-5.45,1.31a.42.42,0,0,1-.49-.29c0-.16.07-.2.26-.28.89-.4.75-.83.62-1.21-.41-1.26-3.15-6.14-3.7-7.11-2.1-3.72-2.32-3.7-3.35-3.57s-.45-.53-.4-.54" transform="translate(-3.48 -5.35)"/><path d="M105.11,214.56c.13,0,.28,0,.55.34.54.77,1.25,1.8,1.79,2.56.2.29.5.73-.1.67-.09,0-.16,0-.71-.49a6.17,6.17,0,0,0-4.15-1.49,1.67,1.67,0,0,0-1.22,2.84c.81,1,2.27,1.1,3.7,1.13,1.75,0,5,.11,6.63,3s-.07,6.16-4.86,5.67a11.71,11.71,0,0,1-1.25-.2c-.07.37.25.75-.06,1.11-.05.05-.24.2-.62-.34l0-.06c-2.65-4.15-2.65-4.15-2.16-4.09a1.59,1.59,0,0,1,.56.38c1.77,1.67,3.64,2.6,5,2.49,2.21-.16,2.76-2,1.65-3.41-.7-.89-1.76-1.25-4-1.39-1.68-.1-4.83-.29-6.27-3,0-.06-2.65-5.43,5.4-4.9.08-.28-.2-.73.19-.85" transform="translate(-3.48 -5.35)"/><path d="M116.5,218.66c3.44-1.13,1.41-4.83-.12-5.59s-2.7-.09-3.69.43l2.94,5.37c.21,0,.65-.14.87-.21m-2.63-6.53c7.75-2.31,8.12,3.35,7.39,4.69-.9,1.64-3.73,2.35-5.25,2.74,3,5.52,3,5.52,4.46,5.12.76-.21.78.14.76.25s-.34.27-.44.31-5.65,1.67-5.72,1.65-.58-.25.09-.61c1.12-.59,1.12-.59-2.84-7.82-2.43-4.39-2.43-4.39-3.77-4-.18.05-1.09-.35-.07-.66s1-.25,1.51-.4l3.88-1.25" transform="translate(-3.48 -5.35)"/><path d="M120.94,209.92c2-.62,4-1.53,6.09-2.06.53-.13.6.28.51.4-.38.54-1.42.43-1.4,1.33,0,.46.15.87,1.54,3.41l3.24,5.89c.91,1.63,1.16,1.74,1.93,1.55,3.05-.77,3.47-2.3,3.65-2.95.23-.86,0-1.75.25-2.6a.3.3,0,0,1,.56,0c.28.45,1.24,3.39,1.56,4.35-3.71,1.13-7.28,2.69-11,3.79-.54.16-.61-.28-.56-.37a1.29,1.29,0,0,1,.43-.28,1.22,1.22,0,0,0,.75-1.61,62.54,62.54,0,0,0-3.35-6.47c-1.68-3.08-2.25-4.12-3.93-3.71-.65.16-.9-.41-.27-.62" transform="translate(-3.48 -5.35)"/><path d="M141,211.76l3.51-1.38c-1.34-1.26-2.78-2.39-4.15-3.6.22,1.79.45,3.56.64,5m-1.79-8.63.68-.26c3.84,3.07,7.31,6.58,11.25,9.54a2.43,2.43,0,0,0,2.37.61c.32-.07.41.08.41.09s.2.33-.14.48l-5.8,2.25a.88.88,0,0,1-.29.07c-.31,0-.48-.26-.32-.43s.66-.34.87-.66a.73.73,0,0,0,.05-.75,15.72,15.72,0,0,0-3-3l-4.15,1.57c.45,3,.68,4.48,2.8,4,.59-.13.58.3.58.31s-4.34,1.89-4.62,1.69,0-.5.09-.6c.55-.43.89-.8.81-2.32-.22-4.24-1.13-8.4-1.58-12.62" transform="translate(-3.48 -5.35)"/><path d="M144.67,201.32c1-.37,2-.64,3-1s1.92-1,3-1.34a.3.3,0,0,1,.41.37.58.58,0,0,1-.23.2c-.29.16-1.17.65-.49,1.33a39.62,39.62,0,0,0,5.33,3.1c1.12-6,.69-6.16-1-6-.76.1-.61-.36-.61-.36a32.15,32.15,0,0,1,4.64-2.06.29.29,0,0,1,.36.09.89.89,0,0,1,.08.17c0,.16-.12.25-.27.33-.53.31-1.79,1-2.24,7.66-.1,1.53,2.75,5.5,2.78,5.54.38.47.78.83,1.92.38.44-.18.6.14.55.35s-6.18,2.65-6.23,2.65c-.28,0-.43-.36-.23-.52,1.08-.88,1.08-.88.95-1.47a14.66,14.66,0,0,0-2.25-4.09c-.23-.25-6.64-4.62-8.42-4.79-.37,0-.74.17-1.12,0a.31.31,0,0,1,0-.51l.12-.05" transform="translate(-3.48 -5.35)"/><path d="M182.59,189.18l-.51-.94-1.61.8.5.91,1.62-.77M181,186.34l-.51-.93-1.62.77.52.94,1.61-.78m-6.9-1.87,3.09-1.36.48.87,4.34-2.1,1.51,2.76.86-.42,1.47,2.68-.86.42,1.32,2.4c-1.45.71-2.89,1.41-4.34,2.1l.42.77c1.51-.72,3-1.44,4.51-2.18l1.07,2-4.51,2.18.46.83c1.7-.81,3.4-1.64,5.1-2.47l1.19,2.18q-2.55,1.26-5.1,2.47l.56,1c2.5-1.15,4.3-2.14,5.6-2.87l.73,3.07c-11.46,6.16-13,5.74-15.89,5-.09,1-.23,2-.46,3.35l-3.47-1.22a27.3,27.3,0,0,0,.67-3.63,23.85,23.85,0,0,1-3.3-2.6l1.47-2.12c.84.68,1.4,1.13,2,1.59a12.4,12.4,0,0,0-.71-2.77l-3.33,1.5-1.41-2.56,1.16-3.94-2.66,1.2-1.54-2.8q2.92-1.31,5.85-2.65l1.63,3L171,193.82l2.47-1.13,1.43,2.6a17.58,17.58,0,0,1,1.29,5.56c1,.34,2.28.76,5.21-.39l1.24-.51-.52-.95-4.21,2-1.2-2.18c1.4-.65,2.81-1.3,4.21-2l-.45-.83-3.55,1.65-1.07-1.94,3.55-1.65-.43-.78-3.35,1.57-1-1.87,3.36-1.56-.44-.8-4,1.84-1.18-2.14,4-1.86-.45-.81-3.31,1.54-1.21-2.2,3.31-1.55-.52-.95" transform="translate(-3.48 -5.35)"/><path d="M193.22,175.12l2.82-1.37.47.85,2.17-1.14-.51-.94,2.88-1.43.47.85c.73-.39,1.46-.78,2.18-1.18l1.46,2.66c-.72.4-1.45.79-2.18,1.18l.35.64-2.84,1.51-.35-.64L198,177.26l.35.63c-.92.49-1.85,1-2.78,1.45l-.35-.63-1.86,1L191.87,177l1.86-1-.51-.93m11.15,5.8-.34-.62-4.63,2.45.33.61q2.33-1.22,4.64-2.44m-1.17-2.13-.29-.53c-1.54.82-3.09,1.64-4.63,2.44l.29.54c1.55-.81,3.09-1.62,4.63-2.45m-16.74-.28,3.12-1.48,1.57,2.86,1.28-.65,1.65,3-1.28.65.62,1.13.23-.72c.4.16,1.37.64,2.87,1.42l-2.35-4.28q5.43-2.81,10.85-5.72l3.41,6.21L204.56,183l.5.92q2.33-1.24,4.64-2.5l1.34,2.44q-2.22,1.22-4.46,2.4c1.13.35,2.58.32,6-1,.12,1,.27,2.22.39,3.17-3.52,1.13-5.24,1.13-6.88.77-.56,1.58-1.91,3.16-4.54,5.3l-2.67-2c3.14-2.14,3.84-3.2,4-4.23l-4.06,2.1-1.34-2.45c1.51-.77,3-1.55,4.54-2.34l-.5-.92-3.89,2-.39-.7-.54,2.09-1.53-.93,4.51,8.22-3.08,1.55-3.82-7a34.22,34.22,0,0,1-.14,4.12c-1-1.4-2.43-2.48-3-4.19,0,0,.09-1.4.09-1.43a16.18,16.18,0,0,0-.11-3.92l-1.51.76-1.66-3,1.64-.81-1.61-2.94" transform="translate(-3.48 -5.35)"/><path d="M229.83,158.8c.64-.32.62.25.62.26-.11.82-1.34.85-1.28,1.8,0,.56.19,1.29,1.66,4,4,7.32,4,7.32,5.71,6.39.6-.32.67.14.53.37-6.68,4-6.68,4-6.59,3.54.12-.63,1-.7,1.05-1.36a3.69,3.69,0,0,0-.65-2c-1.47-2.74-3-5.46-4.43-8.2.48,5.58.73,8.24.94,9.81.53,4,.53,4,.05,3.82a3.28,3.28,0,0,1-.67-.4c-1.29-.88-7.23-4.66-10.42-6.69,5.11,9.81,5.15,9.8,6.88,9,.3-.13.63-.28.72.11s-4.8,2.88-4.86,2.87a.35.35,0,0,1-.25-.3c0-.13.06-.18.52-.57,1-.86,1-1.52.2-3.08-4.91-9.15-4.91-9.15-6.9-8.49-.19.06-.58.19-.67-.19,0-.08,0-.08,4.76-2.81,3,2.24,6.39,3.93,9.5,6-.34-4.82-.64-8-1-11,1.56-.93,3-2,4.6-2.94" transform="translate(-3.48 -5.35)"/><path d="M245.19,165.88c4.14-2.8-.19-11.41-4-12.26-2.92-.64-6.58,2.79-2.19,9.57,1.91,2.95,4.23,3.95,6.21,2.69m-6.72-12.59c6.73-4.16,12.46,1.45,10.75,8.12-1.63,6.36-10.19,9.47-13.86,3.43-2.34-3.86-1-8.93,3.11-11.55" transform="translate(-3.48 -5.35)"/><path d="M259.67,156.31c5.26-3.75.85-11.47-3.23-12.26a5.48,5.48,0,0,0-4.48,1.57c-.26.3-.26.3.92,2.66,4.76,9.44,4.76,9.44,6.79,8m-12.81-8.42c1-.59,2-1.06,3-1.69,4.86-3.44,7.08-5,10.32-4.08s5.36,4.73,4.78,8.37-2.39,4.93-7.68,8.36l-2.09,1.41a11.88,11.88,0,0,1-1.74,1.08c-.3.1-.4-.24-.36-.38.23-.68,1.11-.78,1.33-1.47a2.71,2.71,0,0,0-.33-1.66c-4.66-10.5-5.79-10-6.62-9.54-.25.12-.92.45-.79-.15a.47.47,0,0,1,.21-.25" transform="translate(-3.48 -5.35)"/><path d="M262.32,137.45l2.26-1.52c2.19-1.62,5.13-3.77,7.32-5.38,2.68,3.09,2.68,3.09,2,3.12-1.19,0-2.2-1-3.45-.64a9.35,9.35,0,0,0-3.59,2.42,43.52,43.52,0,0,0,2.56,5c1.48-1,2.45-1.75,2-3.9-.15-.68.26-.66.27-.66.32,0,2.79,5,2.78,5.05-.05.26-.22.58-.86-.12-1.3-1.41-3-.22-3.81.35,2.56,5,2.77,5.05,3.28,5.08,1,.07,3.93-2.08,4.69-4.54.23-.74,0-1.54.24-2.28.08-.22.36-.49.55-.11a2,2,0,0,1,.13.37c.29,1,.67,2.26.95,3.22l-10.35,7.59c-.69.46-.65-.2-.65-.21.16-.69,1.09-.81,1.15-1.57a4.63,4.63,0,0,0-.82-2.39c-4.85-9.09-4.85-9.09-6.27-8.36-.89.46-.39-.52-.35-.55" transform="translate(-3.48 -5.35)"/><path d="M274.3,128.48c1.86-1.35,3.53-3,5.45-4.24.48-.32.54.16.5.28-.25.78-1.26,1.1-1.2,2.06,0,.42.11.79,1.56,3.44l3.24,5.89c.95,1.7,1.15,1.6,1.69,1.31a6.78,6.78,0,0,0,3.08-3.83,9.4,9.4,0,0,0,.23-3.28c-.08-1.29.45-.78.45-.77A31.85,31.85,0,0,1,291,134c-3.35,2.45-6.44,5.26-9.8,7.7a.29.29,0,0,1-.5-.21c0-.09,0-.17.37-.51a2,2,0,0,0,.68-2.08c-.18-.73-1.13-2.46-3.2-6.26-1.92-3.52-2.43-4.47-4-3.47-.6.4-.85-.2-.27-.64" transform="translate(-3.48 -5.35)"/><path d="M285.63,119.57c.78-.62,1.61-1.18,2.38-1.82,3-2.65,3-2.65,3-2.07a.71.71,0,0,1-.25.44c-.7.73-.92,1-.36,2.43.42,1.06,4.48,8.71,5.62,9.6.45.36.92.06,1.24-.2.63-.52.67.2.47.44l-5,4.2c-.23.18-.33.11-.38.08-.3-.2,0-.53.12-.67,1.05-1.18,1-1.36-1.69-6.33-3.5-6.44-3.62-6.36-4.75-5.6-.21.14-.43.29-.58,0,0,0-.09-.24.19-.48" transform="translate(-3.48 -5.35)"/><path d="M291.78,114.36c1-.77,1.91-1.59,2.87-2.38,4.85,1.44,7.88,2.28,10.78,3l-.45-.86c-3.76-6.88-3.76-6.88-5.36-5.75-.14.09-.47.33-.57-.17-.06-.31,3.9-3.72,3.95-3.71s.52.15,0,.81a2.86,2.86,0,0,0,0,3.47l3,5.45c2.59,4.87,2.59,4.87,2.07,5-.3.08-6.73-1.79-10-2.8-1-.29-1.41-.45-1.64-.52,4.43,8.78,4.84,8.45,6.37,7.22.36-.28.45.1.45.12.11.48-4.28,3.94-4.33,3.93s-.47-.21.17-.88c1.31-1.37,1.18-1.61-2.27-7.78-1.28-2.29-2.61-4.66-4.75-3.53-.29.15-.41.08-.46,0s-.19-.34.14-.63" transform="translate(-3.48 -5.35)"/><path d="M309.05,98.4a7.1,7.1,0,0,1,.62-.55l.1-.08a6.17,6.17,0,0,1,2.17-1c1-.32,1-.32,1.07-.48.11-.33-.31-.76.09-1,.16,0,.22.05.48.43,2.29,3.47,2.29,3.47,1.74,3.46-.11,0-.17,0-.46-.25a4.35,4.35,0,0,0-3.4-1,3.93,3.93,0,0,0-2.72,2.64c-.93,2.55.32,6.92,2.68,9.35,3.15,3.26,5.83.79,6-1.68.06-1.18-1.61-3.43-1.73-3.55-.39-.4-.72-.27-1.46.29-.59.45-.59-.26-.41-.48l1-1c3.36-3.6,3.36-3.6,3.32-2.91s-.89,1.24-.54,2.08,1.14,2.32,1.3,2.63c.36.68.36.68.33.82a12.65,12.65,0,0,1-2.38,5c-2.95,3.49-6.31,2.77-8.18.63-2.47-2.82-3.75-9.2.4-13.33" transform="translate(-3.48 -5.35)"/><path d="M328.85,97.2c3.25-3.94-2-12.63-5.08-12.3a3.18,3.18,0,0,0-2.13,1.72c-.06.25-.06.25,1.12,2.54,4.88,9.45,4.88,9.45,6.09,8m-10.46-8.39c.61-.59,1.3-1.09,1.87-1.72,2.9-3.45,4.09-4.89,6.34-4s4.56,4.65,4.87,8.25c.34,3.88-.82,5.12-3.93,8.44l-1.27,1.43c-1.17,1.23-1.48,1.56-1.4.72.06-.59.72-.88.73-1.49a4.53,4.53,0,0,0-.64-2c-4.91-10.21-5.46-9.75-6.16-9.16-.48.41-.51-.2-.51-.2a.36.36,0,0,1,.1-.25" transform="translate(-3.48 -5.35)"/><path d="M327.41,78.51c.45-.54,1-1.05,1.41-1.61,1.45-2,1.45-2,1.56-2.08s.13.06.15.11a.5.5,0,0,1,0,.59c-.55,1-.52,1.3,2.25,6.32,3.42,6.19,3.66,6.26,4.21,5.56.09-.11.35-.44.47.07a.55.55,0,0,1-.09.46s-2.82,3.62-2.89,3.67-.36-.21-.33-.41c.07-.44.43-.79.39-1.27a5,5,0,0,0-.68-1.82c-4.95-9.89-5.6-9.43-5.88-9.23s-.71.49-.65-.12a.49.49,0,0,1,.11-.24" transform="translate(-3.48 -5.35)"/><path d="M334.38,68.78l.08,0c.1,0,.14.06.29.28l1.59,2.44c.25.38.41.63.12.81-.61-.23-1-.84-1.58-1a1.5,1.5,0,0,0-1.3.11c-.76.54-.94,2-.4,3.25.76,1.75,1.91,1.11,2.6.73,3.41-1.88,4.75,2.35,5.07,3.69.65,2.64.29,5.64-2.62,6.18.06.48.49.92.19,1.45-.13,0-.17,0-.41-.36-2.54-4.11-2.54-4.11-2.16-4.12,0,0,.13,0,.37.27.54.53,2.39,2.19,3.42,1.19,1.2-1.17.61-3.79-.38-4.76-.55-.54-1.15-.55-2.22,0s-2.72,1.27-4.25-1.64c-.56-1.07-2-5.74,1.72-7.35,0-.35-.4-.66-.13-1" transform="translate(-3.48 -5.35)"/><path d="M341.06,70.35c1.3-2.22-1-6.69-2.27-6.42-.47.1-.71.67-1,1.51l3,5.37a5.48,5.48,0,0,0,.34-.46m-3.14-6.77c2.83-4.49,4.53,2.21,4.54,2.28a6.26,6.26,0,0,1-1.37,5.63c2.42,4.43,2.42,4.43,2.74,4.81s.27.32,1-.3a.46.46,0,0,1,.19.63c-.09.18-2.24,3.51-2.25,3.51s-.07,0-.1,0c-.2-.19-.22-.38-.07-.77.37-.92.37-.92-3.61-8.17-2.25-4.09-2.25-4.09-3.07-3.5-.18-.06-.4-.38-.11-.84s.4-.54.62-.87l1.46-2.43" transform="translate(-3.48 -5.35)"/><path d="M340.36,59.48a16.89,16.89,0,0,0,1.58-2.92c.23-.55.24-.55.35-.6.32.24.22.59.13.91-.29,1-.13,1.34,1.71,4.69l3.24,5.9c1,1.75,1.21,2.17,1.77.19.42-1.48-.28-3.68-.79-5.3-.13-.4-.1-.44,0-.54.13.06.19.09,2.24,4.63,0,0-2.46,4.53-3,5.81a1.35,1.35,0,0,1-.22.42h-.09c-.27-.25-.21-.44-.11-.79.34-1.1,0-1.66-1.93-5.29-3.78-6.94-3.78-6.94-4.67-6.39a.52.52,0,0,1-.2-.73" transform="translate(-3.48 -5.35)"/><path d="M348.7,58.15l.7-1.9c-.88-1.14-1.81-2.22-2.71-3.34l2,5.24m-3.73-9c0-.11.09-.23.14-.35,2.51,3,4.73,6.13,7.29,9,.45.52.64.62.91.3.25.09.28.55.26.6s-1,2.88-1.09,3c0,0-.34-.1-.23-.65s.24-1.18-2.33-4.21l-.45,1.13c-.12.32-.47.55-.38,1,0,.05,1.38,4.56,2.24,4.15a1,1,0,0,0,.21-.2.56.56,0,0,1,.25.59,21.12,21.12,0,0,1-1,2.22c-.09,0-.3-.2-.25-.7a5.44,5.44,0,0,0-.48-2.47c-.26-.77-.63-1.73-.78-2.11C347.82,56.71,345,49.16,345,49.15" transform="translate(-3.48 -5.35)"/><path d="M346.11,46.67a17.43,17.43,0,0,0,.9-2.93l.09,0a.84.84,0,0,1,.19.67c-.12,1,.24,1.39,3.13,4.2-2-6-2.07-6-2.75-6.06-.15-.19-.15-.19.23-2.64.27.08.29.59.29.59,0,1.41,2.68,8.51,2.71,8.57s3,6.5,3.41,5.17h.1c.45.66-.23,2.63-.55,3.45l-.1,0a.75.75,0,0,1-.18-.62c.15-1.49-2.56-5.57-2.59-5.61s-3.89-4.86-4.59-4.15h-.1c-.25-.33-.21-.54-.19-.59" transform="translate(-3.48 -5.35)"/><path d="M354.34,42.16c-.46-1.25-.67-1.78-.82-2.17,0,.44.07.89.08,1.34a5.48,5.48,0,0,0,.74.83m.84,3.61c-.07-.51-.23-1.42-.23-1.42l-.07-.08c-.33-.39-.75-.94-1.25-1.65,0,.11,0,.21,0,.32l1.56,2.83m-2.91-7.06-.56-1,0,1,.56,1c0-.34,0-.69,0-1m-1.73-3.15L350,34.51c0,.34,0,.68,0,1l.58,1.06c0-.35,0-.69,0-1m0,2.31-.58-1c0,.4,0,.79-.05,1.19l1.49,2.72.81,1.5q0-.6.06-1.2l-.57-1c0,.32,0,.64,0,1l-1.16-2.12c0-.33,0-.65,0-1m-1.86-6.5-.49-.89a31.33,31.33,0,0,1,0,4.34l.48.89a29.87,29.87,0,0,0,0-4.34m-1.94,2.39a31.43,31.43,0,0,0,0-7.07l3.06,5.57c0,.33.07.67.1,1l.58,1.06c0-.31-.06-.61-.1-.91l1.17,2.12c0,.3.07.6.1.91l.56,1c0-.41-.08-.82-.13-1.22l1.32,2.4c0,.28.07.56.1.84a7.42,7.42,0,0,1,1.42,2.86l.12,0c.1-.1.14-.15.21-.46l1.53,3.31c-.35.37-.75.23-1.52-.56,1,1.85,1,1.85,1.68,5.63-.81-1.2-1.38-2.52-2.07-3.79l-1.27-2.31,0,.47c.51,1,1.7,3.22,3.28,6.6l-1-.21c-1.53-3.38-2.23-4.86-5.6-11l-3.46-6.3" transform="translate(-3.48 -5.35)"/><path d="M349.89,29.07c.51.88,1.33,2.3,2.48,4.38.46.86,1.07,2,1.52,2.88-1.37-2.39-2.3-4-2.74-4.71l-1.26-2.55m1.45,4.49c.14,0,.38,0,.45.17s2.15,4.21,3.69,7.45c-.2-.13-.55-.22-.66-.43-1.27-2.34-2.28-4.81-3.48-7.19m-2-2.83a23.3,23.3,0,0,0-2.27-6.88l1.77,3.22A22.73,22.73,0,0,1,350,29.64l3.67,6.68a25.26,25.26,0,0,1,1.94,4l.28.89-1.7-2.88a7.92,7.92,0,0,0-1-2.29l-2.8-5.1a24.26,24.26,0,0,1,.7,3l-1.76-3.21m-2.84-5.6a23.45,23.45,0,0,0-1.87-5.69l1.76,3.21a23.17,23.17,0,0,1,1.87,5.69l-1.76-3.21" transform="translate(-3.48 -5.35)"/><path d="M16.52,227.74c.09.15.19.3.28.46,1.19,2.1,2.05,3.63,3.68,6.47-1.08-2.1-1.34-2.59-2.37-4.65l.39.48.08.15-.08-.08c0,.09,0,.09.5,1,2.73,5,2.73,5,3.05,5.38l.08.15c-.23-.27-.45-.55-.66-.82l-.08-.15.08.08a5.52,5.52,0,0,0-.56-1.08c-.54-1-1.27-2.32-1.82-3.31l-.6-1.1h0c1.05,2.08,1.33,2.63,2.45,4.8l0,0c-1.34-2.35-2.53-4.45-3.53-6.23h0c2.84,5.18,2.84,5.18,3.13,5.64l.08.15-.54-.86L20,234l0,0c0-.08,0-.08-1.25-2.31-1.79-3.28-1.79-3.28-2.14-3.87l-.08-.15" transform="translate(-3.48 -5.35)"/><path d="M23.34,238.38c.09.09.11.11.17.13l0,0c0-.78-3.35-6.4-4-6.68l0,0a33.57,33.57,0,0,0,3.79,6.55m-3.64-6.62c1.38,1.48,4.2,6.42,4,7-.43.13-4.34-6.39-4.27-7.13l0,0a.66.66,0,0,1,.26.19" transform="translate(-3.48 -5.35)"/><path d="M25.48,240.23c.19.14.52.38.42-.13s-1.93-4.7-4.13-6.25a.74.74,0,0,0,.08.18l2.69,4.9a3.68,3.68,0,0,0,.94,1.3m-4.35-7c.32.29.66.57,1,.84,2,1.65,4.51,6.49,3.88,6.63-.14,0-.4-.17-.53-.27s-.54-.44-.79-.67l-.09-.15c.11.09.12.09.17.1s0-.13-.4-.85l-2.29-4.17a4.12,4.12,0,0,0-.88-1.3l-.08-.16" transform="translate(-3.48 -5.35)"/><path d="M23.81,235.25q.86.57,1.77,1.11c.3.55.61,1.09.92,1.63h-.05c-.7-1.15-.91-1.45-1.43-1.79l-.38-.24-.08,0a1.35,1.35,0,0,0,.12.25L26,238.62l.47.3a.87.87,0,0,0,.22.11l0,0a1.89,1.89,0,0,0-.23-.59l.07,0,1.07,1.94-.07,0c-.5-.82-.6-.92-.94-1.13l-.47-.3,1.12,2c1,1.8,1.47,1.42,1.47,1.42a3.48,3.48,0,0,0-.34-1l.07,0,.77,1.59c-.66-.39-1.3-.78-1.9-1.2l-.09-.15c.13.07.14.07.2.07s0-.12-.37-.84l-2.25-4.1c-.52-.95-.62-1.09-1-1.36l-.09-.15" transform="translate(-3.48 -5.35)"/><path d="M26.11,236.66c.35.2.72.4,1.09.59l.08.15c-.14-.06-.15-.06-.23-.05s0,.15.36.86l2.18,4c1.15,2.09,1.57,1.46,1.58,1.45a5.42,5.42,0,0,0-.31-1l.08,0c.24.52.48,1,.73,1.55-.67-.32-1.32-.66-2-1l-.08-.15c.13.06.14.06.21,0s0-.15-.41-.92l-2.26-4.12c-.48-.87-.58-1-1-1.28l-.08-.15" transform="translate(-3.48 -5.35)"/><path d="M28.48,237.88l1.15.51.09.15c-.19,0-.2,0-.25,0s0,.19.36.85l2.29,4.17c.49.88.6,1,1,1.24l.08.15-1.15-.52-.08-.14c.18.06.19.05.25,0s0-.19-.38-.86l-2.29-4.16c-.47-.87-.59-1-1-1.26l-.08-.14" transform="translate(-3.48 -5.35)"/><path d="M29.93,238.52l.61.25c1.81,2.17,3,3.6,5.43,6.41h0l-1.64-3c-1.15-2.09-1.27-2.29-1.94-2.61l-.08-.15c.44.16.88.3,1.33.45l.08.15c-.49-.06-.34.2.76,2.21l2.25,4.09-.06,0c-1.91-2.21-3.06-3.55-5.41-6.37h0l1.53,2.79c1.33,2.4,1.33,2.4,2,2.71l.08.15-1.25-.5-.08-.15c.48.13.33-.14-.84-2.27L31.4,240.4A4,4,0,0,0,30,238.67l-.09-.15" transform="translate(-3.48 -5.35)"/><path d="M36.05,240.45a5.68,5.68,0,0,1,1.29.57.21.21,0,0,1,0,.06c.3.51.61,1,.91,1.51h-.08c-1.79-2.6-2.84-2.05-2.9-1.6-.12.84,1.22,3.17,2.17,4.33,1.89,2.29,2.8,1.74,2.81,1.73s0-.26-.16-.64l-.5-.91a1.76,1.76,0,0,0-1.19-1.07l-.08-.15,1.37.34.08.15c-.29,0-.24.14,0,.6l.51.94c.27.49.4.7.54.91-.66.17-1.66.44-3.66-1.85-1-1.21-2.64-3.93-2.07-4.75.23-.34.72-.22.9-.17" transform="translate(-3.48 -5.35)"/><path d="M44.49,248c2.31.27.42-3-.53-4.19a4.51,4.51,0,0,0-3.47-2l0,0a.74.74,0,0,0,.08.17l2.69,4.9c.38.69.58,1,1.26,1.11m-5.07-6.62c.6.13,1.21.24,1.82.35,3.44.66,5.47,5.54,4.38,6.33a1.74,1.74,0,0,1-1.22.15L43,247.92l-.09-.15c.54.07.5-.08,0-.92l-2.28-4.17c-.48-.86-.61-1-1.13-1.15l-.09-.16" transform="translate(-3.48 -5.35)"/><path d="M44.14,242.18l1.64.2.08.15c-.53,0-.54.11-.07,1l2.28,4.17c.49.88.63,1,1.23,1.12l.08.15-1.64-.2-.08-.15c.56,0,.52-.12.06-1l-2.28-4.16c-.48-.87-.62-1-1.22-1.13l-.08-.15" transform="translate(-3.48 -5.35)"/><path d="M47.79,242.45c.84.08.84.08,1.87,1.75h-.12c-1.73-2.33-2.15-1.32-2.15-1.31s-.19,1.3,2.2,2.66c2.62,1.48,2.44,3.28,2.43,3.3-.1.51-.74.6-1.57.21-.42-.2-.42-.2-1.25-1.54l-.23-.36h.11c1.91,2.6,2.63,1.8,2.66,1.6,0,0-.05-1.67-2.32-2.87s-3.05-3.54-1.63-3.44" transform="translate(-3.48 -5.35)"/><path d="M53.29,246.43c1.47,0,.12-2.1-.48-2.67a2.27,2.27,0,0,0-1.93-.69s0,.05.09.25l1.61,2.92a1.86,1.86,0,0,0,.71.19m-3.63-3.68,1.74.11c2.21.15,3.65,3,2.75,3.73a.87.87,0,0,1-.73.14l-.72-.26.95,1.73c.47.84.59,1,1.38,1.08l.08.15-1.9-.13-.08-.14c.61,0,.57-.16.12-1L51,244c-.47-.85-.54-1-1.21-1.08l-.09-.16" transform="translate(-3.48 -5.35)"/><path d="M53.66,243l1.92,0,.08.15c-.64.05-.67.17-.2,1l2.18,4c.27.49.53,1,.91,1.08.17.06,1.35.24,1.5-.24a2.73,2.73,0,0,0-.13-1.05h.15c.2.55.38,1.1.61,1.63-1.15,0-2.27,0-3.39-.06l-.08-.15c.63,0,.6-.17.11-1.07l-2.26-4.12c-.49-.87-.62-1-1.32-1.07l-.08-.15" transform="translate(-3.48 -5.35)"/><path d="M63,246.61l-2.33-2.79h0c.19.93.39,1.8.65,2.82l1.7,0m-2.7-3.77c5.32,6.38,5.32,6.38,6.08,6.49l.08.15-1.87.06-.09-.15c.73-.17.73-.17-1.25-2.45l-1.86,0c.41,2.25.78,2.31,1.53,2.44l.08.15-1.81,0-.08-.15c.49-.16.52-.26.3-1.19-.39-1.78-.79-3.57-1.18-5.35l.07-.06" transform="translate(-3.48 -5.35)"/><path d="M63.12,242.91l1.79-.08L65,243c-.77.2-.77.2,2.47,3.13-.19-3.12-.19-3.12-1.21-3.21l-.08-.15,1.88-.12.08.14c-.32.09-.46.19-.49.58a14.17,14.17,0,0,0,.19,3.24l.87,1.58c.45.82.61,1,1.5,1l.08.15-2.26.13-.08-.15c.79-.09.77-.24.33-1.06l-.83-1.51c-.25-.43-3.28-3.18-3.31-3.2a1.29,1.29,0,0,0-.93-.43l-.08-.15" transform="translate(-3.48 -5.35)"/><path d="M70.43,242.43l1.1-.1,5.35,5.32q-.36-2.91-.71-5.82l1.29-.16.08.15c-.78.2-.8.31-.19,1.35,2.78,4.91,2.78,4.91,3.71,4.89l.08.15c-.73.1-1.45.19-2.18.27l-.08-.15c.74-.17.7-.28.09-1.39l-1.84-3.3-.61-1.09h0q.38,3,.76,6h-.08q-2.55-2.56-5.09-5.15h0c2.64,5.23,2.64,5.23,3.67,5.26l.08.15-2.08.2-.08-.15c.75-.16.74-.24-.49-2.76-1.67-3.47-1.67-3.47-2.64-3.53l-.08-.15" transform="translate(-3.48 -5.35)"/><path d="M85,247.58c2.86-.58.46-4.53-1.43-5.74-1.68-1.07-4-.81-3.55,1.36.41,2,2.73,4.7,5,4.38M81.34,241c3.61-.33,6.65,4.39,4.86,6.27-2,2.05-6.69-1-6.69-4.25a1.92,1.92,0,0,1,1.83-2" transform="translate(-3.48 -5.35)"/><path d="M91.11,246.41c3.63-.84,1.22-4.58-.39-5.64a5,5,0,0,0-4-.24s0,.06.06.19l2.69,4.91c.4.7.6,1,1.62.78m-5.86-5.89,2.71-.47c4.77-.79,6.25,4,5.26,5.44a3.64,3.64,0,0,1-2.32,1.23l-2.14.37-.08-.15c.79-.18.82-.32.35-1.2l-2.29-4.17c-.48-.86-.64-1-1.4-.9l-.09-.15" transform="translate(-3.48 -5.35)"/><path d="M92.18,239.25c1.39-.27,2.78-.55,4.18-.85.19.35.4.68,1,1.58l-.15.07c-.82-1.05-1.13-1.28-2.31-1.06l-.9.19c-.25,0-.26.07-.11.35L95.2,242l1.13-.23c.78-.17.87-.31.64-1l.17,0,1.06,1.95-.16,0c-.59-.74-.78-.78-1.55-.62l-1.12.23,1.12,2c.37.65.61.84,1.08.84,0,0,1.73-.08,1.9-.8a2.79,2.79,0,0,0,0-1.16l.17,0c.18.58.38,1.16.57,1.75-1.51.32-3,.63-4.49.92l-.09-.15c.87-.23.86-.39.4-1.22l-2.25-4.11c-.53-.95-.68-1-1.48-.95l-.09-.15" transform="translate(-3.48 -5.35)"/><path d="M97.55,238.14l2.42-.54.08.15c-.83.26-.87.4-.4,1.27l2.17,4c.28.49.54.95,1,1s1.8-.19,1.94-.79a3.57,3.57,0,0,0,0-1.13l.18,0c.18.57.33,1.15.54,1.72l-4.25,1-.08-.15c.77-.22.8-.36.29-1.29l-2.26-4.12c-.49-.87-.64-1-1.51-.84l-.08-.15" transform="translate(-3.48 -5.35)"/><path d="M102.71,237l2.4-.58.08.15c-.8.27-.84.41-.37,1.28L107.1,242c.5.88.67,1,1.52.81l.09.15-2.4.58-.08-.15c.8-.24.84-.39.36-1.27l-2.28-4.17c-.48-.86-.65-1-1.52-.82l-.08-.15" transform="translate(-3.48 -5.35)"/><path d="M105.71,236.23l1.23-.3c2.39,1.35,4.27,2.42,7.68,4.31h0l-1.64-3c-1.15-2.1-1.29-2.28-2.5-2.08l-.09-.15,2.51-.67.08.15c-1,.39-.82.65.29,2.67l2.24,4.09-.11,0c-3-1.64-4.32-2.39-7.66-4.29h0l1.53,2.79c1.34,2.38,1.34,2.38,2.52,2.19l.08.15q-1.25.33-2.49.63l-.08-.15c1-.35.88-.58-.31-2.75l-1.25-2.27c-.45-.81-.74-1.35-2-1.22l-.09-.15" transform="translate(-3.48 -5.35)"/><path d="M117.39,232.92a8.09,8.09,0,0,1,2.16-.3c.34.5.68,1,1,1.49l-.15.07c-2.12-2.29-4.9-.67-5,1a5.14,5.14,0,0,0,2.47,3.93,3.85,3.85,0,0,0,4.29-.22c.2-.2.14-.41,0-.77l-.49-.9c-.38-.68-.55-.78-1.73-.55l-.08-.14,2.41-.71.08.14c-.53.28-.52.4-.26.89l.52.94a3.6,3.6,0,0,0,.58.86c-6,3.87-8.6-1.81-8.26-3.48a3.11,3.11,0,0,1,2.44-2.29" transform="translate(-3.48 -5.35)"/><path d="M129.32,236.85c4.32-1.57,1.31-5.44-.32-6.16s-4.16.45-4.17.47,0,.07.06.2l2.69,4.9c.39.7.6,1,1.74.59m-6.15-5.47,3-.94c5.25-1.59,6.44,3.27,5.69,4.76a4.83,4.83,0,0,1-2.82,2l-2.39.74-.09-.15c.89-.33.94-.48.46-1.36l-2.29-4.17c-.48-.86-.65-.95-1.5-.75l-.09-.16" transform="translate(-3.48 -5.35)"/><path d="M130.86,228.94l2.55-.85.09.15c-.85.36-.9.52-.43,1.39l2.28,4.16c.5.88.67,1,1.58.71l.08.15-2.55.85-.08-.15c.85-.34.9-.49.42-1.37l-2.28-4.17c-.48-.86-.66-.94-1.58-.72l-.08-.15" transform="translate(-3.48 -5.35)"/><path d="M136.52,226.86a4,4,0,0,1,1.37-.22l1,1.4-.19.06c-1.92-2-2.95-.58-3-.08,0,1.07.88,1.69,2.68,1.86,3,.27,2.89,2.14,2.87,2.35-.15,2-3,2-3.2,1.76a16.26,16.26,0,0,1-1.12-1.52l.18-.06c2,2.1,3.61,1,3.66.2,0,0,.08-2-2.77-2.14-3-.16-3.64-2.82-1.48-3.61" transform="translate(-3.48 -5.35)"/><path d="M143.64,228.8c2.18-.87.62-3-.21-3.34a2.1,2.1,0,0,0-1.19-.11c-.23,0-1.39.26-1.27.56,0,.05.05.09.07.14l1.6,2.92a2.65,2.65,0,0,0,1-.17m-4.39-2.71,2.54-.9c3.15-1.1,4,1.69,3.43,2.82a2.33,2.33,0,0,1-1.47,1.11l-1,.08.95,1.73c.47.84.61.93,1.74.61l.08.15-2.75,1-.09-.15c.86-.36.91-.52.43-1.4L140.85,227c-.47-.85-.54-1-1.51-.7l-.09-.16" transform="translate(-3.48 -5.35)"/><path d="M145,224l2.68-1,.08.15c-.91.42-1,.58-.51,1.45l2.18,4c.28.48.54,1,1,.9s2-.5,2.16-1.18a3.69,3.69,0,0,0,0-1.22l.19-.08c.18.6.3,1.2.51,1.79-1.57.59-3.14,1.18-4.71,1.75l-.08-.15c.86-.37.9-.52.4-1.46l-2.26-4.12c-.47-.83-.62-1-1.61-.66L145,224" transform="translate(-3.48 -5.35)"/><path d="M157.09,223.81l-2.6-2.4h0c.08,1.2.19,2.21.33,3.28l2.29-.89m-2.92-3.46c3.62,3.34,5.13,4.7,5.56,5a1.29,1.29,0,0,0,1.36.23l.08.15-2.5,1-.08-.15c1-.58,1-.58-1.22-2.5l-2.52,1c.09,2.68.66,2.56,1.6,2.36l.08.15-2.47.94-.08-.15c.71-.45.76-.59.65-1.67-.31-3.61-.31-3.61-.56-6.25l.1-.11" transform="translate(-3.48 -5.35)"/><path d="M157.91,219.06l2.36-.95.09.15c-1.05.61-1.05.61,2.69,2.78.26-3.81.26-3.81-1.05-3.46l-.08-.15,2.43-1,.08.15a1.2,1.2,0,0,0-.71.93,17.19,17.19,0,0,0-.27,4l.87,1.58c.45.81.63.92,1.78.51l.08.15-3,1.21-.09-.15c1-.48,1.05-.67.61-1.49l-.83-1.5a27.8,27.8,0,0,0-3.78-2.48,1.23,1.23,0,0,0-1.15-.1l-.08-.15" transform="translate(-3.48 -5.35)"/><path d="M167.42,215.14l1.4-.6q3,2.16,6,4.3-.08-3.42-.13-6.84l1.59-.7.08.14c-1,.57-1,.7-.4,1.73a45.13,45.13,0,0,0,2.61,4.42c.32.37.62.31,1.34.07l.08.15-2.7,1.19-.08-.14c.92-.52.89-.63.28-1.74L175,212.74l-.05,0c.06,2.35.11,4.69.16,7l-.1,0-5.66-4.21h0c2.59,5.32,2.59,5.32,3.88,4.93l.08.15-2.66,1.13-.08-.14c.93-.5,1-.54-.22-3.2-1.62-3.57-1.62-3.57-2.82-3.23l-.08-.15" transform="translate(-3.48 -5.35)"/><path d="M184.67,215.56c3.46-1.77,1-5.63-1.1-6.38-2.32-.83-5.42,1.08-4.11,4,1,2.23,3.23,3.24,5.21,2.35M181,209c4-1.62,6.76,2,5.71,4.74-1.19,3.12-6.32,3.77-7.84.21a3.71,3.71,0,0,1,2.13-5" transform="translate(-3.48 -5.35)"/><path d="M192,211.92c4.56-2.4,1.52-6.14-.18-6.66a2.86,2.86,0,0,0-2,.11,13.91,13.91,0,0,0-2.29,1c-.16.08-.17.09-.07.29l2.69,4.9c.43.74.66.93,1.82.36M185.7,207l3.22-1.53c5.66-2.63,6.43,2.55,6,3.87-.56,1.74-2.52,2.73-3.17,3.06l-2.55,1.2-.08-.15c.94-.5,1-.68.52-1.56l-2.28-4.17c-.49-.86-.66-.92-1.57-.57l-.09-.15" transform="translate(-3.48 -5.35)"/><path d="M193.88,203.05l4.81-2.38c.11.2.11.2,1,1.55l-.17.13c-.85-1-1.19-1.14-2.54-.5l-1,.52c-.3.15-.29.17-.15.44l1.35,2.45,1.29-.64c.91-.46,1-.64.81-1.43l.19-.09,1.06,2-.18.09c-.62-.69-.82-.66-1.72-.23l-1.29.65,1.12,2c.38.64.63.78,1.17.63,0,0,2-.66,2.22-1.57a3.67,3.67,0,0,0,.05-1.35l.18-.09c.17.63.36,1.25.53,1.88-1.73.86-3.46,1.72-5.18,2.56l-.09-.15c1-.56,1-.74.55-1.58l-2.25-4.1c-.53-1-.7-1-1.62-.63l-.08-.15" transform="translate(-3.48 -5.35)"/><path d="M200.05,200l2.75-1.39.08.15c-.94.56-1,.74-.53,1.61l2.18,4c.27.48.54.94,1,.84s2-.82,2.21-1.53a4.38,4.38,0,0,0,0-1.3l.2-.1c.17.61.29,1.23.49,1.83q-2.4,1.24-4.8,2.46l-.08-.15c.88-.51.92-.68.41-1.61l-2.26-4.12c-.48-.87-.65-.92-1.64-.51l-.08-.15" transform="translate(-3.48 -5.35)"/><path d="M205.88,197l2.66-1.39.08.15c-.88.55-.93.73-.47,1.59l2.29,4.17c.49.88.67.93,1.62.5l.08.15-2.66,1.39-.08-.15c.89-.53.94-.7.47-1.59l-2.29-4.17c-.48-.86-.66-.91-1.62-.5l-.08-.15" transform="translate(-3.48 -5.35)"/><path d="M209.22,195.26l1.35-.72,8.12,2.81,0,0-1.64-3c-1.16-2.09-1.3-2.27-2.61-1.69l-.08-.15,2.72-1.48.08.15c-1.05.72-.91,1,.2,3l2.24,4.09-.12.07c-1.13-.39-4.55-1.55-8.09-2.78h0l1.53,2.79c1.31,2.33,1.34,2.38,2.64,1.81l.08.15-2.75,1.46-.08-.15c1.12-.71,1-.93-.2-3.11l-1.24-2.27c-.45-.81-.75-1.34-2.08-.83l-.08-.15" transform="translate(-3.48 -5.35)"/><path d="M221.89,188.17a10,10,0,0,1,2.28-.91c.34.49.61.88,1,1.44l-.16.12c-2.31-2.21-5.37.85-5.26,2.83.19,3.71,4.5,5,7,2.18.27-.31.22-.53,0-.92l-.5-.9c-.38-.68-.54-.76-1.79-.18l-.08-.14,2.55-1.44.08.14c-.57.46-.57.58-.29,1.08l.51.94a2.74,2.74,0,0,0,.59.84c-1.41,1.31-3.17,2.95-5.74,2.53a3.69,3.69,0,0,1-2.94-3.92,4.87,4.87,0,0,1,2.72-3.69" transform="translate(-3.48 -5.35)"/><path d="M234.23,189.6c4.43-2.82,1.42-6.49-.24-6.91a2.69,2.69,0,0,0-1.94.25,15.46,15.46,0,0,0-2.24,1.22c-.14.09-.16.1-.06.3l2.69,4.9c.4.7.61,1,1.79.24M228,184.92l3.15-1.83c5.51-3.15,6.32,2.18,5.92,3.58-.53,1.86-2.45,3-3.08,3.42l-2.49,1.44-.08-.15c.92-.59,1-.78.5-1.66l-2.29-4.17c-.48-.86-.66-.92-1.55-.47l-.08-.16" transform="translate(-3.48 -5.35)"/><path d="M235.9,180.27l2.6-1.56.08.15c-.86.6-.91.79-.44,1.66l2.28,4.17c.49.87.67.92,1.6.43l.08.15-2.6,1.56-.08-.15c.88-.59.93-.78.45-1.66l-2.29-4.17c-.48-.86-.66-.91-1.59-.43l-.09-.15" transform="translate(-3.48 -5.35)"/><path d="M241.62,176.6a4.22,4.22,0,0,1,1.37-.55c.23.32.52.71,1,1.35l-.19.11c-2-1.91-3,.18-3,.58,0,1.21.87,1.71,2.67,1.49,2.71-.34,2.88,1.44,2.87,2,0,2-2.81,3-3.2,2.71a13,13,0,0,1-1.12-1.46l.17-.1c2.08,2,3.73.27,3.67-.76,0-.35-.25-2.06-2.76-1.64-3,.52-3.66-2.34-1.49-3.72" transform="translate(-3.48 -5.35)"/><path d="M248.71,177.19a2,2,0,0,0-.41-3.72,2.38,2.38,0,0,0-1.45.38c-.9.5-.88.53-.73.83l1.61,2.92a2.94,2.94,0,0,0,1-.41m-4.36-2.07,2.5-1.57c3.08-1.89,3.74,1,3.56,1.93a3.09,3.09,0,0,1-1.58,2.05l-1,.3,1,1.74c.46.83.6.91,1.71.3l.08.15-2.72,1.7-.08-.15c.85-.6.9-.78.42-1.67l-2.28-4.16c-.47-.85-.54-1-1.51-.46l-.08-.16" transform="translate(-3.48 -5.35)"/><path d="M250,171.55l2.6-1.67.08.15c-.89.66-.94.85-.47,1.72l2.18,4c.27.49.54.95,1,.8s1.92-1,2.08-1.77a4.87,4.87,0,0,0,0-1.36l.19-.12c.18.62.31,1.26.52,1.87q-2.26,1.49-4.55,3l-.08-.15c.83-.6.87-.78.36-1.72l-2.26-4.12c-.48-.87-.65-.91-1.58-.4l-.08-.15" transform="translate(-3.48 -5.35)"/><path d="M261.69,168.84l-2.54-2.14h0c.1,1.21.22,2.31.39,3.58l2.17-1.45m-2.87-3.25c3.22,2.7,5,4.18,5.43,4.47s.67.28,1.3,0l.08.15c-.78.53-1.56,1.06-2.35,1.58l-.08-.15c.93-.83.93-.83-1.23-2.52l-2.39,1.59c.18,2.94.65,2.72,1.58,2.29l.09.15-2.36,1.55-.08-.15c.67-.65.72-.82.6-2-.36-3.6-.4-4-.68-6.82l.09-.13" transform="translate(-3.48 -5.35)"/><path d="M262.36,163.42l2.2-1.5.08.15c-.95.86-.95.86,2.63,2.56.12-4.25.12-4.25-1.1-3.62l-.09-.14c.76-.52,1.51-1.05,2.25-1.57l.09.15c-1.33,1.22-.77,5.55-.76,5.59l.86,1.58c.46.81.63.9,1.7.23l.08.15-2.74,1.89-.08-.15c1-.73,1-.94.52-1.76l-.83-1.5c-.25-.43-3.61-2-3.64-2a1,1,0,0,0-1.09.11l-.08-.15" transform="translate(-3.48 -5.35)"/><path d="M271.14,157.32l1.27-.9,5.67,3.66q-.21-3.74-.43-7.46l1.41-1,.08.15c-.86.78-.88.93-.27,2a44,44,0,0,0,2.58,4.39c.31.34.58.23,1.22-.16l.08.15c-.79.6-1.6,1.19-2.4,1.78l-.08-.15c.82-.72.78-.87.17-1.95l-1.84-3.28-.61-1.09,0,0q.24,3.84.47,7.68l-.09.07-5.39-3.62,0,0c2.62,5.37,2.62,5.37,3.78,4.72l.08.15-2.4,1.72-.08-.15c.84-.72.91-.78-.34-3.47-1.64-3.64-1.64-3.64-2.74-3.05l-.08-.15" transform="translate(-3.48 -5.35)"/><path d="M286.89,154.82c3-2.45.61-6.56-1.66-6.82s-5.1,2.94-2.51,6.19a2.84,2.84,0,0,0,4.17.63m-3.65-6.6c3.3-2.28,5.93.85,5.46,3.83-.58,3.77-4.81,5.4-6.74,2.61a4.81,4.81,0,0,1,1.28-6.44" transform="translate(-3.48 -5.35)"/><path d="M293.21,149.71c3.76-3.22,1-7-.8-7.22-.32,0-.72-.07-1.79.6a19.37,19.37,0,0,0-1.77,1.35c-.06.06,0,.16,0,.26l2.69,4.9c.4.7.6,1,1.63.11m-5.9-4.4,2.75-2.15c1.66-1.29,2.68-1.56,3.76-1a4.26,4.26,0,0,1,1.82,3.83c-.16,2.22-2,3.76-2.64,4.27l-2.18,1.7-.08-.15c.8-.69.85-.89.37-1.78l-2.29-4.17c-.48-.86-.64-.9-1.42-.37l-.09-.16" transform="translate(-3.48 -5.35)"/><path d="M294.23,139.82c1-.81,2-1.63,3-2.45l1-.82c.19.34.4.67,1,1.53l-.14.16c-.85-1-1.17-1-2.22-.17l-.86.71c-.26.21-.25.23-.1.5l1.34,2.45,1.07-.87c.75-.63.83-.85.6-1.66l.15-.13,1.07,2-.16.12c-.58-.65-.76-.59-1.5,0l-1.06.88,1.12,2c.2.34.47.8.95.57,0,0,1.67-1,1.88-1.95a4.25,4.25,0,0,0-.05-1.58l.16-.12c.19.65.4,1.29.59,1.94l-1.2,1-3.08,2.53-.09-.15c.84-.77.82-1,.37-1.8l-2.25-4.1c-.53-.95-.68-1-1.46-.44l-.08-.15" transform="translate(-3.48 -5.35)"/><path d="M299.33,135.62l2.2-1.86.08.15c-.74.72-.78.93-.31,1.8l2.18,4c.33.58.56.92,1,.77a4,4,0,0,0,1.68-1.76,4.51,4.51,0,0,0-.06-1.56l.15-.13c.21.63.36,1.28.59,1.9q-1.89,1.62-3.84,3.26l-.08-.15c.7-.66.73-.85.22-1.79l-2.26-4.11c-.49-.87-.63-.91-1.43-.33l-.08-.15" transform="translate(-3.48 -5.35)"/><path d="M304,131.67l2.07-1.8.08.15c-.67.69-.7.88-.23,1.75l2.29,4.17c.49.87.64.91,1.38.34l.08.15-2.07,1.8-.08-.15c.69-.67.72-.87.24-1.75l-2.28-4.17c-.48-.86-.64-.9-1.4-.34l-.08-.15" transform="translate(-3.48 -5.35)"/><path d="M306.55,129.42l1-.91c2.15.66,3.85,1.18,6.82,2.11l0,0-1.64-3c-1.15-2.1-1.29-2.27-2.27-1.53l-.08-.15,2-1.82.08.15c-.75.86-.6,1.12.5,3.14l2.25,4.09-.09.08c-2.11-.66-3.77-1.18-6.79-2.1h0l1.53,2.79c1.3,2.33,1.33,2.38,2.31,1.64l.09.15-2.08,1.85-.08-.15c.84-.88.69-1.15-.48-3.28l-1.24-2.27c-.45-.81-.75-1.35-1.78-.65l-.08-.15" transform="translate(-3.48 -5.35)"/><path d="M315.81,120.71a6.62,6.62,0,0,1,1.63-1.14c.36.54.6.9,1,1.43l-.11.14c-2.07-2.15-3.74,1.39-3.76,2.7,0,2.29,2.31,6,4.88,3.48,1.2-1.18,1-1.58.73-2l-.49-.91c-.38-.67-.52-.74-1.4,0l-.08-.14,1.76-1.7.08.15c-.37.51-.35.64-.08,1.14l.51.94a3.92,3.92,0,0,0,.53.8c-.55,2-4.2,5.19-6.23,1.49a5.21,5.21,0,0,1,1.05-6.29" transform="translate(-3.48 -5.35)"/><path d="M325.32,121.33c2.89-3.2-.06-7.32-1.69-7.16-.2,0-2.72,1.44-2.36,2.11l2.69,4.91c.38.68.58.94,1.36.14M320,116.87c.71-.69,1.4-1.39,2.09-2.08,3.89-3.84,4.87,2.83,4.87,2.9a5.8,5.8,0,0,1-1.76,4.15c-.55.55-1.11,1.1-1.66,1.66l-.09-.15c.61-.68.63-.87.15-1.76l-2.29-4.17c-.48-.86-.62-.9-1.22-.39l-.09-.16" transform="translate(-3.48 -5.35)"/><path d="M325.17,111.63q.81-.87,1.62-1.71l.08.14c-.52.66-.53.85-.06,1.72L329.1,116c.49.88.62.92,1.21.38l.08.14-1.62,1.72-.09-.15c.54-.64.55-.84.07-1.72l-2.29-4.17c-.48-.87-.61-.91-1.21-.37l-.08-.15" transform="translate(-3.48 -5.35)"/><path d="M328.66,107.65a2.36,2.36,0,0,1,.87-.6l.9,1.35-.11.12c-1.67-1.84-2,.28-2,.3a1.62,1.62,0,0,0,2.13,1.8c2.11-.47,2.34,1.89,2.36,2.16.14,1.89-1.53,3-1.88,2.59a16.72,16.72,0,0,1-1-1.39l.1-.11c1.78,1.89,2.49.08,2.51-.46,0,0,0-2.34-2.07-2-1.13.15-1.65.23-2.2-.88a2.69,2.69,0,0,1,.37-2.83" transform="translate(-3.48 -5.35)"/><path d="M333.68,108.07c1.26-1.55-.27-3.92-1.18-3.74a2.18,2.18,0,0,0-1,.8c-.13.17-.15.19,0,.46l1.6,2.92a1.38,1.38,0,0,0,.61-.44m-3.36-2,1.46-1.65c1.76-2,2.72.93,2.76,1.89a2.69,2.69,0,0,1-.73,2.09l-.61.33.95,1.73c.46.84.57.91,1.23.28l.08.15-1.58,1.78-.08-.15c.49-.62.49-.81,0-1.7l-2.29-4.17c-.47-.85-.54-1-1.12-.43l-.08-.15" transform="translate(-3.48 -5.35)"/><path d="M333.57,102.37c.49-.57,1-1.13,1.44-1.7l.09.15c-.48.67-.48.86,0,1.73l2.18,4c.22.38.51.9.76.82a2.67,2.67,0,0,0,1.08-1.41,3.86,3.86,0,0,0-.21-1.75l.1-.12c.23.62.44,1.26.69,1.87q-1.21,1.48-2.49,3l-.09-.15c.46-.61.45-.78-.06-1.72l-2.26-4.12c-.48-.87-.6-.91-1.14-.39l-.08-.15" transform="translate(-3.48 -5.35)"/><path d="M340.75,99.69l-2.05-2.16v0c.31,1.24.59,2.27.94,3.55.38-.47.76-.94,1.12-1.41m-2.48-3.27c4,4.21,4.19,4.37,4.37,4.52.34.31.46.31.82,0l.08.15c-.39.5-.78,1-1.19,1.52l-.08-.14c.44-.82.44-.82-1.29-2.53-.4.52-.81,1-1.23,1.55.68,2.92.93,2.73,1.47,2.3l.08.15-1.24,1.53-.08-.15c.32-.65.32-.81,0-2-.58-2.27-1.16-4.53-1.75-6.8l0-.13" transform="translate(-3.48 -5.35)"/><path d="M340.1,94.34c.37-.47.73-1,1.08-1.43l.08.15c-.41.82-.41.82,2.17,2.6-.8-4.17-.8-4.17-1.43-3.58l-.08-.15c.35-.49.71-1,1.05-1.45l.08.15c-.56,1.15.7,5.41.71,5.45l.87,1.58c.45.81.57.9,1.1.28l.08.14c-.43.59-.87,1.19-1.32,1.78l-.08-.15c.45-.69.41-.89,0-1.71l-.82-1.5a19.36,19.36,0,0,0-2.7-2.09c-.34-.21-.47-.13-.67.08l-.08-.15" transform="translate(-3.48 -5.35)"/><path d="M344.26,88.66l.56-.81L349,91.71c-.79-2.94-1.08-4-1.95-7.23l.57-.91.08.15c-.31.7-.29.84.3,1.86,2.37,4.21,2.37,4.21,2.51,4.4.26.36.39.26.67-.06l.08.15c-.32.51-.65,1-1,1.54l-.08-.15c.32-.64.27-.76-.34-1.87l-2.43-4.37,0,0c.81,3,1.12,4.08,2,7.45l0,.06c-.95-.92-2.27-2.16-4-3.8h0c2.75,5.36,2.75,5.36,3.31,4.79l.08.15-1.07,1.55-.08-.15c.37-.69.34-.78-1-3.4-1.78-3.62-1.78-3.62-2.31-3.1l-.08-.15" transform="translate(-3.48 -5.35)"/><path d="M352.85,87.29c1.13-2.2-1.6-7.14-3.08-6.66-1.76.58-.41,5.8,1.81,7a.85.85,0,0,0,1.27-.32m-3.64-6.61c1.3-1.89,3.49,1.28,4,4.13.44,2.62-.62,4.21-2.11,3.14-1.71-1.23-3-5.34-1.87-7.27" transform="translate(-3.48 -5.35)"/><path d="M355.06,83c1.26-2.77-1.52-7.17-2.59-6.91,0,0-1.34,1.11-1,1.73l2.69,4.9c.39.69.57,1,.91.28m-4.3-4.75.95-1.76c1.66-3,3.55,2.75,3.57,2.81a5.64,5.64,0,0,1-.2,4.17c-.24.46-.5.93-.75,1.39l-.09-.15c.28-.6.22-.8-.24-1.64l-2.29-4.17c-.44-.8-.55-1-.87-.49l-.08-.16" transform="translate(-3.48 -5.35)"/><path d="M353.05,73.87c.41-.85.81-1.7,1.18-2.54.19.35.4.7.9,1.55l0,.14c-.7-1-.86-1.09-1.18-.45l-.25.55c-.07.16-.07.18.08.45L355.1,76l.32-.69c.21-.48.19-.67-.15-1.46l.05-.1,1.06,2,0,.1c-.47-.69-.55-.66-.76-.2l-.32.69,1.12,2c.39.69.65,1.15,1-.15.08-.29.2-.68-.41-2.23l0-.1c.28.63.56,1.25.83,1.88q-.58,1.35-1.26,2.73l-.08-.15c.23-.61.17-.79-.28-1.63L354,74.61c-.48-.88-.59-1-.87-.59l-.08-.15" transform="translate(-3.48 -5.35)"/><path d="M354.53,70.62c.21-.47.41-.94.59-1.41l.09.15c-.17.57-.13.75.34,1.61l2.18,4c.49.89.7,1.26,1,.23.15-.53.11-.86-.42-2.21l0-.1c.28.61.54,1.22.82,1.83-.31.82-.65,1.64-1,2.47l-.08-.15c.17-.51.14-.68-.38-1.62l-2.26-4.12c-.48-.87-.56-.92-.8-.5l-.09-.15" transform="translate(-3.48 -5.35)"/><path d="M355.74,67.64l.49-1.35.08.15c-.13.53-.09.71.39,1.57L359,72.18c.44.78.56,1,.76.52l.09.15c-.16.44-.32.89-.49,1.34l-.08-.14c.14-.52.1-.7-.38-1.58l-2.29-4.17c-.44-.8-.54-1-.77-.51l-.08-.15" transform="translate(-3.48 -5.35)"/><path d="M356.34,66c.08-.22.16-.45.23-.67,1.34,1,2.15,1.67,3.8,3h0l-1.64-3c-1.17-2.12-1.26-2.27-1.49-1.76l-.09-.15c.13-.45.26-.89.37-1.33l.08.15c-.08.67.07.92,1.17,2.94L361,69.24l0,.06c-1.25-1-2.08-1.7-3.77-3h0l1.53,2.79c1.29,2.33,1.31,2.38,1.56,1.86l.09.15L360,72.46l-.08-.14c.14-.67,0-.9-1.18-3.08L357.46,67c-.46-.83-.73-1.33-1-.87l-.08-.15" transform="translate(-3.48 -5.35)"/><path d="M358,59.57a1.35,1.35,0,0,1,.35-.72c.29.49.57,1,.86,1.46v.1c-.58-.86-.95-1.22-1.1-.49-.4,2,2.45,7.17,3.28,6.71,0,0,.71-.69-.09-2.16l-.5-.9c-.29-.54-.33-.57-.44-.59s-.09.06-.17.3l-.08-.15c.08-.4.16-.8.23-1.2l.08.15a1.67,1.67,0,0,0,.32,1l.51.94a2.6,2.6,0,0,1,.55,2.1c-.06,1-.48,1-.73.9-1.34-.52-3.49-5.28-3.07-7.46" transform="translate(-3.48 -5.35)"/><path d="M362.18,61.94c.12-2.49-2.76-6.95-3.14-6.68a1.63,1.63,0,0,0-.15,1.38l2.69,4.9c.35.64.4.68.5.71s.08-.08.1-.31m-3.62-5c.07-.49.13-1,.17-1.44.08-.71.26-1,.88-.19.37.47,2.89,4.43,2.69,7.09q-.06.57-.15,1.14l-.08-.14c0-.51,0-.7-.51-1.55l-2.28-4.16c-.37-.66-.41-.71-.52-.78s-.07,0-.11.19l-.09-.16" transform="translate(-3.48 -5.35)"/><path d="M358.88,53.32c0-.38,0-.76,0-1.14l.09.15a3,3,0,0,0,.57,1.49L361.84,58c.42.75.45.76.53.79s0-.06.05-.19l.08.15c0,.37,0,.76,0,1.14l-.08-.15c0-.44-.08-.61-.56-1.49l-2.29-4.17c-.41-.75-.44-.76-.52-.78s0,.05-.07.18l-.08-.15" transform="translate(-3.48 -5.35)"/><path d="M358.79,50.63c0-.22,0-.25.09-.32l.8,1.38v.08c-.42-.67-.56-.88-.69-.94l-.05,0c-.09.33.9,2.7,1.51,2.78s1.67,2.53,1.71,2.64a3.46,3.46,0,0,1,.39,1.63c0,.14-.14.12-.15.1a4.12,4.12,0,0,1-.46-.74l-.46-.81v-.07c.59.93.77,1.08.88,1.09.36-.53-1.34-3.21-1.65-3.2-.6,0-1.86-2.69-1.92-3.64" transform="translate(-3.48 -5.35)"/><path d="M360.66,52.2c-.13-.88-1.63-3.77-1.82-3.51,0,0-.13.25.18.82l1.6,2.92s.07,0,0-.23m-1.86-2.55c0-.36-.06-.71-.1-1.06s0-.26,0-.33c.48.17,2.08,3.6,2.1,4.27l-.08.13.95,1.74c.35.63.39.69.47.75s0-.06,0-.21l.08.15c0,.38.08.76.12,1.15l-.09-.15a3.48,3.48,0,0,0-.61-1.47l-2.28-4.17c-.41-.74-.44-.78-.51-.82a.34.34,0,0,0,0,.18l-.09-.16" transform="translate(-3.48 -5.35)"/><path d="M358.5,47.28c-.06-.36-.13-.72-.21-1.07l.08.15a5.41,5.41,0,0,0,.67,1.47l2.18,4a5.49,5.49,0,0,0,.52.88h0a8,8,0,0,0-1-2.42l0-.08L361.7,52c.16.61.29,1.23.4,1.86l-.08-.15a5,5,0,0,0-.68-1.5l-2.26-4.11c-.39-.72-.43-.76-.49-.8a.28.28,0,0,0,0,.16l-.08-.14" transform="translate(-3.48 -5.35)"/><path d="M359.48,47l-1.4-2.42h0l1.68,3.25c-.08-.28-.18-.56-.28-.84m-2-3.48c1.06,1.81,1.93,3.72,3.16,5.42V48.9l.08.14c.12.3.24.61.35.91l-.09-.14a16.75,16.75,0,0,0-1.36-2.5c.11.31.22.62.31.94a15.3,15.3,0,0,0,1.32,2.45v-.1l.08.15c.1.31.19.62.27.94l-.08-.15a11.66,11.66,0,0,0-.79-1.68q-1.59-3.12-3.2-6.22l-.05-.1" transform="translate(-3.48 -5.35)"/><path d="M357.1,42.37q-.17-.43-.36-.84l.08.15c.21.41.21.41,1.59,2.84-.9-1.68-1.78-3.31-1.89-3.49l0,.07-.08-.14c-.14-.28-.28-.56-.43-.83l.08.14L358.66,45l.87,1.58c.14.26.27.52.43.77l-.09-.18.09.15c.17.34.33.68.48,1l-.08-.15c-.18-.4-.29-.6-.74-1.42l-.83-1.5c-.22-.42-1.45-2.54-1.61-2.78v0l-.09-.14" transform="translate(-3.48 -5.35)"/></g></g><g class="cls-2"><g class="cls-4"><path d="M3.92,200.12a1.21,1.21,0,0,1,.33.6c.15.66.48,1.32,2.54,5.07,3.7,6.75,3.7,6.75,3.92,6.85v-.13c.11.06.12.07.27.42a17.69,17.69,0,0,0,.59,2.54,32.43,32.43,0,0,1-1.66-3.34q-2.22-4-4.43-8.09c1,2,3.12,6.15,4.6,9,.6,1.17,1.24,2.31,1.81,3.5-.19-.23-2.87-4.79-4.86-8.27,5.24,9.56,5.24,9.56,6.12,11.27-.67-1.12-1.23-2.3-1.85-3.44C5.74,206,5.74,206,5.42,205.21c1.19,2.07,1.19,2.07,4.17,7-5.4-10.47-5.4-10.47-5.67-12.12" transform="translate(-3.48 -5.35)"/><path d="M10.33,208.93c-.15-2.12-5.48-12.13-6.4-12-.58.76,5.14,11.92,6.31,12.3,0,0,.1-.06.09-.27M3.49,196.4c0-.85.29-1,.94-.36,3.06,2.9,7.36,14.32,6.07,14.36-1.07,0-6.87-10.84-7-14" transform="translate(-3.48 -5.35)"/><path d="M10.72,202.23c.42-3.34-5.29-12.73-6.23-11.88-.56.5-.47.67,1.07,3.53,4.94,9.2,4.94,9.2,5.13,8.5a.8.8,0,0,0,0-.15m-7.14-9.56c.06-.38.19-.74.24-1.13.24-2.24.47-4.35,2.82-1.42A26.06,26.06,0,0,1,10.56,198c.85,2.81.8,3.14.33,6.27l-.1,1a6,6,0,0,1-.08.73.84.84,0,0,1-.29-.73C10.49,203.62,4.08,193.06,4,193s-.09,0-.15.23a.88.88,0,0,1-.28-.58" transform="translate(-3.48 -5.35)"/><path d="M5,185.19l.37-1.11,1.37-4c1.9,2.87,1.9,2.87,1.88,3.1l-.09,0c-1.56-1.06-1.56-1.06-1.63-1-.66.2-.78,1.78-.78,1.79s.79,1.61,2.67,5c.28-.82.44-1.31-.43-3.4-.14-.34-.13-.38-.11-.51l.1,0s2.76,4.77,2.72,5.2c-.14,0-.14,0-.41-.42-1-1.49-1.34-.57-1.48-.17,3.14,5.83,3.14,5.83,3.52,4.43a8.46,8.46,0,0,0-.44-4.64c-.16-.46-.14-.49,0-.58.09.08.12.11.33.57l1.39,3.11c-.47,1.29-1,2.56-1.43,3.86-.22.63,0,1.36-.5,1.92a.73.73,0,0,1-.26-.63c.14-.66,0-1.19-1.19-3.38-4.92-9-4.92-9-5.26-8.51-.29-.08-.29-.6-.29-.61" transform="translate(-3.48 -5.35)"/><path d="M7.2,178.44a22.12,22.12,0,0,0,1.2-2.75c.2-.54.21-.54.33-.57.28.25.21.53.13.89-.24,1,0,1.4,1.77,4.65l3.23,5.88c1,1.84,1.15,2.08,1.64.34.4-1.4-.1-3.26-.74-5.36-.13-.42-.11-.46,0-.55.15.06.2.08,2.23,4.62a30.54,30.54,0,0,0-2.58,5.61c-.09.35-.09.35-.19.39a.69.69,0,0,1-.19-.77c.21-1-.19-1.76-2.07-5.22-3.82-7-3.82-7-4.48-6.45a.59.59,0,0,1-.24-.71" transform="translate(-3.48 -5.35)"/><path d="M10.43,171.55c.26-.49.59-.93.85-1.42,1-1.86,1-1.86,1.05-1.88a.55.55,0,0,1,.14.67c-.31.79-.38,1,1.73,4.85,4,7.44,4.06,7.43,4.89,6.82.24.06.3.46.21.68,0,0-1.7,3.21-1.86,3.35a.53.53,0,0,1-.21-.67c.28-.93.19-1.17-2-5.2-3.91-7.21-3.93-7.2-4.56-6.59-.24,0-.34-.42-.24-.61" transform="translate(-3.48 -5.35)"/><path d="M12.67,167.38c.41-.61.77-1.25,1.18-1.86,2.66,1,5,2.62,7.64,3.76l-.46-.86c-3.61-6.6-3.61-6.6-4.77-5.81-.37-.11-.27-.58-.26-.59s1.81-2.78,2-2.93c.11,0,.43.23.14.83-.55,1.12.22,2.56.59,3.25l3,5.44c2.74,5.09,2.74,5.09,2.17,4.92a75.76,75.76,0,0,1-8.1-4.19c4.43,8.46,4.55,8.34,5.53,7.36.32.11.27.52.23.61l-1.76,2.89c-.27-.09-.34-.39-.18-.76.5-1.19.24-1.68-2.33-6.32-2.68-4.85-3-5.36-4.48-5.05a.56.56,0,0,1-.18-.69" transform="translate(-3.48 -5.35)"/><path d="M21.77,153.65a5.67,5.67,0,0,1,.5-.56l.07-.07a4,4,0,0,1,1.7-.85c.76-.23.77-.23.74-.52-.07-.82-.07-.82,0-.86s.18.09.41.44c2.26,3.52,2.26,3.52,1.74,3.45-.08,0-.17-.09-.39-.27a4.09,4.09,0,0,0-2.78-1.16,2.51,2.51,0,0,0-1.92,2c-.61,2.57.94,6.68,2.78,9.16s4.31,3.25,4.83-.13c.2-1.28-1.47-5-2.5-4.31-.2.14-.29.44-.6.45-.14,0-.25-.28-.24-.43a.44.44,0,0,1,.08-.2l.72-.92c2.55-3.39,2.55-3.39,2.56-2.69s-.62,1-.46,1.63a19,19,0,0,0,1.76,3.56,11,11,0,0,1-1.12,4.48c-1.73,3.46-4.09,3-5.72,1.45-2.47-2.37-5.24-9.51-2.18-13.61" transform="translate(-3.48 -5.35)"/><path d="M39.51,153.08c3.54-4.12-1.75-12.64-5-12.29a3.22,3.22,0,0,0-2.21,1.72c-.07.24-.07.24,1.11,2.54,4.86,9.41,4.86,9.41,6.1,8m-10.35-8.43c.56-.59,1.22-1.08,1.77-1.68,2.78-3.26,4.18-4.9,6.7-4.09s4.62,4.22,4.89,7.8c.29,3.95-.88,5.2-4.33,8.91L37,157c-.93,1-.93,1-1.06,1.1s-.52-.22-.06-.78c.86-1.07.72-1.34-1.6-5.82-3.77-7.28-3.95-7.11-4.7-6.39-.08.08-.29.28-.42,0a.37.37,0,0,1,0-.46" transform="translate(-3.48 -5.35)"/><path d="M38.89,134.26c.59-.59,1.24-1.12,1.84-1.71a21.33,21.33,0,0,1,2.08-2.17c.17-.14.37.07.36.29-.05.57-.72.83-.69,1.43a7,7,0,0,0,.86,2.37c4.85,9.51,5.41,9,6.06,8.43s.6,0,.59.13,0,.08-2.17,2.15c-.66.64-1.17,1.41-1.83,2-.1.1-.21.18-.34.06s0-.51.05-.63c.77-1.09.7-1.32-1.81-5.94-3.65-6.74-3.73-6.67-4.68-5.91-.08.06-.28.21-.43-.08a.4.4,0,0,1,.11-.47" transform="translate(-3.48 -5.35)"/><path d="M49.42,123.69c.19-.1.27-.07.48.2.51.73,1.19,1.69,1.71,2.41.6.89-.08.85-.09.85a2.16,2.16,0,0,1-.6-.37,3.07,3.07,0,0,0-3.48-.12,2.79,2.79,0,0,0-.47,3.9c.68.71,1.6.49,3-.13s4.27-1.94,5.86,1.67c1.12,2.53.58,7.5-4.44,8.43,0,1.65,0,1.65-.27,1.38a1.24,1.24,0,0,1-.19-.24,41.51,41.51,0,0,1-2.28-3.57c-.19-.38.05-.57.22-.53a1.19,1.19,0,0,1,.37.23c.73.63,2.62,2,4.19,1.06a3.39,3.39,0,0,0,1.05-4.57c-.76-1.13-1.85-1-3.49-.31-1.41.56-3.78,1.51-5.22-1.19,0-.06-2.81-5.65,3.62-8,0-.36-.31-.75.06-1.09" transform="translate(-3.48 -5.35)"/><path d="M59.11,124.51c2.7-2.47.81-6.6-1-6.63-1.11,0-1.86.92-2.6,1.83l2.94,5.36a8.43,8.43,0,0,0,.71-.56m-2.78-6.83c6.45-5.54,6.79,2.07,6.78,2.16-.23,2.39-2.09,4.09-4.33,5.91,3,5.5,3,5.5,4.13,4.58.21-.17.7-.57.7,0,0,.33-4.82,4.44-4.87,4.44s-.56,0,.1-.87.77-1-3.2-8.21c-2.4-4.36-2.4-4.36-3.47-3.45-.07.06-.94,0-.12-.77.46-.38.67-.56,1.19-1l3.09-2.82" transform="translate(-3.48 -5.35)"/><path d="M62.12,112.75c1.76-1.38,3.35-3,5.17-4.27.44-.32.5.18.5.18,0,.93-1.24,1.14-1.17,2.1,0,.47.12.84,1.58,3.5l3.22,5.88c1,1.68,1.14,1.59,1.67,1.3a6.85,6.85,0,0,0,3-3.81,10.89,10.89,0,0,0,.21-3.52c0-.72.34-.68.48-.51a48.66,48.66,0,0,1,1.67,4.59,106.57,106.57,0,0,0-9,7.26c-.23.24-.94,1-1,.24,0-.1,0-.2.33-.52a2,2,0,0,0,.58-2.08c-.18-.71-1-2.16-3.2-6.25-1.92-3.52-2.44-4.47-3.85-3.45-.52.37-.78-.23-.29-.64" transform="translate(-3.48 -5.35)"/><path d="M79.86,109.17l3.08-2.43c-1.26-1.08-2.63-2-3.93-3.06q.42,2.75.85,5.49m-2.09-9.34.61-.46C82,102,85.28,105.06,89,107.52a1.79,1.79,0,0,0,2.08.24c.32-.17.42-.16.54,0a.4.4,0,0,1-.17.49c-.84.66-1.81,1.12-2.67,1.76s-1.65,1.46-2.54,2.1a.63.63,0,0,1-.29.13c-.14,0-.42-.23-.1-.56,1-1,1.6-1.67-2.21-4.34-1,.7-3.09,2.35-3.64,2.79.59,3.28.88,4.93,2.73,3.84.47-.28.55.15.54.21s-3.74,3.32-4,3.11,0-.56.06-.7a3.31,3.31,0,0,0,.6-2.71c-.4-4.74-1.51-9.37-2.15-14.08" transform="translate(-3.48 -5.35)"/><path d="M82.66,96.53c5.73-4.08,5.73-4.08,5.73-3.65,0,.71-1.29,1.26-.61,1.93s3.94,2,5,2.39c.76-6.72.36-6.88-1.16-6.36-.71.25-.56-.3-.56-.32s4.2-3.38,4.53-3a.49.49,0,0,1,.08.21s0,.13-.17.3c-.63.58-1.7,1.54-1.82,8.83,0,1.7,2.77,5.55,2.79,5.58.23.3.66.84,1.68.14.71-.49.63.21.63.22a68.46,68.46,0,0,1-5.66,4.11s-.56-.17,0-.71c2.13-2-2-6-2.07-6.07s-6.09-4-8.17-3c-.2.1-.29.05-.33,0a.38.38,0,0,1,.05-.59l0,0" transform="translate(-3.48 -5.35)"/><path d="M119.87,85.68c.91-2.16.91-2.16,1-2.52l-3.06,1.93a6.52,6.52,0,0,0,2,.59m-4,4.54c.67-.6,1.31-1.24,2-1.84A12.89,12.89,0,0,1,115,86.93l-.71.46,1.56,2.83M117,82.4l-.57-1-2.3,1.47.56,1L117,82.4m-1.73-3.15-.58-1c-.77.48-1.54,1-2.3,1.47l.57,1q1.16-.75,2.31-1.47m-5.13,3.29-.58-1.05L107,83.16l1.49,2.72c.63,1.16.63,1.16.79,1.5l2.58-1.69-.56-1L109.23,86l-1.17-2.13,2.09-1.36m5.48-7.89-.49-.89q-4.85,3-9.6,6.17l.49.89q4.75-3.12,9.6-6.17m-14.42,4.78q7.7-5.15,15.64-10.05l3.05,5.56-2.35,1.46.58,1,2.13-1.33,1.16,2.13-2.13,1.32.57,1,2.88-1.79,1.32,2.39-2,1.24,1.83.64c-.5.9-1,2-1.25,2.45a18.67,18.67,0,0,0,3.59-1.11c0,1.09-.09,2.53-.13,3.61-3.74,1.07-5.71,1-7.52.58l1.07,2c-4.25,4-4.25,4-4.82,4.67l-2.11-1.76c.49-1,.46-1.33.09-2l-1.27-2.32-1,.66a30.23,30.23,0,0,1,2.15,6.82L109,97c-.55-3.35-.81-4.87-4.29-11.23l-3.46-6.3" transform="translate(-3.48 -5.35)"/><path d="M139.34,68.17c1.75.91,3.92,2,6.58,3.62l-2.12,3.54c-2.61-1.63-4.85-3-6.58-4l2.12-3.17m-12,7L131,74.7a45.37,45.37,0,0,1,.11,8.09l-3.79.17a.57.57,0,0,1,0-.22,43.6,43.6,0,0,0,0-7.6m-5.07-2.25q9-5.48,18.13-10.62l1.76,3.21q-3.6,2-7.15,4.08l3.66,6.67c1.26,2.33.47,3.2-1.63,4.64l-1.93,1.3-2.87-2.65c2.66-1.85,2.66-1.85,2.12-2.86l-2.79-5.09q-3.8,2.24-7.54,4.53l-1.76-3.21M121.09,67q7.43-4.52,15-8.79l1.76,3.21q-7.57,4.28-15,8.79L121.09,67" transform="translate(-3.48 -5.35)"/><path d="M164,46.94c.66-.26.62.31.62.32s-.07.14-.35.29a1.51,1.51,0,0,0-1,1.43A13.66,13.66,0,0,0,165,52.81c4,7.3,4,7.3,5.63,6.58.89-.39.71.24.65.35-6.83,3.36-6.83,3.36-6.71,3,.17-.57,1-.59,1.06-1.23a3.48,3.48,0,0,0-.64-2c-1.46-2.72-3-5.43-4.42-8.16.41,5.11.68,8,.88,9.54.52,3.88.52,3.88,0,3.72a3.08,3.08,0,0,1-.67-.42c-.56-.38-2.68-1.83-10.43-6.89,5.1,9.78,5.13,9.77,6.87,9.05.42-.17.64-.19.72.16s-4.79,2.71-4.85,2.69-.53-.19.12-.74c1.08-.89,1.27-1.45.35-3.16-4.9-9.12-4.9-9.12-6.89-8.51-.17.06-.57.18-.65-.16,0-.16,0-.16,4.74-2.7,3,2.3,6.43,4,9.51,6.25-.32-4.75-.6-7.85-1-10.7,1.58-.81,3.09-1.75,4.7-2.53" transform="translate(-3.48 -5.35)"/><path d="M179.61,55c4.27-2.2,0-10.74-3.92-12-2.5-.77-6.38,1.31-3.18,7.46,2.42,4.65,5.25,5.37,7.1,4.49m-6.69-12.55c7.07-3.26,13.05,3.15,10.81,9.18S172,59,169,52.07a7.39,7.39,0,0,1,3.91-9.6" transform="translate(-3.48 -5.35)"/><path d="M194.87,48c5.49-2.56,1.4-10-2.75-11.58-2.22-.86-5.6.13-5.14,1.16.15.34.54,1.12,1,2,4.72,9.35,4.72,9.35,6.9,8.38M181.7,38.42c1-.42,2.11-.7,3.14-1.15,5.24-2.46,7.64-3.58,11.21-2,3.11,1.41,5.65,5.45,4.31,9-1,2.65-2.09,3.11-8.1,5.65L190,51a15.06,15.06,0,0,1-1.83.77.33.33,0,0,1-.38-.37c0-.15.22-.23.42-.33,1.19-.55,1.1-1.12,1-1.53A48.38,48.38,0,0,0,186.68,44c-2.94-5.64-3.24-5.53-4.51-5.06-.95.36-.55-.44-.47-.48" transform="translate(-3.48 -5.35)"/><path d="M198.26,31.4l2.45-.91,8.07-3.18c1.35,1.63,2.28,2.77,2.28,2.77.15.25-.05.44-.31.4-1.3-.24-2.29-1.35-3.68-1.34a8.39,8.39,0,0,0-3.94,1.38,46,46,0,0,0,2.53,5c1.72-.66,2.66-1,2.29-3.11-.09-.48.33-.43.33-.43.35.1,2.79,5,2.78,5s-.17.55-.83-.19c-1.2-1.35-2.49-1.23-4.18-.59,2.59,5,2.74,5,3.38,5.19,1.06.24,4.51-1.13,5.28-3.29.19-.53,0-1.12.24-1.63a.32.32,0,0,1,.59,0,2.14,2.14,0,0,1,.12.36c.27.91.62,2.12.88,3-2.64,1-5.31,2-8,3-1.21.46-2.32,1.16-3.55,1.58-.41.14-.66-.19-.52-.42.32-.5,1.17-.46,1.27-1.2a5.59,5.59,0,0,0-.81-2.21c-4.83-9.05-4.83-9.05-6.35-8.67-1,.25-.41-.54-.36-.56" transform="translate(-3.48 -5.35)"/><path d="M211.46,26.07c2.06-.7,4-1.68,6.12-2.28.52-.14.61.28.52.4-.38.54-1.43.44-1.4,1.37,0,.41.08.76,1.53,3.4l3.22,5.88c.93,1.63,1.16,1.73,1.94,1.52,3-.8,3.47-2.39,3.63-3,.22-.84,0-1.73.23-2.57.08-.29.4-.29.56,0,.31.51,1.25,3.36,1.56,4.3A98.75,98.75,0,0,0,218.66,39c-1,.46-.87-.22-.86-.22a1.24,1.24,0,0,1,.36-.27c.83-.47,1.05-.93.85-1.73-.15-.61-1-2.16-3.34-6.46-1.68-3.08-2.25-4.12-3.94-3.62-.62.18-.87-.4-.27-.62" transform="translate(-3.48 -5.35)"/><path d="M224.28,21.47c.9-.3,1.83-.52,2.74-.82a24.75,24.75,0,0,1,3-1.1c.38-.08.51.24.44.38-.21.45-.89.29-1.07.79a2.3,2.3,0,0,0,.28,1.46c.17.41,4.62,9.21,5.93,9.77a1.5,1.5,0,0,0,1.06,0c.74-.23.77.37.45.54a20.54,20.54,0,0,1-3.15.9c-.89.3-1.72.74-2.61,1l-.1,0a.36.36,0,0,1-.46-.27c0-.17.11-.25.28-.33.95-.5.81-1,.7-1.36s-.3-1.07-3.33-6.5c-2.42-4.34-2.63-4.29-3.78-4-1,.23-.45-.51-.4-.53" transform="translate(-3.48 -5.35)"/><path d="M231.45,19c.57-.17,1.15-.33,1.72-.51l1.72-.52a9,9,0,0,1,.92.48c7.08,3.62,9.83,4.95,11.3,5.67-.15-.28-.3-.57-.46-.85-3.74-6.87-3.74-6.87-5.72-6.53-.5.09-.62-.13-.64-.27-.09-.51,4.92-1.62,5-1.61s.5.32.09.58c-1,.64-1.47,1-.51,2.84s2,3.63,3,5.45A45.54,45.54,0,0,1,250.14,28c.26.64-.28.51-.34.49-.55-.15-10.42-5.22-13.16-6.69,4.17,8,4.6,8.55,6.71,8,.38-.1.49.14.51.29.08.35-5.15,1.79-5.21,1.77s-.65-.27.16-.65c1.08-.5,1.42-.9.44-2.85-3.89-7.73-4.65-8-6.18-8.56-.53-.19-1.11.06-1.64-.18-.23-.11-.42-.42,0-.59l0,0" transform="translate(-3.48 -5.35)"/><path d="M253.29,12.5a7.54,7.54,0,0,1,1.64-.23h.27c1,0,2,.36,3,.36.34,0,.33-.16.29-.41s.17-.76.77.13c2,3,2,3,2,3.05.19.38-.13.39-.26.35s-.24-.12-.57-.41c-1-.83-4.29-3.43-7.14-1.88-1.67.91-1.72,3.68-.13,6.57,3.33,6.06,8.54,5.75,9.15,3.47.24-.89-1.6-3.38-1.62-3.4-.48-.52-.83-.56-1.9-.44-.8.09-.7-.45-.44-.54l1.38-.35c1.24-.33,2.86-.9,4.12-1.09.41-.06.49.32.42.41-.29.37-.94.27-1.08.83,0,0,0,.14.54,1.31a10.56,10.56,0,0,1,1.18,2.38s-.06.14-.53.7a8,8,0,0,1-6.1,2.72,9.26,9.26,0,0,1-9.11-7.91c-.19-2,.37-4.63,4.11-5.62" transform="translate(-3.48 -5.35)"/><path d="M278.77,20.85c4.87-1,.12-8.67-3.19-10.75-2.27-1.43-4.66-.84-4.51-.32,0,.13.66,1.36,1.08,2.17,4.76,9.25,4.76,9.25,6.62,8.9M266.49,9.5c.9-.15,1.83-.15,2.73-.31,4.34-.94,6.73-1.45,9.93,1s5.45,6.9,3.75,9.56c-.8,1.27-1.33,1.36-6.31,2.2l-1.91.4a7,7,0,0,1-1.64.26c-.19,0-.38-.31-.29-.45s.16-.11.33-.15c1.06-.24.93-.77.82-1.2-.2-.78-3-6-3-6.1-2.52-4.71-2.81-4.84-3.93-4.7-.83.1-.52-.52-.45-.53" transform="translate(-3.48 -5.35)"/><path d="M280.55,7.15c.78-.1,1.56-.12,2.34-.22a17,17,0,0,1,2.54-.39c.33,0,.46.32.41.42-.17.38-.76.11-.88.57a2.79,2.79,0,0,0,.36,1.29c0,.09,4.7,9.3,6,10,.38.19.82,0,1.2.19.12.08.37.42,0,.52a23.48,23.48,0,0,1-2.78.21c-.71.1-1.38.38-2.1.43a.43.43,0,0,1-.44-.27c-.09-.2.06-.25.21-.3,1.06-.37,1.17-.41-3.19-8.16-2.1-3.73-2.3-3.72-3.24-3.69s-.43-.54-.39-.55" transform="translate(-3.48 -5.35)"/><path d="M293,5.55c.16,0,.26.07.5.41.51.79,1.2,1.84,1.72,2.63.26.41.26.41.25.53-.23.18-.38,0-.92-.53-1.31-1.36-3.38-2.49-4.45-2s-.6,2.55,1.55,3.4c1.56.62,3.29.74,4.77,1.59a7.61,7.61,0,0,1,2.69,2.68c1.29,2.16,1.26,5-2.13,4.69a10.5,10.5,0,0,1-2.59-.66c0,.32.23.62.05.94,0,.08-.18.22-.48-.17a1.88,1.88,0,0,1-.16-.23c-2.6-4.19-2.6-4.19-2.17-4.07a1.94,1.94,0,0,1,.53.44c1.57,1.69,3.22,2.83,4.4,3,1.85.32,2.3-1,1.55-2.35s-2-1.92-3.83-2.38S290,12.46,288.6,9.83c-1-1.78-1.21-5.15,4.31-3.56,0-.24-.25-.69.09-.72" transform="translate(-3.48 -5.35)"/><path d="M302.79,11.63c2.65-.15.48-3.78-.49-4.67a2.86,2.86,0,0,0-3.13-.72l2.94,5.36.68,0M300,5.35c5.81-.07,7.17,5.2,6.16,6.26-.69.72-2.34.7-3.66.68,3,5.48,3,5.48,4.05,5.5.25,0,.72,0,.72.44,0,0-.07.11-.27.12-.79,0-1.58-.08-2.37,0s-1.38.41-2.11.21c-.14,0-.43-.3-.23-.46s.52-.11.65-.38c0-.07.06-.26-.12-.73s-1.05-2.1-3.45-6.47S296.94,6.1,296,6.14c-.1,0-1-.52-.2-.6l1.21,0,3-.16" transform="translate(-3.48 -5.35)"/><path d="M305.29,5.36c1.45.1,2.92,0,4.36.17.23,0,.53.38.38.51s-.92.14-.83.62.24.78,1.62,3.3l3.23,5.88c.9,1.62,1.1,1.74,1.45,1.84,0,0,2,.55,2.37-.76.25-.85-.34-1.65-.14-2.5.28-.07.31-.08,2.17,4.3a40.09,40.09,0,0,0-7.27-.42c-.31,0-.78.09-.86-.43.2-.21.58-.1.74-.38a1.05,1.05,0,0,0,0-.82c-.24-.64-1-2-3.8-7.16C307.51,7.38,306.8,6.1,305.58,6a.53.53,0,0,1-.51-.53.27.27,0,0,1,.22-.07" transform="translate(-3.48 -5.35)"/><path d="M320.12,13.53l2.12.26c-1.12-1.5-2.29-2.95-3.43-4.43.44,1.39.88,2.78,1.31,4.17M317.39,6l.41.06c3.16,4,6.1,8.14,9.28,12.1a3.94,3.94,0,0,0,1.44,1.28A.7.7,0,0,1,329,20l-.06,0a16.61,16.61,0,0,1-1.71-.47c-.57-.11-1.15,0-1.71-.17a.6.6,0,0,1-.44-.47l.05-.06c1.55-.1-2.15-4.2-2.21-4.23s-1.37-.24-2.52-.37c.83,2.55,1.25,3.83,2.51,4.2.53.15.54.51.53.55l-2.7-.26a.54.54,0,0,1-.35-.52c.49-.34.59-.41.32-1.53-.88-3.63-2.21-7.12-3.29-10.69" transform="translate(-3.48 -5.35)"/><path d="M320.67,6.84c3.55.84,3.55.84,3.6,1.2-.12.1-.37,0-.39.18s.05.35.26.66c.45.65,2.37,2.9,3.92,4.7-.61-3.93-1-4.32-1.89-4.9a.87.87,0,0,1-.44-.58c.06,0,2.21.65,2.23.66a.85.85,0,0,1,.36.47l-.05.06c-1.09-.1.43,4.94.45,5a54.36,54.36,0,0,0,3.17,5.62c.37.44,1.14.41,1.25,1.14-.05,0-3.08-.74-3.11-.75a.76.76,0,0,1-.4-.51c.12-.12.42,0,.43-.27s0-.26-.39-1.06a21.29,21.29,0,0,0-3.24-5.13c-4.46-5.45-4.94-5.67-5.49-5.93a.66.66,0,0,1-.38-.5.22.22,0,0,1,.11,0" transform="translate(-3.48 -5.35)"/><path d="M338.53,16.46l-.51-.93-.57-.36.5.91.58.38M337,13.63l-.51-.93-.58-.38.51.94.58.37M333,8.5l1.17.75.48.88q.79.49,1.53,1l1.51,2.75.28.21,1.47,2.67-.29-.21L340.5,19q-.74-.52-1.53-1l.43.77c.54.34,1.07.7,1.58,1.06L342,21.72c-.5-.36-1-.72-1.58-1.06l.46.83c.62.39,1.21.79,1.78,1.21l1.19,2.18c-.57-.42-1.16-.82-1.78-1.21l.56,1,1.9,1.23,1.23,2.51c-5-3.32-5-3.32-6.69-5.25.22.71.4,1.36.59,2.16-2.13-2.56-2.13-2.56-2.53-4.17a2.83,2.83,0,0,0-.7-1.44c-.23-.33-.79-1.11-2-2.85l.28-.77,1.48,2.17c-.29-.7-.56-1.3-1.08-2.35-.47-.22-.95-.43-1.43-.63l-1.41-2.55c-.1-.67-.24-1.57-.35-2.24l-1.14-.5-1.54-2.79c.86.36,1.68.73,2.47,1.13l1.63,3,.4,2.1,1,.49,1.42,2.6a41.16,41.16,0,0,0,2.12,4.63A10.65,10.65,0,0,0,341,23.62l.5.32L341,23c-.53-.3-1.09-.6-1.66-.89l-1.19-2.17c.57.28,1.12.58,1.66.88l-.46-.83c-.45-.26-.91-.51-1.39-.75l-1.06-1.94q.71.36,1.38.75l-.42-.77c-.42-.24-.86-.48-1.31-.71l-1-1.87c.45.24.88.47,1.31.72l-.43-.79-1.58-.86-1.17-2.14c.53.27,1.06.55,1.56.84l-.44-.81c-.43-.24-.86-.48-1.3-.71l-1.21-2.19c.45.22.88.46,1.3.7L333,8.5" transform="translate(-3.48 -5.35)"/><path d="M339.28,13.32l.77.88.47.85c.19.21.37.42.54.64l-.51-.93.71.94.47.85c.17.22.33.45.49.68l1.45,2.65c-.15-.23-.32-.45-.48-.68l.35.64c-.22-.3-.44-.58-.67-.86l-.35-.64L342,17.7l.35.64c-.24-.27-.49-.54-.74-.8l-.35-.63c-.16-.18-.34-.35-.51-.52l-1.46-2.66.52.52-.51-.93m6.52,10.84-.33-.62c-.37-.46-.75-.92-1.16-1.36l.34.61c.4.44.79.9,1.15,1.37M344.64,22l-.29-.54c-.37-.46-.75-.92-1.16-1.36l.29.53c.41.45.8.9,1.16,1.37m-7.35-10.58,1,.89,1.57,2.85.37.35,1.65,3-.37-.35.62,1.13L342,19c.42.65,1.69,2.68,1.7,2.7l-2.34-4.28a23.28,23.28,0,0,1,2.71,3.21l3.4,6.19c-.28-.4-.58-.8-.89-1.18l.5.91c.37.46.73.94,1.06,1.43l1.33,2.43a16.65,16.65,0,0,0-1-1.37c.67,1.11,1.39,2.18,2.09,3.28l1.2,2.26c-.85-1.32-1.72-2.62-2.55-4,.18.47.17.53.12.68s-.17.05-.41-.05l-1.8-3c.38.25.41.25.56.27,0-.14,0-.17-.15-.6q-.53-.59-1.11-1.14l-1.33-2.43c.43.41.84.84,1.23,1.28l-.5-.92c-.34-.37-.69-.74-1.05-1.1l-.38-.69.39,1-.95-1.54,4.49,8.19-.92-.81-3.82-6.95c.44,1,.95,2.2,1.15,2.69-1.17-2.06-1.17-2.06-4.19-8.19L340,17l-1.65-3,.51.42-1.61-2.93" transform="translate(-3.48 -5.35)"/><path d="M16.44,225.54l-.24-.47c.68,1.19,1.44,2.54,2.59,4.53-1-2-1.94-3.68-3.45-6.57-.06-.19-.13-.38-.2-.57l.09.15a10.52,10.52,0,0,0,.81,1.63c2.51,4.56,2.51,4.56,2.61,4.7a.57.57,0,0,0,0-.13l.08.15c.11.33.23.65.35,1l-.08-.15a12.89,12.89,0,0,0-.85-1.65l-2.4-4.37v0c1.75,3.36,1.93,3.71,3.55,6.76l0,0c-1-1.79-1.45-2.53-2.52-4.43h0c2.7,4.93,2.7,4.93,2.8,5.09l0-.08.09.15c.14.3.28.6.44.9l-.08-.15c-.32-.61-.32-.61-1.68-3.08-.61-1.13-1.2-2.26-1.84-3.37l0,.07-.08-.15" transform="translate(-3.48 -5.35)"/><path d="M18.16,227.11c-.45-1.64-3-6.3-3.45-6.48-.28.51,3,6.43,3.44,6.7l0,0s0-.13,0-.18m-3.62-6.59c0-.16,0-.18,0-.25.68-.11,3.92,6.91,3.83,7.45-.43,0-3.53-6.05-3.81-7.2" transform="translate(-3.48 -5.35)"/><path d="M17.54,224.09c-.35-2.15-2.74-6.39-3.27-6.61-.14.1-.13.8.12,1.25l2.68,4.89c.35.64.39.68.46.73s0-.06,0-.26m-3.29-5.17c-.07-.42-.13-.84-.18-1.27,0-.22-.09-.75.22-.51a19.56,19.56,0,0,1,3.41,7.36c0,.34.09.67.15,1l-.08-.15a4.66,4.66,0,0,0-.64-1.47l-2.29-4.16a3.38,3.38,0,0,0-.48-.79s0,0,0,.14l-.09-.15" transform="translate(-3.48 -5.35)"/><path d="M13.89,215.66c0-.66,0-1.33,0-2,.28.52.58,1,.88,1.55v.11c-.55-.91-.6-.91-.7-.93s-.05.1-.06.3,0,.29,0,.43,0,.14.17.43L15.51,218c0-.18,0-.36,0-.54a2.56,2.56,0,0,0-.44-1.33V216l1.07,2v.08c-.32-.52-.35-.54-.42-.58s0,.07,0,.25,0,.36,0,.54l1.11,2c.36.64.42.69.49.72.33-.44-.47-2.15-.74-2.71v-.08l.92,1.84c0,.73,0,1.45,0,2.16l-.09-.15a3.29,3.29,0,0,0-.58-1.5l-2.25-4.09c-.43-.78-.47-.83-.56-.87a.39.39,0,0,0,0,.17l-.08-.15" transform="translate(-3.48 -5.35)"/><path d="M13.87,213.08c0-.39,0-.79.06-1.18l.08.15c0,.47.07.64.54,1.52l2.18,4c.45.82.5.87.6.88.3-.55-.21-1.69-.62-2.6v-.09c.3.6.58,1.21.88,1.81-.06.7-.11,1.4-.13,2.08l-.08-.15c0-.44-.08-.6-.59-1.53l-2.25-4.11c-.39-.71-.43-.75-.52-.78s0,.06-.07.2l-.08-.15" transform="translate(-3.48 -5.35)"/><path d="M14.05,210.55c0-.39.09-.79.14-1.19l.08.15c0,.47,0,.64.51,1.51l2.29,4.16c.41.75.45.76.54.78s.06-.06.09-.21l.08.15c-.05.4-.1.8-.14,1.19l-.08-.15c0-.46,0-.63-.52-1.51l-2.29-4.15c-.39-.72-.44-.76-.54-.78s-.05.06-.08.2l-.08-.15" transform="translate(-3.48 -5.35)"/><path d="M14.24,209.06c0-.21.06-.41.09-.62,1.11,1,1.91,1.79,3.47,3.17h0l-1.64-3c-1.15-2.1-1.26-2.28-1.44-1.79l-.08-.14c.09-.43.18-.85.28-1.28l.08.15c-.06.63.08.89,1.2,2.92l2.23,4.07v.06c-1.19-1.06-2-1.76-3.46-3.14h0l1.53,2.78c1.3,2.36,1.3,2.36,1.46,1.9l.08.15c-.07.42-.14.83-.2,1.25l-.08-.15c0-.63-.13-.9-1.28-3l-1.25-2.27c-.44-.81-.73-1.34-.9-.93l-.08-.14" transform="translate(-3.48 -5.35)"/><path d="M15.46,202.92a1.46,1.46,0,0,1,.46-.77c.29.49.58,1,.88,1.46l0,.11c-.5-.72-1.06-1.4-1.26-.26-.35,2,2.46,6.94,3.28,6.51a1.75,1.75,0,0,0,0-2.19l-.49-.91c-.38-.68-.46-.76-.69-.26l-.08-.15c.12-.42.25-.83.39-1.25l.08.14a1.32,1.32,0,0,0,.27,1l.51.94a2.36,2.36,0,0,1,.44,2.14c0,.36-.21,1.15-.81.92-1.23-.46-3.59-5.27-3-7.45" transform="translate(-3.48 -5.35)"/><path d="M20.45,205c.85-2.73-2.05-7.17-2.81-6.8-.17.08-.94,1-.64,1.58l2.68,4.89c.41.74.56.93.77.33m-4-4.87c.18-.53.37-1.06.58-1.6.91-2.3,2.48.93,2.93,2a7.11,7.11,0,0,1,.51,5c-.15.42-.31.84-.45,1.26l-.08-.14c.13-.54.09-.72-.38-1.59l-2.29-4.16c-.43-.79-.54-1-.74-.54l-.08-.16" transform="translate(-3.48 -5.35)"/><path d="M18.06,196l.6-1.38.09.15c-.18.53-.15.71.33,1.58l2.28,4.16c.48.87.57.92.81.5l.08.15-.6,1.38-.08-.15c.18-.53.14-.71-.34-1.58L19,196.67c-.46-.83-.56-.94-.81-.51l-.08-.14" transform="translate(-3.48 -5.35)"/><path d="M19.38,192.75a.84.84,0,0,1,.45-.46l.84,1.36-.05.1c-.27-.36-1.1-1.47-1.24-.37,0,.19.23,2.6,1.73,2.35,1.21-.2,1.82,1.85,1.89,2.08.58,2.05-.4,2.66-.6,2.46,0,0-.23-.31-.94-1.46l.05-.1c1.13,1.51,1.43.93,1.51.45.14-.8-.75-3-1.85-2.72-1.28.34-2.28-2.6-1.79-3.69" transform="translate(-3.48 -5.35)"/><path d="M22.81,193.68c.59-1.27-.76-3.92-1.53-3.63,0,0-.76.42-.41,1.06L22.46,194a.6.6,0,0,0,.35-.35m-2.64-2.22c.23-.46.47-.93.72-1.4.88-1.62,1.95,1,2.13,1.56A3.06,3.06,0,0,1,23,194l-.37.25.95,1.73c.46.84.54.91.9.38l.08.15c-.27.51-.52,1-.78,1.52l-.08-.15c.22-.54.18-.72-.29-1.6l-2.28-4.15c-.47-.86-.54-1-.83-.52l-.09-.16" transform="translate(-3.48 -5.35)"/><path d="M21.84,188.28l.84-1.5.08.15c-.27.59-.24.78.23,1.65l2.17,4c.38.67.84,1.5,1.27-.12.1-.35.16-.6-.31-2l.06-.11c.26.62.5,1.24.77,1.85q-.78,1.34-1.5,2.64l-.08-.15c.24-.55.21-.72-.3-1.65l-2.25-4.1c-.47-.85-.57-1-.9-.47l-.08-.15" transform="translate(-3.48 -5.35)"/><path d="M27.19,186.21,25.28,184h0c.39,1.28.72,2.33,1.11,3.49l.81-1.3m-2.37-3.29c4.39,5,4.39,5,4.81,4.65l.08.15c-.31.47-.62.95-.92,1.43l-.08-.15c.31-.77.31-.77-1.3-2.52-.3.48-.6,1-.89,1.44.84,2.85,1,2.69,1.43,2.3l.08.15c-.29.46-.57.93-.84,1.39l-.09-.14c.18-.61.17-.78-.2-1.92L24.8,183l0-.12" transform="translate(-3.48 -5.35)"/><path d="M26.24,181l.91-1.36.08.15c-.36.8-.36.8,2.1,2.61-.89-4.14-.89-4.14-1.46-3.56l-.08-.15,1-1.41.08.14c-.53,1.14.79,5.36.8,5.4l.87,1.58c.45.81.56.9,1.05.3l.08.14-1.16,1.71-.08-.14c.36-.65.35-.84-.11-1.69l-.83-1.5a20.61,20.61,0,0,0-2.56-2.13c-.3-.2-.42-.15-.59.06l-.08-.15" transform="translate(-3.48 -5.35)"/><path d="M30.05,175.46l.6-.82L35,178.46c-.84-3.55-1.42-6.08-1.7-7.28.25-.31.49-.63.74-1l.08.15c-.43.72-.41.86.18,1.89,2.37,4.2,2.37,4.2,2.52,4.38.27.35.43.26.78-.09l.09.15c-.43.54-.85,1.07-1.26,1.61l-.08-.15c.4-.66.34-.8-.26-1.88l-2.43-4.36,0,0c.43,1.83,1,4.11,1.78,7.49l0,.06q-2.07-1.87-4.13-3.76v0c2.74,5.35,2.74,5.35,3.34,4.77l.08.15-1.15,1.56-.08-.15c.37-.67.4-.72-.93-3.39-1.77-3.61-1.77-3.61-2.33-3.09l-.08-.15" transform="translate(-3.48 -5.35)"/><path d="M39.92,173.74c1.79-2.43-.92-7-2.71-6.73-2.28.31-1.84,5.08.63,6.89a1.41,1.41,0,0,0,2.08-.16m-3.64-6.59c1.85-2,4.32.75,4.47,4,.13,2.78-1.7,4.83-3.57,3.06-1.49-1.4-2.48-5.1-.9-7" transform="translate(-3.48 -5.35)"/><path d="M43.69,169c2.46-3.11-.3-7.21-1.9-7.08-.28,0-2.35,1.35-2,2l2.68,4.89c.42.74.61.92,1.23.18m-5-4.53q.84-1,1.71-2c3.13-3.48,4.54,2.24,4.59,3a5.65,5.65,0,0,1-1.42,4l-1.35,1.57-.08-.15c.49-.65.49-.83,0-1.71l-2.29-4.16c-.48-.87-.6-.92-1.09-.43l-.08-.15" transform="translate(-3.48 -5.35)"/><path d="M43.17,159.46c.91-1,1.84-2,2.79-3L46.9,158l-.09.15c-.76-.94-1-1.08-1.81-.26l-.6.66c-.17.19-.17.21,0,.49l1.34,2.44.75-.81c.53-.59.57-.79.29-1.6l.11-.11,1.07,1.94-.11.12c-.54-.66-.68-.62-1.2-.06l-.75.81,1.12,2c.3.52.5.75.82.59a3.79,3.79,0,0,0,1.25-1.61,4.25,4.25,0,0,0-.16-1.75l.12-.12c.22.65.45,1.29.68,1.93q-1.55,1.63-3,3.25l-.08-.15c.55-.71.52-.9.06-1.73l-2.24-4.1c-.52-.94-.66-1-1.19-.49l-.08-.14" transform="translate(-3.48 -5.35)"/><path d="M46.77,155.58l1.67-1.74.08.15c-.56.67-.57.87-.1,1.74l2.17,4c.35.62.55.9.87.78a3.19,3.19,0,0,0,1.27-1.59,5.64,5.64,0,0,0-.15-1.61l.12-.12c.22.62.41,1.26.65,1.88-1,1-2,2.05-3,3.06l-.08-.15c.52-.62.52-.8,0-1.74l-2.25-4.1c-.47-.84-.59-.94-1.21-.37l-.09-.15" transform="translate(-3.48 -5.35)"/><path d="M50.37,151.87l1.71-1.72.08.15c-.56.65-.57.85-.1,1.72l2.28,4.16c.49.86.63.91,1.25.37l.08.14L54,158.41l-.08-.15c.56-.64.57-.84.09-1.71l-2.28-4.16c-.48-.86-.62-.91-1.24-.37l-.08-.15" transform="translate(-3.48 -5.35)"/><path d="M52.52,149.72l.89-.88c2.08.72,3.59,1.24,6.46,2.21l0,0-1.63-3c-1.15-2.1-1.29-2.27-2.21-1.54l-.08-.15c.62-.6,1.25-1.19,1.89-1.79l.08.15c-.72.84-.58,1.1.53,3.13l2.24,4.07-.09.08c-2.27-.76-3.65-1.22-6.44-2.18v0l1.52,2.78C57,155,57,155,57.9,154.28l.08.15c-.61.59-1.22,1.18-1.81,1.78l-.08-.15c.7-.86.58-1.08-.6-3.24l-1.25-2.27c-.45-.82-.74-1.35-1.64-.68l-.08-.15" transform="translate(-3.48 -5.35)"/><path d="M61.25,141.19A6.8,6.8,0,0,1,63,140.05c.36.53.6.89,1,1.42l-.12.14c-2-2.07-3.86,1.15-3.88,2.7,0,2.05,2.18,6.12,5,3.4,1.17-1.14,1-1.51.72-2l-.5-.91c-.37-.68-.51-.74-1.44,0l-.08-.15,1.88-1.71.08.15c-.4.51-.39.65-.12,1.14l.51.94a3.26,3.26,0,0,0,.53.79c-.55,1.72-4.23,5.36-6.35,1.49a5.11,5.11,0,0,1,1.08-6.26" transform="translate(-3.48 -5.35)"/><path d="M71.44,141.71c3.55-3.36.58-7.2-1.18-7.2a2.68,2.68,0,0,0-1.61.69c-1.59,1.16-1.49,1.36-1.41,1.5l2.68,4.89c.42.74.63.91,1.52.12m-5.63-4.39,2.45-2.14c4.41-3.74,5.39,2.07,5.36,2.81a6.56,6.56,0,0,1-2.36,4.25l-1.93,1.69-.08-.15c.7-.7.73-.9.25-1.77l-2.28-4.16c-.48-.87-.63-.91-1.32-.37l-.09-.16" transform="translate(-3.48 -5.35)"/><path d="M72.1,131.9l2.14-1.8.08.15c-.71.68-.74.88-.27,1.75l2.28,4.16c.49.87.64.9,1.42.34l.08.14-2.14,1.8-.08-.15c.7-.67.73-.87.26-1.74l-2.28-4.16c-.49-.87-.64-.9-1.41-.34l-.08-.15" transform="translate(-3.48 -5.35)"/><path d="M76.87,127.71a3.54,3.54,0,0,1,1.19-.65c.31.45.63.89.94,1.33l-.16.13c-1.9-1.86-2.62.37-2.61.79,0,1.25.88,1.7,2.47,1.36,2.58-.56,2.68,1.62,2.68,1.88a3.22,3.22,0,0,1-2.65,3,14.11,14.11,0,0,1-1.12-1.47l.15-.12c1.87,1.82,3.23.08,3.21-.87,0-.1,0-2.33-2.56-1.67s-3.36-2.21-1.54-3.75" transform="translate(-3.48 -5.35)"/><path d="M83.27,127.91a2.16,2.16,0,0,0-.55-3.79,2,2,0,0,0-1.31.46c-.79.56-.77.61-.61.89l1.59,2.91a2.29,2.29,0,0,0,.88-.47m-4-1.88c.72-.59,1.45-1.17,2.19-1.75,2.67-2.08,3.44.84,3.32,1.8a3.12,3.12,0,0,1-1.34,2.17l-.87.36,1,1.74c.48.85.63.87,1.58.22l.08.15-2.37,1.89-.08-.14c.72-.67.76-.86.28-1.74l-2.28-4.16c-.47-.85-.54-1-1.38-.38l-.08-.16" transform="translate(-3.48 -5.35)"/><path d="M84.19,122.09l2.34-1.82.08.15c-.8.7-.84.9-.37,1.77l2.17,4c.32.56.56.92,1,.77.2-.07,1.6-.92,1.85-1.8a4.91,4.91,0,0,0,0-1.46l.18-.13c.18.63.33,1.27.55,1.89-1.38,1.06-2.75,2.11-4.11,3.18l-.08-.15c.74-.66.76-.84.26-1.77l-2.25-4.11c-.47-.84-.61-.93-1.48-.34l-.08-.14" transform="translate(-3.48 -5.35)"/><path d="M95,119l-2.47-2.1h0c.12,1.2.27,2.31.46,3.6L95,119m-2.81-3.22c3.17,2.69,4.84,4.11,5.29,4.4s.65.28,1.25,0l.08.14-2.22,1.64-.08-.15c.87-.86.87-.86-1.24-2.52l-2.23,1.66c.26,3,.67,2.75,1.56,2.28l.09.15c-.73.54-1.45,1.09-2.17,1.64l-.09-.15c.61-.69.65-.86.5-2-.28-2.29-.56-4.59-.83-6.88l.09-.14" transform="translate(-3.48 -5.35)"/><path d="M95.56,113.49,97.67,112l.08.15c-.94.88-.94.88,2.59,2.54.08-4.26.08-4.26-1.11-3.6l-.08-.15,2.19-1.57.08.15c-1.33,1.25-.71,5.55-.69,5.58l.86,1.58c.46.82.61.9,1.67.22l.08.15-2.66,1.91-.08-.14c.89-.72.94-.92.48-1.77l-.82-1.51a22,22,0,0,0-3.57-2,.93.93,0,0,0-1,.13l-.08-.15" transform="translate(-3.48 -5.35)"/><path d="M104.11,107.37l1.27-.89c2.17,1.37,4.09,2.62,5.7,3.71-.2-4.13-.2-4.13-.36-7.36l1.46-1,.08.15c-.9.74-.92.89-.31,1.91a44.11,44.11,0,0,0,2.58,4.38c.32.35.6.25,1.26-.11l.09.14-2.5,1.68-.08-.14c.85-.69.82-.81.21-1.92q-1.23-2.18-2.45-4.36l0,0c.21,4.17.21,4.17.39,7.58l-.09.06-5.41-3.65h0c2.61,5.36,2.61,5.36,3.79,4.73l.08.15-2.42,1.68-.08-.15c.84-.71.91-.77-.33-3.45-1.64-3.62-1.64-3.62-2.74-3l-.08-.15" transform="translate(-3.48 -5.35)"/><path d="M120.23,105.29c3.25-2.33.88-6.36-1.54-6.71s-5.4,2.66-2.78,5.94a3.09,3.09,0,0,0,4.32.77m-3.64-6.59c3.66-2.17,6.43,1.37,5.53,4.37-1,3.35-5.42,4.81-7.22,1.54a4.56,4.56,0,0,1,1.69-5.91" transform="translate(-3.48 -5.35)"/><path d="M127.1,100.65c4.26-2.94,1.43-6.72-.54-7a2.9,2.9,0,0,0-2,.47c-2.12,1-2,1.34-1.91,1.44l2.68,4.89c.42.74.65.92,1.74.21M121,96.07l3-1.93c5.27-3.26,6.18,2.12,5.81,3.51a6.83,6.83,0,0,1-3,3.49l-2.39,1.53-.09-.15c.88-.63.93-.82.46-1.7l-2.28-4.16c-.49-.86-.66-.91-1.51-.43l-.08-.16" transform="translate(-3.48 -5.35)"/><path d="M128.68,91.21c1.52-.95,3-1.88,4.59-2.81.19.34.37.62,1,1.54l-.17.14c-.84-1-1.17-1.1-2.45-.35l-1,.61c-.28.18-.28.2-.13.48l1.34,2.44,1.23-.76c.87-.53,1-.73.76-1.53l.18-.11,1.07,2-.18.11c-.61-.68-.81-.64-1.67-.12l-1.23.75,1.12,2c.38.64.62.77,1.14.58,0,0,1.89-.84,2.11-1.78a4,4,0,0,0,0-1.39l.18-.11c.17.64.36,1.27.54,1.9l-4.94,3-.08-.14c.95-.68.94-.86.49-1.69l-2.24-4.1c-.53-.95-.69-1-1.57-.52l-.08-.15" transform="translate(-3.48 -5.35)"/><path d="M134.57,87.61c.87-.53,1.75-1,2.63-1.57l.08.14c-.9.62-1,.81-.49,1.68l2.17,4c.28.48.54.94,1,.81s2-.93,2.13-1.67a5,5,0,0,0,0-1.34l.2-.11c.17.62.3,1.25.5,1.86l-4.62,2.76-.08-.15c.84-.58.88-.75.37-1.68l-2.25-4.11c-.47-.84-.62-.94-1.59-.43l-.08-.15" transform="translate(-3.48 -5.35)"/><path d="M140.17,84.28l2.59-1.51.08.15c-.86.57-.91.76-.44,1.63l2.28,4.16c.49.87.67.92,1.59.45l.08.15-2.59,1.51-.08-.15c.87-.58.92-.76.45-1.64l-2.28-4.15c-.49-.87-.67-.92-1.59-.45l-.09-.15" transform="translate(-3.48 -5.35)"/><path d="M143.42,82.39l1.32-.76c3.45,1.16,4.49,1.5,8,2.7l0,0-1.63-3c-1.15-2.09-1.3-2.27-2.59-1.68l-.08-.14c.89-.51,1.79-1,2.68-1.5l.08.14c-1,.72-.9,1,.21,3l2.24,4.08-.12.06-8-2.67h0l1.53,2.78c1.32,2.37,1.32,2.37,2.6,1.78l.08.15-2.68,1.53-.08-.14c1.08-.76,1-1-.22-3.15l-1.25-2.27c-.45-.81-.75-1.34-2-.78l-.08-.15" transform="translate(-3.48 -5.35)"/><path d="M155.88,75.2a9.36,9.36,0,0,1,2.27-.87c.34.49.68,1,1,1.45l-.15.11c-2.31-2.23-5.34.77-5.23,2.75a3.87,3.87,0,0,0,6.93,2.23c.27-.3.22-.53,0-.9l-.49-.91c-.38-.68-.55-.75-1.79-.2l-.08-.14,2.54-1.38.08.15c-.56.43-.56.56-.3,1.05l.52.94a2.47,2.47,0,0,0,.59.83c-1.51,1.35-3.22,2.88-5.7,2.45a3.68,3.68,0,0,1-2.93-3.92,4.71,4.71,0,0,1,2.69-3.64" transform="translate(-3.48 -5.35)"/><path d="M168.22,77c4.43-2.54,1.65-6.19-.21-6.73a2.94,2.94,0,0,0-2.11.2c-.24.09-2.39.88-2.16,1.33l2.68,4.89c.42.74.65.93,1.8.31M162,72.14l3.18-1.67c5.5-2.79,6.35,2.46,5.94,3.77-.54,1.75-2.48,2.82-3.12,3.17l-2.5,1.32-.09-.14c.92-.56,1-.74.51-1.62l-2.28-4.16c-.49-.86-.66-.92-1.55-.51l-.09-.16" transform="translate(-3.48 -5.35)"/><path d="M170,68l2.65-1.34.08.15c-.88.52-.93.7-.47,1.57l2.29,4.16c.48.87.66.92,1.61.52l.08.14-2.65,1.35-.08-.15c.89-.52.94-.7.47-1.57l-2.28-4.16c-.49-.87-.67-.93-1.62-.52L170,68" transform="translate(-3.48 -5.35)"/><path d="M175.8,64.85a4.35,4.35,0,0,1,1.41-.41l1,1.37-.19.09c-2-2-3-.07-3,.31-.05,1.16.87,1.7,2.71,1.63,2.84-.11,2.91,1.76,2.9,2.13-.07,1.92-2.92,2.68-3.3,2.34a12.48,12.48,0,0,1-1.12-1.47l.17-.09c2.09,2,3.8.53,3.75-.45,0-.33-.23-2-2.79-1.78-3.12.27-3.72-2.51-1.48-3.67" transform="translate(-3.48 -5.35)"/><path d="M183,66c2.21-1.15.66-3.21-.17-3.5a2.26,2.26,0,0,0-1.44.07c-1.21.39-1.08.64-1,.74l0,.07,1.6,2.91a2.6,2.6,0,0,0,1-.29m-4.43-2.35c.86-.43,1.73-.85,2.59-1.26,3.1-1.46,4,1.21,3.55,2.39a2.7,2.7,0,0,1-1.59,1.55l-1,.19,1,1.74c.48.85.64.89,1.75.45l.08.15-2.81,1.36-.08-.15c.88-.5.93-.67.46-1.54l-2.28-4.16c-.47-.86-.55-1-1.54-.57l-.08-.15" transform="translate(-3.48 -5.35)"/><path d="M184.48,60.85l2.71-1.27.08.14c-.93.51-1,.69-.52,1.56l2.17,4c.28.48.54.94,1,.86s2-.68,2.19-1.41a3.54,3.54,0,0,0,0-1.26l.2-.1c.18.61.3,1.22.5,1.82-1.59.73-3.17,1.47-4.76,2.23l-.08-.15c.87-.48.91-.64.41-1.58l-2.26-4.1c-.47-.84-.62-.95-1.62-.55l-.08-.15" transform="translate(-3.48 -5.35)"/><path d="M196.65,59.77l-2.6-2.32h0c.08,1.22.18,2.26.32,3.35l2.3-1m-2.91-3.39c2.11,1.89,5,4.47,5.55,4.88s.66.37,1.36.19l.09.15c-.84.36-1.67.74-2.51,1.11l-.08-.15c1-.64,1-.64-1.22-2.5L194.4,61.2c.13,2.74.59,2.61,1.6,2.33l.08.15-2.49,1.14-.08-.15c.72-.53.77-.68.67-1.78-.18-2.14-.37-4.27-.55-6.4l.11-.11" transform="translate(-3.48 -5.35)"/><path d="M197.48,54.91l2.36-1,.08.15c-1,.63-1,.63,2.68,2.75.29-3.86.27-3.85-1-3.46l-.08-.15,2.42-1,.08.14a1.24,1.24,0,0,0-.7.94,17.32,17.32,0,0,0-.26,4l.86,1.58c.46.82.62.92,1.78.49l.08.15-2.94,1.27-.08-.14c1-.5,1-.67.6-1.52l-.83-1.51a30.44,30.44,0,0,0-3.77-2.41,1.19,1.19,0,0,0-1.15-.06l-.08-.14" transform="translate(-3.48 -5.35)"/><path d="M206.92,50.85l1.39-.58,5.89,4.36q-.07-3.35-.17-6.69l1.56-.62.08.15c-1,.5-1,.62-.38,1.66,2.42,4.21,2.42,4.21,2.59,4.41.32.38.62.33,1.32.13l.08.15-2.64,1-.08-.14c.91-.47.88-.59.26-1.69l-2.45-4.37,0,0c.07,2.3.13,4.6.2,6.89l-.1,0-5.61-4.26h0c2.59,5.31,2.59,5.31,3.86,5l.08.14-2.62,1.09L210,57.4c.93-.5,1-.53-.23-3.17-1.61-3.57-1.61-3.57-2.8-3.24l-.09-.14" transform="translate(-3.48 -5.35)"/><path d="M223.87,51.92c3.33-1.45.91-5.32-1.15-6.2-2.28-1-5.29.67-4,3.62,1,2.2,3.19,3.31,5.12,2.58m-3.65-6.6c3.82-1.26,6.95,2.48,5.48,5.28s-6.45,2.7-7.64-1a3.35,3.35,0,0,1,2.16-4.31" transform="translate(-3.48 -5.35)"/><path d="M231,49.07c4.29-1.78,1.53-5.54-.28-6.28a2.85,2.85,0,0,0-1.77-.15c-.24,0-2.55.62-2.46.9l.06.12,2.68,4.89c.42.74.65,1,1.77.52m-6.2-5.28,3.1-1.14c5.34-1.88,6.49,3.05,5.71,4.63a5.25,5.25,0,0,1-2.87,2.18l-2.45.91-.08-.15c.9-.4,1-.56.48-1.44l-2.28-4.15c-.48-.87-.65-1-1.53-.68l-.08-.16" transform="translate(-3.48 -5.35)"/><path d="M232.61,41l4.58-1.58c.1.19.1.19,1,1.57L238,41c-.84-1-1.17-1.21-2.45-.8l-1,.34c-.28.1-.29.12-.14.4l1.34,2.44L237,43c.86-.3,1-.46.74-1.21l.18-.06L239,43.66l-.18.06c-.6-.72-.8-.73-1.65-.44l-1.23.42,1.11,2c.38.65.63.81,1.14.74,0,0,1.9-.36,2.1-1.15a2.86,2.86,0,0,0,0-1.24l.18-.06c.17.61.37,1.2.54,1.8-1.64.56-3.28,1.12-4.93,1.7l-.08-.14c1-.42,1-.58.5-1.41l-2.25-4.1c-.53-1-.69-1-1.57-.78l-.08-.15" transform="translate(-3.48 -5.35)"/><path d="M238.48,38.94l2.59-.86.08.15c-.89.36-.94.52-.47,1.39l2.17,4c.28.49.54,1,1,.94s1.91-.39,2.08-1a4,4,0,0,0,0-1.18l.18-.06c.18.58.32,1.17.53,1.75q-2.27.72-4.54,1.49l-.08-.15c.82-.34.86-.49.36-1.42l-2.26-4.1c-.47-.84-.61-1-1.57-.71l-.08-.15" transform="translate(-3.48 -5.35)"/><path d="M244,37.15l2.5-.79.08.14c-.83.33-.88.48-.41,1.36L248.43,42c.48.87.66,1,1.55.74l.08.15-2.5.79-.08-.15c.84-.33.88-.47.41-1.36L245.6,38c-.48-.87-.65-1-1.55-.74l-.08-.14" transform="translate(-3.48 -5.35)"/><path d="M247.1,36.16l1.26-.39c3,1.57,4.36,2.29,7.76,4.11h0l-1.63-3c-1.16-2.09-1.3-2.28-2.52-2l-.08-.15,2.52-.73.08.15c-1,.4-.83.66.28,2.69L257,40.88l-.11,0c-2.51-1.34-4.32-2.31-7.73-4.09h0l1.53,2.78C252,42,252,42,253.25,41.75l.08.15q-1.28.38-2.55.78l-.09-.15c1-.44.91-.66-.27-2.82l-1.25-2.27c-.47-.84-.75-1.35-2-1.13l-.08-.15" transform="translate(-3.48 -5.35)"/><path d="M258.84,32.56a7.36,7.36,0,0,1,2.11-.24c.36.55.6.91,1,1.5l-.15.06c-2.19-2.43-4.81-.55-4.85.94-.1,3.52,4.7,5.69,6.66,3.78.2-.19.14-.4-.05-.76l-.5-.91c-.37-.67-.53-.78-1.68-.57l-.08-.15,2.34-.62.08.14c-.51.25-.51.37-.24.85l.51.94a4,4,0,0,0,.58.87c-1.2.74-3,1.86-5.29.86a4.37,4.37,0,0,1-2.85-4.43,3,3,0,0,1,2.39-2.26" transform="translate(-3.48 -5.35)"/><path d="M270.41,36.93c4.12-1.21.93-5.15-.49-5.91-1.63-.86-3.91.12-3.93.14s0,.07.06.19l2.69,4.89c.42.75.64,1,1.67.69m-6-5.65,2.86-.72c4.84-1.11,6.38,3.78,5.34,5.29a4.26,4.26,0,0,1-2.43,1.42l-2.27.57-.08-.15c.83-.27.87-.41.4-1.29L266,32.24c-.48-.86-.65-1-1.46-.81l-.08-.15" transform="translate(-3.48 -5.35)"/><path d="M271.6,29.55l2.33-.52.08.15c-.78.23-.81.37-.34,1.24L276,34.58c.48.87.65,1,1.49.85l.08.14-2.33.52-.09-.15c.78-.23.82-.37.35-1.25l-2.28-4.16c-.49-.86-.65-1-1.49-.83l-.08-.15" transform="translate(-3.48 -5.35)"/><path d="M276.71,28.27a3.33,3.33,0,0,1,1.23,0l.95,1.42-.17,0c-1.9-2.2-2.68-.8-2.7-.58,0,.58.2,1.62,2.52,2.18,2.75.65,2.73,2.49,2.73,2.56,0,1.78-2.6,1.45-2.83,1.2a15.59,15.59,0,0,1-1.09-1.55l.15,0c1.95,2.2,3.34,1.41,3.35.66,0,0,0-1.84-2.62-2.35-2.78-.54-3.47-3.09-1.52-3.53" transform="translate(-3.48 -5.35)"/><path d="M283.22,31.1c1.87-.43.37-2.59-.38-3.06a2.09,2.09,0,0,0-1.07-.31s-1.18,0-1.11.27a.71.71,0,0,0,.08.18l1.6,2.91a2.13,2.13,0,0,0,.88,0M279.14,28l2.22-.43c2.7-.47,3.81,2.27,3.14,3.27a1.49,1.49,0,0,1-1.16.62l-.87-.09.95,1.74c.47.85.62.93,1.58.83l.08.15-2.41.46-.08-.15c.76-.21.79-.33.31-1.21L280.62,29c-.47-.85-.54-1-1.4-.87l-.08-.16" transform="translate(-3.48 -5.35)"/><path d="M284.14,27q1.14-.21,2.28-.39l.08.15c-.77.19-.81.32-.34,1.19l2.17,4c.27.49.53,1,1,1s1.68-.06,1.8-.63a3.41,3.41,0,0,0-.08-1.08l.16,0c.2.56.36,1.13.57,1.68l-4,.66-.08-.15c.72-.18.75-.31.24-1.24l-2.25-4.1c-.47-.85-.61-1-1.46-.9l-.08-.14" transform="translate(-3.48 -5.35)"/><path d="M294.57,29.32l-2.4-2.68h0c.15,1,.32,1.86.54,2.94l1.88-.26m-2.76-3.68c5.52,6.15,5.52,6.15,6.3,6.2l.08.14-2,.27-.08-.15c.8-.27.8-.27-1.25-2.46l-2.06.29c.32,2.37.7,2.38,1.55,2.41l.08.15-2,.31-.08-.15c.57-.26.61-.37.44-1.35q-.48-2.79-1-5.6l.08-.06" transform="translate(-3.48 -5.35)"/><path d="M294.87,25.41l1.89-.22.08.14c-.82.25-.82.25,2.49,3.08-.12-3.18-.12-3.18-1.19-3.22l-.08-.14c.64-.07,1.28-.14,1.92-.19l.08.14a.57.57,0,0,0-.5.6,15.32,15.32,0,0,0,.15,3.29l.86,1.58c.46.82.6,1,1.53.91l.08.15-2.35.26-.08-.15c.8-.15.83-.26.37-1.12l-.83-1.5a43.61,43.61,0,0,0-3.37-3.1,1.21,1.21,0,0,0-1-.36l-.08-.15" transform="translate(-3.48 -5.35)"/><path d="M302.35,24.65l1.07-.08c2.2,2.25,2.94,3,5.24,5.39-.44-2.94-.77-5.07-.86-5.65l1.17,0,.08.14c-.71.13-.72.23-.12,1.27,2.77,4.91,2.77,4.91,3.63,5l.08.14-2,.09-.08-.15c.68-.12.64-.22,0-1.33l-1.84-3.3L308.14,25h0q.47,2.91.91,5.82h-.08q-2.49-2.62-5-5.22h0c2.66,5.21,2.66,5.21,3.65,5.28l.08.14-2,.15-.08-.14c.7-.15.75-.17-.5-2.74-1.69-3.47-1.69-3.47-2.62-3.53l-.08-.15" transform="translate(-3.48 -5.35)"/><path d="M316,30.64c2.33-.16.21-3.82-1.38-5.26s-3.47-1.45-3.39.07c.1,1.81,2.66,5.2,4.77,5.19M312.39,24c3.07.16,6.05,5,4.67,6.45-1.57,1.64-6-1.8-6.17-4.78a1.43,1.43,0,0,1,1.5-1.67" transform="translate(-3.48 -5.35)"/><path d="M321.14,30.54c3.1-.06.12-4.11-.72-4.93A4,4,0,0,0,317,24.46s0,.05.06.19l2.68,4.89c.42.75.62,1,1.42,1m-5.42-6.34,1.91.05h.31a4.4,4.4,0,0,1,3.6,2s2.19,2.86,1.09,4a2.27,2.27,0,0,1-1.63.47l-1.76-.05-.08-.15c.64,0,.66-.14.18-1l-2.28-4.16c-.48-.87-.62-1-1.26-1.05l-.08-.16" transform="translate(-3.48 -5.35)"/><path d="M321.24,24.44c1.05.07,2.07.16,3.07.27.19.34.36.63.94,1.6l-.1,0c-.76-1.12-1-1.39-1.88-1.49l-.66-.06a.28.28,0,0,0-.15,0c0,.06,0,.07.11.26l1.34,2.44.83.07c.57.05.61-.05.35-.73l.11,0,1.07,1.94h-.12c-.54-.79-.69-.87-1.25-.92l-.83-.07,1.12,2c.3.54.52.83.85,1,0,0,1.24.33,1.39-.07a2.08,2.08,0,0,0-.16-1.11h.12c.22.55.45,1.1.67,1.64-1.07-.11-2.18-.21-3.3-.28l-.09-.15c.64,0,.61-.15.16-1l-2.24-4.1c-.53-.95-.66-1.07-1.27-1.16l-.08-.15" transform="translate(-3.48 -5.35)"/><path d="M325.15,24.8l1.67.2.08.15c-.55,0-.56.09-.09,1l2.17,4c.33.58.55.94.87,1.1.17.09,1.1.34,1.24,0a2.86,2.86,0,0,0-.2-1l.12,0c.22.53.42,1.07.66,1.6-.94-.15-1.91-.28-2.9-.39l-.08-.15c.53,0,.53-.09,0-1l-2.25-4.1c-.47-.85-.59-1-1.23-1.13l-.08-.14" transform="translate(-3.48 -5.35)"/><path d="M328.65,25.27c.52.09,1,.17,1.54.27l.08.14c-.49,0-.5.08,0,.94l2.28,4.16c.49.87.62,1,1.18,1.15l.08.15c-.51-.1-1-.18-1.54-.27l-.08-.14c.5,0,.51-.08,0-1l-2.28-4.16c-.48-.87-.61-1-1.18-1.14l-.08-.15" transform="translate(-3.48 -5.35)"/><path d="M330.57,25.61l.76.14c1.89,2,3.26,3.41,5.78,6.14h0l-1.63-3c-1.16-2.1-1.28-2.3-2-2.56l-.08-.14,1.44.35.08.15c-.53,0-.38.22.73,2.24L337.89,33l-.06,0c-1.86-2-3.2-3.44-5.75-6.1h0l1.53,2.78c1.32,2.38,1.32,2.38,2.06,2.64l.08.14c-.5-.1-1-.21-1.52-.3l-.09-.15c.6,0,.48-.2-.7-2.36l-1.25-2.27c-.45-.82-.75-1.36-1.52-1.63l-.08-.14" transform="translate(-3.48 -5.35)"/><path d="M337.23,27.12c1,.34,1,.34,2.13,2.2h-.07c-1.94-2.92-2.73-1.88-2.76-1.66-.1.72.94,2.77,2.17,4.31,1.55,1.94,2.58,1.87,2.7,1.78s0-.25-.18-.63l-.5-.91c-.38-.68-.49-.82-1.12-1.1l-.08-.15c.41.14.83.27,1.23.42l.08.14c-.24,0-.21.09.05.58l.52.94a7.55,7.55,0,0,0,.54.9c-.45.1-1.62.35-3.5-1.91-1.58-1.89-2.53-4.06-2.07-4.74.24-.34.71-.2.86-.16" transform="translate(-3.48 -5.35)"/><path d="M344.89,35.09c.33.12,1.19.43.26-1.58-.72-1.54-2.2-4.2-4.09-4.7l0,0s0,.09.07.14l2.68,4.89c.42.75.6,1,1.1,1.21m-4.71-6.81,1.42.59c2.19,1,5,6.17,4,6.52a1.25,1.25,0,0,1-.76-.13c-.37-.15-.75-.31-1.13-.45l-.08-.15c.2.06.21.05.28,0s0-.19-.36-.86l-2.28-4.16c-.48-.87-.6-1-1-1.21l-.08-.16" transform="translate(-3.48 -5.35)"/><path d="M343.65,29.83c.36.18.72.37,1.06.56l.08.15c-.13-.06-.13-.06-.2-.05s0,.15.36.87l2.29,4.15c.47.87.59,1,1,1.27l.08.15c-.35-.19-.7-.38-1.06-.56l-.08-.15c.14.06.14.06.22,0s0-.14-.37-.87l-2.29-4.15c-.48-.88-.59-1-1-1.26l-.08-.15" transform="translate(-3.48 -5.35)"/><path d="M345.88,31c.48.3.48.3,1.46,2l-.07,0c-.4-.65-1.15-1.87-1.49-1.8,0,0,0,.92,1.85,2.95a9.06,9.06,0,0,1,2.16,3.55c0,.51-.85-.33-1.08-.58s-.62-1-1-1.76l.07,0c1.36,2.17,1.76,2.26,1.87,2.2a7.59,7.59,0,0,0-2-3.2c-1.55-1.64-2.58-3.85-1.74-3.36" transform="translate(-3.48 -5.35)"/><path d="M349.78,35.91c.1.06.27.17.21-.08-.13-.64-1.57-3.18-2.31-3.45v0a2.12,2.12,0,0,0,.11.21l1.6,2.91a2.37,2.37,0,0,0,.4.39M347,31.75c.31.2.61.41.91.62,1.08.81,2.76,3.94,2.31,4,0,0-.09,0-.25-.14l-.43-.45,1,1.74a3.2,3.2,0,0,0,1,1.31l.08.15-1-.68-.08-.15c.11.07.12.07.18.07s0-.14-.39-.86L348,33.17c-.48-.86-.55-1-.91-1.27l-.09-.15" transform="translate(-3.48 -5.35)"/><path d="M349,33.2c.3.23.58.47.86.71l.08.14-.14-.08,0,0a5.72,5.72,0,0,0,.4.8l2.18,4c.38.69.86,1.56,1.27,1.64,0-.06,0-.1-.38-1l.06.06c.26.51.51,1,.78,1.52q-.7-.65-1.47-1.26l-.08-.15a.34.34,0,0,0,.14.08c0-.08,0-.1-.42-.92l-2.26-4.1a4,4,0,0,0-.9-1.32L349,33.2" transform="translate(-3.48 -5.35)"/><path d="M353.92,39.6l-1.82-3.1h0l1.2,2.45.62.66m-2.29-4c4.22,7.21,4.22,7.21,4.45,7.53l.08.14-.64-.74-.08-.14.08.06A14.31,14.31,0,0,0,354.13,40c-.22-.25-.45-.49-.68-.73a9.85,9.85,0,0,0,1.41,2.52l.08.14-.7-.69-.08-.15,0,0,0,0a4.58,4.58,0,0,0-.36-.8q-1.12-2.32-2.26-4.65h0" transform="translate(-3.48 -5.35)"/><path d="M352.65,36.82q.3.36.57.72l.08.15-.06-.06c0,.07,0,.07,2,3.52a22.21,22.21,0,0,0-1.58-2.95l-.08-.15c.18.25.36.51.53.77l.08.15,0,0c0,.14,1.37,2.72,1.38,2.75l.87,1.58a12.42,12.42,0,0,0,.83,1.39l.08.15c-.22-.31-.44-.61-.67-.91l-.08-.15.11.13c0-.08,0-.08-.4-.79l-.83-1.51s-2.35-4.11-2.73-4.6l-.08-.15" transform="translate(-3.48 -5.35)"/></g></g></g></g></g></svg>