<svg xmlns="http://www.w3.org/2000/svg" xmlns:xlink="http://www.w3.org/1999/xlink" viewBox="0 0 359.07 244.24"><defs><style>.cls-1{fill:none;}.cls-2{clip-path:url(#clip-path);}.cls-3{isolation:isolate;}.cls-4{clip-path:url(#clip-path-2);}.cls-5{clip-path:url(#clip-path-3);}</style><clipPath id="clip-path" transform="translate(-36.04 -7.79)"><path class="cls-1" d="M357.5,0V52.85c-41,47.65-77,60.65-146,120.65l-142.77,34c-2.34,0-10.23,1.11-10.23-1.23V6L0,3V313H479V3Z"/></clipPath><clipPath id="clip-path-2" transform="translate(-36.04 -7.79)"><path class="cls-1" d="M393.54,51.59c11,20-9.37,56.47-58.78,97.3-73,60.36-182.35,107.73-243.67,105.59-19.84-.69-32.26-6.49-37.52-16.06l-18.11-33C40.71,215,53.13,220.77,73,221.47c61.32,2.14,170.64-45.23,243.67-105.59,49.41-40.83,69.76-77.31,58.79-97.3C380.86,28.48,388.11,41.68,393.54,51.59Z"/></clipPath><clipPath id="clip-path-3" transform="translate(-36.04 -7.79)"><path class="cls-1" d="M392.67,52.07c-5.22-9.52-17.58-15.29-37.33-16-61-2.13-169.75,45-242.42,105-49.14,40.62-69.39,76.91-58.47,96.8l-18.12-33c-10.92-19.89,9.33-56.18,58.48-96.8C167.48,48.08,276.22,1,337.22,3.08c19.75.69,32.11,6.46,37.33,16C380,29,387.24,42.17,392.67,52.07Z"/></clipPath></defs><g id="图层_2" data-name="图层 2"><g id="图层_1-2" data-name="图层 1"><g class="cls-2"><g class="cls-3"><g class="cls-3"><g class="cls-4"><path d="M43.3,216.72a1.81,1.81,0,0,1,.38.63l-.17-.12,0,.08a28.29,28.29,0,0,0,2,3.92c4,7.32,4,7.32,4.53,7.82a1.48,1.48,0,0,1,.4.62c-1.86-1.72-1.86-1.72-2.07-2.16h.09c0-.13,0-.19-.91-1.84l-4.42-8.07c.68,1.43,2.25,4.63,3.33,6.75.44.86.9,1.72,1.31,2.6-.19-.22-4.28-7.3-7-12.12,2,3.67,4.23,7.21,6.11,11-.36-.42-.36-.42-2.17-3.71-2-3.56-4-7.08-5.89-10.64.26.4.26.4,6.91,11.65-1.22-2.53-2.48-5-3.73-7.55.42.43.89.8,1.34,1.2" transform="translate(-36.04 -7.79)"/><path d="M53.05,231.38c.12.07.47.28.26-.53-.74-2.93-6.39-12-7-11.34-.42.46,5,10.72,6.77,11.87m-6.81-12.47c3.83,2.61,9.28,13,7.76,13.34s-9.4-12.09-8.52-13.48c.16-.25.57,0,.76.14" transform="translate(-36.04 -7.79)"/><path d="M59.25,234.6c1.51.56.54-1.85,0-2.9-1.85-4-5.41-8.89-7-9-.06.11-.06.11,1.13,2.32,4.92,9.18,4.92,9.18,5.88,9.56m-9.59-13.69c.47.27.91.58,1.4.82,2.41.94,4.14,1.62,7.1,5.67,2.68,3.65,4.12,7.56,3,8.18-.46.27-1.54-.24-2.9-.89l-.95-.44c-1-.5-1-.5-1.07-.9.14,0,.27.08.41.05s.19-.38-4.62-9c-1-1.84-1.41-2.53-2-2.91a1,1,0,0,1-.44-.57s0,0,.06,0" transform="translate(-36.04 -7.79)"/><path d="M57.43,224l1.32.42c1.36.3,3.37.25,4.54,1a36.73,36.73,0,0,1,2.1,3.31l-.06,0c-.15-.05-.2-.11-.56-.51-1.29-1.42-2.63-2.9-4.51-2.76,1,2.07,1.91,3.64,2.62,4.9.57.15.94.25,1.07,0,.3-.6-.46-1-.25-1.62.46,0,2.92,5.07,2.93,5.12l-.06,0c-.1,0-.17,0-.52-.55a4.58,4.58,0,0,0-2.78-2.26c2.63,4.92,2.75,5,3.14,5.39.73.68,2.4,1,2.75.08.2-.52-.09-1-.07-1.54l.06,0c.2.06.28.16.49.65l1.14,2.72c-6.72-1.31-6.76-1.58-6.82-2,.18-.1.58,0,.53-.29a9.49,9.49,0,0,0-1-2.09c-4.89-9-4.89-9-5.75-9.41a.69.69,0,0,1-.43-.57.13.13,0,0,1,.09,0" transform="translate(-36.04 -7.79)"/><path d="M64.86,225.53c1.29.24,2.62.21,3.9.52.25.06.48.4.38.51s-.85.13-.76.57.12.51,1.64,3.28l3.24,5.9c1,1.72,1.11,1.77,1.51,1.9.07,0,1.79.58,2.17-.69.26-.85-.3-1.65-.12-2.5.27-.15.3-.17,2.17,4.29-2.37-.33-4.76-.4-7.12-.81-.35-.05-.45-.47-.46-.48.17-.16.49,0,.61-.3a1.29,1.29,0,0,0-.13-.81c-.29-.7-1.3-2.55-4-7.47-.86-1.57-1.68-3.05-2.69-3.3-.44-.11-.55-.47-.51-.59a.47.47,0,0,1,.17,0" transform="translate(-36.04 -7.79)"/><path d="M73.28,226.46c.66,0,1.31.16,2,.19a13.59,13.59,0,0,1,2.21,0c.32.07.48.41.35.5s-.72,0-.71.39a6.69,6.69,0,0,0,.74,1.89c4.78,9.29,5.65,9.48,6.06,9.57.77.17,1,.37.75.58s-4.26-.12-4.3-.13a.56.56,0,0,1-.43-.45c0-.07,0-.08.24-.12.6-.1.42-.55.25-1-.45-1.13-3.57-6.72-3.71-7-2.08-3.73-2.27-3.77-3-3.91-.55-.09-.54-.51-.54-.51s.07-.06.16,0" transform="translate(-36.04 -7.79)"/><path d="M78.51,226.59c.2,0,.39,0,.59,0h.48c1.23,0,1.56,0,1.56,0a9.75,9.75,0,0,1,.8.64c2.34,1.91,6,4.77,9.88,7.63l-.45-.85c-3.76-6.86-3.76-6.86-5.39-7-.42,0-.53-.26-.57-.39-.1-.42,4-.39,4-.38.21.08.43.4.18.53-.89.49-1.19.65-.23,2.44s2,3.65,3,5.48c2.4,4.49,2.4,4.49,2.32,4.65-.58.16-11.12-8.43-11.81-9C87.41,239,87.8,239,89.25,239a.44.44,0,0,1,.42.32c0,.12,0,.21-.14.23l-3.68,0c-.18-.05-.53-.39-.3-.53s.66-.06.85-.4-.07-.72-.13-.88c-.46-1.21-3.92-7.26-4-7.32a7,7,0,0,0-3.48-3.25c-.46-.11-.53-.42-.5-.56a.39.39,0,0,1,.17-.06" transform="translate(-36.04 -7.79)"/><path d="M96.39,225.5a6.27,6.27,0,0,1,1.36,0l.24,0c1,.14,1.92.59,2.92.7.18,0,.32,0,.26-.31-.1-.51.21-.62.71.17,1.93,3,1.93,3,2,3.12.16.29-.07.32-.22.27s-.27-.16-.58-.45c-1.84-1.78-4.51-3.42-6.45-2.7-2.49.93-.3,5.3,0,5.79,2.94,5.64,7.68,7.24,8.55,4.9.31-.83-1.55-3.4-1.57-3.43-.48-.58-.83-.68-1.8-.7-.71,0-.66-.5-.42-.56l1.24-.15c1.13-.18,2.63-.55,3.78-.61a.38.38,0,0,1,.43.4c-.21.41-.84.2-1,.69,0,.09,0,.29.44,1.12a17.55,17.55,0,0,1,1.28,2.52c0,.08,0,.11-.32.52a5.47,5.47,0,0,1-4.9,2c-3.74-.3-7.67-3.76-9-7.88-.45-1.47-1.06-4.92,3-5.41" transform="translate(-36.04 -7.79)"/><path d="M121,235.23c4.74-1.07.92-8.25-2.86-10.69-2.49-1.6-5.06-1-4.89-.39,0,.09.39.82,1.08,2.17,4.78,9.29,4.78,9.29,6.67,8.91M108.71,223.8c.9-.12,1.82-.1,2.71-.25,4.62-1,7.16-1.56,10.68,1.08,2.63,2,5.21,6.32,3.23,9.35-1,1.48-2.37,1.71-6.52,2.39l-1.9.35a7.2,7.2,0,0,1-1.62.21c-.18,0-.36-.32-.28-.45s.16-.1.32-.13c1-.2.89-.78.81-1.09-.23-.89-3-6.13-3-6.18-2.61-4.87-2.86-4.84-3.93-4.75-.8.07-.51-.52-.45-.53" transform="translate(-36.04 -7.79)"/><path d="M123.29,221c.85-.18,1.72-.29,2.57-.49a20.69,20.69,0,0,1,2.87-.79c.37-.05.5.26.44.39-.21.43-.86.22-1,.71a2.77,2.77,0,0,0,.32,1.39c0,.09,4.64,9.28,6,9.86.46.21.95-.15,1.41.06a.3.3,0,0,1,0,.57c-.11,0-5.42,1.3-5.46,1.31a.4.4,0,0,1-.48-.29c0-.16.07-.21.26-.29.89-.4.74-.83.62-1.21-.41-1.25-3.16-6.14-3.7-7.11-2.11-3.72-2.32-3.69-3.35-3.56s-.45-.53-.4-.55" transform="translate(-36.04 -7.79)"/><path d="M137.68,217c.13,0,.28,0,.55.34l1.78,2.56c.21.29.51.72-.09.66-.09,0-.17,0-.72-.49a6.13,6.13,0,0,0-4.14-1.48,1.67,1.67,0,0,0-1.23,2.83c.82,1,2.28,1.1,3.71,1.14,1.75,0,5,.11,6.63,3s-.07,6.17-4.86,5.67a12,12,0,0,1-1.25-.19c-.07.36.25.75-.06,1.1-.05.06-.25.2-.62-.33l0-.07c-2.65-4.15-2.65-4.15-2.17-4.08a1.33,1.33,0,0,1,.57.38c1.76,1.66,3.64,2.59,5,2.49,2.21-.17,2.75-2,1.65-3.41-.7-.89-1.76-1.26-4-1.39-1.69-.1-4.83-.29-6.27-3,0-.05-2.65-5.42,5.4-4.9.08-.27-.2-.73.19-.84" transform="translate(-36.04 -7.79)"/><path d="M149.07,221.11c3.44-1.14,1.4-4.84-.12-5.6s-2.7-.08-3.7.44l2.95,5.36a8.44,8.44,0,0,0,.87-.2m-2.63-6.54c7.75-2.31,8.12,3.35,7.39,4.7-.9,1.63-3.73,2.35-5.25,2.73,3,5.53,3,5.53,4.46,5.13.76-.22.78.13.76.25s-.34.27-.44.3-5.65,1.67-5.72,1.65-.58-.25.09-.6c1.12-.59,1.12-.59-2.84-7.83-2.43-4.38-2.43-4.38-3.78-4-.17,0-1.08-.35-.06-.67s1-.24,1.51-.4l3.88-1.25" transform="translate(-36.04 -7.79)"/><path d="M153.51,212.36c2.05-.61,4-1.53,6.09-2.05.53-.14.6.27.51.4-.38.53-1.42.42-1.4,1.33,0,.46.15.87,1.54,3.4l3.23,5.9c.92,1.63,1.17,1.74,1.94,1.55,3.05-.77,3.47-2.31,3.65-3,.23-.85,0-1.75.25-2.6a.29.29,0,0,1,.55-.05c.29.45,1.25,3.39,1.57,4.35-3.71,1.13-7.28,2.69-11,3.79-.54.16-.61-.28-.56-.36s.14-.13.43-.29a1.22,1.22,0,0,0,.75-1.61,62.54,62.54,0,0,0-3.35-6.47c-1.68-3.08-2.25-4.12-3.93-3.71-.65.16-.9-.41-.27-.62" transform="translate(-36.04 -7.79)"/><path d="M173.52,214.21l3.51-1.39c-1.34-1.25-2.78-2.38-4.15-3.6.21,1.66.42,3.32.64,5m-1.79-8.64.68-.26c3.84,3.07,7.31,6.58,11.25,9.54a2.45,2.45,0,0,0,2.37.62c.32-.07.41.07.42.08a.3.3,0,0,1-.15.49l-5.8,2.24a1.16,1.16,0,0,1-.29.08c-.31,0-.48-.26-.32-.44s.66-.33.87-.66a.73.73,0,0,0,.05-.75,15.72,15.72,0,0,0-3-3l-4.15,1.57c.45,3,.68,4.48,2.8,4,.59-.13.58.31.58.31s-4.34,1.89-4.62,1.7,0-.51.09-.6c.55-.44.88-.81.81-2.32-.22-4.25-1.13-8.41-1.58-12.63" transform="translate(-36.04 -7.79)"/><path d="M177.24,203.76c1-.37,2-.63,3-1s1.92-1,3-1.34a.3.3,0,0,1,.41.37.51.51,0,0,1-.23.2c-.29.16-1.17.65-.49,1.33a38.58,38.58,0,0,0,5.33,3.1c1.12-6,.69-6.16-1-5.95-.76.09-.61-.36-.61-.37a32.15,32.15,0,0,1,4.64-2.06.29.29,0,0,1,.36.09.53.53,0,0,1,.08.17c0,.16-.12.25-.27.33-.53.31-1.79,1-2.24,7.66-.1,1.53,2.75,5.5,2.78,5.54.38.47.78.83,1.93.38.43-.18.59.14.54.35s-6.18,2.65-6.23,2.65c-.28,0-.43-.35-.23-.51,1.08-.89,1.08-.89.95-1.48a14.8,14.8,0,0,0-2.25-4.09c-.22-.24-6.64-4.62-8.42-4.78-.37,0-.74.17-1.12,0a.3.3,0,0,1,0-.5l.12-.06" transform="translate(-36.04 -7.79)"/><path d="M215.16,191.62l-.51-.93-1.61.79.5.91,1.62-.77m-1.56-2.84-.51-.93-1.61.77.51.94,1.61-.78m-6.9-1.87,3.09-1.36.48.87,4.34-2.1,1.51,2.76.87-.42,1.47,2.68-.86.42,1.31,2.4q-2.16,1.07-4.34,2.1l.42.77c1.51-.72,3-1.44,4.52-2.18l1.06,2L216.06,197l.46.83q2.55-1.22,5.1-2.47l1.2,2.18q-2.55,1.26-5.1,2.47l.55,1c2.5-1.15,4.31-2.14,5.6-2.87l.73,3.07c-11.46,6.16-13,5.74-15.89,5-.09,1.06-.22,2-.46,3.35l-3.46-1.22a28.29,28.29,0,0,0,.66-3.63,23.85,23.85,0,0,1-3.3-2.6l1.47-2.12c.84.69,1.4,1.13,2,1.6a12.32,12.32,0,0,0-.71-2.78c-1.11.5-2.22,1-3.33,1.5l-1.41-2.56,1.16-3.93L198.67,195l-1.54-2.8q2.93-1.31,5.85-2.65l1.63,3-1.06,3.74,2.47-1.13,1.43,2.6a17.64,17.64,0,0,1,1.29,5.56c1.07.36,2.28.76,5.21-.39l1.25-.51-.53-.95c-1.4.66-2.81,1.32-4.21,2l-1.2-2.18,4.22-2-.46-.84-3.55,1.66-1.07-2c1.19-.54,2.37-1.1,3.55-1.65l-.42-.78-3.36,1.57-1-1.87,3.36-1.56-.43-.8-4,1.84-1.18-2.14,4-1.86-.45-.81-3.31,1.54-1.21-2.2c1.1-.51,2.21-1,3.31-1.55l-.52-1" transform="translate(-36.04 -7.79)"/><path d="M225.79,177.56l2.83-1.37.46.85,2.18-1.14-.52-.94,2.88-1.43.47.85,2.19-1.18,1.46,2.66L235.55,177l.35.64-2.84,1.51-.34-.64-2.18,1.15.35.63c-.92.49-1.85,1-2.78,1.45l-.35-.63-1.86,1-1.46-2.66,1.86-1-.51-.93m11.15,5.8-.34-.62c-1.54.83-3.08,1.64-4.63,2.45l.34.61c1.54-.8,3.09-1.62,4.63-2.44m-1.16-2.13-.3-.53c-1.54.82-3.09,1.64-4.63,2.44l.29.54c1.55-.81,3.09-1.62,4.64-2.45M219,181l3.12-1.48,1.57,2.86,1.28-.65,1.65,3-1.27.65.62,1.13.22-.72c.41.17,1.37.65,2.87,1.43l-2.35-4.29q5.44-2.79,10.85-5.72l3.41,6.21q-1.94,1.05-3.87,2.07l.5.92q2.33-1.24,4.64-2.5l1.34,2.44c-1.48.81-3,1.61-4.45,2.4,1.12.35,2.57.32,6-1,.12,1,.27,2.22.39,3.17-3.52,1.13-5.24,1.13-6.88.77-.55,1.58-1.91,3.16-4.54,5.3l-2.67-2c3.14-2.14,3.84-3.2,4-4.23l-4.06,2.1L230,190.36l4.54-2.35-.5-.92-3.89,2-.38-.69-.55,2.08-1.52-.92,4.5,8.21-3.08,1.56-3.82-7a34.22,34.22,0,0,1-.14,4.12c-1-1.4-2.43-2.47-3-4.19,0,0,.09-1.39.1-1.43a16.7,16.7,0,0,0-.12-3.91l-1.51.75-1.66-3,1.64-.81L219,181" transform="translate(-36.04 -7.79)"/><path d="M262.4,161.24c.65-.32.63.25.63.26-.12.82-1.35.85-1.29,1.8,0,.56.19,1.29,1.66,4,4,7.32,4,7.32,5.71,6.39.6-.32.67.14.53.37-6.68,4-6.68,4-6.59,3.54.12-.63,1-.7,1.05-1.36a3.75,3.75,0,0,0-.64-2c-1.48-2.74-3-5.46-4.44-8.2.47,5.51.74,8.26.94,9.81.53,4,.53,4,.05,3.82a3.28,3.28,0,0,1-.67-.4c-1.29-.88-7-4.52-10.42-6.69,5.12,9.81,5.15,9.8,6.88,9,.3-.13.63-.28.72.11s-4.8,2.89-4.86,2.87a.35.35,0,0,1-.25-.3c0-.13.06-.18.52-.57,1-.86,1-1.52.2-3.08-4.91-9.15-4.91-9.15-6.9-8.49-.19.06-.57.19-.67-.19,0-.08,0-.08,4.77-2.81,3,2.24,6.38,3.93,9.49,6-.34-4.81-.64-8-1-11,1.56-.93,3-2,4.6-2.94" transform="translate(-36.04 -7.79)"/><path d="M277.76,168.32c4.14-2.8-.19-11.41-4-12.26-2.92-.64-6.58,2.8-2.18,9.57,1.9,3,4.22,4,6.2,2.69m-6.71-12.59c6.72-4.16,12.45,1.45,10.74,8.12-1.63,6.36-10.19,9.47-13.86,3.43-2.34-3.86-1-8.93,3.12-11.55" transform="translate(-36.04 -7.79)"/><path d="M292.24,158.76c5.26-3.76.85-11.48-3.23-12.27a5.48,5.48,0,0,0-4.48,1.57c-.25.3-.25.3.92,2.66,4.76,9.44,4.76,9.44,6.79,8m-12.81-8.42c1-.6,2-1.07,3-1.7,4.86-3.44,7.08-5,10.32-4.08s5.36,4.73,4.78,8.37-2.39,4.93-7.68,8.36l-2.09,1.41a11.88,11.88,0,0,1-1.74,1.08c-.3.1-.4-.24-.36-.38.23-.68,1.12-.78,1.34-1.47a2.8,2.8,0,0,0-.34-1.66c-4.66-10.5-5.79-10-6.62-9.54-.25.12-.92.45-.79-.15a.42.42,0,0,1,.21-.24" transform="translate(-36.04 -7.79)"/><path d="M294.89,139.89l2.26-1.52,7.32-5.38c2.68,3.09,2.68,3.09,2,3.12-1.2,0-2.2-1-3.45-.64a9.35,9.35,0,0,0-3.59,2.42,43.52,43.52,0,0,0,2.56,5c1.48-1,2.45-1.75,2-3.9-.15-.68.26-.66.26-.66.33,0,2.8,5,2.79,5-.05.26-.22.58-.86-.12-1.3-1.41-3-.22-3.81.35,2.56,5,2.77,5.05,3.28,5.09,1,.06,3.93-2.09,4.69-4.55.23-.74,0-1.54.24-2.28.07-.22.36-.49.55-.11a2,2,0,0,1,.13.37c.29,1,.67,2.26.95,3.23L301.83,153c-.69.45-.65-.21-.65-.22.16-.69,1.09-.81,1.15-1.57a4.66,4.66,0,0,0-.82-2.39c-4.85-9.09-4.85-9.09-6.27-8.36-.89.47-.39-.52-.35-.55" transform="translate(-36.04 -7.79)"/><path d="M306.87,130.92c1.86-1.35,3.53-3,5.45-4.24.48-.31.54.16.5.28-.25.78-1.27,1.11-1.2,2.07,0,.42.11.78,1.56,3.43l3.23,5.9c1,1.69,1.16,1.59,1.7,1.31a6.91,6.91,0,0,0,3.08-3.83,9.34,9.34,0,0,0,.22-3.29c-.07-1.29.46-.78.46-.77a31.85,31.85,0,0,1,1.69,4.61c-3.36,2.45-6.44,5.26-9.8,7.7a.29.29,0,0,1-.5-.21c0-.09,0-.17.37-.51a2,2,0,0,0,.68-2.07c-.18-.73-1.13-2.47-3.2-6.27-1.92-3.52-2.44-4.47-4-3.47-.6.4-.85-.2-.27-.64" transform="translate(-36.04 -7.79)"/><path d="M318.2,122c.78-.63,1.61-1.19,2.38-1.83,3-2.65,3-2.65,3-2.07a.66.66,0,0,1-.26.44c-.69.73-.91,1-.35,2.43.42,1.06,4.48,8.72,5.61,9.6.46.36.93.06,1.25-.2.63-.51.67.2.47.45l-5,4.19c-.23.19-.34.11-.38.08-.31-.2,0-.53.11-.67,1.06-1.18,1-1.36-1.69-6.33-3.5-6.44-3.61-6.36-4.74-5.6-.21.14-.43.29-.58,0,0,0-.1-.24.19-.47" transform="translate(-36.04 -7.79)"/><path d="M324.35,116.8c1-.77,1.91-1.59,2.87-2.38,4.85,1.44,7.87,2.28,10.78,3l-.46-.86c-3.75-6.88-3.75-6.88-5.35-5.75-.14.1-.47.33-.57-.17-.07-.31,3.9-3.72,3.95-3.71s.52.15,0,.81a2.88,2.88,0,0,0,0,3.47l3.05,5.45c2.58,4.87,2.58,4.87,2.07,5-.3.08-6.74-1.79-10-2.8l-1.63-.52c4.43,8.78,4.84,8.45,6.37,7.22.35-.28.44.11.45.12.11.49-4.28,4-4.34,3.93s-.46-.21.18-.88c1.31-1.37,1.17-1.61-2.27-7.77-1.29-2.29-2.61-4.66-4.75-3.54-.29.15-.41.08-.46,0s-.19-.34.14-.63" transform="translate(-36.04 -7.79)"/><path d="M341.61,100.84c.12-.11.36-.34.62-.55l.1-.07a6.12,6.12,0,0,1,2.18-1c1-.31,1-.31,1.06-.47.11-.34-.31-.76.1-1,.15,0,.21,0,.48.44,2.28,3.46,2.28,3.46,1.73,3.46-.11,0-.16,0-.46-.26a4.39,4.39,0,0,0-3.4-1A4,4,0,0,0,341.3,103c-.92,2.54.33,6.91,2.68,9.34,3.16,3.27,5.83.8,6-1.68.07-1.17-1.61-3.43-1.72-3.55-.39-.39-.72-.26-1.47.3-.59.44-.59-.26-.4-.49l1-1c3.36-3.6,3.36-3.6,3.33-2.91s-.9,1.25-.54,2.08,1.14,2.33,1.3,2.63c.35.69.35.69.33.82a12.89,12.89,0,0,1-2.39,5.05c-2.95,3.49-6.3,2.78-8.18.64-2.47-2.83-3.75-9.2.4-13.34" transform="translate(-36.04 -7.79)"/><path d="M361.41,99.65c3.26-4-2-12.64-5.07-12.31a3.18,3.18,0,0,0-2.13,1.72c-.06.25-.06.25,1.11,2.55,4.88,9.44,4.88,9.44,6.09,8M351,91.25c.6-.59,1.29-1.09,1.87-1.71,2.89-3.46,4.09-4.89,6.33-4.05s4.56,4.65,4.88,8.24c.34,3.88-.83,5.12-3.93,8.44l-1.27,1.43c-1.17,1.23-1.49,1.56-1.41.73.06-.59.72-.89.74-1.5a4.57,4.57,0,0,0-.65-2c-4.91-10.21-5.46-9.74-6.16-9.16-.48.41-.51-.19-.51-.2a.35.35,0,0,1,.11-.25" transform="translate(-36.04 -7.79)"/><path d="M360,81c.46-.55,1-1,1.41-1.61,1.45-2,1.45-2,1.56-2.08a.36.36,0,0,1,.16.11.49.49,0,0,1,0,.58c-.55,1-.51,1.31,2.26,6.33,3.41,6.18,3.65,6.25,4.2,5.55.09-.1.35-.43.48.08a.59.59,0,0,1-.1.45S367.07,94,367,94s-.35-.21-.32-.4c.07-.49.42-.9.37-1.41a5.91,5.91,0,0,0-.67-1.69c-4.95-9.88-5.6-9.43-5.88-9.23s-.7.5-.64-.11A.49.49,0,0,1,360,81" transform="translate(-36.04 -7.79)"/><path d="M366.94,71.22l.08,0c.1,0,.14.06.29.28l1.6,2.45c.24.38.41.63.11.8-.6-.22-1-.83-1.58-1a1.5,1.5,0,0,0-1.3.11c-.75.54-.94,2-.4,3.26.76,1.74,1.91,1.1,2.6.72,3.42-1.88,4.75,2.36,5.08,3.7.64,2.63.29,5.64-2.63,6.18.06.48.49.91.19,1.44-.13,0-.16,0-.41-.35-2.54-4.12-2.54-4.12-2.16-4.12,0,0,.13,0,.37.26.54.53,2.39,2.19,3.42,1.19,1.2-1.16.61-3.79-.38-4.76-.55-.53-1.15-.55-2.21,0s-2.72,1.28-4.25-1.63c-.57-1.07-2-5.74,1.71-7.36,0-.35-.4-.65-.13-1" transform="translate(-36.04 -7.79)"/><path d="M373.62,72.79c1.3-2.21-1-6.69-2.27-6.41-.47.1-.7.66-1,1.51l2.95,5.36a4.22,4.22,0,0,0,.34-.46M370.48,66c2.83-4.48,4.53,2.22,4.55,2.29a6.3,6.3,0,0,1-1.38,5.63c2.42,4.42,2.42,4.42,2.75,4.81s.26.32,1-.3c.24.07.3.4.19.63s-2.24,3.51-2.24,3.51h-.1c-.21-.18-.23-.38-.07-.76.36-.92.36-.92-3.62-8.18-2.25-4.09-2.25-4.09-3.07-3.5-.17,0-.4-.37-.11-.83s.4-.54.62-.88L370.48,66" transform="translate(-36.04 -7.79)"/><path d="M372.92,61.92A16.15,16.15,0,0,0,374.5,59c.23-.55.24-.55.35-.6.32.24.22.6.13.91-.29,1-.13,1.34,1.71,4.7l3.24,5.89c1,1.76,1.21,2.17,1.77.19.42-1.47-.28-3.68-.79-5.29-.13-.41-.1-.45,0-.54s.19.08,2.24,4.62c0,.05-2.46,4.54-3,5.82a1.51,1.51,0,0,1-.22.42h-.09c-.27-.25-.21-.44-.11-.79.34-1.1,0-1.65-1.93-5.28-3.78-6.95-3.78-6.95-4.67-6.4a.52.52,0,0,1-.2-.73" transform="translate(-36.04 -7.79)"/><path d="M381.25,60.59,382,58.7c-.88-1.14-1.82-2.23-2.72-3.35q1,2.63,2,5.24m-3.72-9,.14-.36c2.51,2.95,4.72,6.14,7.29,9,.42.48.42.48,1,.31a.76.76,0,0,1,.22.57s-1,2.9-1.1,3.06c0,0-.34-.1-.23-.64s.24-1.19-2.33-4.22L382,60.49c-.12.33-.47.56-.38,1,0,0,1.38,4.55,2.24,4.14.09,0,.14-.13.21-.19.25.1.28.48.25.58a21.22,21.22,0,0,1-1,2.23c-.09,0-.3-.21-.25-.7a5.33,5.33,0,0,0-.48-2.48c-.26-.76-.63-1.73-.78-2.11-1.48-3.78-4.33-11.33-4.33-11.33" transform="translate(-36.04 -7.79)"/><path d="M378.67,49.11a17.53,17.53,0,0,0,.9-2.92l.09,0a.77.77,0,0,1,.18.66c-.11,1,.25,1.4,3.14,4.21-2-6-2.07-6-2.75-6.06-.16-.2-.16-.2.23-2.65.27.09.29.59.29.6,0,1.4,2.68,8.51,2.71,8.57s3,6.5,3.41,5.16h.1c.45.67-.24,2.64-.55,3.45l-.1,0a.75.75,0,0,1-.18-.62c.14-1.48-2.56-5.56-2.59-5.6S379.66,49,379,49.72h-.1a.7.7,0,0,1-.19-.6" transform="translate(-36.04 -7.79)"/><path d="M386.89,44.6c-.46-1.25-.6-1.61-.81-2.16,0,.44.06.88.08,1.34a6.6,6.6,0,0,0,.73.82m.84,3.62c-.07-.51-.23-1.42-.23-1.42s-.05-.06-.07-.08c-.33-.39-.75-.95-1.25-1.65v.32l1.55,2.83m-2.9-7.06-.57-1c0,.34,0,.68,0,1l.57,1c0-.35,0-.69,0-1M383.1,38,382.52,37c0,.34,0,.69,0,1l.58,1.05,0-1m0,2.31-.58-1c0,.39,0,.79-.06,1.19L384,43.18c.28.5.55,1,.82,1.5q0-.61.06-1.2l-.57-1c0,.33,0,.65,0,1l-1.17-2.13c0-.32,0-.65.05-1m-1.86-6.5-.49-.89a31.36,31.36,0,0,1,0,4.34l.49.89a33,33,0,0,0,0-4.34m-1.95,2.38a30.77,30.77,0,0,0,0-7.06l3.06,5.57c0,.33.08.66.11,1l.58,1c0-.3-.06-.6-.1-.9L384.09,38l.09.91.57,1c0-.42-.08-.82-.14-1.23l1.32,2.41c0,.28.07.56.1.84.68.86.68.86,1.42,2.86l.12,0a.72.72,0,0,0,.21-.46c.47,1,1.08,2.31,1.54,3.3-.36.38-.76.23-1.53-.56,1,1.85,1,1.85,1.69,5.64-.81-1.2-1.38-2.53-2.07-3.79l-1.27-2.32,0,.48c.46.88,1.69,3.21,3.28,6.6l-1-.22c-1.53-3.37-2.23-4.85-5.61-11l-3.46-6.31" transform="translate(-36.04 -7.79)"/><path d="M382.44,31.52c.8,1.36,1.63,2.84,2.49,4.38l1.51,2.87c-1.41-2.47-2.38-4.11-2.74-4.7l-1.26-2.55M383.9,36c.13.05.38,0,.45.17s2.14,4.2,3.69,7.44c-.2-.12-.55-.21-.66-.42-1.28-2.34-2.29-4.81-3.48-7.19m-2-2.84a23.32,23.32,0,0,0-2.26-6.87l1.76,3.21a21.77,21.77,0,0,1,1.13,2.57l3.67,6.69a24.39,24.39,0,0,1,1.94,4l.29.89-1.7-2.87a8.72,8.72,0,0,0-1-2.3l-2.8-5.1a26.89,26.89,0,0,1,.7,3l-1.77-3.22m-2.84-5.6a23,23,0,0,0-1.87-5.68L379,25.1a23.18,23.18,0,0,1,1.88,5.69l-1.77-3.22" transform="translate(-36.04 -7.79)"/><path d="M49.08,230.19l.29.46c.76,1.35,2,3.62,3.67,6.47-.75-1.44-1.33-2.59-2.37-4.64l.39.47.08.15-.08-.08c0,.09,0,.09.5,1a57.46,57.46,0,0,0,3,5.38l.08.15c-.23-.27-.44-.55-.66-.82l-.08-.15a.6.6,0,0,0,.08.08,6.44,6.44,0,0,0-.56-1.08q-1.2-2.21-2.42-4.41h0c.77,1.53,1.33,2.63,2.45,4.81l0,0c-.76-1.33-2-3.55-3.53-6.23h0c2.84,5.18,2.84,5.18,3.13,5.64l.09.15c-.19-.28-.37-.57-.55-.86l-.08-.15,0,.05c0-.08,0-.08-1.24-2.31-1.8-3.28-1.8-3.28-2.15-3.87l-.08-.15" transform="translate(-36.04 -7.79)"/><path d="M55.9,240.84c.09.08.11.1.17.12l0,0c0-.78-3.35-6.4-4-6.68l0,0a33.92,33.92,0,0,0,3.79,6.56m-3.64-6.63c1.38,1.48,4.2,6.42,4,7-.43.14-4.34-6.39-4.26-7.13l0,0a.76.76,0,0,1,.25.19" transform="translate(-36.04 -7.79)"/><path d="M58,242.69c.19.13.53.37.42-.14s-1.93-4.7-4.13-6.25a.74.74,0,0,0,.08.18l2.69,4.9a3.83,3.83,0,0,0,.94,1.31m-4.35-7.06c.33.29.66.57,1,.84,2,1.65,4.51,6.49,3.88,6.63-.14,0-.39-.16-.53-.27l-.79-.67-.08-.15c.1.09.11.09.16.1s0-.12-.4-.85l-2.29-4.17a4.33,4.33,0,0,0-.87-1.3l-.09-.16" transform="translate(-36.04 -7.79)"/><path d="M56.38,237.7c.56.38,1.15.76,1.76,1.11.3.55.61,1.09.92,1.63H59c-.7-1.15-.91-1.45-1.43-1.79l-.38-.24-.08,0a1.58,1.58,0,0,0,.13.24l1.34,2.45q.24.17.48.3a.71.71,0,0,0,.21.11l0,0c0-.11,0-.15-.23-.59l.07.05,1.07,1.94-.07,0c-.5-.82-.6-.92-.93-1.13l-.48-.3,1.12,2c1,1.8,1.47,1.43,1.47,1.42a3.48,3.48,0,0,0-.34-1l.07,0c.26.53.52,1.06.77,1.59-.66-.38-1.29-.78-1.9-1.2l-.09-.15c.13.08.14.08.21.08s0-.13-.38-.85l-2.25-4.1c-.52-1-.62-1.09-1-1.36l-.08-.15" transform="translate(-36.04 -7.79)"/><path d="M58.67,239.11c.35.2.72.4,1.09.59l.08.15c-.14-.06-.15-.06-.23,0s0,.15.36.86l2.18,4c1.15,2.09,1.57,1.46,1.58,1.45a5.42,5.42,0,0,0-.31-1l.08,0c.25.52.48,1,.73,1.55-.67-.32-1.32-.66-2-1l-.08-.15c.13.06.14.06.21.05s0-.15-.41-.92l-2.26-4.12c-.48-.87-.58-1-1-1.28l-.08-.15" transform="translate(-36.04 -7.79)"/><path d="M61,240.33l1.16.51.08.15c-.18-.05-.19,0-.25,0s0,.19.37.85L64.68,246c.49.88.61,1,1,1.24l.09.15-1.16-.52-.08-.14c.18.06.19.06.25,0s0-.18-.38-.85l-2.28-4.17c-.48-.86-.59-1-1-1.25l-.08-.15" transform="translate(-36.04 -7.79)"/><path d="M62.5,241l.61.25c1.87,2.24,3,3.6,5.42,6.41h0l-1.63-3c-1.15-2.09-1.28-2.29-1.94-2.61l-.09-.15c.44.16.88.31,1.33.45l.08.15c-.48-.06-.34.2.76,2.21l2.25,4.09-.06,0c-1.91-2.21-3.06-3.55-5.41-6.37h0l1.53,2.79c1.33,2.4,1.33,2.4,2,2.71l.08.15-1.25-.5-.08-.14c.48.12.33-.15-.84-2.28L64,242.85a3.89,3.89,0,0,0-1.38-1.73L62.5,241" transform="translate(-36.04 -7.79)"/><path d="M68.61,242.9a6.15,6.15,0,0,1,1.3.57l0,.06c.3.51.61,1,.92,1.51h-.09c-1.79-2.6-2.84-2-2.9-1.6-.12.84,1.22,3.17,2.17,4.33,1.89,2.29,2.8,1.74,2.81,1.73s0-.26-.16-.64l-.5-.91A1.76,1.76,0,0,0,71,246.88l-.08-.15,1.38.34.07.15c-.29,0-.24.14,0,.6l.51.94a8.55,8.55,0,0,0,.55.91c-.67.17-1.67.44-3.67-1.85-1-1.21-2.64-3.93-2.07-4.75.24-.33.72-.22.9-.17" transform="translate(-36.04 -7.79)"/><path d="M77.06,250.44c2.3.27.41-3-.54-4.19a4.48,4.48,0,0,0-3.47-2l0,0a.74.74,0,0,0,.08.17l2.69,4.9c.4.71.58,1,1.27,1.11M72,243.82c.6.13,1.21.24,1.83.35,3.43.66,5.47,5.54,4.37,6.33a1.74,1.74,0,0,1-1.22.15l-1.43-.28-.08-.15c.53.07.49-.08,0-.92l-2.28-4.17c-.48-.86-.61-1-1.13-1.15l-.09-.16" transform="translate(-36.04 -7.79)"/><path d="M76.7,244.63l1.64.2.09.15c-.54,0-.55.11-.08,1l2.29,4.17c.48.88.62,1,1.22,1.12l.08.15c-.55-.06-1.1-.13-1.64-.21l-.08-.14c.56,0,.52-.12.07-1L78,245.91c-.48-.87-.62-1-1.22-1.14l-.08-.14" transform="translate(-36.04 -7.79)"/><path d="M80.35,244.9c.84.08.84.08,1.87,1.75H82.1c-1.73-2.33-2.15-1.32-2.15-1.31s-.18,1.3,2.21,2.66c2.61,1.48,2.43,3.28,2.43,3.3-.11.51-.75.6-1.57.21-.43-.2-.43-.2-1.26-1.54l-.23-.36h.12c1.9,2.6,2.63,1.8,2.65,1.6,0,0,0-1.67-2.32-2.87s-3-3.54-1.63-3.44" transform="translate(-36.04 -7.79)"/><path d="M85.85,248.88c1.47,0,.12-2.1-.48-2.67a2.27,2.27,0,0,0-1.93-.69s0,0,.1.24l1.6,2.93a2,2,0,0,0,.71.19m-3.63-3.68,1.75.11c2.21.15,3.64,3,2.74,3.73a.85.85,0,0,1-.73.14l-.72-.27,1,1.74c.46.84.58,1,1.37,1.08l.08.14q-1,0-1.89-.12l-.09-.15c.61,0,.58-.15.12-1l-2.29-4.17c-.46-.85-.54-1-1.21-1.08l-.09-.16" transform="translate(-36.04 -7.79)"/><path d="M86.23,245.41l1.92.05.08.15c-.65,0-.67.17-.2,1l2.17,4c.28.49.53.95.91,1.08.18.06,1.36.24,1.51-.24a3,3,0,0,0-.13-1h.14c.21.55.39,1.1.61,1.63-1.14,0-2.27,0-3.38-.06l-.08-.15c.62,0,.59-.18.1-1.07l-2.26-4.12c-.48-.87-.62-1-1.31-1.07l-.08-.15" transform="translate(-36.04 -7.79)"/><path d="M95.57,249.06l-2.33-2.79h0c.12.63.31,1.52.64,2.82l1.7,0m-2.7-3.77c5.32,6.37,5.32,6.37,6.08,6.49l.08.15-1.87.06-.08-.15c.72-.17.72-.17-1.25-2.45l-1.87,0c.41,2.26.79,2.32,1.53,2.45l.08.15H93.76l-.08-.14c.49-.16.52-.26.31-1.19q-.6-2.67-1.19-5.36l.07-.05" transform="translate(-36.04 -7.79)"/><path d="M95.69,245.36l1.79-.09.08.15c-.77.2-.77.2,2.47,3.14-.2-3.12-.2-3.12-1.22-3.21l-.08-.15,1.88-.13.08.15a.54.54,0,0,0-.48.58,13.12,13.12,0,0,0,.19,3.24l.86,1.58c.46.82.61,1,1.5,1l.09.15-2.26.13-.08-.15c.78-.09.76-.25.32-1.06l-.82-1.51c-.25-.43-3.28-3.18-3.31-3.2a1.26,1.26,0,0,0-.93-.43l-.08-.15" transform="translate(-36.04 -7.79)"/><path d="M103,244.88l1.1-.1c1.77,1.77,3.56,3.55,5.34,5.31q-.36-2.91-.7-5.82l1.28-.16.08.15c-.78.21-.79.31-.19,1.36,2.78,4.91,2.78,4.91,3.72,4.89l.08.15-2.18.27-.08-.15c.73-.18.7-.28.08-1.4-.81-1.46-1.63-2.92-2.44-4.39h0c.36,3,.65,5.19.75,6h-.08c-2.74-2.76-5.07-5.13-5.09-5.16h0c2.65,5.22,2.65,5.22,3.68,5.26l.08.15-2.08.19-.08-.14c.74-.16.73-.24-.5-2.76-1.67-3.47-1.67-3.47-2.63-3.53l-.08-.15" transform="translate(-36.04 -7.79)"/><path d="M117.55,250c2.87-.59.46-4.53-1.43-5.74-1.67-1.07-4-.81-3.55,1.36.41,1.94,2.74,4.7,5,4.38m-3.65-6.62c3.61-.33,6.65,4.39,4.86,6.27-1.94,2-6.69-1-6.68-4.25a1.92,1.92,0,0,1,1.82-2" transform="translate(-36.04 -7.79)"/><path d="M123.67,248.86c3.63-.84,1.23-4.59-.39-5.65a5,5,0,0,0-4-.24c0,.05,0,.06.06.2l2.69,4.9c.39.71.6,1,1.61.79m-5.86-5.9c.9-.15,1.81-.3,2.71-.47,4.77-.79,6.26,4,5.27,5.44a3.69,3.69,0,0,1-2.32,1.24l-2.14.36-.08-.14c.78-.19.82-.32.34-1.21L119.31,244c-.49-.87-.64-1-1.41-.9l-.09-.16" transform="translate(-36.04 -7.79)"/><path d="M124.75,241.7c1.38-.27,2.77-.56,4.18-.86.19.35.4.69,1,1.59l-.14.07c-.83-1.06-1.14-1.28-2.32-1.06l-.9.18c-.25.06-.25.08-.1.35l1.34,2.45,1.12-.23c.79-.17.87-.3.65-1l.16,0,1.07,1.94-.16,0c-.6-.75-.78-.78-1.56-.62l-1.12.23,1.12,2c.38.65.62.83,1.08.84,0,0,1.73-.08,1.91-.81a2.74,2.74,0,0,0,0-1.15l.16,0c.19.59.39,1.17.57,1.76-1.5.32-3,.63-4.49.92l-.08-.15c.86-.24.85-.39.4-1.23l-2.25-4.1c-.53-1-.69-1.05-1.49-1l-.08-.15" transform="translate(-36.04 -7.79)"/><path d="M130.12,240.59l2.41-.54.09.15c-.83.26-.87.4-.41,1.26l2.18,4c.28.49.54,1,1,1s1.81-.19,2-.79a3.49,3.49,0,0,0,0-1.12l.18,0c.18.57.33,1.15.54,1.71-1.43.34-2.85.66-4.25,1l-.09-.15c.77-.23.8-.36.3-1.3l-2.26-4.11c-.49-.88-.64-1-1.51-.85l-.08-.14" transform="translate(-36.04 -7.79)"/><path d="M135.28,239.41l2.39-.58.09.15c-.8.27-.84.41-.38,1.28l2.29,4.16c.49.88.66,1,1.52.82l.08.15-2.39.58-.09-.15c.81-.25.85-.39.37-1.27l-2.29-4.17c-.48-.86-.65-1-1.51-.82l-.08-.15" transform="translate(-36.04 -7.79)"/><path d="M138.28,238.68l1.23-.31c2.38,1.36,4.27,2.43,7.68,4.32h0l-1.64-3c-1.15-2.09-1.29-2.28-2.51-2.07l-.08-.15,2.51-.68.08.15c-1,.4-.82.66.28,2.68l2.25,4.09-.11,0c-2.6-1.44-4.31-2.39-7.66-4.29h0l1.53,2.79c1.34,2.38,1.34,2.38,2.52,2.2l.08.15-2.49.63-.08-.15c1-.36.88-.58-.31-2.76L140.32,240c-.45-.81-.74-1.35-2-1.21l-.08-.15" transform="translate(-36.04 -7.79)"/><path d="M150,235.36a8.09,8.09,0,0,1,2.16-.3c.34.5.67,1,1,1.5l-.15.06c-2.12-2.28-4.9-.66-5,1a5.13,5.13,0,0,0,2.46,3.94,3.85,3.85,0,0,0,4.29-.22c.2-.2.15-.42,0-.77l-.5-.91c-.38-.68-.54-.78-1.72-.54l-.08-.15,2.41-.71.08.15c-.53.27-.52.39-.26.88l.52.94a3.43,3.43,0,0,0,.58.87c-6.05,3.86-8.61-1.81-8.26-3.49a3.11,3.11,0,0,1,2.44-2.29" transform="translate(-36.04 -7.79)"/><path d="M161.89,239.3c4.31-1.57,1.31-5.45-.33-6.17s-4.15.46-4.17.47,0,.07.07.2l2.69,4.9c.39.71.6,1,1.74.6m-6.15-5.47,3-1c5.25-1.58,6.44,3.27,5.69,4.77a4.76,4.76,0,0,1-2.82,2l-2.39.74-.09-.15c.88-.32.94-.48.46-1.36l-2.29-4.17c-.48-.86-.65-.94-1.5-.75l-.09-.15" transform="translate(-36.04 -7.79)"/><path d="M163.43,231.39l2.55-.85.08.15c-.84.36-.89.51-.42,1.38l2.28,4.17c.49.87.67.95,1.58.71l.08.15L167,238l-.08-.15c.85-.34.9-.5.42-1.38l-2.28-4.17c-.49-.86-.66-.94-1.58-.71l-.08-.15" transform="translate(-36.04 -7.79)"/><path d="M169.09,229.3a3.83,3.83,0,0,1,1.37-.21c.32.46.65.92,1,1.39l-.19.06c-1.92-2-3-.58-3-.08,0,1.07.88,1.7,2.68,1.86,3,.28,2.89,2.14,2.87,2.35-.15,2-3,2-3.2,1.76a16.26,16.26,0,0,1-1.12-1.52l.17,0c2,2.1,3.62,1,3.67.19,0,0,.08-2-2.77-2.14-3-.16-3.64-2.82-1.48-3.61" transform="translate(-36.04 -7.79)"/><path d="M176.21,231.24c2.18-.87.62-3-.21-3.33a2,2,0,0,0-1.19-.12c-.23,0-1.39.27-1.27.56l.07.14,1.6,2.92a2.69,2.69,0,0,0,1-.17m-4.39-2.71,2.54-.9c3.15-1.09,4,1.69,3.43,2.82a2.3,2.3,0,0,1-1.47,1.11l-1,.08.95,1.74c.47.83.61.93,1.73.61l.09.15-2.75,1-.09-.15c.86-.36.91-.51.43-1.4l-2.28-4.16c-.47-.85-.54-1-1.52-.71l-.08-.16" transform="translate(-36.04 -7.79)"/><path d="M177.57,226.46l2.68-1,.08.15c-.92.42-1,.58-.51,1.45l2.18,4c.28.49.54,1,1,.9s2-.5,2.16-1.18a3.69,3.69,0,0,0,0-1.22l.19-.07c.18.59.3,1.2.51,1.78-1.57.6-3.14,1.18-4.71,1.76l-.08-.15c.86-.38.9-.53.4-1.47l-2.26-4.11c-.49-.88-.65-.94-1.61-.67l-.09-.15" transform="translate(-36.04 -7.79)"/><path d="M189.66,226.25l-2.6-2.39h0c.08,1.2.19,2.21.33,3.28l2.29-.89m-2.92-3.45c3.62,3.33,5.13,4.69,5.56,5a1.29,1.29,0,0,0,1.36.23l.08.15-2.5,1-.08-.15c1-.57,1-.57-1.22-2.5l-2.52,1c.09,2.68.66,2.56,1.6,2.36l.08.15-2.47.95-.08-.15c.71-.46.76-.6.65-1.68-.31-3.59-.31-3.59-.56-6.25l.1-.1" transform="translate(-36.04 -7.79)"/><path d="M190.48,221.5l2.36-.95.09.15c-1.05.61-1.05.61,2.69,2.78.26-3.81.26-3.81-1.05-3.45l-.08-.15,2.43-1,.08.15a1.22,1.22,0,0,0-.71.93,17.19,17.19,0,0,0-.27,4l.87,1.58c.45.81.63.93,1.78.51l.08.15-2.95,1.21-.09-.15c1-.48,1-.67.61-1.49l-.83-1.5a29.84,29.84,0,0,0-3.78-2.48,1.23,1.23,0,0,0-1.15-.1l-.08-.15" transform="translate(-36.04 -7.79)"/><path d="M200,217.58l1.4-.6q3,2.16,6,4.3c0-2.28-.09-4.56-.13-6.84l1.59-.7.09.15c-1,.56-1,.69-.4,1.72a44.68,44.68,0,0,0,2.6,4.42c.32.37.62.31,1.34.07l.08.15-2.7,1.2-.08-.15c.92-.52.89-.63.28-1.74l-2.46-4.38,0,0,.15,7-.1,0-5.66-4.21h0c2.59,5.32,2.59,5.32,3.88,4.93l.08.15-2.66,1.14-.08-.15c.93-.5,1-.54-.22-3.2-1.62-3.57-1.62-3.57-2.82-3.23l-.08-.15" transform="translate(-36.04 -7.79)"/><path d="M217.24,218c3.46-1.77,1-5.62-1.1-6.38-2.32-.83-5.42,1.09-4.11,4,1,2.24,3.23,3.24,5.21,2.35m-3.65-6.61c4-1.62,6.75,2,5.7,4.74-1.19,3.12-6.31,3.77-7.84.21a3.7,3.7,0,0,1,2.14-5" transform="translate(-36.04 -7.79)"/><path d="M224.59,214.36c4.56-2.4,1.52-6.14-.17-6.65a2.81,2.81,0,0,0-2,.1,13.91,13.91,0,0,0-2.29,1c-.16.08-.17.09-.06.29l2.69,4.9c.39.7.6,1,1.81.36m-6.32-5,3.23-1.53c5.65-2.63,6.42,2.55,6,3.87-.56,1.74-2.52,2.73-3.17,3.06l-2.55,1.2-.08-.15c.94-.5,1-.67.52-1.56l-2.28-4.17c-.48-.86-.66-.92-1.57-.56l-.09-.16" transform="translate(-36.04 -7.79)"/><path d="M226.45,205.49l4.81-2.38c.12.2.12.2,1,1.55l-.17.13c-.85-1-1.19-1.14-2.54-.5l-1,.52c-.3.15-.29.18-.15.44l1.35,2.45,1.29-.64c.91-.46,1-.64.81-1.42l.19-.1,1.07,2-.19.09c-.61-.69-.82-.66-1.72-.22l-1.29.64,1.12,2c.38.65.63.78,1.17.63,0,0,2-.66,2.22-1.57a3.41,3.41,0,0,0,0-1.34l.19-.1c.16.63.35,1.25.52,1.88-1.73.86-3.45,1.72-5.18,2.56l-.08-.15c1-.56,1-.74.54-1.58l-2.25-4.1c-.53-1-.7-1-1.62-.63l-.08-.15" transform="translate(-36.04 -7.79)"/><path d="M232.62,202.42l2.75-1.39.08.15c-.94.56-1,.74-.53,1.61l2.18,4c.28.48.54,1,1,.84s2-.82,2.21-1.53a4,4,0,0,0,0-1.3l.2-.1c.17.61.29,1.23.5,1.83-1.6.83-3.21,1.65-4.81,2.46l-.08-.15c.88-.51.92-.67.41-1.61l-2.26-4.12c-.48-.87-.65-.92-1.63-.51l-.09-.15" transform="translate(-36.04 -7.79)"/><path d="M238.45,199.44c.89-.46,1.78-.92,2.66-1.39l.09.15c-.89.55-.94.73-.47,1.59L243,204c.49.88.68.93,1.62.5l.08.15c-.88.47-1.77.93-2.66,1.39l-.08-.15c.89-.53.94-.7.47-1.59l-2.29-4.17c-.48-.86-.66-.91-1.62-.5l-.08-.15" transform="translate(-36.04 -7.79)"/><path d="M241.79,197.7l1.35-.72,8.12,2.81,0,0-1.64-3c-1.15-2.09-1.3-2.27-2.61-1.69l-.08-.15,2.72-1.48.08.15c-1,.72-.91,1,.2,3l2.24,4.09-.12.07L244,198h0l1.53,2.79c1.32,2.33,1.34,2.38,2.64,1.81l.08.15-2.74,1.46-.09-.15c1.12-.71,1-.93-.19-3.11L244,198.68c-.45-.81-.75-1.34-2.08-.83l-.08-.15" transform="translate(-36.04 -7.79)"/><path d="M254.46,190.61a10.33,10.33,0,0,1,2.29-.91c.37.54.63.9,1,1.44l-.16.12c-2.31-2.21-5.37.85-5.26,2.83.2,3.71,4.5,5,7,2.18.27-.31.22-.53,0-.92l-.5-.9c-.38-.68-.54-.76-1.79-.18l-.08-.14,2.55-1.44.08.14c-.57.46-.56.58-.29,1.08l.51.94a2.74,2.74,0,0,0,.59.84c-1.41,1.31-3.17,2.95-5.74,2.54a3.71,3.71,0,0,1-2.94-3.93,4.87,4.87,0,0,1,2.72-3.69" transform="translate(-36.04 -7.79)"/><path d="M266.8,192c4.43-2.82,1.42-6.49-.24-6.91a2.66,2.66,0,0,0-1.93.25,15.2,15.2,0,0,0-2.25,1.22c-.14.09-.16.1-.06.3l2.69,4.9c.4.7.61,1,1.79.24m-6.25-4.68,3.15-1.83c5.51-3.15,6.32,2.18,5.92,3.59-.53,1.85-2.45,3-3.08,3.41L264.05,194l-.08-.15c.92-.59,1-.78.5-1.66L262.18,188c-.48-.86-.65-.91-1.54-.47l-.09-.16" transform="translate(-36.04 -7.79)"/><path d="M268.48,182.71l2.59-1.56.08.15c-.86.6-.91.79-.44,1.66l2.29,4.17c.49.87.67.92,1.59.43l.08.15-2.59,1.56-.09-.15c.88-.59.93-.78.45-1.66l-2.29-4.17c-.48-.86-.66-.91-1.59-.43l-.08-.15" transform="translate(-36.04 -7.79)"/><path d="M274.19,179a4.55,4.55,0,0,1,1.37-.55c.36.49.52.71,1,1.35l-.18.11c-2-1.91-3,.18-3,.58,0,1.21.87,1.71,2.67,1.49,2.71-.34,2.88,1.44,2.87,2,0,2-2.81,3-3.2,2.71a13,13,0,0,1-1.12-1.46l.17-.1c2.08,2,3.73.27,3.67-.76,0-.35-.25-2.06-2.76-1.64-3,.52-3.66-2.34-1.49-3.72" transform="translate(-36.04 -7.79)"/><path d="M281.28,179.63a2,2,0,0,0-.41-3.72,2.38,2.38,0,0,0-1.45.38c-.9.5-.88.53-.72.83l1.6,2.92a2.67,2.67,0,0,0,1-.41m-4.36-2.07,2.51-1.57c3.07-1.89,3.73,1,3.55,1.93A3.09,3.09,0,0,1,281.4,180l-1,.3,1,1.74c.46.83.6.91,1.71.3l.09.15-2.73,1.7-.08-.15c.85-.59.9-.78.42-1.67l-2.28-4.16c-.47-.85-.54-1-1.51-.46l-.08-.16" transform="translate(-36.04 -7.79)"/><path d="M282.58,174l2.6-1.67.08.15c-.88.66-.94.85-.47,1.72l2.18,4c.28.49.54,1,1,.8s1.92-1,2.08-1.77a4.87,4.87,0,0,0,0-1.36l.19-.12c.18.62.31,1.26.52,1.88l-4.55,2.94-.08-.15c.83-.6.87-.78.36-1.72l-2.26-4.12c-.48-.87-.65-.91-1.58-.4l-.08-.15" transform="translate(-36.04 -7.79)"/><path d="M294.26,171.28l-2.54-2.14h0c.07.81.17,1.95.39,3.58l2.17-1.45M291.39,168c3.22,2.7,5,4.19,5.43,4.47s.67.28,1.3,0l.09.15-2.36,1.58-.08-.14c.94-.84.94-.84-1.23-2.53l-2.39,1.59c.18,2.94.65,2.72,1.59,2.29l.08.15-2.36,1.55-.08-.15c.67-.65.72-.82.6-2-.35-3.56-.4-4.07-.68-6.82l.09-.13" transform="translate(-36.04 -7.79)"/><path d="M294.93,165.86l2.2-1.5.08.15c-.95.86-.95.86,2.63,2.56.12-4.25.12-4.25-1.1-3.61l-.08-.15c.75-.52,1.5-1,2.24-1.57l.09.15c-1.33,1.22-.77,5.55-.76,5.59l.87,1.58c.45.81.62.9,1.69.23l.08.15-2.74,1.89-.08-.15c1-.73,1-.94.52-1.76l-.82-1.5a22.58,22.58,0,0,0-3.65-2A1,1,0,0,0,295,166l-.08-.15" transform="translate(-36.04 -7.79)"/><path d="M303.71,159.76l1.27-.9,5.67,3.66c-.14-2.49-.28-5-.43-7.46l1.41-1,.08.15c-.86.78-.88.93-.27,2a44,44,0,0,0,2.58,4.39c.31.35.58.23,1.22-.15l.08.14c-.79.6-1.6,1.19-2.4,1.78l-.08-.15c.82-.72.78-.87.17-1.95l-2.45-4.37,0,0q.24,3.84.47,7.68l-.09.07L305.51,160l0,0c2.62,5.37,2.62,5.37,3.78,4.72l.08.15-2.4,1.72-.08-.15c.84-.72.91-.78-.34-3.47-1.64-3.64-1.64-3.64-2.74-3.05l-.08-.15" transform="translate(-36.04 -7.79)"/><path d="M319.46,157.26c3-2.45.61-6.56-1.66-6.82s-5.1,2.94-2.51,6.19a2.83,2.83,0,0,0,4.17.63m-3.65-6.6c3.3-2.27,5.92.85,5.46,3.83-.58,3.77-4.81,5.4-6.74,2.61a4.8,4.8,0,0,1,1.28-6.44" transform="translate(-36.04 -7.79)"/><path d="M325.78,152.15c3.75-3.22,1-7-.8-7.22-.32,0-.72-.07-1.79.6a17.05,17.05,0,0,0-1.77,1.36c-.06.05,0,.15,0,.25l2.69,4.9c.4.7.6,1,1.63.11m-5.9-4.4,2.75-2.15c1.66-1.29,2.68-1.56,3.76-1a4.28,4.28,0,0,1,1.82,3.83c-.17,2.22-2,3.76-2.64,4.27l-2.18,1.7-.08-.15c.8-.69.84-.89.37-1.78l-2.29-4.17c-.48-.86-.64-.9-1.42-.37l-.09-.16" transform="translate(-36.04 -7.79)"/><path d="M326.8,142.26c1-.81,2-1.62,3-2.44l1-.83c.2.35.39.65,1,1.53l-.14.17c-.86-1-1.17-1-2.23-.17l-.86.7c-.24.2-.24.22-.09.51l1.34,2.45,1.07-.88c.75-.63.83-.84.59-1.66l.16-.13,1.07,2-.16.13c-.58-.65-.76-.6-1.5,0l-1.07.88,1.12,2c.2.34.48.81,1,.57,0,0,1.67-1,1.87-2a4,4,0,0,0,0-1.57l.15-.13c.19.65.41,1.3.6,1.95l-1.21,1c-1,.84-2,1.68-3.08,2.52l-.08-.15c.83-.77.82-1,.37-1.8l-2.25-4.1c-.53-.95-.68-1-1.46-.44l-.08-.15" transform="translate(-36.04 -7.79)"/><path d="M331.89,138.06c.75-.62,1.48-1.24,2.21-1.86l.08.15c-.74.73-.78.93-.31,1.8l2.18,4c.32.57.55.91.95.76a4,4,0,0,0,1.69-1.76,4.72,4.72,0,0,0-.06-1.55l.15-.14c.21.63.36,1.28.59,1.9-1.26,1.09-2.54,2.17-3.84,3.26l-.08-.15c.7-.66.72-.84.22-1.78l-2.26-4.12c-.49-.87-.64-.9-1.43-.33l-.09-.15" transform="translate(-36.04 -7.79)"/><path d="M336.53,134.12l2.07-1.81.08.15c-.67.69-.7.89-.23,1.75l2.28,4.17c.49.88.65.91,1.38.34l.09.15-2.07,1.81-.08-.15c.69-.68.72-.87.24-1.76L338,134.6c-.48-.86-.63-.89-1.39-.33l-.08-.15" transform="translate(-36.04 -7.79)"/><path d="M339.11,131.86l1-.91c2,.61,3.84,1.18,6.82,2.12l0,0-1.64-3c-1.15-2.09-1.28-2.27-2.26-1.53l-.08-.15c.67-.61,1.33-1.21,2-1.82l.09.15c-.75.86-.61,1.12.5,3.14l2.24,4.09-.09.08c-2.1-.66-3.76-1.18-6.78-2.1l0,0,1.53,2.78c1.31,2.33,1.33,2.38,2.32,1.65l.08.15-2.07,1.84-.08-.15c.83-.87.68-1.15-.48-3.28L341,132.66c-.44-.81-.74-1.34-1.78-.65l-.08-.15" transform="translate(-36.04 -7.79)"/><path d="M348.37,123.15A6.43,6.43,0,0,1,350,122c.35.53.6.9,1,1.42l-.11.14c-2.06-2.14-3.74,1.39-3.76,2.71,0,2.28,2.32,6,4.89,3.47,1.19-1.17,1-1.58.73-2l-.5-.9c-.38-.68-.51-.74-1.4,0l-.07-.15,1.76-1.7.08.15c-.37.51-.36.64-.08,1.14l.51.94a3.66,3.66,0,0,0,.52.8c-.55,2-4.2,5.19-6.23,1.49a5.24,5.24,0,0,1,1.05-6.29" transform="translate(-36.04 -7.79)"/><path d="M357.88,123.77c2.89-3.2-.05-7.32-1.69-7.16-.19,0-2.72,1.44-2.36,2.12l2.69,4.9c.39.68.59,1,1.36.14m-5.31-4.45,2.09-2.09c3.89-3.84,4.86,2.83,4.87,2.91a5.8,5.8,0,0,1-1.77,4.15l-1.66,1.65-.08-.15c.61-.67.62-.87.14-1.76l-2.28-4.16c-.48-.86-.62-.91-1.23-.39l-.08-.16" transform="translate(-36.04 -7.79)"/><path d="M357.73,114.07q.82-.85,1.62-1.71l.08.15c-.52.66-.52.85-.05,1.72l2.28,4.16c.49.88.63.92,1.21.38l.08.15q-.79.85-1.62,1.71l-.08-.15c.54-.64.54-.83.06-1.72L359,114.59c-.49-.86-.61-.9-1.22-.37l-.08-.15" transform="translate(-36.04 -7.79)"/><path d="M361.22,110.1a2.22,2.22,0,0,1,.87-.6l.9,1.34-.11.12c-1.67-1.83-2,.28-2,.31a1.63,1.63,0,0,0,2.14,1.8c2.1-.48,2.34,1.89,2.36,2.16.14,1.89-1.54,3-1.89,2.58-.05-.07-.37-.46-1-1.39l.1-.11c1.77,1.89,2.48.08,2.5-.45,0,0,0-2.35-2.06-2.06-1.14.16-1.65.23-2.2-.88a2.69,2.69,0,0,1,.36-2.82" transform="translate(-36.04 -7.79)"/><path d="M366.24,110.52c1.26-1.55-.27-3.92-1.18-3.75a2.15,2.15,0,0,0-1,.8c-.14.17-.15.19,0,.46l1.61,2.92a1.38,1.38,0,0,0,.6-.43m-3.36-2c.5-.55,1-1.1,1.46-1.64,1.76-1.95,2.72.92,2.76,1.89a2.71,2.71,0,0,1-.72,2.09l-.62.32,1,1.74c.46.83.57.91,1.23.27l.08.15c-.52.59-1,1.19-1.59,1.78l-.08-.15c.49-.62.49-.81,0-1.7l-2.29-4.16c-.46-.85-.54-1-1.11-.43l-.09-.16" transform="translate(-36.04 -7.79)"/><path d="M366.14,104.82l1.44-1.7.08.15c-.47.66-.47.86,0,1.73l2.18,4c.21.37.5.89.75.81a2.67,2.67,0,0,0,1.08-1.41,3.86,3.86,0,0,0-.21-1.75l.1-.12c.24.63.44,1.26.7,1.88-.81,1-1.65,2-2.5,3l-.08-.15c.45-.61.44-.79-.06-1.73l-2.26-4.12c-.49-.87-.61-.91-1.14-.38l-.08-.15" transform="translate(-36.04 -7.79)"/><path d="M373.32,102.13c-.62-.64-1.44-1.51-2.06-2.16v0c.31,1.23.59,2.3.95,3.55l1.12-1.41m-2.48-3.26c3.71,3.9,4.15,4.33,4.36,4.52s.46.3.82,0l.08.15-1.18,1.53-.09-.15c.45-.82.45-.82-1.28-2.52L372.32,104c.67,2.93.92,2.73,1.46,2.3l.09.15-1.25,1.53-.08-.15c.32-.64.32-.81,0-2-.83-3.22-1.41-5.47-1.76-6.79l0-.13" transform="translate(-36.04 -7.79)"/><path d="M372.66,96.79l1.08-1.43.09.15c-.42.81-.42.81,2.17,2.6-.81-4.18-.81-4.18-1.44-3.59l-.08-.15c.36-.48.71-1,1-1.45l.09.15c-.56,1.16.69,5.42.7,5.45l.87,1.58c.45.81.57.91,1.1.28l.08.15q-.64.89-1.32,1.77l-.08-.14c.45-.69.41-.9,0-1.72l-.83-1.5a19.36,19.36,0,0,0-2.7-2.09c-.34-.2-.46-.13-.67.09l-.08-.15" transform="translate(-36.04 -7.79)"/><path d="M376.82,91.11l.56-.82,4.19,3.86c-.32-1.2-1.08-4-1.95-7.23l.57-.9.08.15c-.31.69-.29.83.3,1.86,2.37,4.2,2.37,4.2,2.51,4.4s.4.26.67-.07l.08.15c-.32.52-.65,1-1,1.55l-.09-.15c.32-.64.27-.76-.34-1.87L380,87.67l0,0c.6,2.19,1.12,4.08,2,7.45l0,.06c-2.24-2.13-2.29-2.17-4-3.8h0c2.75,5.37,2.75,5.37,3.31,4.79l.08.15c-.35.51-.7,1-1.07,1.55l-.08-.15c.37-.68.34-.78-1-3.4-1.78-3.61-1.78-3.61-2.31-3.09l-.08-.15" transform="translate(-36.04 -7.79)"/><path d="M385.41,89.74c1.13-2.21-1.6-7.15-3.08-6.66-1.76.57-.4,5.79,1.82,7a.85.85,0,0,0,1.26-.32m-3.63-6.61c1.29-1.89,3.48,1.28,4,4.12.45,2.63-.62,4.21-2.11,3.15-1.71-1.23-3-5.34-1.86-7.27" transform="translate(-36.04 -7.79)"/><path d="M387.62,85.48c1.26-2.77-1.52-7.17-2.59-6.91,0,0-1.34,1.12-1,1.74l2.69,4.9c.39.68.57,1,.91.27m-4.3-4.74.95-1.76c1.66-3,3.55,2.74,3.57,2.81a5.64,5.64,0,0,1-.2,4.17c-.24.46-.5.92-.75,1.39l-.09-.15c.28-.6.22-.8-.24-1.65l-2.29-4.17c-.44-.8-.55-.95-.87-.49l-.08-.15" transform="translate(-36.04 -7.79)"/><path d="M385.61,76.32c.41-.86.81-1.7,1.18-2.54.19.35.35.63.9,1.55l0,.13c-.7-1-.86-1.09-1.18-.45-.08.19-.17.37-.25.55s-.07.19.08.46l1.35,2.45c.1-.23.21-.46.31-.68.22-.49.2-.68-.14-1.46l.05-.1,1.06,1.94,0,.1c-.47-.68-.55-.65-.76-.19l-.32.68,1.12,2c.39.69.65,1.15,1-.16.08-.28.2-.67-.41-2.23l0-.1c.28.63.56,1.26.83,1.89q-.58,1.35-1.26,2.73l-.08-.15c.23-.61.17-.79-.28-1.64l-2.26-4.1c-.48-.87-.59-1-.87-.58l-.08-.15" transform="translate(-36.04 -7.79)"/><path d="M387.09,73.07c.21-.47.4-.95.59-1.41l.09.14c-.17.57-.13.75.34,1.62l2.18,4c.49.89.7,1.26,1,.23.14-.53.11-.87-.42-2.22l0-.1c.27.61.53,1.23.82,1.83-.31.82-.65,1.64-1,2.48l-.08-.15c.17-.52.13-.69-.38-1.62L388,73.72c-.48-.87-.56-.92-.8-.5l-.09-.15" transform="translate(-36.04 -7.79)"/><path d="M388.3,70.08q.26-.67.48-1.35l.09.15c-.13.53-.09.71.38,1.58l2.29,4.17c.43.78.56,1,.76.51l.08.15q-.22.67-.48,1.35l-.09-.15c.15-.51.11-.69-.37-1.58l-2.29-4.16c-.44-.8-.54-1-.77-.52l-.08-.15" transform="translate(-36.04 -7.79)"/><path d="M388.9,68.4l.23-.68c1.34,1,2.15,1.68,3.79,3v0l-1.64-3c-1.17-2.13-1.26-2.28-1.5-1.77l-.08-.15c.13-.44.25-.88.37-1.32l.08.15c-.08.66.06.92,1.17,2.94l2.24,4.09v0c-1.26-1-2.08-1.69-3.77-3h0l1.53,2.78c1.3,2.34,1.32,2.38,1.57,1.87l.08.15c-.14.45-.29.9-.44,1.36l-.09-.15c.15-.67,0-.89-1.17-3.07L390,69.42c-.46-.83-.74-1.33-1-.88l-.08-.14" transform="translate(-36.04 -7.79)"/><path d="M390.54,62a1.41,1.41,0,0,1,.36-.72c.28.49.57,1,.86,1.46v.1c-.59-.87-.95-1.23-1.1-.5-.4,2,2.45,7.17,3.28,6.72,0,0,.71-.69-.09-2.16l-.5-.91c-.29-.53-.33-.56-.44-.59s-.09.07-.17.3l-.08-.14c.08-.4.15-.8.22-1.2l.08.14a1.76,1.76,0,0,0,.33,1l.51.94a2.59,2.59,0,0,1,.54,2.11c-.06,1-.48,1-.72.89-1.34-.51-3.49-5.28-3.08-7.45" transform="translate(-36.04 -7.79)"/><path d="M394.73,64.39c.13-2.5-2.76-7-3.13-6.68a1.62,1.62,0,0,0-.15,1.38l2.69,4.9c.35.63.4.67.5.7s.08-.08.09-.3m-3.61-5c.06-.49.12-1,.17-1.45.08-.71.26-1,.88-.18.36.47,2.88,4.43,2.68,7.08,0,.38-.09.77-.14,1.15l-.08-.15c0-.48,0-.65-.51-1.54l-2.29-4.17c-.36-.66-.41-.71-.51-.78s-.07,0-.12.19l-.08-.15" transform="translate(-36.04 -7.79)"/><path d="M391.44,55.77c0-.39,0-.77,0-1.15l.08.15a3.16,3.16,0,0,0,.57,1.5l2.29,4.17c.4.72.44.76.53.78s0,0,.05-.19l.08.15c0,.38,0,.76,0,1.15l-.08-.15c0-.44-.08-.61-.56-1.5l-2.29-4.17c-.4-.71-.44-.75-.52-.78s0,.05-.07.19l-.08-.15" transform="translate(-36.04 -7.79)"/><path d="M391.35,53.07c0-.21,0-.25.09-.31l.79,1.38v.07c-.42-.67-.57-.87-.69-.93l-.05,0c-.09.33.89,2.7,1.51,2.78s1.66,2.53,1.71,2.63a3.29,3.29,0,0,1,.38,1.63c0,.15-.14.12-.15.11a7.77,7.77,0,0,1-.45-.75c-.16-.26-.31-.53-.47-.8v-.07c.6.93.78,1.07.89,1.09.36-.54-1.34-3.21-1.65-3.2-.6,0-1.86-2.7-1.92-3.65" transform="translate(-36.04 -7.79)"/><path d="M393.22,54.65c-.14-.89-1.64-3.77-1.82-3.51,0,0-.14.25.17.81l1.61,2.93s.06,0,0-.23m-1.86-2.55c0-.36-.07-.71-.11-1.07s0-.26,0-.32c.49.17,2.09,3.59,2.11,4.27l-.09.12.95,1.74c.35.63.4.7.48.76s0-.06,0-.22l.08.15c.05.38.09.77.12,1.15l-.08-.15a3.85,3.85,0,0,0-.61-1.47L392,52.9c-.41-.75-.43-.78-.51-.82a.44.44,0,0,0,0,.18l-.09-.16" transform="translate(-36.04 -7.79)"/><path d="M391.06,49.72c-.07-.36-.13-.71-.21-1.06l.08.14a5.31,5.31,0,0,0,.66,1.48l2.18,4a8.07,8.07,0,0,0,.52.88h0a7.83,7.83,0,0,0-1-2.43l0-.07c.31.59.62,1.19.94,1.78.15.61.28,1.22.39,1.85l-.08-.15a5.15,5.15,0,0,0-.67-1.49l-2.26-4.12c-.4-.72-.43-.76-.49-.79a.28.28,0,0,0,0,.16l-.08-.15" transform="translate(-36.04 -7.79)"/><path d="M392,49.46,390.63,47h0l1.69,3.26c-.09-.28-.18-.57-.28-.85m-2-3.47a60.54,60.54,0,0,0,3.15,5.41v-.06l.08.15c.12.3.23.61.34.91l-.08-.15a16.42,16.42,0,0,0-1.36-2.49c.11.31.21.62.31.93a16.35,16.35,0,0,0,1.32,2.46.34.34,0,0,0,0-.1l.08.15c.1.31.19.62.28.93L394.1,54a11.8,11.8,0,0,0-.78-1.68c-1.07-2.08-2.13-4.15-3.21-6.22l0-.1" transform="translate(-36.04 -7.79)"/><path d="M389.66,44.81,389.3,44l.08.15c.2.42.2.42,1.59,2.85l-1.89-3.5,0,.08L389,43.4l-.43-.83.08.15c.85,1.56,1.68,3.13,2.53,4.69l.87,1.58c.14.26.27.52.43.77a1.42,1.42,0,0,0-.08-.18l.08.15c.17.34.33.68.49,1l-.08-.15c-.19-.4-.3-.61-.75-1.42l-.82-1.51c-.23-.41-1.45-2.53-1.61-2.78V45l-.08-.15" transform="translate(-36.04 -7.79)"/></g></g><g class="cls-3"><g class="cls-5"><path d="M36.48,202.57a1.08,1.08,0,0,1,.32.6c.15.66.49,1.32,2.54,5.07,3.71,6.75,3.71,6.75,3.92,6.85V215c.11.06.12.07.27.42a15.69,15.69,0,0,0,.59,2.53,31.3,31.3,0,0,1-1.66-3.33L38,206.49c1,2,3.13,6.15,4.6,9,.61,1.16,1.25,2.31,1.82,3.5-.19-.23-2.87-4.79-4.87-8.27,5.25,9.56,5.25,9.56,6.13,11.27-.68-1.12-1.23-2.3-1.86-3.44-5.56-10.14-5.56-10.14-5.87-10.89,1.19,2.07,1.19,2.07,4.17,7-5.4-10.47-5.4-10.47-5.67-12.12" transform="translate(-36.04 -7.79)"/><path d="M42.89,211.38c-.16-2.12-5.48-12.13-6.4-12-.58.77,5.14,11.92,6.31,12.3,0,0,.1,0,.09-.26M36,198.84c0-.85.3-1,1-.36,3.06,2.9,7.36,14.32,6.07,14.37-1.07,0-6.88-10.85-7-14" transform="translate(-36.04 -7.79)"/><path d="M43.28,204.68c.42-3.34-5.29-12.73-6.23-11.89-.56.51-.47.68,1.06,3.54,5,9.2,5,9.2,5.14,8.49l0-.14m-7.14-9.56c.06-.38.19-.75.24-1.13.24-2.24.47-4.36,2.82-1.42a26.06,26.06,0,0,1,3.92,7.84c.85,2.81.8,3.14.33,6.26l-.1,1a6.2,6.2,0,0,1-.08.74.85.85,0,0,1-.3-.73c.08-1.61-6.33-12.18-6.4-12.21s-.09,0-.15.22a.82.82,0,0,1-.28-.57" transform="translate(-36.04 -7.79)"/><path d="M37.56,187.64l.37-1.11,1.37-4c1.89,2.87,1.89,2.87,1.88,3.1l-.09,0c-1.56-1.06-1.56-1.06-1.63-1-.66.21-.78,1.78-.78,1.8s.79,1.61,2.67,5c.28-.82.44-1.32-.43-3.41-.14-.33-.13-.37-.11-.5h.1s2.76,4.78,2.72,5.2c-.14,0-.14,0-.41-.41-1-1.49-1.34-.57-1.48-.18,3.13,5.84,3.13,5.84,3.52,4.44a8.5,8.5,0,0,0-.44-4.65c-.16-.45-.14-.48,0-.57.09.08.12.1.33.57L46.49,195c-.47,1.28-1,2.56-1.43,3.86-.22.62,0,1.36-.5,1.91a.72.72,0,0,1-.26-.62c.14-.67,0-1.19-1.19-3.39-4.92-9-4.92-9-5.27-8.5-.29-.09-.28-.61-.28-.61" transform="translate(-36.04 -7.79)"/><path d="M39.76,180.89a23.56,23.56,0,0,0,1.2-2.75c.2-.54.21-.54.33-.58.28.25.21.54.13.9-.24,1,0,1.4,1.77,4.65L46.42,189c1,1.84,1.15,2.08,1.64.33.4-1.39-.1-3.25-.74-5.36-.13-.41-.11-.45,0-.55.15.07.2.09,2.23,4.62a31.16,31.16,0,0,0-2.58,5.61c-.09.36-.09.36-.19.4a.69.69,0,0,1-.19-.77c.2-1-.19-1.76-2.07-5.22-3.82-7-3.82-7-4.48-6.45a.6.6,0,0,1-.24-.71" transform="translate(-36.04 -7.79)"/><path d="M43,174c.26-.49.59-.94.86-1.42.94-1.86.94-1.86,1-1.88a.56.56,0,0,1,.13.67c-.31.79-.38,1,1.73,4.85,4,7.43,4.06,7.42,4.89,6.82.24.06.3.46.21.68,0,0-1.7,3.21-1.86,3.34a.51.51,0,0,1-.21-.66c.28-.93.19-1.18-2-5.2-3.91-7.22-3.92-7.2-4.56-6.59-.24,0-.34-.42-.24-.61" transform="translate(-36.04 -7.79)"/><path d="M45.23,169.83c.41-.61.78-1.25,1.18-1.87,2.66,1,5,2.62,7.64,3.77l-.46-.86c-3.61-6.6-3.61-6.6-4.77-5.82-.37-.1-.27-.57-.26-.58s1.81-2.79,2-2.94c.1,0,.42.23.13.83-.55,1.13.22,2.57.6,3.26,1,1.81,2,3.62,3,5.44,2.74,5.08,2.74,5.08,2.17,4.92a77.72,77.72,0,0,1-8.1-4.19c4.43,8.46,4.55,8.33,5.53,7.36.32.1.27.51.23.61l-1.76,2.89c-.27-.09-.34-.4-.18-.77.5-1.18.24-1.67-2.33-6.32-2.68-4.85-3-5.35-4.48-5.05a.54.54,0,0,1-.18-.68" transform="translate(-36.04 -7.79)"/><path d="M54.33,156.1a4.62,4.62,0,0,1,.5-.57l.08-.06a4,4,0,0,1,1.69-.85c.76-.23.77-.24.75-.52-.08-.82-.08-.82,0-.86s.19.09.42.44c2.25,3.52,2.25,3.52,1.73,3.44-.08,0-.17-.08-.38-.26a4.19,4.19,0,0,0-2.79-1.17,2.49,2.49,0,0,0-1.91,2c-.62,2.57.93,6.67,2.77,9.15s4.31,3.26,4.83-.13c.2-1.28-1.47-5-2.5-4.3-.2.14-.29.44-.6.44-.13,0-.25-.27-.24-.43a.4.4,0,0,1,.09-.19l.71-.93c2.55-3.38,2.55-3.38,2.56-2.68s-.62,1-.46,1.62a18.71,18.71,0,0,0,1.76,3.56,10.89,10.89,0,0,1-1.12,4.48c-1.72,3.46-4.09,3-5.72,1.45-2.47-2.37-5.24-9.51-2.18-13.6" transform="translate(-36.04 -7.79)"/><path d="M72.07,155.52c3.55-4.12-1.74-12.64-5-12.28A3.19,3.19,0,0,0,64.86,145c-.06.25-.06.25,1.11,2.54,4.86,9.41,4.86,9.41,6.1,8m-10.35-8.43c.57-.58,1.22-1.07,1.77-1.67,2.78-3.27,4.18-4.9,6.71-4.1s4.61,4.22,4.88,7.81c.29,4-.87,5.2-4.33,8.9l-1.22,1.4c-.92,1-.92,1-1.06,1.11s-.51-.22-.06-.79c.86-1.07.72-1.33-1.6-5.81-3.77-7.28-3.94-7.11-4.69-6.39-.08.07-.29.28-.43,0a.38.38,0,0,1,0-.47" transform="translate(-36.04 -7.79)"/><path d="M71.46,136.7c.59-.59,1.24-1.11,1.83-1.7a21.48,21.48,0,0,1,2.08-2.18c.18-.13.38.07.36.3,0,.56-.72.83-.69,1.43a7.18,7.18,0,0,0,.87,2.37c4.84,9.5,5.4,9,6.06,8.42s.59,0,.59.14,0,.07-2.17,2.15c-.67.63-1.18,1.4-1.83,2.05-.11.1-.22.18-.34.06s0-.52,0-.64c.76-1.09.7-1.31-1.81-5.94-3.66-6.73-3.73-6.67-4.69-5.91a.25.25,0,0,1-.43-.08.41.41,0,0,1,.12-.47" transform="translate(-36.04 -7.79)"/><path d="M82,126.13c.18-.1.26-.06.47.21l1.71,2.41c.61.89-.07.84-.08.84s-.23-.1-.61-.37A3.07,3.07,0,0,0,80,129.1a2.8,2.8,0,0,0-.46,3.91c.67.71,1.59.49,3-.13s4.28-1.94,5.87,1.67c1.11,2.52.58,7.49-4.44,8.42,0,1.66,0,1.66-.28,1.39a2.11,2.11,0,0,1-.18-.24,41.78,41.78,0,0,1-2.29-3.58c-.19-.37.06-.56.22-.53a1,1,0,0,1,.37.24c.74.62,2.62,2,4.2,1.05a3.38,3.38,0,0,0,1-4.56c-.76-1.13-1.85-1-3.49-.32-1.41.57-3.78,1.52-5.22-1.19,0,0-2.8-5.65,3.63-8,0-.36-.31-.74.06-1.09" transform="translate(-36.04 -7.79)"/><path d="M91.67,127c2.7-2.48.81-6.61-1-6.64-1.11,0-1.87.93-2.6,1.83L91,127.51c.33-.24.56-.43.7-.55m-2.78-6.84c6.45-5.54,6.8,2.08,6.79,2.16-.23,2.39-2.1,4.1-4.33,5.92,3,5.49,3,5.49,4.12,4.58.21-.17.71-.57.7,0,0,.33-4.82,4.44-4.86,4.44s-.57,0,.09-.87.78-1-3.19-8.21c-2.41-4.35-2.41-4.35-3.47-3.45-.07.06-.95,0-.12-.77.44-.37.66-.55,1.18-1l3.09-2.82" transform="translate(-36.04 -7.79)"/><path d="M94.69,115.2c1.76-1.38,3.35-3,5.16-4.27.45-.32.51.17.51.18,0,.92-1.24,1.14-1.17,2.09,0,.47.12.84,1.57,3.5l3.23,5.88c1,1.68,1.14,1.59,1.67,1.3a6.85,6.85,0,0,0,3-3.81,10.82,10.82,0,0,0,.21-3.51c0-.72.34-.69.47-.52a48.66,48.66,0,0,1,1.68,4.6,103.1,103.1,0,0,0-9,7.25c-.24.24-.94,1-.95.24,0-.1,0-.2.32-.52a2,2,0,0,0,.59-2.08c-.19-.71-1-2.16-3.2-6.25-1.93-3.52-2.44-4.46-3.86-3.45-.51.37-.77-.22-.28-.63" transform="translate(-36.04 -7.79)"/><path d="M112.43,111.61l3.07-2.42c-1.26-1.09-2.62-2-3.93-3.06.29,1.83.57,3.65.86,5.48m-2.09-9.34.6-.46c3.65,2.59,6.91,5.69,10.66,8.15a1.77,1.77,0,0,0,2.08.24c.32-.17.42-.16.53,0a.37.37,0,0,1-.16.48c-.84.67-1.81,1.13-2.67,1.76s-1.65,1.46-2.54,2.11a.59.59,0,0,1-.29.12c-.14,0-.42-.23-.1-.56,1-1,1.59-1.67-2.21-4.34-1,.7-3.11,2.36-3.64,2.79.58,3.28.88,4.93,2.73,3.85.47-.28.54.15.54.2s-3.74,3.33-4.05,3.11,0-.56.07-.69a3.34,3.34,0,0,0,.6-2.71c-.4-4.75-1.51-9.38-2.15-14.09" transform="translate(-36.04 -7.79)"/><path d="M115.23,99C121,94.89,121,94.89,121,95.33c0,.7-1.29,1.26-.61,1.92s3.94,2,5,2.39c.76-6.72.36-6.87-1.16-6.36-.72.25-.56-.31-.56-.32s4.2-3.38,4.53-3a.49.49,0,0,1,.08.21s0,.13-.17.31c-.63.57-1.7,1.53-1.82,8.83,0,1.69,2.76,5.54,2.79,5.58.23.29.65.83,1.67.14.72-.49.64.2.64.21a68.58,68.58,0,0,1-5.67,4.11s-.55-.17,0-.7c2.13-2-2-6-2.08-6.08s-6.09-4-8.16-3c-.2.09-.29,0-.33,0a.37.37,0,0,1,0-.59l0,0" transform="translate(-36.04 -7.79)"/><path d="M152.44,88.12c.9-2.16.9-2.16,1-2.52l-3.06,1.93a6.44,6.44,0,0,0,2,.59m-4.05,4.54c.68-.6,1.32-1.24,2-1.84a12.73,12.73,0,0,1-2.84-1.45l-.7.46,1.55,2.83m1.19-7.82-.57-1-2.3,1.47.56,1,2.31-1.47m-1.73-3.15-.58-1L145,82.11l.57,1,2.31-1.47M142.72,85l-.58-1-2.56,1.68,1.5,2.71c.63,1.16.63,1.16.79,1.5l2.58-1.69-.57-1-2.08,1.37-1.17-2.12L142.72,85m5.48-7.89-.49-.89q-4.85,3-9.6,6.17l.49.9q4.76-3.13,9.6-6.18m-14.42,4.78q7.69-5.13,15.64-10.05l3.05,5.56-2.35,1.46.58,1,2.13-1.32L154,80.69,151.86,82l.57,1c1-.61,1.92-1.2,2.88-1.8l1.32,2.39-2,1.24,1.83.65c-.5.89-1,2-1.25,2.45a19.52,19.52,0,0,0,3.59-1.11c0,1.08-.09,2.52-.13,3.6-3.74,1.07-5.71,1-7.52.58l1.07,2a62.2,62.2,0,0,0-4.82,4.68L145.29,96c.49-1,.46-1.32.09-2l-1.28-2.32-1,.67a29.9,29.9,0,0,1,2.15,6.81l-3.71.31c-.56-3.34-.81-4.87-4.29-11.23l-3.46-6.3" transform="translate(-36.04 -7.79)"/><path d="M171.91,70.61c1.75.91,3.92,2,6.58,3.62l-2.12,3.54c-2.61-1.63-4.86-3-6.58-4l2.12-3.17m-12,7,3.72-.44a45.47,45.47,0,0,1,.11,8.1l-3.8.16a.79.79,0,0,1,0-.22,43.6,43.6,0,0,0,0-7.6m-5.07-2.25q9-5.47,18.13-10.62l1.76,3.21q-3.6,2-7.15,4.08l3.66,6.67c1.26,2.33.47,3.2-1.63,4.64l-1.93,1.3c-.87-.79-2-1.85-2.88-2.65,2.67-1.84,2.67-1.84,2.13-2.86L164.12,74q-3.8,2.23-7.54,4.53l-1.76-3.21m-1.16-5.9q7.43-4.5,15-8.78l1.76,3.2q-7.57,4.27-15,8.79l-1.76-3.21" transform="translate(-36.04 -7.79)"/><path d="M196.57,49.39c.66-.27.62.31.62.31s-.07.14-.35.29a1.52,1.52,0,0,0-1,1.43,13.54,13.54,0,0,0,1.64,3.83c4,7.31,4,7.31,5.63,6.59.89-.4.71.23.65.34-6.83,3.36-6.83,3.36-6.71,3,.17-.57,1-.59,1.06-1.23a3.44,3.44,0,0,0-.64-2c-1.46-2.73-3-5.44-4.42-8.17.42,5.18.68,7.95.88,9.55.52,3.87.52,3.87,0,3.71a2.91,2.91,0,0,1-.67-.41c-.56-.39-2.68-1.84-10.43-6.9,5.1,9.78,5.13,9.77,6.87,9.05.42-.17.64-.19.72.16s-4.79,2.71-4.85,2.7-.53-.2.12-.74c1.08-.9,1.27-1.45.35-3.16-4.9-9.13-4.9-9.13-6.89-8.51-.17.05-.57.17-.65-.17,0-.16,0-.16,4.74-2.7,3,2.31,6.43,4,9.51,6.26-.32-4.76-.6-7.86-1-10.71,1.58-.81,3.1-1.75,4.7-2.52" transform="translate(-36.04 -7.79)"/><path d="M212.18,57.46c4.27-2.19,0-10.74-3.92-11.94-2.5-.77-6.38,1.3-3.18,7.45,2.42,4.66,5.25,5.37,7.1,4.49m-6.69-12.54c7.07-3.26,13,3.14,10.81,9.18s-11.73,7.35-14.72.41a7.38,7.38,0,0,1,3.91-9.59" transform="translate(-36.04 -7.79)"/><path d="M227.44,50.44c5.49-2.56,1.4-10-2.75-11.58-2.22-.85-5.6.13-5.14,1.16.15.34.54,1.13,1,2,4.72,9.35,4.72,9.35,6.9,8.38m-13.17-9.57c1-.43,2.12-.71,3.14-1.16,5.24-2.45,7.64-3.58,11.21-2,3.11,1.41,5.65,5.45,4.31,9-1,2.65-2.09,3.11-8.1,5.66l-2.22,1a15.06,15.06,0,0,1-1.83.77.32.32,0,0,1-.37-.37c0-.16.21-.24.41-.33,1.19-.56,1.11-1.13,1-1.54a48.38,48.38,0,0,0-2.61-5.54c-2.94-5.64-3.24-5.52-4.51-5-1,.35-.54-.45-.47-.48" transform="translate(-36.04 -7.79)"/><path d="M230.83,33.85l2.45-.92,8.07-3.18c1.36,1.63,2.28,2.77,2.28,2.77.15.25,0,.45-.3.4-1.31-.24-2.3-1.34-3.69-1.33A8.29,8.29,0,0,0,235.7,33a46.28,46.28,0,0,0,2.53,5c1.72-.67,2.67-1,2.29-3.12-.09-.48.33-.42.33-.42.35.09,2.8,5,2.78,5s-.17.54-.83-.19c-1.2-1.35-2.49-1.23-4.18-.6,2.59,5,2.74,5.06,3.38,5.2,1.06.23,4.51-1.13,5.28-3.3.19-.53,0-1.11.24-1.63a.32.32,0,0,1,.59,0,1.86,1.86,0,0,1,.12.36c.27.9.62,2.11.88,3-2.64,1-5.31,2-8,3-1.21.46-2.32,1.16-3.55,1.58-.41.15-.66-.19-.52-.41.32-.51,1.17-.47,1.27-1.21a5.44,5.44,0,0,0-.81-2.21c-4.83-9-4.83-9-6.35-8.66-1,.25-.41-.54-.36-.56" transform="translate(-36.04 -7.79)"/><path d="M244,28.51c2.06-.7,4-1.68,6.12-2.27.53-.15.61.27.52.39-.38.55-1.43.45-1.4,1.37,0,.42.08.76,1.53,3.41L254,37.29c.92,1.62,1.15,1.72,1.93,1.52,3-.81,3.47-2.4,3.63-3,.22-.85,0-1.74.23-2.58.09-.29.4-.29.57,0,.3.51,1.24,3.36,1.55,4.3a103.74,103.74,0,0,0-10.71,3.9c-1,.46-.86-.21-.86-.22a1.24,1.24,0,0,1,.36-.27c.83-.47,1.05-.92.85-1.73-.15-.6-1-2.16-3.34-6.46-1.68-3.08-2.25-4.11-3.94-3.61-.62.18-.87-.4-.27-.63" transform="translate(-36.04 -7.79)"/><path d="M256.85,23.91c.91-.3,1.83-.52,2.74-.82a23.68,23.68,0,0,1,3-1.09c.38-.08.51.23.44.37-.21.46-.89.29-1.07.8a2.28,2.28,0,0,0,.28,1.45c.17.41,4.62,9.22,5.93,9.78a1.49,1.49,0,0,0,1.06,0c.74-.22.77.38.45.54a20.26,20.26,0,0,1-3.15.91c-.89.29-1.72.74-2.61,1l-.1,0a.35.35,0,0,1-.46-.26c0-.17.12-.25.28-.34.95-.49.81-1,.7-1.36s-.3-1.07-3.33-6.49c-2.42-4.34-2.63-4.29-3.77-4-1,.23-.46-.51-.41-.53" transform="translate(-36.04 -7.79)"/><path d="M264,21.45c.58-.16,1.15-.33,1.72-.51,1-.31,1.72-.51,1.72-.51a8.86,8.86,0,0,1,.92.47c7.08,3.62,9.83,5,11.3,5.68l-.46-.86c-3.74-6.86-3.74-6.86-5.72-6.52-.5.09-.62-.14-.64-.28-.08-.51,4.92-1.61,5-1.6s.5.32.09.58c-1,.64-1.47,1-.51,2.83s2,3.64,3,5.46a48.13,48.13,0,0,1,2.26,4.26c.25.64-.28.51-.35.49-.55-.15-10.42-5.22-13.16-6.69,4.17,8,4.6,8.55,6.72,8,.37-.1.48.13.51.28.07.36-5.16,1.8-5.22,1.78s-.65-.28.16-.66c1.08-.5,1.42-.9.44-2.85-3.88-7.73-4.65-8-6.18-8.56-.53-.19-1.11.06-1.64-.18-.23-.11-.42-.42,0-.59l0,0" transform="translate(-36.04 -7.79)"/><path d="M285.86,15a7,7,0,0,1,1.64-.23h.27c1,0,2,.37,3,.36.34,0,.33-.15.29-.41s.17-.76.77.14c1.95,3,1.95,3,2,3.05.19.38-.13.39-.26.35s-.25-.13-.57-.41c-1-.84-4.29-3.44-7.14-1.88-1.67.91-1.72,3.67-.13,6.57,3.33,6.06,8.54,5.75,9.15,3.46.24-.88-1.6-3.37-1.62-3.39-.48-.52-.83-.57-1.9-.45-.8.09-.7-.44-.44-.54l1.38-.34a42.41,42.41,0,0,1,4.12-1.1c.41-.06.49.32.42.42-.29.36-.94.27-1.08.83,0,0,0,.14.54,1.31a10.36,10.36,0,0,1,1.18,2.38s-.06.14-.53.7a8,8,0,0,1-6.1,2.72,9.27,9.27,0,0,1-9.11-7.92c-.19-2,.37-4.62,4.11-5.61" transform="translate(-36.04 -7.79)"/><path d="M311.34,23.29c4.87-1,.12-8.66-3.19-10.74-2.27-1.44-4.66-.84-4.51-.32,0,.12.69,1.4,1.08,2.17,4.76,9.25,4.76,9.25,6.62,8.89M299.06,12c.9-.15,1.82-.15,2.73-.32,4.34-.93,6.73-1.45,9.93,1s5.45,6.89,3.75,9.56c-.81,1.26-1.33,1.35-6.31,2.2l-1.91.39a9.19,9.19,0,0,1-1.64.27c-.19,0-.38-.31-.3-.45s.17-.12.34-.15c1.06-.24.93-.77.82-1.2-.2-.79-3-6.05-3-6.11-2.52-4.71-2.81-4.83-3.93-4.69-.83.1-.52-.52-.45-.53" transform="translate(-36.04 -7.79)"/><path d="M313.12,9.6c.78-.11,1.56-.12,2.34-.22A18.14,18.14,0,0,1,318,9a.4.4,0,0,1,.41.43c-.17.38-.76.11-.89.56a2.83,2.83,0,0,0,.37,1.29c0,.09,4.7,9.31,6,10,.38.2.82,0,1.2.2.12.07.37.42,0,.52a23.48,23.48,0,0,1-2.78.21c-.71.09-1.38.37-2.1.42a.43.43,0,0,1-.44-.26c-.09-.2.06-.25.2-.3,1.07-.37,1.18-.41-3.19-8.16-2.09-3.73-2.29-3.72-3.23-3.69s-.43-.55-.39-.55" transform="translate(-36.04 -7.79)"/><path d="M325.57,8c.15,0,.25.06.49.41L327.79,11c.26.4.26.4.25.53-.24.17-.38,0-.92-.53-1.31-1.36-3.39-2.49-4.46-2s-.6,2.55,1.56,3.4c1.56.61,3.29.74,4.77,1.59a7.6,7.6,0,0,1,2.69,2.68c1.28,2.16,1.26,5-2.13,4.69a11.1,11.1,0,0,1-2.6-.66c0,.31.24.61.06.94-.05.08-.18.22-.49-.17l-.15-.23c-2.6-4.2-2.6-4.2-2.17-4.07a1.62,1.62,0,0,1,.52.44c1.58,1.69,3.22,2.83,4.4,3,1.85.32,2.31-1,1.56-2.35s-2-1.92-3.83-2.38-4.26-1.08-5.68-3.72c-1-1.78-1.21-5.14,4.31-3.55,0-.24-.25-.69.09-.72" transform="translate(-36.04 -7.79)"/><path d="M335.36,14.07c2.64-.14.47-3.77-.49-4.66a2.84,2.84,0,0,0-3.13-.72l2.94,5.36c.12,0,.48,0,.68,0m-2.8-6.28c5.8-.06,7.16,5.21,6.16,6.26-.69.73-2.34.71-3.67.69,3,5.47,3,5.47,4.06,5.5.25,0,.72,0,.72.44,0,0-.07.11-.27.12-.79.05-1.58-.08-2.37-.05s-1.38.41-2.11.22c-.15,0-.44-.3-.23-.47s.51-.1.64-.37c0-.07.07-.27-.11-.74s-1.06-2.09-3.45-6.46-2.42-4.38-3.42-4.35c-.09,0-1-.51-.19-.59l1.21,0,3-.17" transform="translate(-36.04 -7.79)"/><path d="M337.86,7.81c1.45.1,2.91,0,4.36.17.22,0,.52.38.38.51s-.93.14-.83.62.24.78,1.61,3.3l3.23,5.88c.9,1.62,1.11,1.74,1.45,1.83,0,0,2,.56,2.38-.75.24-.85-.35-1.65-.14-2.5.27-.07.31-.08,2.16,4.3a40,40,0,0,0-7.27-.42c-.31,0-.77.09-.85-.43.2-.21.57-.1.74-.38a1.1,1.1,0,0,0,0-.82c-.24-.64-1-2-3.8-7.16-1.17-2.13-1.87-3.41-3.1-3.55-.33,0-.55-.32-.51-.53a.29.29,0,0,1,.23-.07" transform="translate(-36.04 -7.79)"/><path d="M352.68,16l2.13.26c-1.12-1.5-2.29-2.95-3.43-4.43.44,1.39.87,2.78,1.3,4.17M350,8.49l.41.06c3.17,4,6.1,8.14,9.28,12.1a4.11,4.11,0,0,0,1.44,1.28.68.68,0,0,1,.45.54l0,0a16.79,16.79,0,0,1-1.72-.47c-.56-.11-1.15,0-1.7-.17a.58.58,0,0,1-.44-.47l0-.06c1.55-.1-2.14-4.2-2.21-4.23s-1.36-.24-2.52-.37c.83,2.55,1.25,3.83,2.52,4.2.52.15.53.51.53.55l-2.71-.26a.57.57,0,0,1-.35-.52c.49-.34.6-.41.32-1.53-.88-3.63-2.21-7.12-3.29-10.69" transform="translate(-36.04 -7.79)"/><path d="M353.23,9.29c3.63.86,3.63.86,3.59,1.23-.69.27-.69.27,3.8,5.51-.61-3.93-1-4.32-1.89-4.9a.81.81,0,0,1-.43-.58c.05,0,2.2.65,2.22.66a.85.85,0,0,1,.36.47l-.05.07c-1.09-.1.44,4.93.45,5a58.35,58.35,0,0,0,3.17,5.62c.37.44,1.15.41,1.25,1.14-.05,0-3.08-.74-3.11-.75a.76.76,0,0,1-.4-.51c.13-.12.42,0,.43-.27s0-.26-.38-1.06A21.6,21.6,0,0,0,359,15.78c-4.47-5.46-4.95-5.68-5.5-5.93a.69.69,0,0,1-.38-.51.27.27,0,0,1,.11-.05" transform="translate(-36.04 -7.79)"/><path d="M371.09,18.91l-.51-.93-.57-.36.5.92.58.37m-1.55-2.83-.51-.93-.58-.37.51.93.58.37m-4-5.13,1.17.76.48.87q.79.49,1.53,1l1.51,2.75.29.21L372,19.24l-.29-.21,1.32,2.39c-.49-.35-1-.69-1.52-1l.42.77c.54.34,1.07.7,1.58,1.06l1.07,1.95c-.51-.37-1-.73-1.59-1.07l.46.83c.62.39,1.21.8,1.78,1.21l1.19,2.18c-.56-.42-1.16-.82-1.77-1.21l.55,1,1.9,1.23,1.23,2.51c-5-3.31-5-3.31-6.69-5.25.22.72.4,1.35.59,2.16-2.13-2.56-2.13-2.56-2.53-4.17a2.82,2.82,0,0,0-.69-1.43c-.26-.37-.8-1.12-2-2.86l.28-.77c.5.72,1,1.45,1.48,2.17-.28-.7-.56-1.3-1.08-2.35l-1.43-.63-1.4-2.55c-.11-.67-.24-1.57-.35-2.23-.38-.18-.76-.34-1.15-.5l-1.54-2.8c.86.36,1.68.74,2.47,1.13l1.64,3c.12.62.27,1.46.39,2.09l1,.49,1.42,2.6A39.52,39.52,0,0,0,371,23.58a10,10,0,0,0,2.61,2.49l.5.32-.53-.95c-.53-.3-1.08-.6-1.65-.88l-1.2-2.18c.57.28,1.12.58,1.66.89l-.46-.84-1.38-.75-1.07-1.94c.47.24.94.49,1.39.75l-.43-.77c-.42-.24-.86-.48-1.31-.71l-1-1.86c.45.23.88.46,1.31.71l-.43-.79-1.58-.86-1.17-2.14q.81.4,1.56.84l-.44-.81c-.42-.24-.85-.48-1.3-.71l-1.2-2.19c.44.23.87.46,1.29.7l-.52-1" transform="translate(-36.04 -7.79)"/><path d="M371.84,15.78l.78.87.46.85c.19.21.37.43.55.64l-.52-.93.72.94.46.85.49.68,1.45,2.66c-.15-.23-.31-.46-.48-.68l.35.63c-.22-.29-.44-.58-.67-.86l-.35-.63c-.17-.22-.36-.43-.54-.64l.35.63c-.24-.27-.49-.54-.74-.8l-.34-.63-.52-.52-1.46-2.65.52.52-.51-.93m6.52,10.83L378,26c-.37-.47-.75-.93-1.16-1.37l.34.61c.4.45.79.9,1.15,1.37m-1.16-2.12-.29-.53c-.37-.47-.75-.93-1.16-1.37l.29.53c.41.45.8.9,1.16,1.37m-7.35-10.58,1,.89,1.56,2.86.37.34,1.65,3-.37-.35.62,1.13-.12-.34c.43.66,1.69,2.68,1.71,2.7l-2.35-4.27a22.63,22.63,0,0,1,2.71,3.2l3.4,6.2c-.28-.41-.58-.8-.89-1.19l.5.91c.38.47.73.94,1.06,1.43L382,32.86c-.31-.47-.65-.92-1-1.37.67,1.11,1.39,2.19,2.09,3.28l1.2,2.27c-.85-1.32-1.72-2.63-2.55-4,.18.46.17.52.12.67s-.16,0-.41,0l-1.8-3c.38.24.41.25.56.26,0-.14,0-.17-.15-.6q-.53-.59-1.11-1.14l-1.33-2.43c.43.41.84.84,1.23,1.28l-.5-.91q-.51-.57-1.05-1.11l-.38-.69.4,1-1-1.54,4.49,8.2c-.3-.28-.6-.55-.92-.82l-3.82-6.95c.44,1,1,2.2,1.15,2.69-1.17-2.05-1.17-2.05-4.19-8.19l-.47-.38-1.65-3,.51.42-1.61-2.93" transform="translate(-36.04 -7.79)"/><path d="M49,228l-.24-.47c.77,1.36,1.44,2.53,2.59,4.53-1.05-2-1.94-3.68-3.45-6.57l-.2-.57.08.15a12.17,12.17,0,0,0,.82,1.63c2.51,4.55,2.51,4.55,2.61,4.7a.57.57,0,0,0,0-.13l.08.15c.11.32.22.65.35,1l-.09-.15a12.23,12.23,0,0,0-.84-1.65l-2.4-4.37v0c1.93,3.71,1.93,3.71,3.55,6.76v0c-1.14-2-1.45-2.53-2.51-4.43h0c2.7,4.93,2.7,4.93,2.8,5.09l0-.08.08.14q.21.47.45.9l-.08-.14c-.33-.62-.33-.62-1.68-3.09-.61-1.12-1.2-2.25-1.85-3.36l0,.07L49,228" transform="translate(-36.04 -7.79)"/><path d="M50.72,229.56c-.46-1.64-3-6.31-3.45-6.48-.28.51,3,6.43,3.43,6.7l0,0,0-.18M47.1,223c0-.15,0-.18,0-.25.68-.1,3.91,6.91,3.83,7.46-.43,0-3.53-6-3.81-7.21" transform="translate(-36.04 -7.79)"/><path d="M50.09,226.54c-.35-2.15-2.73-6.39-3.26-6.61-.14.1-.13.8.12,1.25l2.68,4.89c.35.63.39.68.46.72s0,0,0-.25m-3.28-5.18c-.07-.41-.13-.83-.19-1.26,0-.23-.08-.75.22-.52A19.4,19.4,0,0,1,50.25,227c0,.33.1.66.16,1l-.08-.14a4.58,4.58,0,0,0-.65-1.47l-2.28-4.16a4.06,4.06,0,0,0-.48-.8c0,.06,0,.06,0,.15l-.09-.16" transform="translate(-36.04 -7.79)"/><path d="M46.45,218.11q0-1,0-2c.28.53.58,1,.87,1.56l0,.11c-.55-.91-.6-.91-.7-.93s-.06.09-.06.3,0,.29,0,.43,0,.14.16.42l1.34,2.45c0-.18,0-.36,0-.54a2.63,2.63,0,0,0-.44-1.33v-.08l1.07,1.95v.08c-.32-.52-.35-.54-.42-.58s0,.06,0,.25,0,.36,0,.54l1.12,2c.36.65.41.69.49.73.33-.45-.47-2.15-.74-2.71v-.08l.92,1.84c0,.73,0,1.45,0,2.15l-.08-.14a3.18,3.18,0,0,0-.59-1.5L47.13,219c-.43-.79-.48-.83-.56-.87a.23.23,0,0,0,0,.17l-.08-.15" transform="translate(-36.04 -7.79)"/><path d="M46.43,215.53c0-.39,0-.79.06-1.18l.08.14c0,.48.06.65.54,1.52l2.17,4c.46.82.51.87.6.88.31-.56-.2-1.69-.62-2.6v-.09c.3.6.58,1.21.88,1.81-.06.7-.11,1.39-.13,2.08l-.08-.15c0-.45-.08-.6-.59-1.53l-2.25-4.11c-.4-.72-.44-.75-.53-.78s0,.05-.06.19l-.08-.14" transform="translate(-36.04 -7.79)"/><path d="M46.61,213c0-.4.09-.79.14-1.19l.08.14c0,.47,0,.64.51,1.52l2.28,4.16c.42.75.45.75.55.77s.06-.06.09-.2l.08.15c-.05.4-.1.79-.14,1.19l-.09-.15c0-.47,0-.64-.52-1.51l-2.28-4.16c-.39-.71-.44-.75-.54-.77s-.05.05-.08.19l-.08-.14" transform="translate(-36.04 -7.79)"/><path d="M46.79,211.5c0-.2.07-.4.1-.61,1.19,1.11,1.91,1.78,3.47,3.17v0l-1.64-3c-1.15-2.1-1.26-2.28-1.44-1.79l-.08-.15c.09-.42.18-.85.28-1.27l.08.14c-.06.63.08.89,1.2,2.92L51,215v.05c-1.23-1.09-2-1.75-3.47-3.14h0l1.53,2.78c1.3,2.37,1.3,2.37,1.46,1.91l.08.15c-.07.42-.14.83-.2,1.25l-.08-.15c0-.64-.13-.91-1.28-3l-1.25-2.27c-.44-.8-.74-1.34-.91-.92l-.08-.15" transform="translate(-36.04 -7.79)"/><path d="M48,205.36a1.44,1.44,0,0,1,.46-.76c.29.49.58,1,.88,1.46l0,.11c-.5-.73-1.06-1.4-1.26-.26-.35,2,2.46,6.94,3.28,6.5,0,0,.82-.76,0-2.19l-.49-.9c-.38-.68-.46-.76-.69-.27l-.08-.14c.12-.42.25-.84.38-1.26l.09.15a1.33,1.33,0,0,0,.27,1l.51.94a2.36,2.36,0,0,1,.44,2.14c0,.35-.21,1.15-.81.92-1.23-.46-3.59-5.27-3-7.46" transform="translate(-36.04 -7.79)"/><path d="M53,207.42c.85-2.73-2-7.17-2.81-6.81-.17.09-.94,1-.64,1.59l2.68,4.88c.41.75.56.94.77.34m-4-4.87c.18-.53.37-1.07.58-1.6.91-2.3,2.48.93,2.93,2a7.12,7.12,0,0,1,.51,5c-.16.43-.31.85-.45,1.27l-.08-.15c.13-.53.09-.71-.38-1.58l-2.29-4.16c-.43-.79-.54-1-.74-.54l-.08-.16" transform="translate(-36.04 -7.79)"/><path d="M50.62,198.46q.3-.68.6-1.38l.09.15c-.18.54-.15.71.33,1.59L53.92,203c.48.86.57.92.81.5l.08.15-.6,1.37-.08-.14c.18-.54.14-.71-.34-1.59l-2.28-4.16c-.48-.86-.57-.92-.81-.5l-.08-.15" transform="translate(-36.04 -7.79)"/><path d="M51.94,195.2a.84.84,0,0,1,.45-.46l.84,1.35,0,.1c-.27-.36-1.1-1.46-1.24-.36,0,.18.23,2.6,1.73,2.35,1.21-.2,1.83,1.84,1.89,2.08.58,2.05-.4,2.66-.6,2.46,0,0-.25-.34-.94-1.47l0-.09c1.13,1.5,1.43.93,1.51.45.14-.8-.75-3-1.85-2.73-1.28.35-2.28-2.6-1.79-3.68" transform="translate(-36.04 -7.79)"/><path d="M55.37,196.13c.59-1.27-.76-3.92-1.53-3.64,0,0-.76.43-.41,1.07L55,196.47a.62.62,0,0,0,.35-.34m-2.64-2.22c.23-.47.47-.93.72-1.4.88-1.62,1.95,1,2.13,1.56a3.06,3.06,0,0,1-.06,2.39l-.37.24,1,1.74c.47.83.54.91.9.38l.08.15c-.27.5-.52,1-.78,1.51l-.08-.14c.22-.55.19-.72-.29-1.6l-2.28-4.16c-.47-.85-.54-1-.83-.52l-.09-.15" transform="translate(-36.04 -7.79)"/><path d="M54.4,190.73l.84-1.5.08.15c-.27.59-.24.77.23,1.65l2.18,4c.37.66.83,1.5,1.26-.13.1-.35.16-.6-.31-2l.06-.11c.26.61.5,1.24.77,1.85-.52.89-1,1.76-1.5,2.63l-.08-.14c.24-.55.21-.72-.3-1.65l-2.25-4.11c-.47-.84-.57-.94-.89-.47l-.09-.14" transform="translate(-36.04 -7.79)"/><path d="M59.75,188.65l-1.91-2.19h0c.39,1.26.73,2.34,1.11,3.48l.81-1.3m-2.37-3.29c4.39,5,4.39,5,4.81,4.65l.08.15-.92,1.43-.08-.14c.31-.77.31-.77-1.3-2.52l-.89,1.43c.85,2.86,1,2.7,1.43,2.3l.08.15c-.29.47-.57.94-.84,1.4l-.08-.15c.18-.61.16-.77-.21-1.92-.7-2.22-1.4-4.43-2.1-6.66l0-.12" transform="translate(-36.04 -7.79)"/><path d="M58.81,183.43c.29-.45.59-.91.9-1.36l.08.15c-.36.79-.36.79,2.11,2.61-.9-4.14-.9-4.14-1.47-3.57l-.08-.14,1-1.42.08.15c-.53,1.13.79,5.36.81,5.39l.86,1.58c.46.82.56.91,1,.3l.08.15c-.4.57-.78,1.14-1.16,1.71l-.08-.15c.36-.64.35-.83-.11-1.68L62,185.64a23.47,23.47,0,0,0-2.55-2.13c-.31-.19-.43-.14-.59.07l-.08-.15" transform="translate(-36.04 -7.79)"/><path d="M62.61,177.91l.6-.82,4.33,3.81c-.93-3.89-1.59-6.74-1.71-7.27l.75-.95.08.14c-.43.72-.42.86.17,1.89,2.38,4.2,2.38,4.2,2.52,4.39.27.35.43.25.79-.1l.08.15q-.64.81-1.26,1.62l-.08-.15c.4-.66.35-.8-.25-1.89l-2.43-4.36,0,0c.66,2.82,1,4.1,1.77,7.49l0,.06q-2.07-1.87-4.13-3.76h0c2.74,5.35,2.74,5.35,3.34,4.77l.08.15q-.59.78-1.14,1.56l-.09-.15c.37-.66.4-.71-.92-3.39-1.78-3.61-1.78-3.61-2.34-3.08l-.08-.15" transform="translate(-36.04 -7.79)"/><path d="M72.48,176.19c1.8-2.44-.92-7-2.71-6.74-2.28.31-1.84,5.08.64,6.9a1.4,1.4,0,0,0,2.07-.16m-3.63-6.59c1.85-2,4.31.74,4.46,4,.13,2.77-1.69,4.82-3.57,3.06-1.49-1.4-2.48-5.11-.89-7" transform="translate(-36.04 -7.79)"/><path d="M76.25,171.49c2.46-3.12-.3-7.22-1.89-7.09-.29,0-2.36,1.36-2,2L75,171.3c.41.74.6.92,1.22.19m-5-4.54q.84-1,1.71-2c3.13-3.48,4.55,2.25,4.6,3a5.69,5.69,0,0,1-1.42,4q-.69.78-1.35,1.56l-.08-.14c.48-.66.48-.83,0-1.72l-2.28-4.16c-.48-.86-.61-.91-1.09-.42l-.09-.16" transform="translate(-36.04 -7.79)"/><path d="M75.73,161.9c.91-1,1.85-2,2.8-3,.1.18.1.18.93,1.54l-.09.15c-.75-.95-1-1.08-1.81-.26L77,161c-.17.19-.17.21,0,.49l1.34,2.44.75-.81c.53-.58.57-.79.3-1.59l.11-.12,1.07,1.95-.12.12c-.54-.67-.67-.62-1.2-.07l-.75.82,1.12,2c.31.53.51.75.82.6a4,4,0,0,0,1.26-1.61,4.61,4.61,0,0,0-.16-1.75l.11-.12c.22.64.45,1.28.68,1.92q-1.55,1.63-3,3.25l-.08-.15c.55-.71.52-.89.07-1.73L77,162.54c-.52-.94-.65-1-1.19-.49l-.08-.15" transform="translate(-36.04 -7.79)"/><path d="M79.34,158,81,156.28l.08.15c-.57.68-.58.87-.11,1.75l2.18,3.95c.35.63.55.91.86.79a3.23,3.23,0,0,0,1.27-1.59,5.26,5.26,0,0,0-.15-1.61l.13-.13c.22.63.4,1.27.64,1.89-1,1-2,2-3,3.06l-.08-.15c.51-.63.51-.81,0-1.74l-2.26-4.11c-.46-.84-.58-.93-1.21-.37l-.08-.15" transform="translate(-36.04 -7.79)"/><path d="M82.94,154.31q.84-.85,1.71-1.71l.08.14c-.57.66-.58.85-.11,1.72l2.29,4.16c.48.87.62.91,1.25.37l.08.15-1.71,1.71-.08-.14c.55-.65.56-.84.09-1.72l-2.28-4.16c-.49-.86-.63-.9-1.24-.37l-.08-.15" transform="translate(-36.04 -7.79)"/><path d="M85.08,152.17l.89-.88c2.09.72,3.59,1.24,6.46,2.2l0,0-1.64-3c-1.15-2.09-1.28-2.27-2.2-1.54l-.08-.15L90.42,147l.08.14c-.72.84-.57,1.1.54,3.13l2.23,4.07-.08.09c-1.37-.46-3.65-1.22-6.44-2.19l0,0,1.53,2.78c1.32,2.35,1.32,2.35,2.2,1.66l.08.15-1.81,1.78-.08-.15c.71-.85.58-1.08-.6-3.24L86.81,153c-.45-.81-.75-1.35-1.65-.68l-.08-.14" transform="translate(-36.04 -7.79)"/><path d="M93.81,143.63a7.13,7.13,0,0,1,1.72-1.14c.35.52.61.9,1,1.43l-.12.13c-2-2.07-3.86,1.15-3.89,2.71,0,2,2.18,6.11,5,3.39,1.17-1.13,1-1.5.73-2l-.5-.91c-.38-.67-.52-.74-1.45,0l-.08-.15,1.89-1.7.08.14c-.41.52-.39.66-.13,1.14l.52,1a3.4,3.4,0,0,0,.53.79c-.56,1.72-4.23,5.36-6.36,1.49a5.15,5.15,0,0,1,1.08-6.27" transform="translate(-36.04 -7.79)"/><path d="M104,144.15c3.56-3.35.58-7.2-1.18-7.2a2.7,2.7,0,0,0-1.61.69c-1.59,1.16-1.48,1.36-1.41,1.5l2.69,4.89c.42.74.63.92,1.51.12m-5.62-4.38,2.45-2.15c4.41-3.73,5.39,2.07,5.35,2.82a6.51,6.51,0,0,1-2.36,4.24l-1.93,1.69-.08-.15c.7-.69.73-.89.26-1.77l-2.28-4.16c-.49-.86-.63-.9-1.33-.37l-.08-.15" transform="translate(-36.04 -7.79)"/><path d="M104.66,134.34l2.15-1.8.08.15c-.71.68-.75.88-.28,1.75l2.29,4.16c.48.87.64.91,1.42.34l.08.15-2.15,1.79-.08-.14c.71-.68.74-.87.26-1.75l-2.28-4.16c-.48-.86-.64-.9-1.41-.34l-.08-.15" transform="translate(-36.04 -7.79)"/><path d="M109.44,130.15a3.4,3.4,0,0,1,1.18-.64c.32.44.64.88.95,1.33l-.16.12c-1.9-1.86-2.63.37-2.61.79,0,1.25.88,1.71,2.46,1.36,2.59-.56,2.68,1.63,2.68,1.88a3.2,3.2,0,0,1-2.64,3,14.11,14.11,0,0,1-1.12-1.47l.14-.12c1.88,1.82,3.23.08,3.22-.87,0-.09-.06-2.32-2.57-1.66s-3.35-2.22-1.53-3.76" transform="translate(-36.04 -7.79)"/><path d="M115.83,130.36a2.16,2.16,0,0,0-.55-3.8,2,2,0,0,0-1.3.46c-.8.56-.77.61-.62.89l1.6,2.92a2.47,2.47,0,0,0,.87-.47m-4-1.89,2.18-1.75c2.68-2.08,3.45.84,3.33,1.81A3.2,3.2,0,0,1,116,130.7l-.86.36,1,1.73c.48.85.62.88,1.57.22l.08.15-2.37,1.9-.08-.15c.73-.67.76-.86.29-1.74L113.25,129c-.47-.85-.54-1-1.38-.38l-.08-.16" transform="translate(-36.04 -7.79)"/><path d="M116.76,124.53c.77-.61,1.55-1.21,2.33-1.81l.08.14c-.8.7-.84.9-.37,1.78l2.18,4c.32.57.56.93,1,.78.21-.08,1.61-.93,1.86-1.8a5,5,0,0,0,0-1.47l.17-.13c.19.63.33,1.28.56,1.9q-2.07,1.57-4.11,3.17l-.08-.15c.73-.65.76-.83.26-1.77l-2.26-4.1c-.47-.84-.6-.93-1.47-.34l-.08-.15" transform="translate(-36.04 -7.79)"/><path d="M127.61,121.39l-2.48-2.1h0c.08.81.21,2,.46,3.6l2-1.51m-2.82-3.21c3.17,2.68,4.85,4.1,5.29,4.4s.66.27,1.25,0l.08.15-2.21,1.63-.09-.14c.88-.86.88-.86-1.23-2.53l-2.23,1.66c.26,3,.67,2.75,1.56,2.29l.08.14-2.17,1.64-.08-.15c.61-.68.65-.85.5-2-.48-4-.48-4-.83-6.89l.08-.13" transform="translate(-36.04 -7.79)"/><path d="M128.12,115.93l2.12-1.53.08.14c-.94.88-.94.88,2.59,2.55.08-4.27.08-4.27-1.12-3.61l-.08-.15,2.2-1.56.08.14c-1.33,1.25-.71,5.55-.69,5.58l.86,1.58c.46.82.61.9,1.66.22l.09.15-2.66,1.92-.08-.15c.88-.72.94-.92.48-1.77l-.83-1.5a21.65,21.65,0,0,0-3.56-2,1,1,0,0,0-1.06.13l-.08-.15" transform="translate(-36.04 -7.79)"/><path d="M136.68,109.81l1.27-.88,5.69,3.7-.36-7.36,1.47-1,.08.15c-.9.75-.92.89-.31,1.91a44,44,0,0,0,2.58,4.39c.31.35.6.24,1.26-.12l.08.15L146,112.44l-.08-.15c.85-.69.82-.81.2-1.91-.81-1.46-1.63-2.91-2.44-4.36l0,0q.19,3.79.4,7.58l-.09.06L138.47,110l0,0c2.62,5.36,2.62,5.36,3.79,4.73l.08.14-2.41,1.68-.08-.14c.84-.72.91-.78-.33-3.45-1.64-3.63-1.64-3.63-2.74-3.05l-.08-.15" transform="translate(-36.04 -7.79)"/><path d="M152.8,107.74c3.25-2.33.88-6.36-1.55-6.72s-5.39,2.66-2.78,5.94a3.12,3.12,0,0,0,4.33.78m-3.64-6.59c3.66-2.18,6.43,1.37,5.53,4.37-1,3.34-5.42,4.8-7.22,1.53a4.53,4.53,0,0,1,1.69-5.9" transform="translate(-36.04 -7.79)"/><path d="M159.67,103.09c4.26-2.94,1.43-6.71-.54-7a3,3,0,0,0-2,.47c-2.12,1-2,1.35-1.91,1.45l2.68,4.88c.42.75.65.93,1.74.21m-6.13-4.58,3-1.93c5.27-3.26,6.18,2.13,5.81,3.51a6.9,6.9,0,0,1-2.95,3.5l-2.4,1.52L157,105c.88-.64.93-.83.46-1.71l-2.28-4.15c-.49-.87-.66-.92-1.51-.44l-.08-.16" transform="translate(-36.04 -7.79)"/><path d="M161.25,93.65q2.28-1.41,4.59-2.81c.19.34.37.62,1,1.54l-.17.14c-.84-1-1.17-1.1-2.45-.34l-1,.61c-.28.17-.28.19-.13.47l1.34,2.44,1.23-.75c.87-.54,1-.74.76-1.54l.18-.1,1.07,1.94-.19.11c-.6-.67-.8-.63-1.66-.12l-1.23.76,1.12,2c.38.65.62.77,1.14.58,0,0,1.89-.83,2.11-1.77a4.09,4.09,0,0,0,0-1.4l.18-.11c.17.64.36,1.27.54,1.91-1.66,1-3.3,2-4.94,3l-.08-.15c.95-.67.94-.86.49-1.69l-2.24-4.09c-.53-1-.7-1-1.57-.53l-.08-.15" transform="translate(-36.04 -7.79)"/><path d="M167.13,90.06l2.64-1.58.08.15c-.9.61-1,.8-.49,1.67l2.17,4c.28.49.54.95,1,.81s2-.93,2.13-1.67a4.9,4.9,0,0,0,0-1.33l.2-.12c.17.62.3,1.26.5,1.87-1.54.91-3.08,1.82-4.62,2.75l-.08-.15c.84-.57.88-.75.37-1.68l-2.25-4.11c-.47-.84-.62-.93-1.59-.43l-.09-.14" transform="translate(-36.04 -7.79)"/><path d="M172.74,86.72l2.59-1.51.08.15c-.86.58-.91.76-.44,1.63l2.28,4.16c.49.87.67.92,1.59.46l.08.14-2.59,1.51-.08-.14c.87-.58.92-.77.45-1.64l-2.28-4.16c-.49-.87-.67-.92-1.6-.45l-.08-.15" transform="translate(-36.04 -7.79)"/><path d="M176,84.84l1.32-.77c2.67.9,5.34,1.79,8,2.7l0,0-1.63-3c-1.15-2.09-1.3-2.27-2.59-1.67L181,82l2.68-1.5.08.15c-1,.72-.9,1,.21,3l2.24,4.07-.12.07-8-2.68,0,0,1.53,2.78c1.32,2.36,1.32,2.36,2.6,1.77l.08.15-2.68,1.54-.08-.15c1.08-.75,1-1-.22-3.14l-1.25-2.27c-.45-.81-.75-1.35-2-.79l-.08-.14" transform="translate(-36.04 -7.79)"/><path d="M188.45,77.64a9.79,9.79,0,0,1,2.27-.87c.34.49.68,1,1,1.45l-.15.11c-2.31-2.23-5.34.78-5.23,2.75a3.88,3.88,0,0,0,6.93,2.24c.27-.3.22-.54,0-.91l-.49-.91c-.38-.67-.55-.75-1.79-.19l-.08-.15,2.54-1.37.08.14c-.56.43-.56.57-.3,1l.52,1a2.71,2.71,0,0,0,.59.83c-1.51,1.34-3.22,2.87-5.7,2.45a3.69,3.69,0,0,1-2.93-3.92,4.7,4.7,0,0,1,2.69-3.65" transform="translate(-36.04 -7.79)"/><path d="M200.79,79.4c4.43-2.54,1.65-6.2-.21-6.74a3,3,0,0,0-2.11.2c-.24.09-2.39.88-2.16,1.33L199,79.08c.42.75.65.93,1.8.32m-6.27-4.82,3.18-1.66c5.5-2.8,6.35,2.45,5.94,3.76-.54,1.75-2.48,2.83-3.12,3.18-.83.43-1.67.87-2.5,1.32l-.08-.15c.91-.56,1-.74.5-1.61l-2.28-4.16c-.49-.87-.66-.93-1.55-.52l-.09-.16" transform="translate(-36.04 -7.79)"/><path d="M202.53,70.43l2.65-1.34.08.14c-.88.52-.93.7-.46,1.57L207.08,75c.48.87.66.93,1.61.52l.08.15L206.12,77l-.08-.15c.89-.52.94-.7.47-1.57l-2.28-4.16c-.49-.86-.67-.92-1.62-.52l-.08-.14" transform="translate(-36.04 -7.79)"/><path d="M208.38,67.3a4,4,0,0,1,1.4-.41c.31.42.53.73,1,1.36l-.19.09c-2-2-3-.07-3,.32-.05,1.15.87,1.7,2.71,1.62,2.84-.11,2.91,1.76,2.9,2.14-.07,1.91-2.92,2.68-3.3,2.33a13,13,0,0,1-1.12-1.47l.17-.09c2.09,2,3.8.54,3.75-.45,0-.33-.23-2-2.79-1.77-3.12.26-3.72-2.52-1.47-3.67" transform="translate(-36.04 -7.79)"/><path d="M215.62,68.47c2.2-1.15.65-3.21-.18-3.5A2.33,2.33,0,0,0,214,65c-1.2.4-1.08.64-1,.74l0,.07,1.6,2.92a2.7,2.7,0,0,0,1-.3m-4.44-2.35,2.6-1.26c3.1-1.45,4,1.22,3.54,2.4a2.72,2.72,0,0,1-1.59,1.54l-1,.2,1,1.73c.48.86.64.9,1.75.45l.09.15-2.82,1.36-.08-.14c.88-.5.93-.68.46-1.55l-2.28-4.16c-.47-.85-.55-1-1.54-.56l-.08-.16" transform="translate(-36.04 -7.79)"/><path d="M217.05,63.3,219.76,62l.08.15c-.93.51-1,.68-.52,1.55l2.18,4c.27.49.53.95,1,.86s2-.68,2.18-1.4a3.64,3.64,0,0,0,0-1.27l.2-.09c.18.6.3,1.22.5,1.81l-4.76,2.23-.08-.15c.87-.48.91-.64.41-1.57L218.75,64c-.47-.84-.61-.94-1.62-.54l-.08-.15" transform="translate(-36.04 -7.79)"/><path d="M229.22,62.22l-2.6-2.33h0c.08,1.23.18,2.26.32,3.35l2.3-1m-2.91-3.4c2.11,1.89,5,4.48,5.55,4.89s.66.37,1.37.18l.08.15-2.51,1.11-.08-.14c1-.64,1-.64-1.22-2.5-.84.37-1.69.75-2.53,1.14.13,2.73.59,2.61,1.6,2.33l.08.15-2.49,1.13-.08-.15c.72-.52.77-.67.67-1.78-.18-2.13-.37-4.26-.55-6.4l.11-.11" transform="translate(-36.04 -7.79)"/><path d="M230.05,57.35l2.36-1,.08.14c-1,.63-1,.63,2.69,2.75.28-3.86.26-3.85-1.05-3.46l-.09-.14,2.42-1,.08.15a1.21,1.21,0,0,0-.7.94,17.26,17.26,0,0,0-.26,4l.86,1.57c.46.82.62.92,1.78.49l.08.15-2.94,1.28-.08-.15c1-.5,1.05-.67.6-1.52L235.05,60a29.14,29.14,0,0,0-3.77-2.4,1.19,1.19,0,0,0-1.15-.06l-.08-.15" transform="translate(-36.04 -7.79)"/><path d="M239.5,53.29l1.38-.58,5.9,4.37-.18-6.7,1.56-.62.08.15c-1,.5-1,.63-.38,1.66,2.42,4.22,2.42,4.22,2.59,4.42.33.37.62.33,1.32.12l.09.15-2.65,1.06-.08-.15c.91-.47.88-.58.26-1.68-.82-1.46-1.63-2.92-2.45-4.37h0q.1,3.45.2,6.9l-.09,0-5.61-4.26h0c2.59,5.3,2.59,5.3,3.86,4.94l.08.15L242.69,60l-.08-.15c.93-.51,1-.54-.23-3.18-1.61-3.56-1.61-3.56-2.8-3.23l-.08-.15" transform="translate(-36.04 -7.79)"/><path d="M256.44,54.36c3.33-1.45.91-5.32-1.15-6.19-2.28-1-5.29.66-4,3.61,1,2.2,3.18,3.31,5.11,2.58m-3.64-6.6c3.81-1.25,6.94,2.48,5.47,5.28s-6.44,2.7-7.64-1a3.35,3.35,0,0,1,2.17-4.31" transform="translate(-36.04 -7.79)"/><path d="M263.54,51.51c4.29-1.77,1.54-5.53-.28-6.28a2.78,2.78,0,0,0-1.77-.14c-.24,0-2.54.62-2.45.9a.54.54,0,0,0,0,.11L261.77,51c.42.74.65.95,1.77.52m-6.2-5.27,3.1-1.15c5.34-1.87,6.5,3.06,5.72,4.63a5.33,5.33,0,0,1-2.88,2.19l-2.45.9-.08-.15c.9-.4,1-.56.48-1.43L259,47.07c-.48-.87-.65-.94-1.53-.68l-.08-.15" transform="translate(-36.04 -7.79)"/><path d="M265.18,43.4q2.29-.81,4.58-1.58c.1.18.1.18,1,1.57l-.16.09c-.84-1-1.17-1.22-2.45-.81l-1,.35c-.28.1-.29.11-.13.39l1.34,2.45,1.23-.43c.86-.31,1-.47.75-1.21l.17-.06,1.07,1.94-.18.07c-.6-.73-.8-.73-1.65-.45l-1.23.43,1.11,2c.38.65.63.81,1.15.75,0,0,1.89-.37,2.1-1.16a3.09,3.09,0,0,0,0-1.23l.18-.06c.17.6.37,1.2.54,1.8-1.63.55-3.28,1.12-4.93,1.7l-.08-.15c.95-.41.95-.58.5-1.41l-2.25-4.09c-.53-.95-.69-1-1.57-.78l-.08-.15" transform="translate(-36.04 -7.79)"/><path d="M271.05,41.38l2.59-.85.08.14c-.89.37-.94.52-.47,1.39l2.17,4c.28.49.54.95,1,.93s1.91-.39,2.08-1a3.58,3.58,0,0,0,0-1.18l.18-.06c.18.58.32,1.18.53,1.75-1.51.49-3,1-4.54,1.49l-.08-.14c.82-.34.86-.49.36-1.42l-2.26-4.11c-.47-.84-.61-1-1.57-.71l-.08-.15" transform="translate(-36.04 -7.79)"/><path d="M276.54,39.59l2.5-.79.08.15c-.83.33-.88.48-.41,1.35L281,44.46c.48.87.66.95,1.55.74l.08.14-2.5.79-.08-.15c.84-.33.88-.47.41-1.35l-2.28-4.16c-.49-.87-.66-.95-1.56-.73l-.08-.15" transform="translate(-36.04 -7.79)"/><path d="M279.67,38.61l1.26-.39c2.44,1.27,4.36,2.28,7.76,4.1h0l-1.63-3c-1.16-2.1-1.3-2.28-2.52-2l-.08-.15,2.52-.73.08.14c-1,.41-.83.67.28,2.7l2.24,4.07-.11,0c-2.6-1.39-4.32-2.3-7.73-4.08h0l1.53,2.78c1.33,2.37,1.33,2.37,2.54,2.13l.08.15-2.55.78-.09-.15c1-.43.91-.66-.27-2.82l-1.25-2.27c-.47-.84-.75-1.35-2-1.13l-.08-.14" transform="translate(-36.04 -7.79)"/><path d="M291.41,35a7.61,7.61,0,0,1,2.11-.25c.35.53.6.92,1,1.51l-.15.06c-2.19-2.43-4.81-.55-4.85.94-.1,3.52,4.7,5.69,6.66,3.77.2-.19.14-.39-.05-.75l-.5-.91c-.37-.68-.53-.78-1.68-.58l-.08-.15,2.34-.62.08.15c-.51.25-.51.36-.24.85l.51.94a3.55,3.55,0,0,0,.58.86c-1.2.74-3,1.86-5.29.87A4.37,4.37,0,0,1,289,37.26,3,3,0,0,1,291.41,35" transform="translate(-36.04 -7.79)"/><path d="M303,39.38c4.12-1.21.93-5.16-.49-5.91-1.63-.86-3.91.12-3.93.13s0,.07.06.2l2.69,4.88c.42.75.64,1,1.67.7m-6-5.66,2.86-.71c4.84-1.11,6.38,3.78,5.34,5.29a4.32,4.32,0,0,1-2.43,1.42l-2.27.56-.08-.14c.83-.27.87-.42.4-1.29l-2.28-4.16c-.48-.87-.65-1-1.46-.81l-.08-.16" transform="translate(-36.04 -7.79)"/><path d="M304.16,32l2.34-.52.08.14c-.78.24-.81.38-.35,1.25L308.52,37c.48.87.65,1,1.48.84l.09.15-2.34.52-.08-.15c.78-.24.82-.38.35-1.25L305.74,33c-.49-.87-.65-1-1.49-.84l-.09-.14" transform="translate(-36.04 -7.79)"/><path d="M309.28,30.71a3.14,3.14,0,0,1,1.23,0l.95,1.42-.17,0c-1.9-2.21-2.68-.8-2.7-.58-.06.57.2,1.62,2.52,2.18,2.75.65,2.73,2.48,2.72,2.56,0,1.78-2.59,1.45-2.82,1.2A15.59,15.59,0,0,1,309.92,36l.15,0c1.95,2.2,3.34,1.41,3.35.66,0,0,0-1.84-2.62-2.35-2.78-.55-3.47-3.09-1.52-3.54" transform="translate(-36.04 -7.79)"/><path d="M315.79,33.54c1.87-.42.37-2.59-.38-3.05a2.09,2.09,0,0,0-1.07-.31s-1.18,0-1.11.27a.71.71,0,0,0,.08.18l1.6,2.91a2.09,2.09,0,0,0,.88,0m-4.08-3.14,2.22-.43c2.69-.47,3.81,2.27,3.14,3.27a1.51,1.51,0,0,1-1.16.62l-.88-.09,1,1.74c.47.85.62.93,1.58.83l.08.14-2.41.47-.08-.15c.76-.21.79-.33.31-1.22l-2.28-4.15c-.47-.86-.54-1-1.4-.88l-.08-.15" transform="translate(-36.04 -7.79)"/><path d="M316.71,29.46l2.28-.38.08.14c-.78.2-.81.33-.34,1.2l2.17,4c.27.49.53.95,1,1s1.68-.06,1.8-.63a3.41,3.41,0,0,0-.08-1.08l.16,0c.2.56.36,1.13.57,1.69-1.32.2-2.64.42-4,.66l-.09-.15c.73-.19.75-.31.25-1.24l-2.25-4.11c-.47-.84-.61-1-1.46-.89l-.08-.15" transform="translate(-36.04 -7.79)"/><path d="M327.14,31.76l-2.4-2.68h0c.11.69.26,1.58.54,2.94l1.88-.27m-2.76-3.67c5.52,6.14,5.52,6.14,6.3,6.19l.08.15-2,.26-.08-.14c.79-.27.79-.27-1.25-2.46-.68.09-1.37.18-2.06.29.32,2.36.7,2.38,1.55,2.41l.08.15-2.05.3-.08-.14c.57-.26.61-.38.44-1.35-.33-1.87-.65-3.73-1-5.6l.08-.06" transform="translate(-36.04 -7.79)"/><path d="M327.44,27.86l1.89-.23.08.15c-.82.25-.82.25,2.49,3.08-.13-3.18-.13-3.18-1.19-3.22l-.08-.15,1.91-.19.08.15a.55.55,0,0,0-.49.59,15.37,15.37,0,0,0,.14,3.3l.87,1.58c.46.82.6.95,1.53.91l.08.15-2.35.25-.08-.14c.82-.16.81-.3.37-1.12l-.83-1.51c-.25-.43-3.34-3.06-3.37-3.09a1.22,1.22,0,0,0-1-.37l-.08-.14" transform="translate(-36.04 -7.79)"/><path d="M334.91,27.1,336,27c1.75,1.79,3.5,3.58,5.24,5.39-.3-2-.47-3.16-.86-5.65l1.17-.05.08.15c-.71.13-.72.23-.11,1.27,2.77,4.9,2.77,4.9,3.62,5l.08.15-2,.09-.09-.15c.68-.12.64-.23,0-1.33l-1.83-3.3-.61-1.09h0c.21,1.35.5,3.2.9,5.83h-.07q-2.49-2.63-5-5.23h0c2.65,5.21,2.65,5.21,3.65,5.28l.08.15-2,.15-.08-.14c.69-.16.75-.17-.51-2.74-1.68-3.47-1.68-3.47-2.62-3.54l-.08-.14" transform="translate(-36.04 -7.79)"/><path d="M348.6,33.08c2.32-.15.21-3.81-1.38-5.25s-3.47-1.45-3.39.07c.09,1.81,2.65,5.2,4.77,5.18M345,26.48c3.06.16,6.05,5,4.66,6.45-1.56,1.64-6-1.8-6.16-4.78a1.42,1.42,0,0,1,1.5-1.67" transform="translate(-36.04 -7.79)"/><path d="M353.7,33c3.1-.06.13-4.11-.72-4.93a4,4,0,0,0-3.43-1.15s0,.05.05.19L352.29,32c.42.75.62,1,1.41,1m-5.42-6.34,1.91.05h.31a4.4,4.4,0,0,1,3.6,2s2.19,2.86,1.1,4a2.25,2.25,0,0,1-1.64.47l-1.76,0-.08-.15c.65,0,.67-.14.19-1l-2.28-4.15c-.49-.87-.63-1-1.26-1.05l-.09-.16" transform="translate(-36.04 -7.79)"/><path d="M353.8,26.89c1.05.07,2.07.16,3.08.27.19.34.3.53.94,1.6l-.11,0c-.76-1.12-1-1.39-1.87-1.49l-.67-.06c-.1,0-.1,0-.14,0s0,.07.1.26L356.47,30l.83.07c.57.05.62-.05.35-.73l.12,0,1.07,1.94h-.12c-.55-.79-.69-.87-1.26-.92l-.83-.07,1.12,2c.3.54.52.83.86,1,0,0,1.24.33,1.39-.07a2.26,2.26,0,0,0-.16-1.12l.12,0c.21.55.44,1.1.67,1.64-1.08-.11-2.18-.21-3.31-.29l-.08-.14c.63,0,.61-.15.16-1l-2.25-4.1c-.53-.95-.66-1.07-1.27-1.16l-.08-.15" transform="translate(-36.04 -7.79)"/><path d="M357.72,27.25l1.67.2.08.15c-.56,0-.57.09-.1,1l2.18,4c.32.58.54.94.86,1.1.17.09,1.11.34,1.24,0a2.86,2.86,0,0,0-.2-1l.12,0c.22.53.43,1.07.66,1.6-.94-.15-1.9-.28-2.89-.39l-.08-.15c.52,0,.52-.09,0-1L359,28.52c-.46-.85-.59-1-1.22-1.13l-.08-.14" transform="translate(-36.04 -7.79)"/><path d="M361.21,27.72c.52.09,1,.17,1.54.27l.08.14c-.49,0-.49.08,0,.94l2.28,4.16c.48.87.61,1,1.17,1.15l.08.15c-.5-.1-1-.18-1.54-.27l-.08-.14c.51,0,.51-.08,0-.95L362.47,29c-.48-.87-.61-1-1.18-1.14l-.08-.15" transform="translate(-36.04 -7.79)"/><path d="M363.13,28.06l.76.14c2,2.05,3.26,3.41,5.78,6.14h0l-1.63-3c-1.15-2.09-1.28-2.3-2-2.56l-.09-.14q.73.16,1.44.36l.08.14c-.52,0-.38.22.73,2.25l2.24,4.07-.07,0c-1.93-2.07-3.2-3.45-5.75-6.1h0l1.53,2.78c1.32,2.38,1.32,2.38,2.06,2.64l.08.14c-.5-.1-1-.21-1.52-.3l-.08-.15c.59,0,.47-.2-.71-2.36l-1.25-2.27c-.45-.82-.74-1.36-1.52-1.63l-.08-.14" transform="translate(-36.04 -7.79)"/><path d="M369.79,29.57c1,.34,1,.34,2.13,2.2h-.07c-1.94-2.92-2.73-1.87-2.76-1.66-.09.72.94,2.78,2.17,4.32,1.55,1.93,2.58,1.86,2.71,1.77s0-.21-.19-.63l-.5-.9a1.83,1.83,0,0,0-1.12-1.11l-.08-.15,1.23.42.08.14c-.24,0-.21.09.06.58l.51.94a9.25,9.25,0,0,0,.54.9c-.44.1-1.62.35-3.5-1.91-1.58-1.89-2.53-4.06-2.06-4.74.23-.34.7-.2.85-.16" transform="translate(-36.04 -7.79)"/><path d="M377.46,37.54c.32.12,1.18.43.25-1.58-.71-1.54-2.2-4.2-4.09-4.7l0,0,.07.14,2.69,4.89c.41.75.59,1,1.1,1.21m-4.72-6.81,1.42.59c2.19,1,5,6.17,4,6.52a1.33,1.33,0,0,1-.76-.12l-1.13-.46-.08-.15c.21.06.22,0,.29,0s0-.19-.37-.86l-2.28-4.16c-.48-.87-.59-1-1-1.21l-.08-.16" transform="translate(-36.04 -7.79)"/><path d="M376.21,32.28c.36.18.72.37,1.06.56l.08.15c-.13-.06-.13-.06-.2-.05s0,.15.37.87L379.8,38c.48.87.59,1,1,1.26l.08.15c-.34-.19-.7-.38-1.06-.56l-.08-.15c.14.06.14.06.22,0s0-.14-.37-.86l-2.28-4.16c-.48-.88-.6-1-1-1.26l-.08-.15" transform="translate(-36.04 -7.79)"/><path d="M378.44,33.41c.48.3.48.3,1.46,2l-.07-.05c-.4-.65-1.15-1.87-1.49-1.8,0,0,0,.92,1.86,3a8.57,8.57,0,0,1,2.15,3.54c0,.52-.85-.32-1.08-.58-.08-.09-.62-1-1-1.76l.07,0c1.36,2.17,1.76,2.26,1.87,2.2a7.53,7.53,0,0,0-2-3.2c-1.55-1.64-2.58-3.84-1.74-3.36" transform="translate(-36.04 -7.79)"/><path d="M382.35,38.36c.09.06.26.17.21-.08-.14-.63-1.57-3.18-2.32-3.45v0a2.12,2.12,0,0,0,.11.21l1.6,2.91a2,2,0,0,0,.41.39m-2.83-4.16c.31.2.61.41.91.63,1.09.8,2.77,3.94,2.31,4,0,0-.08,0-.25-.15l-.43-.44,1,1.73a3.33,3.33,0,0,0,1,1.32l.08.14-1-.68-.08-.14c.12.06.12.06.18.06s0-.14-.39-.86l-2.28-4.16c-.47-.86-.55-1-.91-1.26l-.09-.16" transform="translate(-36.04 -7.79)"/><path d="M381.52,35.65c.29.23.57.47.85.71l.08.15-.14-.09,0,0a4.79,4.79,0,0,0,.41.8l2.17,4c.38.7.86,1.56,1.27,1.64,0-.06.05-.1-.38-1l.06,0c.26.51.51,1,.78,1.53-.47-.44-1-.86-1.47-1.27l-.08-.15a.34.34,0,0,0,.14.08c0-.08,0-.09-.42-.91l-2.25-4.11a4,4,0,0,0-.91-1.31l-.08-.15" transform="translate(-36.04 -7.79)"/><path d="M386.48,42.06c-.54-.94-1.27-2.18-1.82-3.11h0l1.2,2.46c.21.21.42.43.62.66m-2.29-4c4.22,7.21,4.22,7.21,4.45,7.53l.08.15c-.21-.25-.42-.5-.64-.74l-.08-.15.08.06a14.31,14.31,0,0,0-1.39-2.47c-.22-.25-.45-.49-.68-.73a9.85,9.85,0,0,0,1.41,2.52l.08.15c-.23-.24-.46-.47-.7-.7l-.08-.14h0l0,0a5.4,5.4,0,0,0-.35-.8l-2.27-4.65h0" transform="translate(-36.04 -7.79)"/><path d="M385.21,39.28q.3.34.57.72l.08.14-.06-.06c0,.07,0,.07,2,3.52a22.21,22.21,0,0,0-1.58-3l-.08-.15c.18.26.36.51.53.77l.08.15,0,0c0,.14,1.37,2.73,1.38,2.75l.87,1.58a16.14,16.14,0,0,0,.83,1.4l.08.14c-.22-.31-.44-.61-.67-.91l-.08-.15.11.13c0-.07,0-.08-.4-.79L388,44s-2.35-4.12-2.72-4.61l-.09-.14" transform="translate(-36.04 -7.79)"/></g></g></g></g></g></g></svg>