<svg xmlns="http://www.w3.org/2000/svg" viewBox="0 0 64.5 70.72"><defs><style>.cls-1,.cls-2,.cls-4{fill:#f4ea9e;}.cls-1,.cls-10,.cls-11,.cls-12,.cls-13,.cls-2,.cls-3,.cls-4,.cls-5,.cls-6,.cls-7,.cls-8,.cls-9{stroke:#231815;stroke-miterlimit:10;}.cls-1{stroke-width:0.41px;}.cls-2{stroke-width:0.42px;}.cls-3{fill:#89c785;stroke-width:0.83px;}.cls-4{stroke-width:1.01px;}.cls-11,.cls-12,.cls-5,.cls-6{fill:#231815;}.cls-5{stroke-width:0.77px;}.cls-6{stroke-width:0.77px;}.cls-7,.cls-8{fill:#d85d2d;}.cls-7{stroke-width:0.24px;}.cls-8{stroke-width:0.2px;}.cls-10,.cls-9{fill:none;}.cls-9{stroke-width:0.92px;}.cls-10{stroke-width:1.03px;}.cls-11{stroke-width:0.96px;}.cls-12{stroke-width:0.99px;}.cls-13{fill:#edbe48;stroke-width:0.57px;}.cls-14{fill:#040000;}.cls-15{fill:#50524f;}</style></defs><g id="图层_2" data-name="图层 2"><g id="图层_1-2" data-name="图层 1"><path class="cls-1" d="M22.22,9.77s-4.65-5.58-7.5-8.67C12.08-1.77,8.39,2.66,8.93,8.85a15.82,15.82,0,0,0,3.29,8.06"/><path class="cls-2" d="M40,9.91s5.24-5.12,8-8.35c2.44-2.83,6.08,1.72,5.38,7.82-.45,4-3,6.24-4,7.33"/><path class="cls-3" d="M63.28,45.23c4.8,18.35-12.53,25.08-32,25.08s-34.65-5.4-30-25.08C5.48,27.42,10.72,9,31.25,8.71,50.74,8.4,59.33,30.18,63.28,45.23Z"/><rect class="cls-4" x="7.41" y="44.68" width="47.79" height="24.37" rx="12.07"/><rect class="cls-5" x="22.05" y="47.65" width="3.42" height="3.42" rx="1.31" transform="translate(-25.6 73.12) rotate(-90)"/><rect class="cls-6" x="37.3" y="47.65" width="3.42" height="3.42" rx="1.31" transform="translate(-10.35 88.36) rotate(-90)"/><path class="cls-7" d="M20.1,10.62a43.81,43.81,0,0,1-4.41-5.11c-1.57-2.38-3.73.92-3.41,4.56a9.32,9.32,0,0,0,1.94,4.75"/><path class="cls-8" d="M43.4,11.35a41,41,0,0,0,3.89-4c1.71-2.24,3.15.83,2.78,3.77a7.42,7.42,0,0,1-1.77,3.81"/><path class="cls-9" d="M29.18,64.26s3.35,1.47,8.89-.06c6-1.65,7.34-4.43,7.34-4.43"/><path class="cls-10" d="M28.3,32.68C28.3,37.83,24.14,38,19,38s-9.31-.17-9.31-5.32S13.85,22.37,19,22.37,28.3,27.54,28.3,32.68Z"/><path class="cls-10" d="M52.82,32.76c0,5.15-4.17,5.31-9.31,5.31s-9.31-.16-9.31-5.31,4.17-10.31,9.31-10.31S52.82,27.62,52.82,32.76Z"/><ellipse class="cls-11" cx="18.99" cy="32.15" rx="4.2" ry="5.13"/><ellipse class="cls-12" cx="43.72" cy="32.15" rx="4.38" ry="5.31"/><rect class="cls-13" x="23.98" y="0.69" width="13.31" height="22" rx="5.81"/><path class="cls-14" d="M30.64,30.27H52.73c.15,0,.2,0,.19.18v3.23c0,.12,0,.16-.15.16H51.26c-.1,0-.13,0-.13.12,0,.52,0,1,0,1.55,0,.1,0,.12-.12.12H49.47c-.1,0-.12,0-.12.13,0,.51,0,1,0,1.52,0,.12,0,.14-.14.14H47.71c-.12,0-.14,0-.14.15,0,.5,0,1,0,1.51,0,.11,0,.13-.15.13H37c-.12,0-.14,0-.14-.14,0-.49,0-1,0-1.48,0-.15,0-.17-.17-.17H35.27c-.13,0-.18,0-.18-.17,0-.49,0-1,0-1.45,0-.13,0-.17-.16-.17H33.47c-.12,0-.16,0-.16-.16V32.2c0-.12,0-.15-.14-.15-1.09,0-2.19,0-3.28,0-.11,0-.15,0-.15.14,0,1.1,0,2.19,0,3.28,0,.12,0,.15-.15.15H28.09c-.1,0-.13,0-.13.13,0,.51,0,1,0,1.53,0,.1,0,.13-.13.13H26.31c-.11,0-.13,0-.13.13v1.52c0,.11,0,.13-.13.13H13.83c-.11,0-.13,0-.13-.13,0-.51,0-1,0-1.53,0-.1,0-.13-.14-.12H12.06c-.12,0-.14,0-.14-.15V35.76c0-.13,0-.15-.15-.15H10.29c-.13,0-.16,0-.15-.17,0-.47,0-1,0-1.43,0-.14,0-.19-.18-.19H8.48c-.09,0-.13,0-.13-.12q0-1.66,0-3.33c0-.09,0-.14.12-.12a.34.34,0,0,0,.1,0Z"/><path class="cls-15" d="M13.7,33.83H12.08c-.12,0-.16,0-.16-.16,0-.49,0-1,0-1.48,0-.12,0-.15.15-.15.49,0,1,0,1.48,0,.13,0,.16,0,.16.16,0,.54,0,1.08,0,1.63Z"/><path class="cls-15" d="M15.49,33.84c0-.54,0-1.08,0-1.62,0-.12,0-.17.16-.17.49,0,1,0,1.48,0,.13,0,.15.05.15.17v1.62l0,0a.36.36,0,0,1-.15,0H15.66a.39.39,0,0,1-.15,0Z"/><path class="cls-15" d="M36.88,33.83H35.26c-.12,0-.17,0-.17-.16,0-.49,0-1,0-1.48,0-.12,0-.15.15-.15.5,0,1,0,1.48,0,.14,0,.16,0,.16.16,0,.54,0,1.09,0,1.63Z"/><path class="cls-15" d="M38.66,33.84V32.22c0-.12,0-.17.15-.17.49,0,1,0,1.48,0,.13,0,.16.05.15.17v1.62l0,0a.41.41,0,0,1-.16,0H38.84a.41.41,0,0,1-.16,0Z"/><path class="cls-15" d="M15.49,35.62H13.85c-.12,0-.15,0-.15-.15,0-.55,0-1.09,0-1.64h1.78a.22.22,0,0,1,.06.17v1.45a.32.32,0,0,1,0,.14Z"/><path class="cls-15" d="M19.05,35.62H17.27l0,0a.41.41,0,0,1,0-.22V34.08a.36.36,0,0,1,.05-.25H18.9c.12,0,.16,0,.15.15v1.64Z"/><path class="cls-15" d="M36.88,33.84h1.78a.26.26,0,0,1,.05.17v1.45a.32.32,0,0,1,0,.14l0,0H37c-.12,0-.16,0-.16-.15,0-.55,0-1.09,0-1.64Z"/><path class="cls-15" d="M42.23,35.62H40.44l0,0a.41.41,0,0,1,0-.22V34.08a.36.36,0,0,1,0-.25h1.64c.11,0,.15,0,.15.15,0,.55,0,1.09,0,1.64Z"/><path class="cls-15" d="M17.27,35.62v1.62c0,.11,0,.16-.15.16H15.64c-.14,0-.16,0-.16-.16,0-.54,0-1.08,0-1.62h0a.35.35,0,0,1,.22-.06h1.36c.07,0,.15,0,.21.06Z"/><path class="cls-15" d="M19.05,35.62h1.62c.12,0,.17,0,.17.16,0,.49,0,1,0,1.48,0,.12,0,.15-.16.15H19.2c-.13,0-.15,0-.15-.16V35.62Z"/><path class="cls-15" d="M40.44,35.62v1.62c0,.11,0,.16-.15.16H38.81c-.13,0-.15,0-.15-.16V35.62h0c.06-.06.13,0,.21-.06h1.36c.08,0,.15,0,.21.06Z"/><path class="cls-15" d="M42.22,35.62h1.63c.12,0,.16,0,.16.16,0,.49,0,1,0,1.48,0,.12,0,.15-.15.15H42.38c-.13,0-.16,0-.16-.16,0-.54,0-1.08,0-1.62Z"/><circle class="cls-14" cx="16.38" cy="34.73" r="1.26" transform="translate(-18.37 51.06) rotate(-89.94)"/><circle class="cls-14" cx="39.55" cy="34.73" r="1.26" transform="translate(-0.04 0.04) rotate(-0.06)"/></g></g></svg>