<svg xmlns="http://www.w3.org/2000/svg" viewBox="0 0 64.5 71.28"><defs><style>.cls-1,.cls-3{fill:#f1e3bd;}.cls-1,.cls-10,.cls-11,.cls-12,.cls-2,.cls-3,.cls-4,.cls-5,.cls-6,.cls-7,.cls-8,.cls-9{stroke:#231815;stroke-miterlimit:10;}.cls-1{stroke-width:0.41px;}.cls-2{fill:#d85d2d;stroke-width:0.24px;}.cls-3{stroke-width:0.42px;}.cls-4{fill:#fff;stroke-width:0.83px;}.cls-5{fill:#e2dfd1;stroke-width:1.01px;}.cls-10,.cls-11,.cls-6,.cls-7{fill:#231815;}.cls-6{stroke-width:0.77px;}.cls-7{stroke-width:0.77px;}.cls-8,.cls-9{fill:none;}.cls-8{stroke-width:0.92px;}.cls-9{stroke-width:1.03px;}.cls-10{stroke-width:0.96px;}.cls-11{stroke-width:0.99px;}.cls-12{fill:#7e3c33;stroke-width:0.58px;}.cls-13{fill:#040000;}.cls-14{fill:#50524f;}</style></defs><g id="图层_2" data-name="图层 2"><g id="图层_1-2" data-name="图层 1"><path class="cls-1" d="M22.22,10.33s-4.65-5.58-7.5-8.67C12.08-1.21,8.39,3.22,8.93,9.41a15.82,15.82,0,0,0,3.29,8.06"/><path class="cls-2" d="M20.1,11.18a43.81,43.81,0,0,1-4.41-5.11C14.12,3.69,12,7,12.28,10.63a9.27,9.27,0,0,0,1.94,4.75"/><path class="cls-3" d="M40,10.47s5.24-5.12,8-8.35c2.44-2.83,6.08,1.72,5.38,7.82-.45,4-3,6.24-4,7.33"/><path class="cls-2" d="M43.4,11.91a41,41,0,0,0,3.89-4c1.71-2.24,3.15.83,2.78,3.77a7.42,7.42,0,0,1-1.77,3.81"/><path class="cls-4" d="M63.28,45.79c4.8,18.35-12.53,25.08-32,25.08s-34.65-5.4-30-25.08C5.48,28,10.72,9.59,31.25,9.27,50.74,9,59.33,30.74,63.28,45.79Z"/><rect class="cls-5" x="7.41" y="45.24" width="47.79" height="24.37" rx="12.07"/><rect class="cls-6" x="22.05" y="48.21" width="3.42" height="3.42" rx="1.31" transform="translate(-26.16 73.68) rotate(-90)"/><rect class="cls-7" x="37.3" y="48.21" width="3.42" height="3.42" rx="1.31" transform="translate(-10.91 88.92) rotate(-90)"/><path class="cls-8" d="M29.18,64.82s3.35,1.47,8.89-.06c6-1.65,7.34-4.43,7.34-4.43"/><path class="cls-9" d="M28.3,33.24c0,5.15-4.16,5.32-9.31,5.32s-9.31-.17-9.31-5.32S13.85,22.93,19,22.93,28.3,28.1,28.3,33.24Z"/><path class="cls-9" d="M52.82,33.32c0,5.15-4.17,5.31-9.31,5.31s-9.31-.16-9.31-5.31S38.37,23,43.51,23,52.82,28.18,52.82,33.32Z"/><ellipse class="cls-10" cx="18.99" cy="32.71" rx="4.2" ry="5.13"/><ellipse class="cls-11" cx="43.72" cy="32.71" rx="4.38" ry="5.31"/><rect class="cls-12" x="23.98" y="0.29" width="13.31" height="23.2" rx="5.97"/><path class="cls-13" d="M30.64,30.83H52.73c.15,0,.2,0,.19.18v3.23c0,.12,0,.16-.15.16H51.26c-.1,0-.13,0-.13.12,0,.52,0,1,0,1.55,0,.09,0,.12-.12.12H49.47c-.1,0-.12,0-.12.13,0,.5,0,1,0,1.52,0,.12,0,.14-.14.14H47.71c-.12,0-.14,0-.14.14,0,.51,0,1,0,1.51,0,.12,0,.14-.15.14H37c-.12,0-.14,0-.14-.14,0-.49,0-1,0-1.48,0-.15,0-.17-.17-.17H35.27c-.13,0-.18,0-.18-.17,0-.49,0-1,0-1.45,0-.13,0-.17-.16-.17H33.47c-.12,0-.16,0-.16-.16V32.76c0-.12,0-.15-.14-.15H29.89c-.11,0-.15,0-.15.14,0,1.1,0,2.19,0,3.28,0,.12,0,.15-.15.15H28.09c-.1,0-.13,0-.13.13,0,.51,0,1,0,1.53,0,.1,0,.13-.13.13H26.31c-.11,0-.13,0-.13.13v1.53c0,.11,0,.13-.13.13H13.83c-.11,0-.13,0-.13-.13,0-.51,0-1,0-1.53,0-.11,0-.13-.14-.13H12.06c-.12,0-.14,0-.14-.15V36.32c0-.13,0-.15-.15-.15H10.29c-.13,0-.16,0-.15-.17,0-.48,0-.95,0-1.43,0-.15,0-.2-.18-.19H8.48c-.09,0-.13,0-.13-.12q0-1.66,0-3.33c0-.09,0-.14.12-.12H30.64Z"/><path class="cls-14" d="M13.7,34.39H12.08c-.12,0-.16,0-.16-.16,0-.49,0-1,0-1.48,0-.12,0-.15.15-.15h1.48c.13,0,.16,0,.16.16,0,.54,0,1.08,0,1.62Z"/><path class="cls-14" d="M15.49,34.39c0-.54,0-1.08,0-1.62,0-.11,0-.16.16-.16h1.48c.13,0,.15,0,.15.16v1.62l0,0a.25.25,0,0,1-.15,0H15.66a.27.27,0,0,1-.15,0Z"/><path class="cls-14" d="M36.88,34.39H35.26c-.12,0-.17,0-.17-.16,0-.49,0-1,0-1.48,0-.12,0-.15.15-.15h1.48c.14,0,.16,0,.16.16,0,.54,0,1.08,0,1.62Z"/><path class="cls-14" d="M38.66,34.39V32.77c0-.11,0-.16.15-.16h1.48c.13,0,.16,0,.15.16v1.62l0,0a.29.29,0,0,1-.16,0H38.84a.29.29,0,0,1-.16,0Z"/><path class="cls-14" d="M15.49,36.17H13.85c-.12,0-.15,0-.15-.15,0-.55,0-1.09,0-1.64h1.78a.22.22,0,0,1,.06.16V36a.32.32,0,0,1,0,.14Z"/><path class="cls-14" d="M19.05,36.17H17.27l0,0a.41.41,0,0,1,0-.22v-1.3a.34.34,0,0,1,.05-.24H18.9c.12,0,.16,0,.15.15v1.64Z"/><path class="cls-14" d="M36.88,34.39h1.78a.25.25,0,0,1,.05.16V36a.32.32,0,0,1,0,.14l0,0H37c-.12,0-.16,0-.16-.15,0-.55,0-1.09,0-1.64Z"/><path class="cls-14" d="M42.23,36.17H40.44l0,0a.41.41,0,0,1,0-.22v-1.3a.34.34,0,0,1,0-.24h1.64c.11,0,.15,0,.15.15,0,.55,0,1.09,0,1.64Z"/><path class="cls-14" d="M17.27,36.17v1.62c0,.12,0,.17-.15.17H15.64c-.14,0-.16-.05-.16-.17,0-.54,0-1.08,0-1.62h0a.3.3,0,0,1,.22-.06h1.36a.27.27,0,0,1,.21.06Z"/><path class="cls-14" d="M19.05,36.18h1.62c.12,0,.17,0,.17.16,0,.49,0,1,0,1.48,0,.12,0,.15-.16.15H19.2c-.13,0-.15-.05-.15-.16V36.17Z"/><path class="cls-14" d="M40.44,36.17v1.62c0,.12,0,.17-.15.17H38.81c-.13,0-.15-.05-.15-.17V36.17h0a.26.26,0,0,1,.21-.06h1.36a.26.26,0,0,1,.21.06Z"/><path class="cls-14" d="M42.22,36.18h1.63c.12,0,.16,0,.16.16,0,.49,0,1,0,1.48,0,.12,0,.15-.15.15H42.38c-.13,0-.16-.05-.16-.16,0-.54,0-1.09,0-1.63Z"/><circle class="cls-13" cx="16.38" cy="35.28" r="1.26" transform="translate(-18.93 51.62) rotate(-89.94)"/><circle class="cls-13" cx="39.55" cy="35.28" r="1.26" transform="translate(-0.04 0.04) rotate(-0.06)"/></g></g></svg>