<svg xmlns="http://www.w3.org/2000/svg" viewBox="0 0 80.04 106.81"><defs><style>.cls-1,.cls-10,.cls-11,.cls-15,.cls-17,.cls-3,.cls-7,.cls-8{fill:#231815;}.cls-1,.cls-10,.cls-11,.cls-12,.cls-13,.cls-14,.cls-15,.cls-16,.cls-17,.cls-2,.cls-3,.cls-4,.cls-5,.cls-6,.cls-7,.cls-8,.cls-9{stroke:#231815;}.cls-1,.cls-10,.cls-11,.cls-12,.cls-13,.cls-14,.cls-16,.cls-17,.cls-2,.cls-4,.cls-5,.cls-6,.cls-7,.cls-8,.cls-9{stroke-miterlimit:10;}.cls-1{stroke-width:0.48px;}.cls-13,.cls-2,.cls-4{fill:#2baa71;}.cls-13,.cls-15,.cls-16,.cls-2,.cls-3{stroke-linecap:round;}.cls-14,.cls-2{stroke-width:1.25px;}.cls-15,.cls-3{stroke-linejoin:round;}.cls-3{stroke-width:0.1px;}.cls-16,.cls-5{fill:#f3cd41;}.cls-6{fill:none;}.cls-7{stroke-width:0.79px;}.cls-8{stroke-width:1.83px;}.cls-12,.cls-14,.cls-9{fill:#fff;}.cls-9{stroke-width:1.18px;}.cls-10{stroke-width:1.36px;}.cls-11{stroke-width:1.27px;}.cls-15{stroke-width:0.09px;}.cls-17{stroke-width:0.39px;}</style></defs><g id="图层_2" data-name="图层 2"><g id="图层_1-2" data-name="图层 1"><ellipse class="cls-1" cx="33.53" cy="93.96" rx="33.29" ry="12.61"/><path class="cls-2" d="M44.88,70.64C45,70.8,47.7,80.15,49,84.7L38.28,87.14c-1.2-4-3.18-14-3.18-14"/><ellipse class="cls-3" cx="37.83" cy="70.94" rx="6.51" ry="2.82"/><path class="cls-4" d="M10.46,45.59v2.82A23.32,23.32,0,0,0,33.72,71.66h2.76A23.32,23.32,0,0,0,59.74,48.41V45.59Z"/><rect class="cls-5" x="50.72" y="23.88" width="27.04" height="21.71" rx="9.15"/><line class="cls-6" x1="10.46" y1="45.59" x2="61.31" y2="45.59"/><circle class="cls-7" cx="71.09" cy="30.52" r="1.58"/><ellipse class="cls-8" cx="34.95" cy="7.52" rx="11.41" ry="6.6"/><circle class="cls-7" cx="65.24" cy="30.52" r="1.58"/><path class="cls-5" d="M59.52,24.4C57.94,14,48.18,6,36.48,6H33.72C20.92,6,10.46,15.6,10.46,27.36V45.59H59.74"/><line class="cls-6" x1="62.97" y1="39.47" x2="77.26" y2="39.34"/><line class="cls-6" x1="27.22" y1="17.07" x2="35.1" y2="17"/><line class="cls-6" x1="43.64" y1="16.92" x2="51.64" y2="16.85"/><ellipse class="cls-9" cx="31.61" cy="26.21" rx="5.48" ry="6.26"/><circle class="cls-10" cx="33.23" cy="27.62" r="2.35"/><ellipse class="cls-9" cx="47.8" cy="25.85" rx="5.48" ry="6.26"/><circle class="cls-10" cx="49.42" cy="27.22" r="2.35"/><ellipse class="cls-11" cx="39.16" cy="7.05" rx="7.2" ry="5.06"/><polygon class="cls-12" points="29.05 45.59 47.76 45.59 42.63 49.28 10.8 45.59 29.05 45.59"/><polygon class="cls-12" points="48.74 45.59 53.28 49.13 59.74 45.59 48.74 45.59"/><path class="cls-4" d="M65.73,54.46s.07-.6-2.07-2.44a4,4,0,0,0-4.07-1l.15-3.31a12.48,12.48,0,0,1,5.5.15c2.53.8,5.36,4.15,5.36,4.15"/><polygon class="cls-12" points="79.46 56.45 63.54 61.5 63.45 55.46 77.95 49.11 79.46 56.45"/><path class="cls-13" d="M39,60.41s4.56,7.36,9.55,7.88c3.74.39,12.62-1.18,16.15-3.47a11.61,11.61,0,0,0,2.24-1.89l-3.34-3a10.32,10.32,0,0,1-1.47.82,35,35,0,0,1-12.29,2.41c-3.51-.17-6.64-5.6-6.64-5.6"/><path class="cls-14" d="M49,84.7,49.67,87a2,2,0,0,0,.45,1.36c.53.65,3.2-.95,5.21.53s4,2,2.63,6.6-13.3,4.65-15.23,2.18-1.44-1.15-2.54-4.39c-.43-1.24-1.16-3.63-1.91-6.1"/><path class="cls-14" d="M22,85.43,18.62,74.77c-3.6,1.06-7.18,2-7.18,2s-.82-.16-1.91,1.7S7.88,86.13,8.1,88.37s2.47,6.9,4.65,7.06,4.05-.71,4.71-3a31.8,31.8,0,0,0,.77-6.19S19.87,85.93,22,85.43Z"/><path class="cls-2" d="M35.9,65.93c1.92,2.63,1.87,7.94,1.1,10.78S32.46,82.3,31.36,83c-.69.42-5.73,1.64-9.37,2.48L18.62,74.77c3.63-1.07,7.28-2.21,7.35-2.49a1.17,1.17,0,0,0-.19-1l-1.61-7.59"/><line class="cls-14" x1="38.17" y1="87.14" x2="48.9" y2="84.7"/><path class="cls-5" d="M66.89,62.93l-3.34-3a5.16,5.16,0,0,0,1-.82s1.36-1.35,2.73-1,1.43,1.11,1.48,1.66A6.56,6.56,0,0,1,66.89,62.93Z"/><polygon class="cls-15" points="23.76 63.3 20.39 67.44 24.85 69.9 23.76 63.3"/><path class="cls-16" d="M14.22,20.9a5.58,5.58,0,0,0,0,11.15"/><path class="cls-17" d="M14.22,24.32a2.15,2.15,0,1,0,0,4.3"/></g></g></svg>