<?xml version="1.0" encoding="utf-8"?>
<svg version="1.1" xmlns:xlink="http://www.w3.org/1999/xlink" width="119px" height="119px" xmlns="http://www.w3.org/2000/svg">
  <g transform="matrix(1 0 0 1 -900 -898 )">
    <path d="M 14.875 47  C 17.35416662792969 38.675000000000004  21.32083337207031 32.22916662792969  26.775000000000002 26.775000000000006  C 35.20416662792969 18.345833372070317  46.60833337207031 13.387500000000003  59.5 13.387500000000003  C 73.38333337207031 13.387500000000003  86.77083337207031 19.833333372070317  95.2 30.24583337207031  L 79.33333337207031 47  L 119 47  L 119 6.445833372070319  L 104.62083337207031 20.825000000000006  C 93.71249999999999 7.933333372070315  77.35000000000001 0  59.5 0  C 43.137499999999996 0  28.2625 6.445833372070316  17.35416662792969 17.354166627929693  C 9.420833372070312 25.2875  3.9666666279296874 35.20416662792969  1.4875 47  L 14.875 47  Z M 103.62916662792968 72  C 101.64583325585936 80.32499999999999  97.67916662792967 86.77083337207031  92.22500000000001 92.22500000000001  C 83.79583337207032 100.65416662792968  72.3916666279297 105.61250000000001  59.5 105.61250000000001  C 45.61666662792968 105.61250000000001  32.22916662792969 99.16666662792969  23.8 88.7541666279297  L 39.666666627929686 72  L 0 72  L 0 112.5541666279297  L 14.379166627929688 98.17500000000001  C 25.287499999999998 111.06666662792969  41.65 119  59.5 119  C 75.8625 119  90.7375 112.5541666279297  101.64583337207031 101.64583337207031  C 109.57916674414062 93.71249999999999  115.0333333720703 83.7958333720703  117.51249999999997 72  L 103.62916662792968 72  Z " fill-rule="nonzero" fill="#ffffff" stroke="none" transform="matrix(1 0 0 1 900 898 )" />
  </g>
</svg>