<?xml version="1.0" encoding="utf-8"?>
<svg version="1.1" xmlns:xlink="http://www.w3.org/1999/xlink" width="42px" height="67px" xmlns="http://www.w3.org/2000/svg">
  <g transform="matrix(1 0 0 1 -579 5 )">
    <path d="M 41.708333333333336 33.67478260869566  C 41.766666666666666 35.24782608695652  41.06666666666667 36.704347826086966  39.900000000000006 37.81130434782609  L 10.908333333333335 65.07739130434783  C 9.100000000000005 66.76695652173913  6.475000000000005 67.23304347826088  4.141666666666672 66.35913043478261  C 1.8083333333333382 65.42695652173913  0.29166666666666663 63.32956521739129  1 60.94086956521738  L 1 6.408695652173913  C 0.29166666666666663 4.02  1.8083333333333382 1.9226086956521764  4.141666666666672 0.9904347826086973  C 4.900000000000004 0.6991304347826104  5.716666666666673 0.5243478260869598  6.533333333333343 0.5243478260869598  C 8.166666666666675 0.5243478260869598  9.741666666666676 1.106956521739134  10.908333333333335 2.2721739130434817  L 39.900000000000006 29.538260869565228  C 41.06666666666667 30.645217391304353  41.708333333333336 32.160000000000004  41.708333333333336 33.67478260869566  Z " fill-rule="nonzero" fill="#f2f2f2" stroke="none" transform="matrix(1 0 0 1 579 -5 )" />
  </g>
</svg>